<?xml version="1.0" encoding="utf-8" ?>
<!DOCTYPE svg PUBLIC "-//W3C//DTD SVG 1.1//EN" "http://www.w3.org/Graphics/SVG/1.1/DTD/svg11.dtd">
<svg height="260" version="1.1" width="610" xmlns="http://www.w3.org/2000/svg">
<line fill="#000000" stroke="#000000" stroke-width="1" x1="289" x2="289" y1="63" y2="68"/>
<line fill="#000000" stroke="#000000" stroke-width="1" x1="289" x2="289" y1="73" y2="78"/>
<line fill="#000000" stroke="#000000" stroke-width="1" x1="289" x2="289" y1="83" y2="88"/>
<line fill="#000000" stroke="#000000" stroke-width="1" x1="289" x2="289" y1="93" y2="98"/>
<line fill="#000000" stroke="#000000" stroke-width="1" x1="289" x2="289" y1="103" y2="108"/>
<line fill="#000000" stroke="#000000" stroke-width="1" x1="289" x2="289" y1="113" y2="118"/>
<line fill="#000000" stroke="#000000" stroke-width="1" x1="289" x2="289" y1="123" y2="128"/>
<line fill="#000000" stroke="#000000" stroke-width="1" x1="289" x2="289" y1="133" y2="138"/>
<line fill="#000000" stroke="#000000" stroke-width="1" x1="289" x2="289" y1="143" y2="148"/>
<line fill="#000000" stroke="#000000" stroke-width="1" x1="289" x2="289" y1="153" y2="158"/>
<line fill="#000000" stroke="#000000" stroke-width="1" x1="289" x2="289" y1="163" y2="168"/>
<line fill="#000000" stroke="#000000" stroke-width="1" x1="289" x2="289" y1="173" y2="178"/>
<line fill="#000000" stroke="#000000" stroke-width="1" x1="289" x2="289" y1="183" y2="188"/>
<line fill="#000000" stroke="#000000" stroke-width="1" x1="289" x2="289" y1="193" y2="198"/>
<line fill="#000000" stroke="#000000" stroke-width="1" x1="289" x2="289" y1="203" y2="208"/>
<line fill="#000000" stroke="#000000" stroke-width="1" x1="289" x2="289" y1="213" y2="218"/>
<line fill="#000000" stroke="#000000" stroke-width="1" x1="289" x2="289" y1="223" y2="228"/>
<line fill="#000000" stroke="#000000" stroke-width="1" x1="289" x2="289" y1="233" y2="238"/>
<line fill="#000000" stroke="#000000" stroke-width="1" x1="289" x2="289" y1="243" y2="245"/>
<rect fill="#ffffff" height="128" stroke="#ffffff" stroke-width="1" width="20" x="279" y="98"/>
<rect fill="none" height="128" stroke="#000000" stroke-width="1" width="20" x="279" y="98"/>
<rect fill="#ffffff" height="50" stroke="#ffffff" stroke-width="1" width="150" x="214" y="14"/>
<rect fill="none" height="50" stroke="#000000" stroke-width="1" width="150" x="214" y="14"/>
<text font-family="Dialog" font-size="13" x="262" y="28">
:DBTime</text>
<line fill="#000000" stroke="#000000" stroke-width="1" x1="521" x2="521" y1="63" y2="68"/>
<line fill="#000000" stroke="#000000" stroke-width="1" x1="521" x2="521" y1="73" y2="78"/>
<line fill="#000000" stroke="#000000" stroke-width="1" x1="521" x2="521" y1="83" y2="88"/>
<line fill="#000000" stroke="#000000" stroke-width="1" x1="521" x2="521" y1="93" y2="98"/>
<line fill="#000000" stroke="#000000" stroke-width="1" x1="521" x2="521" y1="103" y2="108"/>
<line fill="#000000" stroke="#000000" stroke-width="1" x1="521" x2="521" y1="113" y2="118"/>
<line fill="#000000" stroke="#000000" stroke-width="1" x1="521" x2="521" y1="123" y2="128"/>
<line fill="#000000" stroke="#000000" stroke-width="1" x1="521" x2="521" y1="133" y2="138"/>
<line fill="#000000" stroke="#000000" stroke-width="1" x1="521" x2="521" y1="143" y2="148"/>
<line fill="#000000" stroke="#000000" stroke-width="1" x1="521" x2="521" y1="153" y2="158"/>
<line fill="#000000" stroke="#000000" stroke-width="1" x1="521" x2="521" y1="163" y2="168"/>
<line fill="#000000" stroke="#000000" stroke-width="1" x1="521" x2="521" y1="173" y2="178"/>
<line fill="#000000" stroke="#000000" stroke-width="1" x1="521" x2="521" y1="183" y2="188"/>
<line fill="#000000" stroke="#000000" stroke-width="1" x1="521" x2="521" y1="193" y2="198"/>
<line fill="#000000" stroke="#000000" stroke-width="1" x1="521" x2="521" y1="203" y2="208"/>
<line fill="#000000" stroke="#000000" stroke-width="1" x1="521" x2="521" y1="213" y2="218"/>
<line fill="#000000" stroke="#000000" stroke-width="1" x1="521" x2="521" y1="223" y2="228"/>
<line fill="#000000" stroke="#000000" stroke-width="1" x1="521" x2="521" y1="233" y2="238"/>
<line fill="#000000" stroke="#000000" stroke-width="1" x1="521" x2="521" y1="243" y2="245"/>
<rect fill="#ffffff" height="31" stroke="#ffffff" stroke-width="1" width="20" x="511" y="162"/>
<rect fill="none" height="31" stroke="#000000" stroke-width="1" width="20" x="511" y="162"/>
<rect fill="#ffffff" height="50" stroke="#ffffff" stroke-width="1" width="150" x="446" y="14"/>
<rect fill="none" height="50" stroke="#000000" stroke-width="1" width="150" x="446" y="14"/>
<text font-family="Dialog" font-size="13" x="489" y="28">
:DB</text>
<line fill="#000000" stroke="#000000" stroke-width="1" x1="90" x2="90" y1="63" y2="68"/>
<line fill="#000000" stroke="#000000" stroke-width="1" x1="90" x2="90" y1="73" y2="78"/>
<line fill="#000000" stroke="#000000" stroke-width="1" x1="90" x2="90" y1="83" y2="88"/>
<line fill="#000000" stroke="#000000" stroke-width="1" x1="90" x2="90" y1="93" y2="98"/>
<line fill="#000000" stroke="#000000" stroke-width="1" x1="90" x2="90" y1="103" y2="108"/>
<line fill="#000000" stroke="#000000" stroke-width="1" x1="90" x2="90" y1="113" y2="118"/>
<line fill="#000000" stroke="#000000" stroke-width="1" x1="90" x2="90" y1="123" y2="128"/>
<line fill="#000000" stroke="#000000" stroke-width="1" x1="90" x2="90" y1="133" y2="138"/>
<line fill="#000000" stroke="#000000" stroke-width="1" x1="90" x2="90" y1="143" y2="148"/>
<line fill="#000000" stroke="#000000" stroke-width="1" x1="90" x2="90" y1="153" y2="158"/>
<line fill="#000000" stroke="#000000" stroke-width="1" x1="90" x2="90" y1="163" y2="168"/>
<line fill="#000000" stroke="#000000" stroke-width="1" x1="90" x2="90" y1="173" y2="178"/>
<line fill="#000000" stroke="#000000" stroke-width="1" x1="90" x2="90" y1="183" y2="188"/>
<line fill="#000000" stroke="#000000" stroke-width="1" x1="90" x2="90" y1="193" y2="198"/>
<line fill="#000000" stroke="#000000" stroke-width="1" x1="90" x2="90" y1="203" y2="208"/>
<line fill="#000000" stroke="#000000" stroke-width="1" x1="90" x2="90" y1="213" y2="218"/>
<line fill="#000000" stroke="#000000" stroke-width="1" x1="90" x2="90" y1="223" y2="228"/>
<line fill="#000000" stroke="#000000" stroke-width="1" x1="90" x2="90" y1="233" y2="238"/>
<line fill="#000000" stroke="#000000" stroke-width="1" x1="90" x2="90" y1="243" y2="245"/>
<rect fill="#ffffff" height="182" stroke="#ffffff" stroke-width="1" width="20" x="80" y="63"/>
<rect fill="none" height="182" stroke="#000000" stroke-width="1" width="20" x="80" y="63"/>
<rect fill="#ffffff" height="50" stroke="#ffffff" stroke-width="1" width="152" x="14" y="14"/>
<rect fill="none" height="50" stroke="#000000" stroke-width="1" width="152" x="14" y="14"/>
<text font-family="Dialog" font-size="13" x="61" y="28">
:UIStrate</text>
<polyline fill="none" points="100,98 279,98" stroke="#000000" stroke-width="1"/>
<polygon fill="#000000" points="279,98 267,105 267,91" stroke="#000000" stroke-width="1"/>
<polygon fill="none" points="279,98 267,105 267,91" stroke="#000000" stroke-width="1"/>
<text font-family="Dialog" font-size="13" x="112" y="92">
getFreeSlotsAfter (admin, time)</text>
<line fill="#000000" stroke="#000000" stroke-width="1" x1="279" x2="274" y1="226" y2="226"/>
<line fill="#000000" stroke="#000000" stroke-width="1" x1="269" x2="264" y1="226" y2="226"/>
<line fill="#000000" stroke="#000000" stroke-width="1" x1="259" x2="254" y1="226" y2="226"/>
<line fill="#000000" stroke="#000000" stroke-width="1" x1="249" x2="244" y1="226" y2="226"/>
<line fill="#000000" stroke="#000000" stroke-width="1" x1="239" x2="234" y1="226" y2="226"/>
<line fill="#000000" stroke="#000000" stroke-width="1" x1="229" x2="224" y1="226" y2="226"/>
<line fill="#000000" stroke="#000000" stroke-width="1" x1="219" x2="214" y1="226" y2="226"/>
<line fill="#000000" stroke="#000000" stroke-width="1" x1="209" x2="204" y1="226" y2="226"/>
<line fill="#000000" stroke="#000000" stroke-width="1" x1="199" x2="194" y1="226" y2="226"/>
<line fill="#000000" stroke="#000000" stroke-width="1" x1="189" x2="184" y1="226" y2="226"/>
<line fill="#000000" stroke="#000000" stroke-width="1" x1="179" x2="174" y1="226" y2="226"/>
<line fill="#000000" stroke="#000000" stroke-width="1" x1="169" x2="164" y1="226" y2="226"/>
<line fill="#000000" stroke="#000000" stroke-width="1" x1="159" x2="154" y1="226" y2="226"/>
<line fill="#000000" stroke="#000000" stroke-width="1" x1="149" x2="144" y1="226" y2="226"/>
<line fill="#000000" stroke="#000000" stroke-width="1" x1="139" x2="134" y1="226" y2="226"/>
<line fill="#000000" stroke="#000000" stroke-width="1" x1="129" x2="124" y1="226" y2="226"/>
<line fill="#000000" stroke="#000000" stroke-width="1" x1="119" x2="114" y1="226" y2="226"/>
<line fill="#000000" stroke="#000000" stroke-width="1" x1="109" x2="104" y1="226" y2="226"/>
<line fill="#000000" stroke="#000000" stroke-width="1" x1="112" x2="100" y1="219" y2="226"/>
<line fill="#000000" stroke="#000000" stroke-width="1" x1="112" x2="100" y1="233" y2="226"/>
<text font-family="Dialog" font-size="13" x="146" y="219">
all-occ</text>
<line fill="#000000" stroke="#000000" stroke-width="1" x1="299" x2="317" y1="126" y2="126"/>
<line fill="#000000" stroke="#000000" stroke-width="1" x1="317" x2="334" y1="126" y2="127"/>
<line fill="#000000" stroke="#000000" stroke-width="1" x1="334" x2="348" y1="127" y2="128"/>
<line fill="#000000" stroke="#000000" stroke-width="1" x1="348" x2="359" y1="128" y2="130"/>
<line fill="#000000" stroke="#000000" stroke-width="1" x1="359" x2="367" y1="130" y2="132"/>
<line fill="#000000" stroke="#000000" stroke-width="1" x1="367" x2="372" y1="132" y2="134"/>
<line fill="#000000" stroke="#000000" stroke-width="1" x1="372" x2="373" y1="134" y2="135"/>
<line fill="#000000" stroke="#000000" stroke-width="1" x1="373" x2="372" y1="135" y2="137"/>
<line fill="#000000" stroke="#000000" stroke-width="1" x1="372" x2="367" y1="137" y2="139"/>
<line fill="#000000" stroke="#000000" stroke-width="1" x1="367" x2="359" y1="139" y2="141"/>
<line fill="#000000" stroke="#000000" stroke-width="1" x1="359" x2="340" y1="141" y2="142"/>
<line fill="#000000" stroke="#000000" stroke-width="1" x1="340" x2="324" y1="142" y2="144"/>
<line fill="#000000" stroke="#000000" stroke-width="1" x1="324" x2="310" y1="144" y2="145"/>
<line fill="#000000" stroke="#000000" stroke-width="1" x1="310" x2="299" y1="145" y2="146"/>
<polygon fill="#ffffff" points="299,146 311,139 311,153" stroke="#ffffff" stroke-width="1"/>
<polygon fill="none" points="299,146 311,139 311,153" stroke="#000000" stroke-width="1"/>
<text font-family="Dialog" font-size="13" x="326" y="120">
all := getMonthSlots (time)</text>
<polyline fill="none" points="299,162 511,162" stroke="#000000" stroke-width="1"/>
<polygon fill="#000000" points="511,162 499,169 499,155" stroke="#000000" stroke-width="1"/>
<polygon fill="none" points="511,162 499,169 499,155" stroke="#000000" stroke-width="1"/>
<text font-family="Dialog" font-size="13" x="361" y="155">
getOccupiedMonthSlots (time)</text>
<line fill="#000000" stroke="#000000" stroke-width="1" x1="511" x2="506" y1="193" y2="193"/>
<line fill="#000000" stroke="#000000" stroke-width="1" x1="501" x2="496" y1="193" y2="193"/>
<line fill="#000000" stroke="#000000" stroke-width="1" x1="491" x2="486" y1="193" y2="193"/>
<line fill="#000000" stroke="#000000" stroke-width="1" x1="481" x2="476" y1="193" y2="193"/>
<line fill="#000000" stroke="#000000" stroke-width="1" x1="471" x2="466" y1="193" y2="193"/>
<line fill="#000000" stroke="#000000" stroke-width="1" x1="461" x2="456" y1="193" y2="193"/>
<line fill="#000000" stroke="#000000" stroke-width="1" x1="451" x2="446" y1="193" y2="193"/>
<line fill="#000000" stroke="#000000" stroke-width="1" x1="441" x2="436" y1="193" y2="193"/>
<line fill="#000000" stroke="#000000" stroke-width="1" x1="431" x2="426" y1="193" y2="193"/>
<line fill="#000000" stroke="#000000" stroke-width="1" x1="421" x2="416" y1="193" y2="193"/>
<line fill="#000000" stroke="#000000" stroke-width="1" x1="411" x2="406" y1="193" y2="193"/>
<line fill="#000000" stroke="#000000" stroke-width="1" x1="401" x2="396" y1="193" y2="193"/>
<line fill="#000000" stroke="#000000" stroke-width="1" x1="391" x2="386" y1="193" y2="193"/>
<line fill="#000000" stroke="#000000" stroke-width="1" x1="381" x2="376" y1="193" y2="193"/>
<line fill="#000000" stroke="#000000" stroke-width="1" x1="371" x2="366" y1="193" y2="193"/>
<line fill="#000000" stroke="#000000" stroke-width="1" x1="361" x2="356" y1="193" y2="193"/>
<line fill="#000000" stroke="#000000" stroke-width="1" x1="351" x2="346" y1="193" y2="193"/>
<line fill="#000000" stroke="#000000" stroke-width="1" x1="341" x2="336" y1="193" y2="193"/>
<line fill="#000000" stroke="#000000" stroke-width="1" x1="331" x2="326" y1="193" y2="193"/>
<line fill="#000000" stroke="#000000" stroke-width="1" x1="321" x2="316" y1="193" y2="193"/>
<line fill="#000000" stroke="#000000" stroke-width="1" x1="311" x2="306" y1="193" y2="193"/>
<line fill="#000000" stroke="#000000" stroke-width="1" x1="301" x2="299" y1="193" y2="193"/>
<line fill="#000000" stroke="#000000" stroke-width="1" x1="311" x2="299" y1="186" y2="193"/>
<line fill="#000000" stroke="#000000" stroke-width="1" x1="311" x2="299" y1="200" y2="193"/>
<text font-family="Dialog" font-size="13" x="365" y="186">
occ</text>
</svg>
