<?xml version="1.0" encoding="utf-8" ?>
<!DOCTYPE svg PUBLIC "-//W3C//DTD SVG 1.1//EN" "http://www.w3.org/Graphics/SVG/1.1/DTD/svg11.dtd">
<svg height="214" version="1.1" width="673" xmlns="http://www.w3.org/2000/svg">
<line fill="#000000" stroke="#000000" stroke-width="1" x1="89" x2="89" y1="63" y2="68"/>
<line fill="#000000" stroke="#000000" stroke-width="1" x1="89" x2="89" y1="73" y2="78"/>
<line fill="#000000" stroke="#000000" stroke-width="1" x1="89" x2="89" y1="83" y2="88"/>
<line fill="#000000" stroke="#000000" stroke-width="1" x1="89" x2="89" y1="93" y2="98"/>
<line fill="#000000" stroke="#000000" stroke-width="1" x1="89" x2="89" y1="103" y2="108"/>
<line fill="#000000" stroke="#000000" stroke-width="1" x1="89" x2="89" y1="113" y2="118"/>
<line fill="#000000" stroke="#000000" stroke-width="1" x1="89" x2="89" y1="123" y2="128"/>
<line fill="#000000" stroke="#000000" stroke-width="1" x1="89" x2="89" y1="133" y2="138"/>
<line fill="#000000" stroke="#000000" stroke-width="1" x1="89" x2="89" y1="143" y2="148"/>
<line fill="#000000" stroke="#000000" stroke-width="1" x1="89" x2="89" y1="153" y2="158"/>
<line fill="#000000" stroke="#000000" stroke-width="1" x1="89" x2="89" y1="163" y2="168"/>
<line fill="#000000" stroke="#000000" stroke-width="1" x1="89" x2="89" y1="173" y2="178"/>
<line fill="#000000" stroke="#000000" stroke-width="1" x1="89" x2="89" y1="183" y2="188"/>
<line fill="#000000" stroke="#000000" stroke-width="1" x1="89" x2="89" y1="193" y2="198"/>
<rect fill="#ffffff" height="136" stroke="#ffffff" stroke-width="1" width="20" x="79" y="63"/>
<rect fill="none" height="136" stroke="#000000" stroke-width="1" width="20" x="79" y="63"/>
<rect fill="#ffffff" height="50" stroke="#ffffff" stroke-width="1" width="151" x="14" y="14"/>
<rect fill="none" height="50" stroke="#000000" stroke-width="1" width="151" x="14" y="14"/>
<text font-family="Dialog" font-size="13" x="61" y="28">
:UIStrate</text>
<line fill="#000000" stroke="#000000" stroke-width="1" x1="336" x2="336" y1="63" y2="68"/>
<line fill="#000000" stroke="#000000" stroke-width="1" x1="336" x2="336" y1="73" y2="78"/>
<line fill="#000000" stroke="#000000" stroke-width="1" x1="336" x2="336" y1="83" y2="88"/>
<line fill="#000000" stroke="#000000" stroke-width="1" x1="336" x2="336" y1="93" y2="98"/>
<line fill="#000000" stroke="#000000" stroke-width="1" x1="336" x2="336" y1="103" y2="108"/>
<line fill="#000000" stroke="#000000" stroke-width="1" x1="336" x2="336" y1="113" y2="118"/>
<line fill="#000000" stroke="#000000" stroke-width="1" x1="336" x2="336" y1="123" y2="128"/>
<line fill="#000000" stroke="#000000" stroke-width="1" x1="336" x2="336" y1="133" y2="138"/>
<line fill="#000000" stroke="#000000" stroke-width="1" x1="336" x2="336" y1="143" y2="148"/>
<line fill="#000000" stroke="#000000" stroke-width="1" x1="336" x2="336" y1="153" y2="158"/>
<line fill="#000000" stroke="#000000" stroke-width="1" x1="336" x2="336" y1="163" y2="168"/>
<line fill="#000000" stroke="#000000" stroke-width="1" x1="336" x2="336" y1="173" y2="178"/>
<line fill="#000000" stroke="#000000" stroke-width="1" x1="336" x2="336" y1="183" y2="188"/>
<line fill="#000000" stroke="#000000" stroke-width="1" x1="336" x2="336" y1="193" y2="198"/>
<rect fill="#ffffff" height="136" stroke="#ffffff" stroke-width="1" width="20" x="326" y="63"/>
<rect fill="none" height="136" stroke="#000000" stroke-width="1" width="20" x="326" y="63"/>
<rect fill="#ffffff" height="50" stroke="#ffffff" stroke-width="1" width="150" x="261" y="14"/>
<rect fill="none" height="50" stroke="#000000" stroke-width="1" width="150" x="261" y="14"/>
<text font-family="Dialog" font-size="13" x="278" y="28">
/a:Amministratore</text>
<line fill="#000000" stroke="#000000" stroke-width="1" x1="584" x2="584" y1="63" y2="68"/>
<line fill="#000000" stroke="#000000" stroke-width="1" x1="584" x2="584" y1="73" y2="78"/>
<line fill="#000000" stroke="#000000" stroke-width="1" x1="584" x2="584" y1="83" y2="88"/>
<line fill="#000000" stroke="#000000" stroke-width="1" x1="584" x2="584" y1="93" y2="98"/>
<line fill="#000000" stroke="#000000" stroke-width="1" x1="584" x2="584" y1="103" y2="108"/>
<line fill="#000000" stroke="#000000" stroke-width="1" x1="584" x2="584" y1="113" y2="118"/>
<line fill="#000000" stroke="#000000" stroke-width="1" x1="584" x2="584" y1="123" y2="128"/>
<line fill="#000000" stroke="#000000" stroke-width="1" x1="584" x2="584" y1="133" y2="138"/>
<line fill="#000000" stroke="#000000" stroke-width="1" x1="584" x2="584" y1="143" y2="148"/>
<line fill="#000000" stroke="#000000" stroke-width="1" x1="584" x2="584" y1="153" y2="158"/>
<line fill="#000000" stroke="#000000" stroke-width="1" x1="584" x2="584" y1="163" y2="168"/>
<line fill="#000000" stroke="#000000" stroke-width="1" x1="584" x2="584" y1="173" y2="178"/>
<line fill="#000000" stroke="#000000" stroke-width="1" x1="584" x2="584" y1="183" y2="188"/>
<line fill="#000000" stroke="#000000" stroke-width="1" x1="584" x2="584" y1="193" y2="198"/>
<rect fill="#ffffff" height="48" stroke="#ffffff" stroke-width="1" width="20" x="574" y="132"/>
<rect fill="none" height="48" stroke="#000000" stroke-width="1" width="20" x="574" y="132"/>
<rect fill="#ffffff" height="50" stroke="#ffffff" stroke-width="1" width="150" x="509" y="14"/>
<rect fill="none" height="50" stroke="#000000" stroke-width="1" width="150" x="509" y="14"/>
<text font-family="Dialog" font-size="13" x="552" y="28">
:DB</text>
<polyline fill="none" points="346,132 574,132" stroke="#000000" stroke-width="1"/>
<polygon fill="#000000" points="574,132 562,139 562,125" stroke="#000000" stroke-width="1"/>
<polygon fill="none" points="574,132 562,139 562,125" stroke="#000000" stroke-width="1"/>
<text font-family="Dialog" font-size="13" x="404" y="125">
fetchReservations(a)</text>
<line fill="#000000" stroke="#000000" stroke-width="1" x1="574" x2="569" y1="180" y2="180"/>
<line fill="#000000" stroke="#000000" stroke-width="1" x1="564" x2="559" y1="180" y2="180"/>
<line fill="#000000" stroke="#000000" stroke-width="1" x1="554" x2="549" y1="180" y2="180"/>
<line fill="#000000" stroke="#000000" stroke-width="1" x1="544" x2="539" y1="180" y2="180"/>
<line fill="#000000" stroke="#000000" stroke-width="1" x1="534" x2="529" y1="180" y2="180"/>
<line fill="#000000" stroke="#000000" stroke-width="1" x1="524" x2="519" y1="180" y2="180"/>
<line fill="#000000" stroke="#000000" stroke-width="1" x1="514" x2="509" y1="180" y2="180"/>
<line fill="#000000" stroke="#000000" stroke-width="1" x1="504" x2="499" y1="180" y2="180"/>
<line fill="#000000" stroke="#000000" stroke-width="1" x1="494" x2="489" y1="180" y2="180"/>
<line fill="#000000" stroke="#000000" stroke-width="1" x1="484" x2="479" y1="180" y2="180"/>
<line fill="#000000" stroke="#000000" stroke-width="1" x1="474" x2="469" y1="180" y2="180"/>
<line fill="#000000" stroke="#000000" stroke-width="1" x1="464" x2="459" y1="180" y2="180"/>
<line fill="#000000" stroke="#000000" stroke-width="1" x1="454" x2="449" y1="180" y2="180"/>
<line fill="#000000" stroke="#000000" stroke-width="1" x1="444" x2="439" y1="180" y2="180"/>
<line fill="#000000" stroke="#000000" stroke-width="1" x1="434" x2="429" y1="180" y2="180"/>
<line fill="#000000" stroke="#000000" stroke-width="1" x1="424" x2="419" y1="180" y2="180"/>
<line fill="#000000" stroke="#000000" stroke-width="1" x1="414" x2="409" y1="180" y2="180"/>
<line fill="#000000" stroke="#000000" stroke-width="1" x1="404" x2="399" y1="180" y2="180"/>
<line fill="#000000" stroke="#000000" stroke-width="1" x1="394" x2="389" y1="180" y2="180"/>
<line fill="#000000" stroke="#000000" stroke-width="1" x1="384" x2="379" y1="180" y2="180"/>
<line fill="#000000" stroke="#000000" stroke-width="1" x1="374" x2="369" y1="180" y2="180"/>
<line fill="#000000" stroke="#000000" stroke-width="1" x1="364" x2="359" y1="180" y2="180"/>
<line fill="#000000" stroke="#000000" stroke-width="1" x1="354" x2="349" y1="180" y2="180"/>
<line fill="#000000" stroke="#000000" stroke-width="1" x1="358" x2="346" y1="173" y2="180"/>
<line fill="#000000" stroke="#000000" stroke-width="1" x1="358" x2="346" y1="187" y2="180"/>
<text font-family="Dialog" font-size="13" x="416" y="173">
msgs[]</text>
<polyline fill="none" points="99,92 326,92" stroke="#000000" stroke-width="1"/>
<line fill="#000000" stroke="#000000" stroke-width="1" x1="314" x2="326" y1="99" y2="92"/>
<line fill="#000000" stroke="#000000" stroke-width="1" x1="314" x2="326" y1="85" y2="92"/>
<text font-family="Dialog" font-size="13" x="168" y="85">
fetchReservations()</text>
</svg>
