<?xml version="1.0" encoding="utf-8" ?>
<!DOCTYPE svg PUBLIC "-//W3C//DTD SVG 1.1//EN" "http://www.w3.org/Graphics/SVG/1.1/DTD/svg11.dtd">
<svg height="397" version="1.1" width="1066" xmlns="http://www.w3.org/2000/svg">
<line fill="#000000" stroke="#000000" stroke-width="1" x1="314" x2="314" y1="63" y2="68"/>
<line fill="#000000" stroke="#000000" stroke-width="1" x1="314" x2="314" y1="73" y2="78"/>
<line fill="#000000" stroke="#000000" stroke-width="1" x1="314" x2="314" y1="83" y2="88"/>
<line fill="#000000" stroke="#000000" stroke-width="1" x1="314" x2="314" y1="93" y2="98"/>
<line fill="#000000" stroke="#000000" stroke-width="1" x1="314" x2="314" y1="103" y2="108"/>
<line fill="#000000" stroke="#000000" stroke-width="1" x1="314" x2="314" y1="113" y2="118"/>
<line fill="#000000" stroke="#000000" stroke-width="1" x1="314" x2="314" y1="123" y2="128"/>
<line fill="#000000" stroke="#000000" stroke-width="1" x1="314" x2="314" y1="133" y2="138"/>
<line fill="#000000" stroke="#000000" stroke-width="1" x1="314" x2="314" y1="143" y2="148"/>
<line fill="#000000" stroke="#000000" stroke-width="1" x1="314" x2="314" y1="153" y2="158"/>
<line fill="#000000" stroke="#000000" stroke-width="1" x1="314" x2="314" y1="163" y2="168"/>
<line fill="#000000" stroke="#000000" stroke-width="1" x1="314" x2="314" y1="173" y2="178"/>
<line fill="#000000" stroke="#000000" stroke-width="1" x1="314" x2="314" y1="183" y2="188"/>
<line fill="#000000" stroke="#000000" stroke-width="1" x1="314" x2="314" y1="193" y2="198"/>
<line fill="#000000" stroke="#000000" stroke-width="1" x1="314" x2="314" y1="203" y2="208"/>
<line fill="#000000" stroke="#000000" stroke-width="1" x1="314" x2="314" y1="213" y2="218"/>
<line fill="#000000" stroke="#000000" stroke-width="1" x1="314" x2="314" y1="223" y2="228"/>
<line fill="#000000" stroke="#000000" stroke-width="1" x1="314" x2="314" y1="233" y2="238"/>
<line fill="#000000" stroke="#000000" stroke-width="1" x1="314" x2="314" y1="243" y2="248"/>
<line fill="#000000" stroke="#000000" stroke-width="1" x1="314" x2="314" y1="253" y2="258"/>
<line fill="#000000" stroke="#000000" stroke-width="1" x1="314" x2="314" y1="263" y2="268"/>
<line fill="#000000" stroke="#000000" stroke-width="1" x1="314" x2="314" y1="273" y2="278"/>
<line fill="#000000" stroke="#000000" stroke-width="1" x1="314" x2="314" y1="283" y2="288"/>
<line fill="#000000" stroke="#000000" stroke-width="1" x1="314" x2="314" y1="293" y2="298"/>
<line fill="#000000" stroke="#000000" stroke-width="1" x1="314" x2="314" y1="303" y2="308"/>
<line fill="#000000" stroke="#000000" stroke-width="1" x1="314" x2="314" y1="313" y2="318"/>
<line fill="#000000" stroke="#000000" stroke-width="1" x1="314" x2="314" y1="323" y2="328"/>
<line fill="#000000" stroke="#000000" stroke-width="1" x1="314" x2="314" y1="333" y2="338"/>
<line fill="#000000" stroke="#000000" stroke-width="1" x1="314" x2="314" y1="343" y2="348"/>
<line fill="#000000" stroke="#000000" stroke-width="1" x1="314" x2="314" y1="353" y2="358"/>
<line fill="#000000" stroke="#000000" stroke-width="1" x1="314" x2="314" y1="363" y2="368"/>
<line fill="#000000" stroke="#000000" stroke-width="1" x1="314" x2="314" y1="373" y2="378"/>
<rect fill="#ffffff" height="192" stroke="#ffffff" stroke-width="1" width="20" x="304" y="87"/>
<rect fill="none" height="192" stroke="#000000" stroke-width="1" width="20" x="304" y="87"/>
<rect fill="#ffffff" height="50" stroke="#ffffff" stroke-width="1" width="152" x="238" y="14"/>
<rect fill="none" height="50" stroke="#000000" stroke-width="1" width="152" x="238" y="14"/>
<text font-family="Dialog" font-size="13" x="264" y="28">
/p:Prenotazione</text>
<line fill="#000000" stroke="#000000" stroke-width="1" x1="553" x2="553" y1="63" y2="68"/>
<line fill="#000000" stroke="#000000" stroke-width="1" x1="553" x2="553" y1="73" y2="78"/>
<line fill="#000000" stroke="#000000" stroke-width="1" x1="553" x2="553" y1="83" y2="88"/>
<line fill="#000000" stroke="#000000" stroke-width="1" x1="553" x2="553" y1="93" y2="95"/>
<rect fill="#ffffff" height="32" stroke="#ffffff" stroke-width="1" width="20" x="543" y="63"/>
<rect fill="none" height="32" stroke="#000000" stroke-width="1" width="20" x="543" y="63"/>
<line fill="#000000" stroke="#000000" stroke-width="1" x1="543" x2="563" y1="95" y2="115"/>
<line fill="#000000" stroke="#000000" stroke-width="1" x1="543" x2="563" y1="115" y2="95"/>
<rect fill="#ffffff" height="50" stroke="#ffffff" stroke-width="1" width="150" x="478" y="14"/>
<rect fill="none" height="50" stroke="#000000" stroke-width="1" width="150" x="478" y="14"/>
<text font-family="Dialog" font-size="13" x="519" y="28">
/p.slot:Slot</text>
<polyline fill="none" points="324,95 543,95" stroke="#000000" stroke-width="1"/>
<polygon fill="#000000" points="543,95 531,102 531,88" stroke="#000000" stroke-width="1"/>
<polygon fill="none" points="543,95 531,102 531,88" stroke="#000000" stroke-width="1"/>
<text font-family="Dialog" font-size="13" x="391" y="88">
free</text>
<line fill="#000000" stroke="#000000" stroke-width="1" x1="777" x2="777" y1="63" y2="68"/>
<line fill="#000000" stroke="#000000" stroke-width="1" x1="777" x2="777" y1="73" y2="78"/>
<line fill="#000000" stroke="#000000" stroke-width="1" x1="777" x2="777" y1="83" y2="88"/>
<line fill="#000000" stroke="#000000" stroke-width="1" x1="777" x2="777" y1="93" y2="98"/>
<line fill="#000000" stroke="#000000" stroke-width="1" x1="777" x2="777" y1="103" y2="108"/>
<line fill="#000000" stroke="#000000" stroke-width="1" x1="777" x2="777" y1="113" y2="118"/>
<line fill="#000000" stroke="#000000" stroke-width="1" x1="777" x2="777" y1="123" y2="128"/>
<line fill="#000000" stroke="#000000" stroke-width="1" x1="777" x2="777" y1="133" y2="138"/>
<line fill="#000000" stroke="#000000" stroke-width="1" x1="777" x2="777" y1="143" y2="148"/>
<line fill="#000000" stroke="#000000" stroke-width="1" x1="777" x2="777" y1="153" y2="158"/>
<line fill="#000000" stroke="#000000" stroke-width="1" x1="777" x2="777" y1="163" y2="168"/>
<line fill="#000000" stroke="#000000" stroke-width="1" x1="777" x2="777" y1="173" y2="178"/>
<line fill="#000000" stroke="#000000" stroke-width="1" x1="777" x2="777" y1="183" y2="188"/>
<line fill="#000000" stroke="#000000" stroke-width="1" x1="777" x2="777" y1="193" y2="198"/>
<line fill="#000000" stroke="#000000" stroke-width="1" x1="777" x2="777" y1="203" y2="208"/>
<line fill="#000000" stroke="#000000" stroke-width="1" x1="777" x2="777" y1="213" y2="218"/>
<line fill="#000000" stroke="#000000" stroke-width="1" x1="777" x2="777" y1="223" y2="228"/>
<line fill="#000000" stroke="#000000" stroke-width="1" x1="777" x2="777" y1="233" y2="238"/>
<line fill="#000000" stroke="#000000" stroke-width="1" x1="777" x2="777" y1="243" y2="248"/>
<line fill="#000000" stroke="#000000" stroke-width="1" x1="777" x2="777" y1="253" y2="258"/>
<line fill="#000000" stroke="#000000" stroke-width="1" x1="777" x2="777" y1="263" y2="268"/>
<line fill="#000000" stroke="#000000" stroke-width="1" x1="777" x2="777" y1="273" y2="278"/>
<line fill="#000000" stroke="#000000" stroke-width="1" x1="777" x2="777" y1="283" y2="288"/>
<line fill="#000000" stroke="#000000" stroke-width="1" x1="777" x2="777" y1="293" y2="298"/>
<line fill="#000000" stroke="#000000" stroke-width="1" x1="777" x2="777" y1="303" y2="308"/>
<line fill="#000000" stroke="#000000" stroke-width="1" x1="777" x2="777" y1="313" y2="318"/>
<line fill="#000000" stroke="#000000" stroke-width="1" x1="777" x2="777" y1="323" y2="328"/>
<line fill="#000000" stroke="#000000" stroke-width="1" x1="777" x2="777" y1="333" y2="338"/>
<line fill="#000000" stroke="#000000" stroke-width="1" x1="777" x2="777" y1="343" y2="348"/>
<line fill="#000000" stroke="#000000" stroke-width="1" x1="777" x2="777" y1="353" y2="358"/>
<line fill="#000000" stroke="#000000" stroke-width="1" x1="777" x2="777" y1="363" y2="368"/>
<line fill="#000000" stroke="#000000" stroke-width="1" x1="777" x2="777" y1="373" y2="378"/>
<rect fill="#ffffff" height="50" stroke="#ffffff" stroke-width="1" width="20" x="767" y="143"/>
<rect fill="none" height="50" stroke="#000000" stroke-width="1" width="20" x="767" y="143"/>
<rect fill="#ffffff" height="50" stroke="#ffffff" stroke-width="1" width="20" x="767" y="319"/>
<rect fill="none" height="50" stroke="#000000" stroke-width="1" width="20" x="767" y="319"/>
<rect fill="#ffffff" height="50" stroke="#ffffff" stroke-width="1" width="150" x="702" y="14"/>
<rect fill="none" height="50" stroke="#000000" stroke-width="1" width="150" x="702" y="14"/>
<text font-family="Dialog" font-size="13" x="745" y="28">
:DB</text>
<polyline fill="none" points="324,143 767,143" stroke="#000000" stroke-width="1"/>
<polygon fill="#000000" points="767,143 755,150 755,136" stroke="#000000" stroke-width="1"/>
<polygon fill="none" points="767,143 755,150 755,136" stroke="#000000" stroke-width="1"/>
<text font-family="Dialog" font-size="13" x="501" y="136">
updateReservs (p)</text>
<line fill="#000000" stroke="#000000" stroke-width="1" x1="767" x2="762" y1="193" y2="193"/>
<line fill="#000000" stroke="#000000" stroke-width="1" x1="757" x2="752" y1="193" y2="193"/>
<line fill="#000000" stroke="#000000" stroke-width="1" x1="747" x2="742" y1="193" y2="193"/>
<line fill="#000000" stroke="#000000" stroke-width="1" x1="737" x2="732" y1="193" y2="193"/>
<line fill="#000000" stroke="#000000" stroke-width="1" x1="727" x2="722" y1="193" y2="193"/>
<line fill="#000000" stroke="#000000" stroke-width="1" x1="717" x2="712" y1="193" y2="193"/>
<line fill="#000000" stroke="#000000" stroke-width="1" x1="707" x2="702" y1="193" y2="193"/>
<line fill="#000000" stroke="#000000" stroke-width="1" x1="697" x2="692" y1="193" y2="193"/>
<line fill="#000000" stroke="#000000" stroke-width="1" x1="687" x2="682" y1="193" y2="193"/>
<line fill="#000000" stroke="#000000" stroke-width="1" x1="677" x2="672" y1="193" y2="193"/>
<line fill="#000000" stroke="#000000" stroke-width="1" x1="667" x2="662" y1="193" y2="193"/>
<line fill="#000000" stroke="#000000" stroke-width="1" x1="657" x2="652" y1="193" y2="193"/>
<line fill="#000000" stroke="#000000" stroke-width="1" x1="647" x2="642" y1="193" y2="193"/>
<line fill="#000000" stroke="#000000" stroke-width="1" x1="637" x2="632" y1="193" y2="193"/>
<line fill="#000000" stroke="#000000" stroke-width="1" x1="627" x2="622" y1="193" y2="193"/>
<line fill="#000000" stroke="#000000" stroke-width="1" x1="617" x2="612" y1="193" y2="193"/>
<line fill="#000000" stroke="#000000" stroke-width="1" x1="607" x2="602" y1="193" y2="193"/>
<line fill="#000000" stroke="#000000" stroke-width="1" x1="597" x2="592" y1="193" y2="193"/>
<line fill="#000000" stroke="#000000" stroke-width="1" x1="587" x2="582" y1="193" y2="193"/>
<line fill="#000000" stroke="#000000" stroke-width="1" x1="577" x2="572" y1="193" y2="193"/>
<line fill="#000000" stroke="#000000" stroke-width="1" x1="567" x2="562" y1="193" y2="193"/>
<line fill="#000000" stroke="#000000" stroke-width="1" x1="557" x2="552" y1="193" y2="193"/>
<line fill="#000000" stroke="#000000" stroke-width="1" x1="547" x2="542" y1="193" y2="193"/>
<line fill="#000000" stroke="#000000" stroke-width="1" x1="537" x2="532" y1="193" y2="193"/>
<line fill="#000000" stroke="#000000" stroke-width="1" x1="527" x2="522" y1="193" y2="193"/>
<line fill="#000000" stroke="#000000" stroke-width="1" x1="517" x2="512" y1="193" y2="193"/>
<line fill="#000000" stroke="#000000" stroke-width="1" x1="507" x2="502" y1="193" y2="193"/>
<line fill="#000000" stroke="#000000" stroke-width="1" x1="497" x2="492" y1="193" y2="193"/>
<line fill="#000000" stroke="#000000" stroke-width="1" x1="487" x2="482" y1="193" y2="193"/>
<line fill="#000000" stroke="#000000" stroke-width="1" x1="477" x2="472" y1="193" y2="193"/>
<line fill="#000000" stroke="#000000" stroke-width="1" x1="467" x2="462" y1="193" y2="193"/>
<line fill="#000000" stroke="#000000" stroke-width="1" x1="457" x2="452" y1="193" y2="193"/>
<line fill="#000000" stroke="#000000" stroke-width="1" x1="447" x2="442" y1="193" y2="193"/>
<line fill="#000000" stroke="#000000" stroke-width="1" x1="437" x2="432" y1="193" y2="193"/>
<line fill="#000000" stroke="#000000" stroke-width="1" x1="427" x2="422" y1="193" y2="193"/>
<line fill="#000000" stroke="#000000" stroke-width="1" x1="417" x2="412" y1="193" y2="193"/>
<line fill="#000000" stroke="#000000" stroke-width="1" x1="407" x2="402" y1="193" y2="193"/>
<line fill="#000000" stroke="#000000" stroke-width="1" x1="397" x2="392" y1="193" y2="193"/>
<line fill="#000000" stroke="#000000" stroke-width="1" x1="387" x2="382" y1="193" y2="193"/>
<line fill="#000000" stroke="#000000" stroke-width="1" x1="377" x2="372" y1="193" y2="193"/>
<line fill="#000000" stroke="#000000" stroke-width="1" x1="367" x2="362" y1="193" y2="193"/>
<line fill="#000000" stroke="#000000" stroke-width="1" x1="357" x2="352" y1="193" y2="193"/>
<line fill="#000000" stroke="#000000" stroke-width="1" x1="347" x2="342" y1="193" y2="193"/>
<line fill="#000000" stroke="#000000" stroke-width="1" x1="337" x2="332" y1="193" y2="193"/>
<line fill="#000000" stroke="#000000" stroke-width="1" x1="327" x2="324" y1="193" y2="193"/>
<line fill="#000000" stroke="#000000" stroke-width="1" x1="336" x2="324" y1="186" y2="193"/>
<line fill="#000000" stroke="#000000" stroke-width="1" x1="336" x2="324" y1="200" y2="193"/>
<line fill="#000000" stroke="#000000" stroke-width="1" x1="977" x2="977" y1="279" y2="284"/>
<line fill="#000000" stroke="#000000" stroke-width="1" x1="977" x2="977" y1="289" y2="294"/>
<line fill="#000000" stroke="#000000" stroke-width="1" x1="977" x2="977" y1="299" y2="304"/>
<line fill="#000000" stroke="#000000" stroke-width="1" x1="977" x2="977" y1="309" y2="314"/>
<line fill="#000000" stroke="#000000" stroke-width="1" x1="977" x2="977" y1="319" y2="324"/>
<line fill="#000000" stroke="#000000" stroke-width="1" x1="977" x2="977" y1="329" y2="334"/>
<line fill="#000000" stroke="#000000" stroke-width="1" x1="977" x2="977" y1="339" y2="344"/>
<line fill="#000000" stroke="#000000" stroke-width="1" x1="977" x2="977" y1="349" y2="354"/>
<line fill="#000000" stroke="#000000" stroke-width="1" x1="977" x2="977" y1="359" y2="364"/>
<line fill="#000000" stroke="#000000" stroke-width="1" x1="977" x2="977" y1="369" y2="374"/>
<line fill="#000000" stroke="#000000" stroke-width="1" x1="977" x2="977" y1="379" y2="382"/>
<rect fill="#ffffff" height="103" stroke="#ffffff" stroke-width="1" width="20" x="967" y="279"/>
<rect fill="none" height="103" stroke="#000000" stroke-width="1" width="20" x="967" y="279"/>
<rect fill="#ffffff" height="50" stroke="#ffffff" stroke-width="1" width="150" x="902" y="230"/>
<rect fill="none" height="50" stroke="#000000" stroke-width="1" width="150" x="902" y="230"/>
<text font-family="Dialog" font-size="13" x="911" y="244">
/m:MAmministratore</text>
<polyline fill="none" points="324,255 902,255" stroke="#000000" stroke-width="1"/>
<polygon fill="#000000" points="902,255 890,262 890,248" stroke="#000000" stroke-width="1"/>
<polygon fill="none" points="902,255 890,262 890,248" stroke="#000000" stroke-width="1"/>
<text font-family="Dialog" font-size="13" x="344" y="245">
MAmministratore (defer, s.sala.amministratore, p.paziente, p)</text>
<polyline fill="none" points="967,319 787,319" stroke="#000000" stroke-width="1"/>
<polygon fill="#000000" points="787,319 799,312 799,326" stroke="#000000" stroke-width="1"/>
<polygon fill="none" points="787,319 799,312 799,326" stroke="#000000" stroke-width="1"/>
<text font-family="Dialog" font-size="13" x="796" y="313">
createMessageAdmin(m)</text>
<line fill="#000000" stroke="#000000" stroke-width="1" x1="787" x2="792" y1="369" y2="369"/>
<line fill="#000000" stroke="#000000" stroke-width="1" x1="797" x2="802" y1="369" y2="369"/>
<line fill="#000000" stroke="#000000" stroke-width="1" x1="807" x2="812" y1="369" y2="369"/>
<line fill="#000000" stroke="#000000" stroke-width="1" x1="817" x2="822" y1="369" y2="369"/>
<line fill="#000000" stroke="#000000" stroke-width="1" x1="827" x2="832" y1="369" y2="369"/>
<line fill="#000000" stroke="#000000" stroke-width="1" x1="837" x2="842" y1="369" y2="369"/>
<line fill="#000000" stroke="#000000" stroke-width="1" x1="847" x2="852" y1="369" y2="369"/>
<line fill="#000000" stroke="#000000" stroke-width="1" x1="857" x2="862" y1="369" y2="369"/>
<line fill="#000000" stroke="#000000" stroke-width="1" x1="867" x2="872" y1="369" y2="369"/>
<line fill="#000000" stroke="#000000" stroke-width="1" x1="877" x2="882" y1="369" y2="369"/>
<line fill="#000000" stroke="#000000" stroke-width="1" x1="887" x2="892" y1="369" y2="369"/>
<line fill="#000000" stroke="#000000" stroke-width="1" x1="897" x2="902" y1="369" y2="369"/>
<line fill="#000000" stroke="#000000" stroke-width="1" x1="907" x2="912" y1="369" y2="369"/>
<line fill="#000000" stroke="#000000" stroke-width="1" x1="917" x2="922" y1="369" y2="369"/>
<line fill="#000000" stroke="#000000" stroke-width="1" x1="927" x2="932" y1="369" y2="369"/>
<line fill="#000000" stroke="#000000" stroke-width="1" x1="937" x2="942" y1="369" y2="369"/>
<line fill="#000000" stroke="#000000" stroke-width="1" x1="947" x2="952" y1="369" y2="369"/>
<line fill="#000000" stroke="#000000" stroke-width="1" x1="957" x2="962" y1="369" y2="369"/>
<line fill="#000000" stroke="#000000" stroke-width="1" x1="955" x2="967" y1="376" y2="369"/>
<line fill="#000000" stroke="#000000" stroke-width="1" x1="955" x2="967" y1="362" y2="369"/>
<polygon fill="#ffffff" points="134,103 203,103 213,113 213,125 134,125 134,103" stroke="#ffffff" stroke-width="1"/>
<polyline fill="none" points="134,103 203,103 213,113 213,125 134,125 134,103" stroke="#000000" stroke-width="1"/>
<polygon fill="#ffffff" points="203,103 213,113 203,113 203,103" stroke="#ffffff" stroke-width="1"/>
<polyline fill="none" points="203,103 213,113 203,113 203,103" stroke="#000000" stroke-width="1"/>
<text font-family="Dialog" font-size="13" x="137" y="119">
p.slot = s</text>
<line fill="#000000" stroke="#000000" stroke-width="1" x1="304" x2="299" y1="118" y2="118"/>
<line fill="#000000" stroke="#000000" stroke-width="1" x1="294" x2="289" y1="118" y2="118"/>
<line fill="#000000" stroke="#000000" stroke-width="1" x1="284" x2="279" y1="118" y2="118"/>
<line fill="#000000" stroke="#000000" stroke-width="1" x1="274" x2="269" y1="118" y2="118"/>
<line fill="#000000" stroke="#000000" stroke-width="1" x1="264" x2="259" y1="118" y2="118"/>
<line fill="#000000" stroke="#000000" stroke-width="1" x1="254" x2="249" y1="118" y2="118"/>
<line fill="#000000" stroke="#000000" stroke-width="1" x1="244" x2="239" y1="118" y2="118"/>
<line fill="#000000" stroke="#000000" stroke-width="1" x1="234" x2="229" y1="118" y2="118"/>
<line fill="#000000" stroke="#000000" stroke-width="1" x1="224" x2="219" y1="118" y2="118"/>
<line fill="#000000" stroke="#000000" stroke-width="1" x1="82" x2="82" y1="63" y2="68"/>
<line fill="#000000" stroke="#000000" stroke-width="1" x1="82" x2="82" y1="73" y2="78"/>
<line fill="#000000" stroke="#000000" stroke-width="1" x1="82" x2="82" y1="83" y2="88"/>
<line fill="#000000" stroke="#000000" stroke-width="1" x1="82" x2="82" y1="93" y2="98"/>
<line fill="#000000" stroke="#000000" stroke-width="1" x1="82" x2="82" y1="103" y2="108"/>
<line fill="#000000" stroke="#000000" stroke-width="1" x1="82" x2="82" y1="113" y2="118"/>
<line fill="#000000" stroke="#000000" stroke-width="1" x1="82" x2="82" y1="123" y2="128"/>
<line fill="#000000" stroke="#000000" stroke-width="1" x1="82" x2="82" y1="133" y2="138"/>
<line fill="#000000" stroke="#000000" stroke-width="1" x1="82" x2="82" y1="143" y2="148"/>
<line fill="#000000" stroke="#000000" stroke-width="1" x1="82" x2="82" y1="153" y2="158"/>
<line fill="#000000" stroke="#000000" stroke-width="1" x1="82" x2="82" y1="163" y2="168"/>
<line fill="#000000" stroke="#000000" stroke-width="1" x1="82" x2="82" y1="173" y2="178"/>
<line fill="#000000" stroke="#000000" stroke-width="1" x1="82" x2="82" y1="183" y2="188"/>
<line fill="#000000" stroke="#000000" stroke-width="1" x1="82" x2="82" y1="193" y2="198"/>
<line fill="#000000" stroke="#000000" stroke-width="1" x1="82" x2="82" y1="203" y2="208"/>
<line fill="#000000" stroke="#000000" stroke-width="1" x1="82" x2="82" y1="213" y2="218"/>
<line fill="#000000" stroke="#000000" stroke-width="1" x1="82" x2="82" y1="223" y2="228"/>
<line fill="#000000" stroke="#000000" stroke-width="1" x1="82" x2="82" y1="233" y2="238"/>
<line fill="#000000" stroke="#000000" stroke-width="1" x1="82" x2="82" y1="243" y2="248"/>
<line fill="#000000" stroke="#000000" stroke-width="1" x1="82" x2="82" y1="253" y2="258"/>
<line fill="#000000" stroke="#000000" stroke-width="1" x1="82" x2="82" y1="263" y2="268"/>
<line fill="#000000" stroke="#000000" stroke-width="1" x1="82" x2="82" y1="273" y2="278"/>
<line fill="#000000" stroke="#000000" stroke-width="1" x1="82" x2="82" y1="283" y2="288"/>
<line fill="#000000" stroke="#000000" stroke-width="1" x1="82" x2="82" y1="293" y2="298"/>
<line fill="#000000" stroke="#000000" stroke-width="1" x1="82" x2="82" y1="303" y2="308"/>
<line fill="#000000" stroke="#000000" stroke-width="1" x1="82" x2="82" y1="313" y2="318"/>
<line fill="#000000" stroke="#000000" stroke-width="1" x1="82" x2="82" y1="323" y2="328"/>
<line fill="#000000" stroke="#000000" stroke-width="1" x1="82" x2="82" y1="333" y2="338"/>
<line fill="#000000" stroke="#000000" stroke-width="1" x1="82" x2="82" y1="343" y2="348"/>
<line fill="#000000" stroke="#000000" stroke-width="1" x1="82" x2="82" y1="353" y2="358"/>
<line fill="#000000" stroke="#000000" stroke-width="1" x1="82" x2="82" y1="363" y2="368"/>
<line fill="#000000" stroke="#000000" stroke-width="1" x1="82" x2="82" y1="373" y2="378"/>
<rect fill="#ffffff" height="319" stroke="#ffffff" stroke-width="1" width="20" x="72" y="63"/>
<rect fill="none" height="319" stroke="#000000" stroke-width="1" width="20" x="72" y="63"/>
<rect fill="#ffffff" height="50" stroke="#ffffff" stroke-width="1" width="136" x="14" y="14"/>
<rect fill="none" height="50" stroke="#000000" stroke-width="1" width="136" x="14" y="14"/>
<text font-family="Dialog" font-size="13" x="53" y="28">
:UIStrate</text>
<polyline fill="none" points="92,87 304,87" stroke="#000000" stroke-width="1"/>
<polygon fill="#000000" points="304,87 292,94 292,80" stroke="#000000" stroke-width="1"/>
<polygon fill="none" points="304,87 292,94 292,80" stroke="#000000" stroke-width="1"/>
<text font-family="Dialog" font-size="13" x="154" y="80">
postponeReservs (s)</text>
<line fill="#000000" stroke="#000000" stroke-width="1" x1="304" x2="299" y1="279" y2="279"/>
<line fill="#000000" stroke="#000000" stroke-width="1" x1="294" x2="289" y1="279" y2="279"/>
<line fill="#000000" stroke="#000000" stroke-width="1" x1="284" x2="279" y1="279" y2="279"/>
<line fill="#000000" stroke="#000000" stroke-width="1" x1="274" x2="269" y1="279" y2="279"/>
<line fill="#000000" stroke="#000000" stroke-width="1" x1="264" x2="259" y1="279" y2="279"/>
<line fill="#000000" stroke="#000000" stroke-width="1" x1="254" x2="249" y1="279" y2="279"/>
<line fill="#000000" stroke="#000000" stroke-width="1" x1="244" x2="239" y1="279" y2="279"/>
<line fill="#000000" stroke="#000000" stroke-width="1" x1="234" x2="229" y1="279" y2="279"/>
<line fill="#000000" stroke="#000000" stroke-width="1" x1="224" x2="219" y1="279" y2="279"/>
<line fill="#000000" stroke="#000000" stroke-width="1" x1="214" x2="209" y1="279" y2="279"/>
<line fill="#000000" stroke="#000000" stroke-width="1" x1="204" x2="199" y1="279" y2="279"/>
<line fill="#000000" stroke="#000000" stroke-width="1" x1="194" x2="189" y1="279" y2="279"/>
<line fill="#000000" stroke="#000000" stroke-width="1" x1="184" x2="179" y1="279" y2="279"/>
<line fill="#000000" stroke="#000000" stroke-width="1" x1="174" x2="169" y1="279" y2="279"/>
<line fill="#000000" stroke="#000000" stroke-width="1" x1="164" x2="159" y1="279" y2="279"/>
<line fill="#000000" stroke="#000000" stroke-width="1" x1="154" x2="149" y1="279" y2="279"/>
<line fill="#000000" stroke="#000000" stroke-width="1" x1="144" x2="139" y1="279" y2="279"/>
<line fill="#000000" stroke="#000000" stroke-width="1" x1="134" x2="129" y1="279" y2="279"/>
<line fill="#000000" stroke="#000000" stroke-width="1" x1="124" x2="119" y1="279" y2="279"/>
<line fill="#000000" stroke="#000000" stroke-width="1" x1="114" x2="109" y1="279" y2="279"/>
<line fill="#000000" stroke="#000000" stroke-width="1" x1="104" x2="99" y1="279" y2="279"/>
<line fill="#000000" stroke="#000000" stroke-width="1" x1="94" x2="92" y1="279" y2="279"/>
<line fill="#000000" stroke="#000000" stroke-width="1" x1="104" x2="92" y1="272" y2="279"/>
<line fill="#000000" stroke="#000000" stroke-width="1" x1="104" x2="92" y1="286" y2="279"/>
</svg>
