<?xml version="1.0" encoding="utf-8" ?>
<!DOCTYPE svg PUBLIC "-//W3C//DTD SVG 1.1//EN" "http://www.w3.org/Graphics/SVG/1.1/DTD/svg11.dtd">
<svg height="346" version="1.1" width="1210" xmlns="http://www.w3.org/2000/svg">
<line fill="#000000" stroke="#000000" stroke-width="1" x1="89" x2="89" y1="63" y2="68"/>
<line fill="#000000" stroke="#000000" stroke-width="1" x1="89" x2="89" y1="73" y2="78"/>
<line fill="#000000" stroke="#000000" stroke-width="1" x1="89" x2="89" y1="83" y2="88"/>
<line fill="#000000" stroke="#000000" stroke-width="1" x1="89" x2="89" y1="93" y2="98"/>
<line fill="#000000" stroke="#000000" stroke-width="1" x1="89" x2="89" y1="103" y2="108"/>
<line fill="#000000" stroke="#000000" stroke-width="1" x1="89" x2="89" y1="113" y2="118"/>
<line fill="#000000" stroke="#000000" stroke-width="1" x1="89" x2="89" y1="123" y2="128"/>
<line fill="#000000" stroke="#000000" stroke-width="1" x1="89" x2="89" y1="133" y2="138"/>
<line fill="#000000" stroke="#000000" stroke-width="1" x1="89" x2="89" y1="143" y2="148"/>
<line fill="#000000" stroke="#000000" stroke-width="1" x1="89" x2="89" y1="153" y2="158"/>
<line fill="#000000" stroke="#000000" stroke-width="1" x1="89" x2="89" y1="163" y2="168"/>
<line fill="#000000" stroke="#000000" stroke-width="1" x1="89" x2="89" y1="173" y2="178"/>
<line fill="#000000" stroke="#000000" stroke-width="1" x1="89" x2="89" y1="183" y2="188"/>
<line fill="#000000" stroke="#000000" stroke-width="1" x1="89" x2="89" y1="193" y2="198"/>
<line fill="#000000" stroke="#000000" stroke-width="1" x1="89" x2="89" y1="203" y2="208"/>
<line fill="#000000" stroke="#000000" stroke-width="1" x1="89" x2="89" y1="213" y2="218"/>
<line fill="#000000" stroke="#000000" stroke-width="1" x1="89" x2="89" y1="223" y2="228"/>
<line fill="#000000" stroke="#000000" stroke-width="1" x1="89" x2="89" y1="233" y2="238"/>
<line fill="#000000" stroke="#000000" stroke-width="1" x1="89" x2="89" y1="243" y2="248"/>
<line fill="#000000" stroke="#000000" stroke-width="1" x1="89" x2="89" y1="253" y2="258"/>
<line fill="#000000" stroke="#000000" stroke-width="1" x1="89" x2="89" y1="263" y2="268"/>
<line fill="#000000" stroke="#000000" stroke-width="1" x1="89" x2="89" y1="273" y2="278"/>
<line fill="#000000" stroke="#000000" stroke-width="1" x1="89" x2="89" y1="283" y2="288"/>
<line fill="#000000" stroke="#000000" stroke-width="1" x1="89" x2="89" y1="293" y2="298"/>
<line fill="#000000" stroke="#000000" stroke-width="1" x1="89" x2="89" y1="303" y2="308"/>
<line fill="#000000" stroke="#000000" stroke-width="1" x1="89" x2="89" y1="313" y2="318"/>
<rect fill="#ffffff" height="260" stroke="#ffffff" stroke-width="1" width="20" x="79" y="63"/>
<rect fill="none" height="260" stroke="#000000" stroke-width="1" width="20" x="79" y="63"/>
<rect fill="#ffffff" height="50" stroke="#ffffff" stroke-width="1" width="150" x="14" y="14"/>
<rect fill="none" height="50" stroke="#000000" stroke-width="1" width="150" x="14" y="14"/>
<text font-family="Dialog" font-size="13" x="60" y="28">
:UIStrate</text>
<line fill="#000000" stroke="#000000" stroke-width="1" x1="365" x2="365" y1="63" y2="68"/>
<line fill="#000000" stroke="#000000" stroke-width="1" x1="365" x2="365" y1="73" y2="78"/>
<line fill="#000000" stroke="#000000" stroke-width="1" x1="365" x2="365" y1="83" y2="88"/>
<line fill="#000000" stroke="#000000" stroke-width="1" x1="365" x2="365" y1="93" y2="98"/>
<line fill="#000000" stroke="#000000" stroke-width="1" x1="365" x2="365" y1="103" y2="108"/>
<line fill="#000000" stroke="#000000" stroke-width="1" x1="365" x2="365" y1="113" y2="118"/>
<line fill="#000000" stroke="#000000" stroke-width="1" x1="365" x2="365" y1="123" y2="128"/>
<line fill="#000000" stroke="#000000" stroke-width="1" x1="365" x2="365" y1="133" y2="138"/>
<line fill="#000000" stroke="#000000" stroke-width="1" x1="365" x2="365" y1="143" y2="148"/>
<line fill="#000000" stroke="#000000" stroke-width="1" x1="365" x2="365" y1="153" y2="158"/>
<line fill="#000000" stroke="#000000" stroke-width="1" x1="365" x2="365" y1="163" y2="168"/>
<line fill="#000000" stroke="#000000" stroke-width="1" x1="365" x2="365" y1="173" y2="178"/>
<line fill="#000000" stroke="#000000" stroke-width="1" x1="365" x2="365" y1="183" y2="188"/>
<line fill="#000000" stroke="#000000" stroke-width="1" x1="365" x2="365" y1="193" y2="198"/>
<line fill="#000000" stroke="#000000" stroke-width="1" x1="365" x2="365" y1="203" y2="208"/>
<line fill="#000000" stroke="#000000" stroke-width="1" x1="365" x2="365" y1="213" y2="218"/>
<line fill="#000000" stroke="#000000" stroke-width="1" x1="365" x2="365" y1="223" y2="228"/>
<line fill="#000000" stroke="#000000" stroke-width="1" x1="365" x2="365" y1="233" y2="238"/>
<line fill="#000000" stroke="#000000" stroke-width="1" x1="365" x2="365" y1="243" y2="248"/>
<line fill="#000000" stroke="#000000" stroke-width="1" x1="365" x2="365" y1="253" y2="258"/>
<line fill="#000000" stroke="#000000" stroke-width="1" x1="365" x2="365" y1="263" y2="268"/>
<line fill="#000000" stroke="#000000" stroke-width="1" x1="365" x2="365" y1="273" y2="278"/>
<line fill="#000000" stroke="#000000" stroke-width="1" x1="365" x2="365" y1="283" y2="288"/>
<line fill="#000000" stroke="#000000" stroke-width="1" x1="365" x2="365" y1="293" y2="298"/>
<line fill="#000000" stroke="#000000" stroke-width="1" x1="365" x2="365" y1="303" y2="308"/>
<line fill="#000000" stroke="#000000" stroke-width="1" x1="365" x2="365" y1="313" y2="318"/>
<rect fill="#ffffff" height="260" stroke="#ffffff" stroke-width="1" width="20" x="355" y="63"/>
<rect fill="none" height="260" stroke="#000000" stroke-width="1" width="20" x="355" y="63"/>
<rect fill="#ffffff" height="50" stroke="#ffffff" stroke-width="1" width="150" x="290" y="14"/>
<rect fill="none" height="50" stroke="#000000" stroke-width="1" width="150" x="290" y="14"/>
<text font-family="Dialog" font-size="13" x="313" y="28">
:Amministratore</text>
<polyline fill="none" points="99,88 355,88" stroke="#000000" stroke-width="1"/>
<line fill="#000000" stroke="#000000" stroke-width="1" x1="343" x2="355" y1="95" y2="88"/>
<line fill="#000000" stroke="#000000" stroke-width="1" x1="343" x2="355" y1="81" y2="88"/>
<text font-family="Dialog" font-size="13" x="121" y="86">
Reserve(mess,valPrio,nS,dott)</text>
<line fill="#000000" stroke="#000000" stroke-width="1" x1="589" x2="589" y1="136" y2="141"/>
<line fill="#000000" stroke="#000000" stroke-width="1" x1="589" x2="589" y1="146" y2="151"/>
<line fill="#000000" stroke="#000000" stroke-width="1" x1="589" x2="589" y1="156" y2="161"/>
<line fill="#000000" stroke="#000000" stroke-width="1" x1="589" x2="589" y1="166" y2="171"/>
<line fill="#000000" stroke="#000000" stroke-width="1" x1="589" x2="589" y1="176" y2="181"/>
<line fill="#000000" stroke="#000000" stroke-width="1" x1="589" x2="589" y1="186" y2="191"/>
<line fill="#000000" stroke="#000000" stroke-width="1" x1="589" x2="589" y1="196" y2="201"/>
<line fill="#000000" stroke="#000000" stroke-width="1" x1="589" x2="589" y1="206" y2="211"/>
<line fill="#000000" stroke="#000000" stroke-width="1" x1="589" x2="589" y1="216" y2="221"/>
<line fill="#000000" stroke="#000000" stroke-width="1" x1="589" x2="589" y1="226" y2="231"/>
<line fill="#000000" stroke="#000000" stroke-width="1" x1="589" x2="589" y1="236" y2="241"/>
<line fill="#000000" stroke="#000000" stroke-width="1" x1="589" x2="589" y1="246" y2="251"/>
<line fill="#000000" stroke="#000000" stroke-width="1" x1="589" x2="589" y1="256" y2="261"/>
<line fill="#000000" stroke="#000000" stroke-width="1" x1="589" x2="589" y1="266" y2="271"/>
<line fill="#000000" stroke="#000000" stroke-width="1" x1="589" x2="589" y1="276" y2="281"/>
<line fill="#000000" stroke="#000000" stroke-width="1" x1="589" x2="589" y1="286" y2="291"/>
<line fill="#000000" stroke="#000000" stroke-width="1" x1="589" x2="589" y1="296" y2="301"/>
<line fill="#000000" stroke="#000000" stroke-width="1" x1="589" x2="589" y1="306" y2="311"/>
<line fill="#000000" stroke="#000000" stroke-width="1" x1="589" x2="589" y1="316" y2="321"/>
<rect fill="#ffffff" height="187" stroke="#ffffff" stroke-width="1" width="20" x="579" y="136"/>
<rect fill="none" height="187" stroke="#000000" stroke-width="1" width="20" x="579" y="136"/>
<rect fill="#ffffff" height="50" stroke="#ffffff" stroke-width="1" width="142" x="518" y="87"/>
<rect fill="none" height="50" stroke="#000000" stroke-width="1" width="142" x="518" y="87"/>
<text font-family="Dialog" font-size="13" x="539" y="101">
/p:Prenotazione</text>
<polyline fill="none" points="375,112 518,112" stroke="#000000" stroke-width="1"/>
<polygon fill="#000000" points="518,112 506,119 506,105" stroke="#000000" stroke-width="1"/>
<polygon fill="none" points="518,112 506,119 506,105" stroke="#000000" stroke-width="1"/>
<text font-family="Dialog" font-size="13" x="402" y="105">
create</text>
<line fill="#000000" stroke="#000000" stroke-width="1" x1="753" x2="753" y1="216" y2="221"/>
<line fill="#000000" stroke="#000000" stroke-width="1" x1="753" x2="753" y1="226" y2="231"/>
<line fill="#000000" stroke="#000000" stroke-width="1" x1="753" x2="753" y1="236" y2="241"/>
<line fill="#000000" stroke="#000000" stroke-width="1" x1="753" x2="753" y1="246" y2="251"/>
<line fill="#000000" stroke="#000000" stroke-width="1" x1="753" x2="753" y1="256" y2="261"/>
<line fill="#000000" stroke="#000000" stroke-width="1" x1="753" x2="753" y1="266" y2="271"/>
<line fill="#000000" stroke="#000000" stroke-width="1" x1="753" x2="753" y1="276" y2="281"/>
<line fill="#000000" stroke="#000000" stroke-width="1" x1="753" x2="753" y1="286" y2="291"/>
<line fill="#000000" stroke="#000000" stroke-width="1" x1="753" x2="753" y1="296" y2="301"/>
<line fill="#000000" stroke="#000000" stroke-width="1" x1="753" x2="753" y1="306" y2="311"/>
<line fill="#000000" stroke="#000000" stroke-width="1" x1="753" x2="753" y1="316" y2="321"/>
<rect fill="#ffffff" height="107" stroke="#ffffff" stroke-width="1" width="20" x="743" y="216"/>
<rect fill="none" height="107" stroke="#000000" stroke-width="1" width="20" x="743" y="216"/>
<rect fill="#ffffff" height="50" stroke="#ffffff" stroke-width="1" width="150" x="678" y="167"/>
<rect fill="none" height="50" stroke="#000000" stroke-width="1" width="150" x="678" y="167"/>
<text font-family="Dialog" font-size="13" x="687" y="181">
/m:MAmministratore</text>
<polyline fill="none" points="375,192 678,192" stroke="#000000" stroke-width="1"/>
<polygon fill="#000000" points="678,192 666,199 666,185" stroke="#000000" stroke-width="1"/>
<polygon fill="none" points="678,192 666,199 666,185" stroke="#000000" stroke-width="1"/>
<text font-family="Dialog" font-size="13" x="482" y="185">
create</text>
<line fill="#000000" stroke="#000000" stroke-width="1" x1="1121" x2="1121" y1="63" y2="68"/>
<line fill="#000000" stroke="#000000" stroke-width="1" x1="1121" x2="1121" y1="73" y2="78"/>
<line fill="#000000" stroke="#000000" stroke-width="1" x1="1121" x2="1121" y1="83" y2="88"/>
<line fill="#000000" stroke="#000000" stroke-width="1" x1="1121" x2="1121" y1="93" y2="98"/>
<line fill="#000000" stroke="#000000" stroke-width="1" x1="1121" x2="1121" y1="103" y2="108"/>
<line fill="#000000" stroke="#000000" stroke-width="1" x1="1121" x2="1121" y1="113" y2="118"/>
<line fill="#000000" stroke="#000000" stroke-width="1" x1="1121" x2="1121" y1="123" y2="128"/>
<line fill="#000000" stroke="#000000" stroke-width="1" x1="1121" x2="1121" y1="133" y2="138"/>
<line fill="#000000" stroke="#000000" stroke-width="1" x1="1121" x2="1121" y1="143" y2="148"/>
<line fill="#000000" stroke="#000000" stroke-width="1" x1="1121" x2="1121" y1="153" y2="158"/>
<line fill="#000000" stroke="#000000" stroke-width="1" x1="1121" x2="1121" y1="163" y2="168"/>
<line fill="#000000" stroke="#000000" stroke-width="1" x1="1121" x2="1121" y1="173" y2="178"/>
<line fill="#000000" stroke="#000000" stroke-width="1" x1="1121" x2="1121" y1="183" y2="188"/>
<line fill="#000000" stroke="#000000" stroke-width="1" x1="1121" x2="1121" y1="193" y2="198"/>
<line fill="#000000" stroke="#000000" stroke-width="1" x1="1121" x2="1121" y1="203" y2="208"/>
<line fill="#000000" stroke="#000000" stroke-width="1" x1="1121" x2="1121" y1="213" y2="218"/>
<line fill="#000000" stroke="#000000" stroke-width="1" x1="1121" x2="1121" y1="223" y2="228"/>
<line fill="#000000" stroke="#000000" stroke-width="1" x1="1121" x2="1121" y1="233" y2="238"/>
<line fill="#000000" stroke="#000000" stroke-width="1" x1="1121" x2="1121" y1="243" y2="248"/>
<line fill="#000000" stroke="#000000" stroke-width="1" x1="1121" x2="1121" y1="253" y2="258"/>
<line fill="#000000" stroke="#000000" stroke-width="1" x1="1121" x2="1121" y1="263" y2="268"/>
<line fill="#000000" stroke="#000000" stroke-width="1" x1="1121" x2="1121" y1="273" y2="278"/>
<line fill="#000000" stroke="#000000" stroke-width="1" x1="1121" x2="1121" y1="283" y2="288"/>
<line fill="#000000" stroke="#000000" stroke-width="1" x1="1121" x2="1121" y1="293" y2="298"/>
<line fill="#000000" stroke="#000000" stroke-width="1" x1="1121" x2="1121" y1="303" y2="308"/>
<rect fill="#ffffff" height="249" stroke="#ffffff" stroke-width="1" width="20" x="1111" y="63"/>
<rect fill="none" height="249" stroke="#000000" stroke-width="1" width="20" x="1111" y="63"/>
<line fill="#000000" stroke="#000000" stroke-width="1" x1="1111" x2="1131" y1="312" y2="332"/>
<line fill="#000000" stroke="#000000" stroke-width="1" x1="1111" x2="1131" y1="332" y2="312"/>
<rect fill="#ffffff" height="50" stroke="#ffffff" stroke-width="1" width="150" x="1046" y="14"/>
<rect fill="none" height="50" stroke="#000000" stroke-width="1" width="150" x="1046" y="14"/>
<text font-family="Dialog" font-size="13" x="1066" y="28">
/mess:MPaziente</text>
<line fill="#000000" stroke="#000000" stroke-width="1" x1="953" x2="953" y1="63" y2="68"/>
<line fill="#000000" stroke="#000000" stroke-width="1" x1="953" x2="953" y1="73" y2="78"/>
<line fill="#000000" stroke="#000000" stroke-width="1" x1="953" x2="953" y1="83" y2="88"/>
<line fill="#000000" stroke="#000000" stroke-width="1" x1="953" x2="953" y1="93" y2="98"/>
<line fill="#000000" stroke="#000000" stroke-width="1" x1="953" x2="953" y1="103" y2="108"/>
<line fill="#000000" stroke="#000000" stroke-width="1" x1="953" x2="953" y1="113" y2="118"/>
<line fill="#000000" stroke="#000000" stroke-width="1" x1="953" x2="953" y1="123" y2="128"/>
<line fill="#000000" stroke="#000000" stroke-width="1" x1="953" x2="953" y1="133" y2="138"/>
<line fill="#000000" stroke="#000000" stroke-width="1" x1="953" x2="953" y1="143" y2="148"/>
<line fill="#000000" stroke="#000000" stroke-width="1" x1="953" x2="953" y1="153" y2="158"/>
<line fill="#000000" stroke="#000000" stroke-width="1" x1="953" x2="953" y1="163" y2="168"/>
<line fill="#000000" stroke="#000000" stroke-width="1" x1="953" x2="953" y1="173" y2="178"/>
<line fill="#000000" stroke="#000000" stroke-width="1" x1="953" x2="953" y1="183" y2="188"/>
<line fill="#000000" stroke="#000000" stroke-width="1" x1="953" x2="953" y1="193" y2="198"/>
<line fill="#000000" stroke="#000000" stroke-width="1" x1="953" x2="953" y1="203" y2="208"/>
<line fill="#000000" stroke="#000000" stroke-width="1" x1="953" x2="953" y1="213" y2="218"/>
<line fill="#000000" stroke="#000000" stroke-width="1" x1="953" x2="953" y1="223" y2="228"/>
<line fill="#000000" stroke="#000000" stroke-width="1" x1="953" x2="953" y1="233" y2="238"/>
<line fill="#000000" stroke="#000000" stroke-width="1" x1="953" x2="953" y1="243" y2="248"/>
<line fill="#000000" stroke="#000000" stroke-width="1" x1="953" x2="953" y1="253" y2="258"/>
<line fill="#000000" stroke="#000000" stroke-width="1" x1="953" x2="953" y1="263" y2="268"/>
<line fill="#000000" stroke="#000000" stroke-width="1" x1="953" x2="953" y1="273" y2="278"/>
<line fill="#000000" stroke="#000000" stroke-width="1" x1="953" x2="953" y1="283" y2="288"/>
<line fill="#000000" stroke="#000000" stroke-width="1" x1="953" x2="953" y1="293" y2="298"/>
<line fill="#000000" stroke="#000000" stroke-width="1" x1="953" x2="953" y1="303" y2="308"/>
<line fill="#000000" stroke="#000000" stroke-width="1" x1="953" x2="953" y1="313" y2="318"/>
<rect fill="#ffffff" height="260" stroke="#ffffff" stroke-width="1" width="20" x="943" y="63"/>
<rect fill="none" height="260" stroke="#000000" stroke-width="1" width="20" x="943" y="63"/>
<rect fill="#ffffff" height="50" stroke="#ffffff" stroke-width="1" width="150" x="878" y="14"/>
<rect fill="none" height="50" stroke="#000000" stroke-width="1" width="150" x="878" y="14"/>
<text font-family="Dialog" font-size="13" x="921" y="28">
:DB</text>
<polyline fill="none" points="599,152 943,152" stroke="#000000" stroke-width="1"/>
<line fill="#000000" stroke="#000000" stroke-width="1" x1="931" x2="943" y1="159" y2="152"/>
<line fill="#000000" stroke="#000000" stroke-width="1" x1="931" x2="943" y1="145" y2="152"/>
<text font-family="Dialog" font-size="13" x="727" y="145">
addReservation(p)</text>
<polyline fill="none" points="763,248 943,248" stroke="#000000" stroke-width="1"/>
<line fill="#000000" stroke="#000000" stroke-width="1" x1="931" x2="943" y1="255" y2="248"/>
<line fill="#000000" stroke="#000000" stroke-width="1" x1="931" x2="943" y1="241" y2="248"/>
<text font-family="Dialog" font-size="13" x="786" y="241">
addMessageAdmin(m)</text>
<polyline fill="none" points="375,296 943,296" stroke="#000000" stroke-width="1"/>
<line fill="#000000" stroke="#000000" stroke-width="1" x1="931" x2="943" y1="303" y2="296"/>
<line fill="#000000" stroke="#000000" stroke-width="1" x1="931" x2="943" y1="289" y2="296"/>
<text font-family="Dialog" font-size="13" x="613" y="289">
deleteMessagePatient (mess)</text>
<polyline fill="none" points="963,312 1111,312" stroke="#000000" stroke-width="1"/>
<polygon fill="#000000" points="1111,312 1099,319 1099,305" stroke="#000000" stroke-width="1"/>
<polygon fill="none" points="1111,312 1099,319 1099,305" stroke="#000000" stroke-width="1"/>
<text font-family="Dialog" font-size="13" x="995" y="305">
free</text>
</svg>
