<?xml version="1.0" encoding="utf-8" ?>
<!DOCTYPE svg PUBLIC "-//W3C//DTD SVG 1.1//EN" "http://www.w3.org/Graphics/SVG/1.1/DTD/svg11.dtd">
<svg height="211" version="1.1" width="723" xmlns="http://www.w3.org/2000/svg">
<line fill="#000000" stroke="#000000" stroke-width="1" x1="94" x2="94" y1="63" y2="68"/>
<line fill="#000000" stroke="#000000" stroke-width="1" x1="94" x2="94" y1="73" y2="78"/>
<line fill="#000000" stroke="#000000" stroke-width="1" x1="94" x2="94" y1="83" y2="88"/>
<line fill="#000000" stroke="#000000" stroke-width="1" x1="94" x2="94" y1="93" y2="98"/>
<line fill="#000000" stroke="#000000" stroke-width="1" x1="94" x2="94" y1="103" y2="108"/>
<line fill="#000000" stroke="#000000" stroke-width="1" x1="94" x2="94" y1="113" y2="118"/>
<line fill="#000000" stroke="#000000" stroke-width="1" x1="94" x2="94" y1="123" y2="128"/>
<line fill="#000000" stroke="#000000" stroke-width="1" x1="94" x2="94" y1="133" y2="138"/>
<line fill="#000000" stroke="#000000" stroke-width="1" x1="94" x2="94" y1="143" y2="148"/>
<line fill="#000000" stroke="#000000" stroke-width="1" x1="94" x2="94" y1="153" y2="158"/>
<line fill="#000000" stroke="#000000" stroke-width="1" x1="94" x2="94" y1="163" y2="168"/>
<line fill="#000000" stroke="#000000" stroke-width="1" x1="94" x2="94" y1="173" y2="178"/>
<line fill="#000000" stroke="#000000" stroke-width="1" x1="94" x2="94" y1="183" y2="188"/>
<line fill="#000000" stroke="#000000" stroke-width="1" x1="94" x2="94" y1="193" y2="196"/>
<rect fill="#ffffff" height="133" stroke="#ffffff" stroke-width="1" width="20" x="84" y="63"/>
<rect fill="none" height="133" stroke="#000000" stroke-width="1" width="20" x="84" y="63"/>
<rect fill="#ffffff" height="50" stroke="#ffffff" stroke-width="1" width="161" x="14" y="14"/>
<rect fill="none" height="50" stroke="#000000" stroke-width="1" width="161" x="14" y="14"/>
<text font-family="Dialog" font-size="13" x="66" y="28">
:UIStrate</text>
<line fill="#000000" stroke="#000000" stroke-width="1" x1="390" x2="390" y1="63" y2="68"/>
<line fill="#000000" stroke="#000000" stroke-width="1" x1="390" x2="390" y1="73" y2="78"/>
<line fill="#000000" stroke="#000000" stroke-width="1" x1="390" x2="390" y1="83" y2="88"/>
<line fill="#000000" stroke="#000000" stroke-width="1" x1="390" x2="390" y1="93" y2="98"/>
<line fill="#000000" stroke="#000000" stroke-width="1" x1="390" x2="390" y1="103" y2="108"/>
<line fill="#000000" stroke="#000000" stroke-width="1" x1="390" x2="390" y1="113" y2="118"/>
<line fill="#000000" stroke="#000000" stroke-width="1" x1="390" x2="390" y1="123" y2="128"/>
<line fill="#000000" stroke="#000000" stroke-width="1" x1="390" x2="390" y1="133" y2="138"/>
<line fill="#000000" stroke="#000000" stroke-width="1" x1="390" x2="390" y1="143" y2="148"/>
<line fill="#000000" stroke="#000000" stroke-width="1" x1="390" x2="390" y1="153" y2="158"/>
<line fill="#000000" stroke="#000000" stroke-width="1" x1="390" x2="390" y1="163" y2="168"/>
<line fill="#000000" stroke="#000000" stroke-width="1" x1="390" x2="390" y1="173" y2="178"/>
<line fill="#000000" stroke="#000000" stroke-width="1" x1="390" x2="390" y1="183" y2="188"/>
<line fill="#000000" stroke="#000000" stroke-width="1" x1="390" x2="390" y1="193" y2="196"/>
<rect fill="#ffffff" height="133" stroke="#ffffff" stroke-width="1" width="20" x="380" y="63"/>
<rect fill="none" height="133" stroke="#000000" stroke-width="1" width="20" x="380" y="63"/>
<rect fill="#ffffff" height="50" stroke="#ffffff" stroke-width="1" width="150" x="315" y="14"/>
<rect fill="none" height="50" stroke="#000000" stroke-width="1" width="150" x="315" y="14"/>
<text font-family="Dialog" font-size="13" x="332" y="28">
/a:Amministratore</text>
<line fill="#000000" stroke="#000000" stroke-width="1" x1="634" x2="634" y1="63" y2="68"/>
<line fill="#000000" stroke="#000000" stroke-width="1" x1="634" x2="634" y1="73" y2="78"/>
<line fill="#000000" stroke="#000000" stroke-width="1" x1="634" x2="634" y1="83" y2="88"/>
<line fill="#000000" stroke="#000000" stroke-width="1" x1="634" x2="634" y1="93" y2="98"/>
<line fill="#000000" stroke="#000000" stroke-width="1" x1="634" x2="634" y1="103" y2="108"/>
<line fill="#000000" stroke="#000000" stroke-width="1" x1="634" x2="634" y1="113" y2="118"/>
<line fill="#000000" stroke="#000000" stroke-width="1" x1="634" x2="634" y1="123" y2="128"/>
<line fill="#000000" stroke="#000000" stroke-width="1" x1="634" x2="634" y1="133" y2="138"/>
<line fill="#000000" stroke="#000000" stroke-width="1" x1="634" x2="634" y1="143" y2="148"/>
<line fill="#000000" stroke="#000000" stroke-width="1" x1="634" x2="634" y1="153" y2="158"/>
<line fill="#000000" stroke="#000000" stroke-width="1" x1="634" x2="634" y1="163" y2="168"/>
<line fill="#000000" stroke="#000000" stroke-width="1" x1="634" x2="634" y1="173" y2="178"/>
<line fill="#000000" stroke="#000000" stroke-width="1" x1="634" x2="634" y1="183" y2="188"/>
<line fill="#000000" stroke="#000000" stroke-width="1" x1="634" x2="634" y1="193" y2="196"/>
<rect fill="#ffffff" height="50" stroke="#ffffff" stroke-width="1" width="20" x="624" y="113"/>
<rect fill="none" height="50" stroke="#000000" stroke-width="1" width="20" x="624" y="113"/>
<rect fill="#ffffff" height="50" stroke="#ffffff" stroke-width="1" width="150" x="559" y="14"/>
<rect fill="none" height="50" stroke="#000000" stroke-width="1" width="150" x="559" y="14"/>
<text font-family="Dialog" font-size="13" x="602" y="28">
:DB</text>
<polyline fill="none" points="104,89 380,89" stroke="#000000" stroke-width="1"/>
<line fill="#000000" stroke="#000000" stroke-width="1" x1="368" x2="380" y1="96" y2="89"/>
<line fill="#000000" stroke="#000000" stroke-width="1" x1="368" x2="380" y1="82" y2="89"/>
<text font-family="Dialog" font-size="13" x="198" y="82">
fetchPendantReq()</text>
<polyline fill="none" points="400,113 624,113" stroke="#000000" stroke-width="1"/>
<polygon fill="#000000" points="624,113 612,120 612,106" stroke="#000000" stroke-width="1"/>
<polygon fill="none" points="624,113 612,120 612,106" stroke="#000000" stroke-width="1"/>
<text font-family="Dialog" font-size="13" x="468" y="106">
fetchPendantReq(a)</text>
<line fill="#000000" stroke="#000000" stroke-width="1" x1="624" x2="619" y1="163" y2="163"/>
<line fill="#000000" stroke="#000000" stroke-width="1" x1="614" x2="609" y1="163" y2="163"/>
<line fill="#000000" stroke="#000000" stroke-width="1" x1="604" x2="599" y1="163" y2="163"/>
<line fill="#000000" stroke="#000000" stroke-width="1" x1="594" x2="589" y1="163" y2="163"/>
<line fill="#000000" stroke="#000000" stroke-width="1" x1="584" x2="579" y1="163" y2="163"/>
<line fill="#000000" stroke="#000000" stroke-width="1" x1="574" x2="569" y1="163" y2="163"/>
<line fill="#000000" stroke="#000000" stroke-width="1" x1="564" x2="559" y1="163" y2="163"/>
<line fill="#000000" stroke="#000000" stroke-width="1" x1="554" x2="549" y1="163" y2="163"/>
<line fill="#000000" stroke="#000000" stroke-width="1" x1="544" x2="539" y1="163" y2="163"/>
<line fill="#000000" stroke="#000000" stroke-width="1" x1="534" x2="529" y1="163" y2="163"/>
<line fill="#000000" stroke="#000000" stroke-width="1" x1="524" x2="519" y1="163" y2="163"/>
<line fill="#000000" stroke="#000000" stroke-width="1" x1="514" x2="509" y1="163" y2="163"/>
<line fill="#000000" stroke="#000000" stroke-width="1" x1="504" x2="499" y1="163" y2="163"/>
<line fill="#000000" stroke="#000000" stroke-width="1" x1="494" x2="489" y1="163" y2="163"/>
<line fill="#000000" stroke="#000000" stroke-width="1" x1="484" x2="479" y1="163" y2="163"/>
<line fill="#000000" stroke="#000000" stroke-width="1" x1="474" x2="469" y1="163" y2="163"/>
<line fill="#000000" stroke="#000000" stroke-width="1" x1="464" x2="459" y1="163" y2="163"/>
<line fill="#000000" stroke="#000000" stroke-width="1" x1="454" x2="449" y1="163" y2="163"/>
<line fill="#000000" stroke="#000000" stroke-width="1" x1="444" x2="439" y1="163" y2="163"/>
<line fill="#000000" stroke="#000000" stroke-width="1" x1="434" x2="429" y1="163" y2="163"/>
<line fill="#000000" stroke="#000000" stroke-width="1" x1="424" x2="419" y1="163" y2="163"/>
<line fill="#000000" stroke="#000000" stroke-width="1" x1="414" x2="409" y1="163" y2="163"/>
<line fill="#000000" stroke="#000000" stroke-width="1" x1="404" x2="400" y1="163" y2="163"/>
<line fill="#000000" stroke="#000000" stroke-width="1" x1="412" x2="400" y1="156" y2="163"/>
<line fill="#000000" stroke="#000000" stroke-width="1" x1="412" x2="400" y1="170" y2="163"/>
<text font-family="Dialog" font-size="13" x="468" y="156">
msgs[]:MPaziente</text>
</svg>
