<?xml version="1.0" encoding="utf-8" ?>
<!DOCTYPE svg PUBLIC "-//W3C//DTD SVG 1.1//EN" "http://www.w3.org/Graphics/SVG/1.1/DTD/svg11.dtd">
<svg height="181" version="1.1" width="723" xmlns="http://www.w3.org/2000/svg">
<line fill="#000000" stroke="#000000" stroke-width="1" x1="97" x2="97" y1="63" y2="68"/>
<line fill="#000000" stroke="#000000" stroke-width="1" x1="97" x2="97" y1="73" y2="78"/>
<line fill="#000000" stroke="#000000" stroke-width="1" x1="97" x2="97" y1="83" y2="88"/>
<line fill="#000000" stroke="#000000" stroke-width="1" x1="97" x2="97" y1="93" y2="98"/>
<line fill="#000000" stroke="#000000" stroke-width="1" x1="97" x2="97" y1="103" y2="108"/>
<line fill="#000000" stroke="#000000" stroke-width="1" x1="97" x2="97" y1="113" y2="118"/>
<line fill="#000000" stroke="#000000" stroke-width="1" x1="97" x2="97" y1="123" y2="128"/>
<line fill="#000000" stroke="#000000" stroke-width="1" x1="97" x2="97" y1="133" y2="138"/>
<line fill="#000000" stroke="#000000" stroke-width="1" x1="97" x2="97" y1="143" y2="148"/>
<line fill="#000000" stroke="#000000" stroke-width="1" x1="97" x2="97" y1="153" y2="158"/>
<line fill="#000000" stroke="#000000" stroke-width="1" x1="97" x2="97" y1="163" y2="166"/>
<rect fill="#ffffff" height="103" stroke="#ffffff" stroke-width="1" width="20" x="87" y="63"/>
<rect fill="none" height="103" stroke="#000000" stroke-width="1" width="20" x="87" y="63"/>
<rect fill="#ffffff" height="50" stroke="#ffffff" stroke-width="1" width="167" x="14" y="14"/>
<rect fill="none" height="50" stroke="#000000" stroke-width="1" width="167" x="14" y="14"/>
<text font-family="Dialog" font-size="13" x="69" y="28">
:UIStrate</text>
<line fill="#000000" stroke="#000000" stroke-width="1" x1="416" x2="416" y1="63" y2="68"/>
<line fill="#000000" stroke="#000000" stroke-width="1" x1="416" x2="416" y1="73" y2="78"/>
<line fill="#000000" stroke="#000000" stroke-width="1" x1="416" x2="416" y1="83" y2="88"/>
<line fill="#000000" stroke="#000000" stroke-width="1" x1="416" x2="416" y1="93" y2="98"/>
<line fill="#000000" stroke="#000000" stroke-width="1" x1="416" x2="416" y1="103" y2="108"/>
<line fill="#000000" stroke="#000000" stroke-width="1" x1="416" x2="416" y1="113" y2="118"/>
<line fill="#000000" stroke="#000000" stroke-width="1" x1="416" x2="416" y1="123" y2="128"/>
<line fill="#000000" stroke="#000000" stroke-width="1" x1="416" x2="416" y1="133" y2="138"/>
<line fill="#000000" stroke="#000000" stroke-width="1" x1="416" x2="416" y1="143" y2="148"/>
<line fill="#000000" stroke="#000000" stroke-width="1" x1="416" x2="416" y1="153" y2="158"/>
<line fill="#000000" stroke="#000000" stroke-width="1" x1="416" x2="416" y1="163" y2="166"/>
<rect fill="#ffffff" height="56" stroke="#ffffff" stroke-width="1" width="20" x="406" y="98"/>
<rect fill="none" height="56" stroke="#000000" stroke-width="1" width="20" x="406" y="98"/>
<rect fill="#ffffff" height="50" stroke="#ffffff" stroke-width="1" width="150" x="341" y="14"/>
<rect fill="none" height="50" stroke="#000000" stroke-width="1" width="150" x="341" y="14"/>
<text font-family="Dialog" font-size="13" x="359" y="28">
:CAmministratore</text>
<polyline fill="none" points="107,98 406,98" stroke="#000000" stroke-width="1"/>
<polygon fill="#000000" points="406,98 394,105 394,91" stroke="#000000" stroke-width="1"/>
<polygon fill="none" points="406,98 394,105 394,91" stroke="#000000" stroke-width="1"/>
<text font-family="Dialog" font-size="13" x="212" y="91">
login (username, password)</text>
<line fill="#000000" stroke="#000000" stroke-width="1" x1="406" x2="401" y1="154" y2="154"/>
<line fill="#000000" stroke="#000000" stroke-width="1" x1="396" x2="391" y1="154" y2="154"/>
<line fill="#000000" stroke="#000000" stroke-width="1" x1="386" x2="381" y1="154" y2="154"/>
<line fill="#000000" stroke="#000000" stroke-width="1" x1="376" x2="371" y1="154" y2="154"/>
<line fill="#000000" stroke="#000000" stroke-width="1" x1="366" x2="361" y1="154" y2="154"/>
<line fill="#000000" stroke="#000000" stroke-width="1" x1="356" x2="351" y1="154" y2="154"/>
<line fill="#000000" stroke="#000000" stroke-width="1" x1="346" x2="341" y1="154" y2="154"/>
<line fill="#000000" stroke="#000000" stroke-width="1" x1="336" x2="331" y1="154" y2="154"/>
<line fill="#000000" stroke="#000000" stroke-width="1" x1="326" x2="321" y1="154" y2="154"/>
<line fill="#000000" stroke="#000000" stroke-width="1" x1="316" x2="311" y1="154" y2="154"/>
<line fill="#000000" stroke="#000000" stroke-width="1" x1="306" x2="301" y1="154" y2="154"/>
<line fill="#000000" stroke="#000000" stroke-width="1" x1="296" x2="291" y1="154" y2="154"/>
<line fill="#000000" stroke="#000000" stroke-width="1" x1="286" x2="281" y1="154" y2="154"/>
<line fill="#000000" stroke="#000000" stroke-width="1" x1="276" x2="271" y1="154" y2="154"/>
<line fill="#000000" stroke="#000000" stroke-width="1" x1="266" x2="261" y1="154" y2="154"/>
<line fill="#000000" stroke="#000000" stroke-width="1" x1="256" x2="251" y1="154" y2="154"/>
<line fill="#000000" stroke="#000000" stroke-width="1" x1="246" x2="241" y1="154" y2="154"/>
<line fill="#000000" stroke="#000000" stroke-width="1" x1="236" x2="231" y1="154" y2="154"/>
<line fill="#000000" stroke="#000000" stroke-width="1" x1="226" x2="221" y1="154" y2="154"/>
<line fill="#000000" stroke="#000000" stroke-width="1" x1="216" x2="211" y1="154" y2="154"/>
<line fill="#000000" stroke="#000000" stroke-width="1" x1="206" x2="201" y1="154" y2="154"/>
<line fill="#000000" stroke="#000000" stroke-width="1" x1="196" x2="191" y1="154" y2="154"/>
<line fill="#000000" stroke="#000000" stroke-width="1" x1="186" x2="181" y1="154" y2="154"/>
<line fill="#000000" stroke="#000000" stroke-width="1" x1="176" x2="171" y1="154" y2="154"/>
<line fill="#000000" stroke="#000000" stroke-width="1" x1="166" x2="161" y1="154" y2="154"/>
<line fill="#000000" stroke="#000000" stroke-width="1" x1="156" x2="151" y1="154" y2="154"/>
<line fill="#000000" stroke="#000000" stroke-width="1" x1="146" x2="141" y1="154" y2="154"/>
<line fill="#000000" stroke="#000000" stroke-width="1" x1="136" x2="131" y1="154" y2="154"/>
<line fill="#000000" stroke="#000000" stroke-width="1" x1="126" x2="121" y1="154" y2="154"/>
<line fill="#000000" stroke="#000000" stroke-width="1" x1="116" x2="111" y1="154" y2="154"/>
<line fill="#000000" stroke="#000000" stroke-width="1" x1="119" x2="107" y1="147" y2="154"/>
<line fill="#000000" stroke="#000000" stroke-width="1" x1="119" x2="107" y1="161" y2="154"/>
<text font-family="Dialog" font-size="13" x="209" y="148">
p:Guest</text>
<line fill="#000000" stroke="#000000" stroke-width="1" x1="641" x2="641" y1="63" y2="68"/>
<line fill="#000000" stroke="#000000" stroke-width="1" x1="641" x2="641" y1="73" y2="78"/>
<line fill="#000000" stroke="#000000" stroke-width="1" x1="641" x2="641" y1="83" y2="88"/>
<line fill="#000000" stroke="#000000" stroke-width="1" x1="641" x2="641" y1="93" y2="98"/>
<line fill="#000000" stroke="#000000" stroke-width="1" x1="641" x2="641" y1="103" y2="108"/>
<line fill="#000000" stroke="#000000" stroke-width="1" x1="641" x2="641" y1="113" y2="118"/>
<line fill="#000000" stroke="#000000" stroke-width="1" x1="641" x2="641" y1="123" y2="128"/>
<line fill="#000000" stroke="#000000" stroke-width="1" x1="641" x2="641" y1="133" y2="138"/>
<line fill="#000000" stroke="#000000" stroke-width="1" x1="641" x2="641" y1="143" y2="148"/>
<line fill="#000000" stroke="#000000" stroke-width="1" x1="641" x2="641" y1="153" y2="158"/>
<line fill="#000000" stroke="#000000" stroke-width="1" x1="641" x2="641" y1="163" y2="166"/>
<rect fill="#ffffff" height="20" stroke="#ffffff" stroke-width="1" width="20" x="631" y="118"/>
<rect fill="none" height="20" stroke="#000000" stroke-width="1" width="20" x="631" y="118"/>
<rect fill="#ffffff" height="50" stroke="#ffffff" stroke-width="1" width="136" x="573" y="14"/>
<rect fill="none" height="50" stroke="#000000" stroke-width="1" width="136" x="573" y="14"/>
<text font-family="Dialog" font-size="13" x="629" y="28">
:DB</text>
<polyline fill="none" points="426,118 631,118" stroke="#000000" stroke-width="1"/>
<polygon fill="#000000" points="631,118 619,125 619,111" stroke="#000000" stroke-width="1"/>
<polygon fill="none" points="631,118 619,125 619,111" stroke="#000000" stroke-width="1"/>
<text font-family="Dialog" font-size="13" x="436" y="112">
loginAdmin (username, pw)</text>
<polyline fill="none" points="631,138 426,138" stroke="#000000" stroke-width="1"/>
<line fill="#000000" stroke="#000000" stroke-width="1" x1="438" x2="426" y1="131" y2="138"/>
<line fill="#000000" stroke="#000000" stroke-width="1" x1="438" x2="426" y1="145" y2="138"/>
</svg>
