<?xml version="1.0" encoding="utf-8" ?>
<!DOCTYPE svg PUBLIC "-//W3C//DTD SVG 1.1//EN" "http://www.w3.org/Graphics/SVG/1.1/DTD/svg11.dtd">
<svg height="194" version="1.1" width="722" xmlns="http://www.w3.org/2000/svg">
<line fill="#000000" stroke="#000000" stroke-width="1" x1="102" x2="102" y1="63" y2="68"/>
<line fill="#000000" stroke="#000000" stroke-width="1" x1="102" x2="102" y1="73" y2="78"/>
<line fill="#000000" stroke="#000000" stroke-width="1" x1="102" x2="102" y1="83" y2="88"/>
<line fill="#000000" stroke="#000000" stroke-width="1" x1="102" x2="102" y1="93" y2="98"/>
<line fill="#000000" stroke="#000000" stroke-width="1" x1="102" x2="102" y1="103" y2="108"/>
<line fill="#000000" stroke="#000000" stroke-width="1" x1="102" x2="102" y1="113" y2="118"/>
<line fill="#000000" stroke="#000000" stroke-width="1" x1="102" x2="102" y1="123" y2="128"/>
<line fill="#000000" stroke="#000000" stroke-width="1" x1="102" x2="102" y1="133" y2="138"/>
<line fill="#000000" stroke="#000000" stroke-width="1" x1="102" x2="102" y1="143" y2="148"/>
<line fill="#000000" stroke="#000000" stroke-width="1" x1="102" x2="102" y1="153" y2="158"/>
<line fill="#000000" stroke="#000000" stroke-width="1" x1="102" x2="102" y1="163" y2="168"/>
<line fill="#000000" stroke="#000000" stroke-width="1" x1="102" x2="102" y1="173" y2="178"/>
<rect fill="#ffffff" height="116" stroke="#ffffff" stroke-width="1" width="20" x="92" y="63"/>
<rect fill="none" height="116" stroke="#000000" stroke-width="1" width="20" x="92" y="63"/>
<rect fill="#ffffff" height="50" stroke="#ffffff" stroke-width="1" width="176" x="14" y="14"/>
<rect fill="none" height="50" stroke="#000000" stroke-width="1" width="176" x="14" y="14"/>
<text font-family="Dialog" font-size="13" x="73" y="28">
:UIStrate</text>
<line fill="#000000" stroke="#000000" stroke-width="1" x1="377" x2="377" y1="63" y2="68"/>
<line fill="#000000" stroke="#000000" stroke-width="1" x1="377" x2="377" y1="73" y2="78"/>
<line fill="#000000" stroke="#000000" stroke-width="1" x1="377" x2="377" y1="83" y2="88"/>
<line fill="#000000" stroke="#000000" stroke-width="1" x1="377" x2="377" y1="93" y2="98"/>
<line fill="#000000" stroke="#000000" stroke-width="1" x1="377" x2="377" y1="103" y2="108"/>
<line fill="#000000" stroke="#000000" stroke-width="1" x1="377" x2="377" y1="113" y2="118"/>
<line fill="#000000" stroke="#000000" stroke-width="1" x1="377" x2="377" y1="123" y2="128"/>
<line fill="#000000" stroke="#000000" stroke-width="1" x1="377" x2="377" y1="133" y2="138"/>
<line fill="#000000" stroke="#000000" stroke-width="1" x1="377" x2="377" y1="143" y2="148"/>
<line fill="#000000" stroke="#000000" stroke-width="1" x1="377" x2="377" y1="153" y2="158"/>
<line fill="#000000" stroke="#000000" stroke-width="1" x1="377" x2="377" y1="163" y2="168"/>
<line fill="#000000" stroke="#000000" stroke-width="1" x1="377" x2="377" y1="173" y2="178"/>
<rect fill="#ffffff" height="116" stroke="#ffffff" stroke-width="1" width="20" x="367" y="63"/>
<rect fill="none" height="116" stroke="#000000" stroke-width="1" width="20" x="367" y="63"/>
<rect fill="#ffffff" height="50" stroke="#ffffff" stroke-width="1" width="150" x="302" y="14"/>
<rect fill="none" height="50" stroke="#000000" stroke-width="1" width="150" x="302" y="14"/>
<text font-family="Dialog" font-size="13" x="319" y="28">
/a:Amministratore</text>
<line fill="#000000" stroke="#000000" stroke-width="1" x1="633" x2="633" y1="63" y2="68"/>
<line fill="#000000" stroke="#000000" stroke-width="1" x1="633" x2="633" y1="73" y2="78"/>
<line fill="#000000" stroke="#000000" stroke-width="1" x1="633" x2="633" y1="83" y2="88"/>
<line fill="#000000" stroke="#000000" stroke-width="1" x1="633" x2="633" y1="93" y2="98"/>
<line fill="#000000" stroke="#000000" stroke-width="1" x1="633" x2="633" y1="103" y2="108"/>
<line fill="#000000" stroke="#000000" stroke-width="1" x1="633" x2="633" y1="113" y2="118"/>
<line fill="#000000" stroke="#000000" stroke-width="1" x1="633" x2="633" y1="123" y2="128"/>
<line fill="#000000" stroke="#000000" stroke-width="1" x1="633" x2="633" y1="133" y2="138"/>
<line fill="#000000" stroke="#000000" stroke-width="1" x1="633" x2="633" y1="143" y2="148"/>
<line fill="#000000" stroke="#000000" stroke-width="1" x1="633" x2="633" y1="153" y2="158"/>
<line fill="#000000" stroke="#000000" stroke-width="1" x1="633" x2="633" y1="163" y2="168"/>
<line fill="#000000" stroke="#000000" stroke-width="1" x1="633" x2="633" y1="173" y2="178"/>
<rect fill="#ffffff" height="50" stroke="#ffffff" stroke-width="1" width="20" x="623" y="120"/>
<rect fill="none" height="50" stroke="#000000" stroke-width="1" width="20" x="623" y="120"/>
<rect fill="#ffffff" height="50" stroke="#ffffff" stroke-width="1" width="150" x="558" y="14"/>
<rect fill="none" height="50" stroke="#000000" stroke-width="1" width="150" x="558" y="14"/>
<text font-family="Dialog" font-size="13" x="601" y="28">
:DB</text>
<polyline fill="none" points="112,88 367,88" stroke="#000000" stroke-width="1"/>
<line fill="#000000" stroke="#000000" stroke-width="1" x1="355" x2="367" y1="95" y2="88"/>
<line fill="#000000" stroke="#000000" stroke-width="1" x1="355" x2="367" y1="81" y2="88"/>
<text font-family="Dialog" font-size="13" x="195" y="81">
fetchRemoveReq()</text>
<polyline fill="none" points="387,120 623,120" stroke="#000000" stroke-width="1"/>
<polygon fill="#000000" points="623,120 611,127 611,113" stroke="#000000" stroke-width="1"/>
<polygon fill="none" points="623,120 611,127 611,113" stroke="#000000" stroke-width="1"/>
<text font-family="Dialog" font-size="13" x="461" y="113">
fetchRemoveReq(a)</text>
<line fill="#000000" stroke="#000000" stroke-width="1" x1="623" x2="618" y1="170" y2="170"/>
<line fill="#000000" stroke="#000000" stroke-width="1" x1="613" x2="608" y1="170" y2="170"/>
<line fill="#000000" stroke="#000000" stroke-width="1" x1="603" x2="598" y1="170" y2="170"/>
<line fill="#000000" stroke="#000000" stroke-width="1" x1="593" x2="588" y1="170" y2="170"/>
<line fill="#000000" stroke="#000000" stroke-width="1" x1="583" x2="578" y1="170" y2="170"/>
<line fill="#000000" stroke="#000000" stroke-width="1" x1="573" x2="568" y1="170" y2="170"/>
<line fill="#000000" stroke="#000000" stroke-width="1" x1="563" x2="558" y1="170" y2="170"/>
<line fill="#000000" stroke="#000000" stroke-width="1" x1="553" x2="548" y1="170" y2="170"/>
<line fill="#000000" stroke="#000000" stroke-width="1" x1="543" x2="538" y1="170" y2="170"/>
<line fill="#000000" stroke="#000000" stroke-width="1" x1="533" x2="528" y1="170" y2="170"/>
<line fill="#000000" stroke="#000000" stroke-width="1" x1="523" x2="518" y1="170" y2="170"/>
<line fill="#000000" stroke="#000000" stroke-width="1" x1="513" x2="508" y1="170" y2="170"/>
<line fill="#000000" stroke="#000000" stroke-width="1" x1="503" x2="498" y1="170" y2="170"/>
<line fill="#000000" stroke="#000000" stroke-width="1" x1="493" x2="488" y1="170" y2="170"/>
<line fill="#000000" stroke="#000000" stroke-width="1" x1="483" x2="478" y1="170" y2="170"/>
<line fill="#000000" stroke="#000000" stroke-width="1" x1="473" x2="468" y1="170" y2="170"/>
<line fill="#000000" stroke="#000000" stroke-width="1" x1="463" x2="458" y1="170" y2="170"/>
<line fill="#000000" stroke="#000000" stroke-width="1" x1="453" x2="448" y1="170" y2="170"/>
<line fill="#000000" stroke="#000000" stroke-width="1" x1="443" x2="438" y1="170" y2="170"/>
<line fill="#000000" stroke="#000000" stroke-width="1" x1="433" x2="428" y1="170" y2="170"/>
<line fill="#000000" stroke="#000000" stroke-width="1" x1="423" x2="418" y1="170" y2="170"/>
<line fill="#000000" stroke="#000000" stroke-width="1" x1="413" x2="408" y1="170" y2="170"/>
<line fill="#000000" stroke="#000000" stroke-width="1" x1="403" x2="398" y1="170" y2="170"/>
<line fill="#000000" stroke="#000000" stroke-width="1" x1="393" x2="388" y1="170" y2="170"/>
<line fill="#000000" stroke="#000000" stroke-width="1" x1="399" x2="387" y1="163" y2="170"/>
<line fill="#000000" stroke="#000000" stroke-width="1" x1="399" x2="387" y1="177" y2="170"/>
<text font-family="Dialog" font-size="13" x="461" y="163">
msgs[]:MPaziente</text>
</svg>
