<?xml version="1.0" encoding="utf-8" ?>
<!DOCTYPE svg PUBLIC "-//W3C//DTD SVG 1.1//EN" "http://www.w3.org/Graphics/SVG/1.1/DTD/svg11.dtd">
<svg height="177" version="1.1" width="736" xmlns="http://www.w3.org/2000/svg">
<line fill="#000000" stroke="#000000" stroke-width="1" x1="81" x2="81" y1="63" y2="68"/>
<line fill="#000000" stroke="#000000" stroke-width="1" x1="81" x2="81" y1="73" y2="78"/>
<line fill="#000000" stroke="#000000" stroke-width="1" x1="81" x2="81" y1="83" y2="88"/>
<line fill="#000000" stroke="#000000" stroke-width="1" x1="81" x2="81" y1="93" y2="98"/>
<line fill="#000000" stroke="#000000" stroke-width="1" x1="81" x2="81" y1="103" y2="108"/>
<line fill="#000000" stroke="#000000" stroke-width="1" x1="81" x2="81" y1="113" y2="118"/>
<line fill="#000000" stroke="#000000" stroke-width="1" x1="81" x2="81" y1="123" y2="128"/>
<line fill="#000000" stroke="#000000" stroke-width="1" x1="81" x2="81" y1="133" y2="138"/>
<line fill="#000000" stroke="#000000" stroke-width="1" x1="81" x2="81" y1="143" y2="148"/>
<line fill="#000000" stroke="#000000" stroke-width="1" x1="81" x2="81" y1="153" y2="158"/>
<rect fill="#ffffff" height="99" stroke="#ffffff" stroke-width="1" width="20" x="71" y="63"/>
<rect fill="none" height="99" stroke="#000000" stroke-width="1" width="20" x="71" y="63"/>
<rect fill="#ffffff" height="50" stroke="#ffffff" stroke-width="1" width="135" x="14" y="14"/>
<rect fill="none" height="50" stroke="#000000" stroke-width="1" width="135" x="14" y="14"/>
<text font-family="Dialog" font-size="13" x="53" y="28">
:UIStrate</text>
<line fill="#000000" stroke="#000000" stroke-width="1" x1="365" x2="365" y1="63" y2="68"/>
<line fill="#000000" stroke="#000000" stroke-width="1" x1="365" x2="365" y1="73" y2="78"/>
<line fill="#000000" stroke="#000000" stroke-width="1" x1="365" x2="365" y1="83" y2="88"/>
<line fill="#000000" stroke="#000000" stroke-width="1" x1="365" x2="365" y1="93" y2="98"/>
<line fill="#000000" stroke="#000000" stroke-width="1" x1="365" x2="365" y1="103" y2="108"/>
<line fill="#000000" stroke="#000000" stroke-width="1" x1="365" x2="365" y1="113" y2="118"/>
<line fill="#000000" stroke="#000000" stroke-width="1" x1="365" x2="365" y1="123" y2="128"/>
<line fill="#000000" stroke="#000000" stroke-width="1" x1="365" x2="365" y1="133" y2="138"/>
<line fill="#000000" stroke="#000000" stroke-width="1" x1="365" x2="365" y1="143" y2="148"/>
<line fill="#000000" stroke="#000000" stroke-width="1" x1="365" x2="365" y1="153" y2="158"/>
<rect fill="#ffffff" height="99" stroke="#ffffff" stroke-width="1" width="20" x="355" y="63"/>
<rect fill="none" height="99" stroke="#000000" stroke-width="1" width="20" x="355" y="63"/>
<rect fill="#ffffff" height="50" stroke="#ffffff" stroke-width="1" width="151" x="290" y="14"/>
<rect fill="none" height="50" stroke="#000000" stroke-width="1" width="151" x="290" y="14"/>
<text font-family="Dialog" font-size="13" x="294" y="28">
/amm:Amministratore</text>
<line fill="#000000" stroke="#000000" stroke-width="1" x1="647" x2="647" y1="63" y2="68"/>
<line fill="#000000" stroke="#000000" stroke-width="1" x1="647" x2="647" y1="73" y2="78"/>
<line fill="#000000" stroke="#000000" stroke-width="1" x1="647" x2="647" y1="83" y2="88"/>
<line fill="#000000" stroke="#000000" stroke-width="1" x1="647" x2="647" y1="93" y2="98"/>
<line fill="#000000" stroke="#000000" stroke-width="1" x1="647" x2="647" y1="103" y2="108"/>
<line fill="#000000" stroke="#000000" stroke-width="1" x1="647" x2="647" y1="113" y2="118"/>
<line fill="#000000" stroke="#000000" stroke-width="1" x1="647" x2="647" y1="123" y2="128"/>
<line fill="#000000" stroke="#000000" stroke-width="1" x1="647" x2="647" y1="133" y2="138"/>
<line fill="#000000" stroke="#000000" stroke-width="1" x1="647" x2="647" y1="143" y2="148"/>
<line fill="#000000" stroke="#000000" stroke-width="1" x1="647" x2="647" y1="153" y2="158"/>
<rect fill="#ffffff" height="48" stroke="#ffffff" stroke-width="1" width="20" x="637" y="95"/>
<rect fill="none" height="48" stroke="#000000" stroke-width="1" width="20" x="637" y="95"/>
<rect fill="#ffffff" height="50" stroke="#ffffff" stroke-width="1" width="150" x="572" y="14"/>
<rect fill="none" height="50" stroke="#000000" stroke-width="1" width="150" x="572" y="14"/>
<text font-family="Dialog" font-size="13" x="615" y="28">
:DB</text>
<polyline fill="none" points="91,95 355,95" stroke="#000000" stroke-width="1"/>
<line fill="#000000" stroke="#000000" stroke-width="1" x1="343" x2="355" y1="102" y2="95"/>
<line fill="#000000" stroke="#000000" stroke-width="1" x1="343" x2="355" y1="88" y2="95"/>
<text font-family="Dialog" font-size="13" x="179" y="88">
fetchPostpone()</text>
<polyline fill="none" points="375,95 637,95" stroke="#000000" stroke-width="1"/>
<polygon fill="#000000" points="637,95 625,102 625,88" stroke="#000000" stroke-width="1"/>
<polygon fill="none" points="637,95 625,102 625,88" stroke="#000000" stroke-width="1"/>
<text font-family="Dialog" font-size="13" x="462" y="88">
fetchPostpone(amm)</text>
<line fill="#000000" stroke="#000000" stroke-width="1" x1="637" x2="632" y1="143" y2="143"/>
<line fill="#000000" stroke="#000000" stroke-width="1" x1="627" x2="622" y1="143" y2="143"/>
<line fill="#000000" stroke="#000000" stroke-width="1" x1="617" x2="612" y1="143" y2="143"/>
<line fill="#000000" stroke="#000000" stroke-width="1" x1="607" x2="602" y1="143" y2="143"/>
<line fill="#000000" stroke="#000000" stroke-width="1" x1="597" x2="592" y1="143" y2="143"/>
<line fill="#000000" stroke="#000000" stroke-width="1" x1="587" x2="582" y1="143" y2="143"/>
<line fill="#000000" stroke="#000000" stroke-width="1" x1="577" x2="572" y1="143" y2="143"/>
<line fill="#000000" stroke="#000000" stroke-width="1" x1="567" x2="562" y1="143" y2="143"/>
<line fill="#000000" stroke="#000000" stroke-width="1" x1="557" x2="552" y1="143" y2="143"/>
<line fill="#000000" stroke="#000000" stroke-width="1" x1="547" x2="542" y1="143" y2="143"/>
<line fill="#000000" stroke="#000000" stroke-width="1" x1="537" x2="532" y1="143" y2="143"/>
<line fill="#000000" stroke="#000000" stroke-width="1" x1="527" x2="522" y1="143" y2="143"/>
<line fill="#000000" stroke="#000000" stroke-width="1" x1="517" x2="512" y1="143" y2="143"/>
<line fill="#000000" stroke="#000000" stroke-width="1" x1="507" x2="502" y1="143" y2="143"/>
<line fill="#000000" stroke="#000000" stroke-width="1" x1="497" x2="492" y1="143" y2="143"/>
<line fill="#000000" stroke="#000000" stroke-width="1" x1="487" x2="482" y1="143" y2="143"/>
<line fill="#000000" stroke="#000000" stroke-width="1" x1="477" x2="472" y1="143" y2="143"/>
<line fill="#000000" stroke="#000000" stroke-width="1" x1="467" x2="462" y1="143" y2="143"/>
<line fill="#000000" stroke="#000000" stroke-width="1" x1="457" x2="452" y1="143" y2="143"/>
<line fill="#000000" stroke="#000000" stroke-width="1" x1="447" x2="442" y1="143" y2="143"/>
<line fill="#000000" stroke="#000000" stroke-width="1" x1="437" x2="432" y1="143" y2="143"/>
<line fill="#000000" stroke="#000000" stroke-width="1" x1="427" x2="422" y1="143" y2="143"/>
<line fill="#000000" stroke="#000000" stroke-width="1" x1="417" x2="412" y1="143" y2="143"/>
<line fill="#000000" stroke="#000000" stroke-width="1" x1="407" x2="402" y1="143" y2="143"/>
<line fill="#000000" stroke="#000000" stroke-width="1" x1="397" x2="392" y1="143" y2="143"/>
<line fill="#000000" stroke="#000000" stroke-width="1" x1="387" x2="382" y1="143" y2="143"/>
<line fill="#000000" stroke="#000000" stroke-width="1" x1="377" x2="375" y1="143" y2="143"/>
<line fill="#000000" stroke="#000000" stroke-width="1" x1="387" x2="375" y1="136" y2="143"/>
<line fill="#000000" stroke="#000000" stroke-width="1" x1="387" x2="375" y1="150" y2="143"/>
<text font-family="Dialog" font-size="13" x="455" y="136">
msg:MPaziente[]</text>
</svg>
