<?xml version="1.0" encoding="utf-8" ?>
<!DOCTYPE svg PUBLIC "-//W3C//DTD SVG 1.1//EN" "http://www.w3.org/Graphics/SVG/1.1/DTD/svg11.dtd">
<svg height="139" version="1.1" width="682" xmlns="http://www.w3.org/2000/svg">
<line fill="#000000" stroke="#000000" stroke-width="1" x1="78" x2="78" y1="63" y2="68"/>
<line fill="#000000" stroke="#000000" stroke-width="1" x1="78" x2="78" y1="73" y2="78"/>
<line fill="#000000" stroke="#000000" stroke-width="1" x1="78" x2="78" y1="83" y2="88"/>
<line fill="#000000" stroke="#000000" stroke-width="1" x1="78" x2="78" y1="93" y2="98"/>
<line fill="#000000" stroke="#000000" stroke-width="1" x1="78" x2="78" y1="103" y2="108"/>
<line fill="#000000" stroke="#000000" stroke-width="1" x1="78" x2="78" y1="113" y2="118"/>
<line fill="#000000" stroke="#000000" stroke-width="1" x1="78" x2="78" y1="123" y2="124"/>
<rect fill="#ffffff" height="61" stroke="#ffffff" stroke-width="1" width="20" x="68" y="63"/>
<rect fill="none" height="61" stroke="#000000" stroke-width="1" width="20" x="68" y="63"/>
<rect fill="#ffffff" height="50" stroke="#ffffff" stroke-width="1" width="128" x="14" y="14"/>
<rect fill="none" height="50" stroke="#000000" stroke-width="1" width="128" x="14" y="14"/>
<text font-family="Dialog" font-size="13" x="49" y="28">
:UIStrate</text>
<line fill="#000000" stroke="#000000" stroke-width="1" x1="361" x2="361" y1="63" y2="68"/>
<line fill="#000000" stroke="#000000" stroke-width="1" x1="361" x2="361" y1="73" y2="78"/>
<line fill="#000000" stroke="#000000" stroke-width="1" x1="361" x2="361" y1="83" y2="88"/>
<line fill="#000000" stroke="#000000" stroke-width="1" x1="361" x2="361" y1="93" y2="98"/>
<line fill="#000000" stroke="#000000" stroke-width="1" x1="361" x2="361" y1="103" y2="108"/>
<line fill="#000000" stroke="#000000" stroke-width="1" x1="361" x2="361" y1="113" y2="118"/>
<line fill="#000000" stroke="#000000" stroke-width="1" x1="361" x2="361" y1="123" y2="124"/>
<rect fill="#ffffff" height="61" stroke="#ffffff" stroke-width="1" width="20" x="351" y="63"/>
<rect fill="none" height="61" stroke="#000000" stroke-width="1" width="20" x="351" y="63"/>
<rect fill="#ffffff" height="50" stroke="#ffffff" stroke-width="1" width="150" x="286" y="14"/>
<rect fill="none" height="50" stroke="#000000" stroke-width="1" width="150" x="286" y="14"/>
<text font-family="Dialog" font-size="13" x="329" y="28">
:DB</text>
<line fill="#000000" stroke="#000000" stroke-width="1" x1="593" x2="593" y1="63" y2="68"/>
<line fill="#000000" stroke="#000000" stroke-width="1" x1="593" x2="593" y1="73" y2="78"/>
<line fill="#000000" stroke="#000000" stroke-width="1" x1="593" x2="593" y1="83" y2="88"/>
<line fill="#000000" stroke="#000000" stroke-width="1" x1="593" x2="593" y1="93" y2="98"/>
<line fill="#000000" stroke="#000000" stroke-width="1" x1="593" x2="593" y1="103" y2="105"/>
<rect fill="#ffffff" height="42" stroke="#ffffff" stroke-width="1" width="20" x="583" y="63"/>
<rect fill="none" height="42" stroke="#000000" stroke-width="1" width="20" x="583" y="63"/>
<line fill="#000000" stroke="#000000" stroke-width="1" x1="583" x2="603" y1="105" y2="125"/>
<line fill="#000000" stroke="#000000" stroke-width="1" x1="583" x2="603" y1="125" y2="105"/>
<rect fill="#ffffff" height="50" stroke="#ffffff" stroke-width="1" width="150" x="518" y="14"/>
<rect fill="none" height="50" stroke="#000000" stroke-width="1" width="150" x="518" y="14"/>
<text font-family="Dialog" font-size="13" x="542" y="28">
/msg:MPaziente</text>
<polyline fill="none" points="88,89 351,89" stroke="#000000" stroke-width="1"/>
<line fill="#000000" stroke="#000000" stroke-width="1" x1="339" x2="351" y1="96" y2="89"/>
<line fill="#000000" stroke="#000000" stroke-width="1" x1="339" x2="351" y1="82" y2="89"/>
<text font-family="Dialog" font-size="13" x="123" y="83">
destroyRequestPostpone (msg)</text>
<polyline fill="none" points="371,105 583,105" stroke="#000000" stroke-width="1"/>
<polygon fill="#000000" points="583,105 571,112 571,98" stroke="#000000" stroke-width="1"/>
<polygon fill="none" points="583,105 571,112 571,98" stroke="#000000" stroke-width="1"/>
<text font-family="Dialog" font-size="13" x="435" y="98">
free</text>
</svg>
