<?xml version="1.0" encoding="utf-8" ?>
<!DOCTYPE svg PUBLIC "-//W3C//DTD SVG 1.1//EN" "http://www.w3.org/Graphics/SVG/1.1/DTD/svg11.dtd">
<svg height="586" version="1.1" width="1649" xmlns="http://www.w3.org/2000/svg">
<rect fill="#ffffff" height="186" stroke="#ffffff" stroke-width="1" width="188" x="126" y="156"/>
<rect fill="none" height="186" stroke="#000000" stroke-width="1" width="188" x="126" y="156"/>
<text font-family="Dialog" font-size="13" x="178" y="170">
ModelPatient</text>
<rect fill="#000000" height="1" stroke="#000000" stroke-width="1" width="188" x="126" y="181"/>
<text font-family="Dialog" font-size="13" x="130" y="196">
credenziali</text>
<rect fill="#000000" height="1" stroke="#000000" stroke-width="1" width="188" x="126" y="207"/>
<text font-family="Dialog" font-size="13" x="130" y="222">
fetchReservation()</text>
<text font-family="Dialog" font-size="13" x="130" y="240">
printOnSupport(obj,support)</text>
<text font-family="Dialog" font-size="13" x="130" y="258">
reserveVisit()</text>
<text font-family="Dialog" font-size="13" x="130" y="276">
retireReservation()</text>
<text font-family="Dialog" font-size="13" x="130" y="294">
deferReservation(res)</text>
<text font-family="Dialog" font-size="13" x="130" y="312">
fetchReport(res)</text>
<text font-family="Dialog" font-size="13" x="130" y="330">
create()</text>
<rect fill="#ffffff" height="73" stroke="#ffffff" stroke-width="1" width="77" x="110" y="484"/>
<rect fill="none" height="73" stroke="#000000" stroke-width="1" width="77" x="110" y="484"/>
<text font-family="Dialog" font-size="13" x="128" y="498">
Tutore</text>
<rect fill="#000000" height="1" stroke="#000000" stroke-width="1" width="77" x="110" y="509"/>
<text font-family="Dialog" font-size="13" x="114" y="524">
credenziali</text>
<rect fill="#000000" height="1" stroke="#000000" stroke-width="1" width="77" x="110" y="535"/>
<rect fill="#ffffff" height="68" stroke="#ffffff" stroke-width="1" width="155" x="166" y="364"/>
<rect fill="none" height="68" stroke="#000000" stroke-width="1" width="155" x="166" y="364"/>
<text font-family="Dialog" font-size="13" x="171" y="378">
Paziente maggiorenne</text>
<rect fill="#000000" height="1" stroke="#000000" stroke-width="1" width="155" x="166" y="389"/>
<rect fill="#000000" height="1" stroke="#000000" stroke-width="1" width="155" x="166" y="410"/>
<rect fill="#ffffff" height="126" stroke="#ffffff" stroke-width="1" width="180" x="326" y="236"/>
<rect fill="none" height="126" stroke="#000000" stroke-width="1" width="180" x="326" y="236"/>
<text font-family="Dialog" font-size="13" x="374" y="250">
Prenotazione</text>
<rect fill="#000000" height="1" stroke="#000000" stroke-width="1" width="180" x="326" y="261"/>
<text font-family="Dialog" font-size="13" x="330" y="276">
data</text>
<text font-family="Dialog" font-size="13" x="330" y="294">
priorità</text>
<rect fill="#000000" height="1" stroke="#000000" stroke-width="1" width="180" x="326" y="311"/>
<text font-family="Dialog" font-size="13" x="330" y="326">
postponeReservs(param1)</text>
<text font-family="Dialog" font-size="13" x="330" y="344">
retireReservation()</text>
<rect fill="#ffffff" height="150" stroke="#ffffff" stroke-width="1" width="172" x="454" y="84"/>
<rect fill="none" height="150" stroke="#000000" stroke-width="1" width="172" x="454" y="84"/>
<text font-family="Dialog" font-size="13" x="490" y="98">
Amministratore</text>
<rect fill="#000000" height="1" stroke="#000000" stroke-width="1" width="172" x="454" y="109"/>
<text font-family="Dialog" font-size="13" x="458" y="124">
credenziali</text>
<rect fill="#000000" height="1" stroke="#000000" stroke-width="1" width="172" x="454" y="135"/>
<text font-family="Dialog" font-size="13" x="458" y="150">
fetchReservations()</text>
<text font-family="Dialog" font-size="13" x="458" y="168">
fetchPendantReq()</text>
<text font-family="Dialog" font-size="13" x="458" y="186">
reserveVisit(msg)</text>
<text font-family="Dialog" font-size="13" x="458" y="204">
retireReservation(msg)</text>
<text font-family="Dialog" font-size="13" x="458" y="222">
deferReservation(msg)</text>
<rect fill="#ffffff" height="68" stroke="#ffffff" stroke-width="1" width="66" x="534" y="364"/>
<rect fill="none" height="68" stroke="#000000" stroke-width="1" width="66" x="534" y="364"/>
<text font-family="Dialog" font-size="13" x="553" y="378">
Sala</text>
<rect fill="#000000" height="1" stroke="#000000" stroke-width="1" width="66" x="534" y="389"/>
<rect fill="#000000" height="1" stroke="#000000" stroke-width="1" width="66" x="534" y="410"/>
<polyline fill="none" points="238,364 238,356 166,356 166,341" stroke="#000000" stroke-width="1"/>
<polygon fill="#ffffff" points="166,341 173,353 159,353" stroke="#ffffff" stroke-width="1"/>
<polygon fill="none" points="166,341 173,353 159,353" stroke="#000000" stroke-width="1"/>
<polyline fill="none" points="566,233 566,364" stroke="#000000" stroke-width="1"/>
<polyline fill="none" points="454,233 454,236" stroke="#000000" stroke-width="1"/>
<polyline fill="none" points="313,228 398,228 398,236" stroke="#000000" stroke-width="1"/>
<rect fill="#ffffff" height="91" stroke="#ffffff" stroke-width="1" width="86" x="390" y="372"/>
<rect fill="none" height="91" stroke="#000000" stroke-width="1" width="86" x="390" y="372"/>
<text font-family="Dialog" font-size="13" x="420" y="386">
Slot</text>
<rect fill="#000000" height="1" stroke="#000000" stroke-width="1" width="86" x="390" y="397"/>
<text font-family="Dialog" font-size="13" x="394" y="412">
data</text>
<text font-family="Dialog" font-size="13" x="394" y="430">
ora : Integer</text>
<rect fill="#000000" height="1" stroke="#000000" stroke-width="1" width="86" x="390" y="441"/>
<polyline fill="none" points="475,399 534,399" stroke="#000000" stroke-width="1"/>
<text font-family="Dialog" font-size="13" x="491" y="388">
sala</text>
<rect fill="#ffffff" height="73" stroke="#ffffff" stroke-width="1" width="180" x="1254" y="116"/>
<rect fill="none" height="73" stroke="#000000" stroke-width="1" width="180" x="1254" y="116"/>
<text font-family="Dialog" font-size="13" x="1320" y="130">
GuestC</text>
<rect fill="#000000" height="1" stroke="#000000" stroke-width="1" width="180" x="1254" y="141"/>
<rect fill="#000000" height="1" stroke="#000000" stroke-width="1" width="180" x="1254" y="164"/>
<rect fill="#ffffff" height="73" stroke="#ffffff" stroke-width="1" width="177" x="1126" y="244"/>
<rect fill="none" height="73" stroke="#000000" stroke-width="1" width="177" x="1126" y="244"/>
<text font-family="Dialog" font-size="13" x="1160" y="258">
CAmministratore</text>
<rect fill="#000000" height="1" stroke="#000000" stroke-width="1" width="177" x="1126" y="269"/>
<rect fill="#000000" height="1" stroke="#000000" stroke-width="1" width="177" x="1126" y="290"/>
<text font-family="Dialog" font-size="13" x="1130" y="305">
login(username,password)</text>
<polyline fill="none" points="1222,244 1222,212 1342,212 1342,188" stroke="#000000" stroke-width="1"/>
<polygon fill="#ffffff" points="1342,188 1349,200 1335,200" stroke="#ffffff" stroke-width="1"/>
<polygon fill="none" points="1342,188 1349,200 1335,200" stroke="#000000" stroke-width="1"/>
<rect fill="#ffffff" height="145" stroke="#ffffff" stroke-width="1" width="309" x="1326" y="244"/>
<rect fill="none" height="145" stroke="#000000" stroke-width="1" width="309" x="1326" y="244"/>
<text font-family="Dialog" font-size="13" x="1448" y="258">
CPaziente</text>
<rect fill="#000000" height="1" stroke="#000000" stroke-width="1" width="309" x="1326" y="269"/>
<rect fill="#000000" height="1" stroke="#000000" stroke-width="1" width="309" x="1326" y="290"/>
<text font-family="Dialog" font-size="13" x="1330" y="305">
login(username,password)</text>
<text font-family="Dialog" font-size="13" x="1330" y="323">
create(username,password,nome,cognome,...)</text>
<text font-family="Dialog" font-size="13" x="1330" y="341">
registerNewPatient()</text>
<text font-family="Dialog" font-size="13" x="1330" y="359">
registerNewPatientFromTutor(tutor)</text>
<text font-family="Dialog" font-size="13" x="1330" y="377">
bindTutorForPatient(tutor)</text>
<polyline fill="none" points="1446,244 1446,212 1342,212 1342,188" stroke="#000000" stroke-width="1"/>
<polygon fill="#ffffff" points="1342,188 1349,200 1335,200" stroke="#ffffff" stroke-width="1"/>
<polygon fill="none" points="1342,188 1349,200 1335,200" stroke="#000000" stroke-width="1"/>
<line fill="#000000" stroke="#000000" stroke-width="1" x1="1126" x2="1123" y1="316" y2="319"/>
<line fill="#000000" stroke="#000000" stroke-width="1" x1="1119" x2="1115" y1="322" y2="325"/>
<line fill="#000000" stroke="#000000" stroke-width="1" x1="1111" x2="1107" y1="328" y2="331"/>
<line fill="#000000" stroke="#000000" stroke-width="1" x1="1103" x2="1099" y1="334" y2="337"/>
<line fill="#000000" stroke="#000000" stroke-width="1" x1="1095" x2="1091" y1="341" y2="344"/>
<line fill="#000000" stroke="#000000" stroke-width="1" x1="1087" x2="1086" y1="347" y2="348"/>
<line fill="#000000" stroke="#000000" stroke-width="1" x1="1086" x2="1081" y1="348" y2="348"/>
<line fill="#000000" stroke="#000000" stroke-width="1" x1="1076" x2="1071" y1="348" y2="348"/>
<line fill="#000000" stroke="#000000" stroke-width="1" x1="1066" x2="1061" y1="348" y2="348"/>
<line fill="#000000" stroke="#000000" stroke-width="1" x1="1056" x2="1051" y1="348" y2="348"/>
<line fill="#000000" stroke="#000000" stroke-width="1" x1="1046" x2="1041" y1="348" y2="348"/>
<line fill="#000000" stroke="#000000" stroke-width="1" x1="1036" x2="1031" y1="348" y2="348"/>
<line fill="#000000" stroke="#000000" stroke-width="1" x1="1026" x2="1021" y1="348" y2="348"/>
<line fill="#000000" stroke="#000000" stroke-width="1" x1="1016" x2="1011" y1="348" y2="348"/>
<line fill="#000000" stroke="#000000" stroke-width="1" x1="1006" x2="1001" y1="348" y2="348"/>
<line fill="#000000" stroke="#000000" stroke-width="1" x1="996" x2="991" y1="348" y2="348"/>
<line fill="#000000" stroke="#000000" stroke-width="1" x1="986" x2="981" y1="348" y2="348"/>
<line fill="#000000" stroke="#000000" stroke-width="1" x1="976" x2="971" y1="348" y2="348"/>
<line fill="#000000" stroke="#000000" stroke-width="1" x1="966" x2="961" y1="348" y2="348"/>
<line fill="#000000" stroke="#000000" stroke-width="1" x1="956" x2="951" y1="348" y2="348"/>
<line fill="#000000" stroke="#000000" stroke-width="1" x1="946" x2="941" y1="348" y2="348"/>
<line fill="#000000" stroke="#000000" stroke-width="1" x1="936" x2="931" y1="348" y2="348"/>
<line fill="#000000" stroke="#000000" stroke-width="1" x1="926" x2="921" y1="348" y2="348"/>
<line fill="#000000" stroke="#000000" stroke-width="1" x1="916" x2="911" y1="348" y2="348"/>
<line fill="#000000" stroke="#000000" stroke-width="1" x1="906" x2="901" y1="348" y2="348"/>
<line fill="#000000" stroke="#000000" stroke-width="1" x1="896" x2="891" y1="348" y2="348"/>
<line fill="#000000" stroke="#000000" stroke-width="1" x1="886" x2="881" y1="348" y2="348"/>
<line fill="#000000" stroke="#000000" stroke-width="1" x1="876" x2="871" y1="348" y2="348"/>
<line fill="#000000" stroke="#000000" stroke-width="1" x1="866" x2="861" y1="348" y2="348"/>
<line fill="#000000" stroke="#000000" stroke-width="1" x1="856" x2="851" y1="348" y2="348"/>
<line fill="#000000" stroke="#000000" stroke-width="1" x1="846" x2="841" y1="348" y2="348"/>
<line fill="#000000" stroke="#000000" stroke-width="1" x1="836" x2="831" y1="348" y2="348"/>
<line fill="#000000" stroke="#000000" stroke-width="1" x1="826" x2="821" y1="348" y2="348"/>
<line fill="#000000" stroke="#000000" stroke-width="1" x1="816" x2="811" y1="348" y2="348"/>
<line fill="#000000" stroke="#000000" stroke-width="1" x1="806" x2="801" y1="348" y2="348"/>
<line fill="#000000" stroke="#000000" stroke-width="1" x1="796" x2="791" y1="348" y2="348"/>
<line fill="#000000" stroke="#000000" stroke-width="1" x1="786" x2="781" y1="348" y2="348"/>
<line fill="#000000" stroke="#000000" stroke-width="1" x1="776" x2="771" y1="348" y2="348"/>
<line fill="#000000" stroke="#000000" stroke-width="1" x1="766" x2="761" y1="348" y2="348"/>
<line fill="#000000" stroke="#000000" stroke-width="1" x1="756" x2="751" y1="348" y2="348"/>
<line fill="#000000" stroke="#000000" stroke-width="1" x1="746" x2="741" y1="348" y2="348"/>
<line fill="#000000" stroke="#000000" stroke-width="1" x1="736" x2="731" y1="348" y2="348"/>
<line fill="#000000" stroke="#000000" stroke-width="1" x1="726" x2="721" y1="348" y2="348"/>
<line fill="#000000" stroke="#000000" stroke-width="1" x1="716" x2="711" y1="348" y2="348"/>
<line fill="#000000" stroke="#000000" stroke-width="1" x1="706" x2="701" y1="348" y2="348"/>
<line fill="#000000" stroke="#000000" stroke-width="1" x1="696" x2="691" y1="348" y2="348"/>
<line fill="#000000" stroke="#000000" stroke-width="1" x1="686" x2="681" y1="348" y2="348"/>
<line fill="#000000" stroke="#000000" stroke-width="1" x1="676" x2="671" y1="348" y2="348"/>
<line fill="#000000" stroke="#000000" stroke-width="1" x1="666" x2="661" y1="348" y2="348"/>
<line fill="#000000" stroke="#000000" stroke-width="1" x1="656" x2="651" y1="348" y2="348"/>
<line fill="#000000" stroke="#000000" stroke-width="1" x1="646" x2="641" y1="348" y2="348"/>
<line fill="#000000" stroke="#000000" stroke-width="1" x1="636" x2="631" y1="348" y2="348"/>
<line fill="#000000" stroke="#000000" stroke-width="1" x1="626" x2="621" y1="348" y2="348"/>
<line fill="#000000" stroke="#000000" stroke-width="1" x1="616" x2="611" y1="348" y2="348"/>
<line fill="#000000" stroke="#000000" stroke-width="1" x1="606" x2="601" y1="348" y2="348"/>
<line fill="#000000" stroke="#000000" stroke-width="1" x1="596" x2="591" y1="348" y2="348"/>
<line fill="#000000" stroke="#000000" stroke-width="1" x1="586" x2="582" y1="348" y2="348"/>
<line fill="#000000" stroke="#000000" stroke-width="1" x1="582" x2="582" y1="348" y2="343"/>
<line fill="#000000" stroke="#000000" stroke-width="1" x1="582" x2="582" y1="338" y2="333"/>
<line fill="#000000" stroke="#000000" stroke-width="1" x1="582" x2="582" y1="328" y2="323"/>
<line fill="#000000" stroke="#000000" stroke-width="1" x1="582" x2="582" y1="318" y2="313"/>
<line fill="#000000" stroke="#000000" stroke-width="1" x1="582" x2="582" y1="308" y2="303"/>
<line fill="#000000" stroke="#000000" stroke-width="1" x1="582" x2="582" y1="298" y2="293"/>
<line fill="#000000" stroke="#000000" stroke-width="1" x1="582" x2="582" y1="288" y2="283"/>
<line fill="#000000" stroke="#000000" stroke-width="1" x1="582" x2="582" y1="278" y2="273"/>
<line fill="#000000" stroke="#000000" stroke-width="1" x1="582" x2="582" y1="268" y2="263"/>
<line fill="#000000" stroke="#000000" stroke-width="1" x1="582" x2="582" y1="258" y2="253"/>
<line fill="#000000" stroke="#000000" stroke-width="1" x1="582" x2="582" y1="248" y2="243"/>
<line fill="#000000" stroke="#000000" stroke-width="1" x1="582" x2="582" y1="238" y2="233"/>
<line fill="#000000" stroke="#000000" stroke-width="1" x1="589" x2="582" y1="245" y2="233"/>
<line fill="#000000" stroke="#000000" stroke-width="1" x1="575" x2="582" y1="245" y2="233"/>
<rect fill="#ffffff" height="69" stroke="#ffffff" stroke-width="1" width="66" x="334" y="60"/>
<rect fill="none" height="69" stroke="#000000" stroke-width="1" width="66" x="334" y="60"/>
<text font-family="Dialog" font-size="13" x="348" y="74">
Guest</text>
<rect fill="#000000" height="1" stroke="#000000" stroke-width="1" width="66" x="334" y="85"/>
<rect fill="#000000" height="1" stroke="#000000" stroke-width="1" width="66" x="334" y="106"/>
<polyline fill="none" points="313,164 358,164 358,128" stroke="#000000" stroke-width="1"/>
<polygon fill="#ffffff" points="358,128 365,140 351,140" stroke="#ffffff" stroke-width="1"/>
<polygon fill="none" points="358,128 365,140 351,140" stroke="#000000" stroke-width="1"/>
<polyline fill="none" points="454,164 358,164 358,128" stroke="#000000" stroke-width="1"/>
<polygon fill="#ffffff" points="358,128 365,140 351,140" stroke="#ffffff" stroke-width="1"/>
<polygon fill="none" points="358,128 365,140 351,140" stroke="#000000" stroke-width="1"/>
<rect fill="#ffffff" height="73" stroke="#ffffff" stroke-width="1" width="112" x="638" y="132"/>
<rect fill="none" height="73" stroke="#000000" stroke-width="1" width="112" x="638" y="132"/>
<text font-family="Dialog" font-size="13" x="661" y="146">
MPaziente</text>
<rect fill="#000000" height="1" stroke="#000000" stroke-width="1" width="112" x="638" y="157"/>
<rect fill="#000000" height="1" stroke="#000000" stroke-width="1" width="112" x="638" y="178"/>
<text font-family="Dialog" font-size="13" x="642" y="193">
create()</text>
<rect fill="#ffffff" height="73" stroke="#ffffff" stroke-width="1" width="341" x="806" y="132"/>
<rect fill="none" height="73" stroke="#000000" stroke-width="1" width="341" x="806" y="132"/>
<text font-family="Dialog" font-size="13" x="921" y="146">
MAmministratore</text>
<rect fill="#000000" height="1" stroke="#000000" stroke-width="1" width="341" x="806" y="157"/>
<rect fill="#000000" height="1" stroke="#000000" stroke-width="1" width="341" x="806" y="178"/>
<text font-family="Dialog" font-size="13" x="810" y="193">
MAmministratore(param1,param2,param3,param4)</text>
<rect fill="#ffffff" height="68" stroke="#ffffff" stroke-width="1" width="110" x="758" y="28"/>
<rect fill="none" height="68" stroke="#000000" stroke-width="1" width="110" x="758" y="28"/>
<text font-family="Dialog" font-size="13" x="779" y="63">
Messaggio</text>
<text font-family="Dialog" font-size="13" x="763" y="43">
&lt;&lt;interface&gt;&gt;</text>
<rect fill="#000000" height="1" stroke="#000000" stroke-width="1" width="110" x="758" y="74"/>
<line fill="#000000" stroke="#000000" stroke-width="1" x1="726" x2="726" y1="132" y2="127"/>
<line fill="#000000" stroke="#000000" stroke-width="1" x1="726" x2="726" y1="122" y2="117"/>
<line fill="#000000" stroke="#000000" stroke-width="1" x1="726" x2="731" y1="116" y2="116"/>
<line fill="#000000" stroke="#000000" stroke-width="1" x1="736" x2="741" y1="116" y2="116"/>
<line fill="#000000" stroke="#000000" stroke-width="1" x1="746" x2="751" y1="116" y2="116"/>
<line fill="#000000" stroke="#000000" stroke-width="1" x1="756" x2="761" y1="116" y2="116"/>
<line fill="#000000" stroke="#000000" stroke-width="1" x1="766" x2="771" y1="116" y2="116"/>
<line fill="#000000" stroke="#000000" stroke-width="1" x1="776" x2="781" y1="116" y2="116"/>
<line fill="#000000" stroke="#000000" stroke-width="1" x1="786" x2="791" y1="116" y2="116"/>
<line fill="#000000" stroke="#000000" stroke-width="1" x1="796" x2="801" y1="116" y2="116"/>
<line fill="#000000" stroke="#000000" stroke-width="1" x1="806" x2="806" y1="116" y2="111"/>
<line fill="#000000" stroke="#000000" stroke-width="1" x1="806" x2="806" y1="106" y2="101"/>
<line fill="#000000" stroke="#000000" stroke-width="1" x1="806" x2="806" y1="96" y2="95"/>
<polygon fill="#ffffff" points="806,95 813,107 799,107" stroke="#ffffff" stroke-width="1"/>
<polygon fill="none" points="806,95 813,107 799,107" stroke="#000000" stroke-width="1"/>
<text font-family="Dialog" font-size="13" x="673" y="108">
&lt;&lt;realize&gt;&gt;</text>
<line fill="#000000" stroke="#000000" stroke-width="1" x1="966" x2="966" y1="132" y2="127"/>
<line fill="#000000" stroke="#000000" stroke-width="1" x1="966" x2="966" y1="122" y2="117"/>
<line fill="#000000" stroke="#000000" stroke-width="1" x1="966" x2="961" y1="116" y2="116"/>
<line fill="#000000" stroke="#000000" stroke-width="1" x1="956" x2="951" y1="116" y2="116"/>
<line fill="#000000" stroke="#000000" stroke-width="1" x1="946" x2="941" y1="116" y2="116"/>
<line fill="#000000" stroke="#000000" stroke-width="1" x1="936" x2="931" y1="116" y2="116"/>
<line fill="#000000" stroke="#000000" stroke-width="1" x1="926" x2="921" y1="116" y2="116"/>
<line fill="#000000" stroke="#000000" stroke-width="1" x1="916" x2="911" y1="116" y2="116"/>
<line fill="#000000" stroke="#000000" stroke-width="1" x1="906" x2="901" y1="116" y2="116"/>
<line fill="#000000" stroke="#000000" stroke-width="1" x1="896" x2="891" y1="116" y2="116"/>
<line fill="#000000" stroke="#000000" stroke-width="1" x1="886" x2="881" y1="116" y2="116"/>
<line fill="#000000" stroke="#000000" stroke-width="1" x1="876" x2="871" y1="116" y2="116"/>
<line fill="#000000" stroke="#000000" stroke-width="1" x1="866" x2="861" y1="116" y2="116"/>
<line fill="#000000" stroke="#000000" stroke-width="1" x1="856" x2="851" y1="116" y2="116"/>
<line fill="#000000" stroke="#000000" stroke-width="1" x1="846" x2="841" y1="116" y2="116"/>
<line fill="#000000" stroke="#000000" stroke-width="1" x1="836" x2="831" y1="116" y2="116"/>
<line fill="#000000" stroke="#000000" stroke-width="1" x1="826" x2="821" y1="116" y2="116"/>
<line fill="#000000" stroke="#000000" stroke-width="1" x1="816" x2="811" y1="116" y2="116"/>
<line fill="#000000" stroke="#000000" stroke-width="1" x1="806" x2="806" y1="116" y2="111"/>
<line fill="#000000" stroke="#000000" stroke-width="1" x1="806" x2="806" y1="106" y2="101"/>
<line fill="#000000" stroke="#000000" stroke-width="1" x1="806" x2="806" y1="96" y2="95"/>
<polygon fill="#ffffff" points="806,95 813,107 799,107" stroke="#ffffff" stroke-width="1"/>
<polygon fill="none" points="806,95 813,107 799,107" stroke="#000000" stroke-width="1"/>
<text font-family="Dialog" font-size="13" x="873" y="108">
&lt;&lt;realize&gt;&gt;</text>
<polyline fill="none" points="399,68 758,68" stroke="#000000" stroke-width="1"/>
<text font-family="Dialog" font-size="13" x="527" y="61">
destinatario</text>
<polyline fill="none" points="399,84 758,84" stroke="#000000" stroke-width="1"/>
<text font-family="Dialog" font-size="13" x="542" y="77">
mittente</text>
<rect fill="#ffffff" height="91" stroke="#ffffff" stroke-width="1" width="220" x="310" y="468"/>
<rect fill="none" height="91" stroke="#000000" stroke-width="1" width="220" x="310" y="468"/>
<text font-family="Dialog" font-size="13" x="380" y="503">
AdaptorView</text>
<text font-family="Dialog" font-size="13" x="370" y="483">
&lt;&lt;interface&gt;&gt;</text>
<rect fill="#000000" height="1" stroke="#000000" stroke-width="1" width="220" x="310" y="514"/>
<text font-family="Dialog" font-size="13" x="314" y="529">
viewSupport(support,object)</text>
<text font-family="Dialog" font-size="13" x="314" y="547">
printOnSupport(param1,param2)</text>
<polyline fill="none" points="342,361 342,468" stroke="#000000" stroke-width="1"/>
<polyline fill="none" points="430,361 430,372" stroke="#000000" stroke-width="1"/>
<polyline fill="none" points="534,364 505,361" stroke="#000000" stroke-width="1"/>
<rect fill="#ffffff" height="69" stroke="#ffffff" stroke-width="1" width="66" x="78" y="44"/>
<rect fill="none" height="69" stroke="#000000" stroke-width="1" width="66" x="78" y="44"/>
<text font-family="Dialog" font-size="13" x="84" y="58">
UIStrate</text>
<rect fill="#000000" height="1" stroke="#000000" stroke-width="1" width="66" x="78" y="69"/>
<rect fill="#000000" height="1" stroke="#000000" stroke-width="1" width="66" x="78" y="90"/>
<rect fill="#ffffff" height="91" stroke="#ffffff" stroke-width="1" width="138" x="14" y="364"/>
<rect fill="none" height="91" stroke="#000000" stroke-width="1" width="138" x="14" y="364"/>
<text font-family="Dialog" font-size="13" x="19" y="378">
Paziente minorenne</text>
<rect fill="#000000" height="1" stroke="#000000" stroke-width="1" width="138" x="14" y="389"/>
<rect fill="#000000" height="1" stroke="#000000" stroke-width="1" width="138" x="14" y="410"/>
<text font-family="Dialog" font-size="13" x="18" y="425">
create(tutor)</text>
<text font-family="Dialog" font-size="13" x="18" y="443">
tutorCredentials()</text>
<polyline fill="none" points="70,364 70,356 166,356 166,341" stroke="#000000" stroke-width="1"/>
<polygon fill="#ffffff" points="166,341 173,353 159,353" stroke="#ffffff" stroke-width="1"/>
<polygon fill="none" points="166,341 173,353 159,353" stroke="#000000" stroke-width="1"/>
<rect fill="#ffffff" height="307" stroke="#ffffff" stroke-width="1" width="234" x="750" y="228"/>
<rect fill="none" height="307" stroke="#000000" stroke-width="1" width="234" x="750" y="228"/>
<text font-family="Dialog" font-size="13" x="857" y="242">
DB</text>
<rect fill="#000000" height="1" stroke="#000000" stroke-width="1" width="234" x="750" y="253"/>
<rect fill="#000000" height="1" stroke="#000000" stroke-width="1" width="234" x="750" y="274"/>
<text font-family="Dialog" font-size="13" x="754" y="289">
isTutor(tutor)</text>
<text font-family="Dialog" font-size="13" x="754" y="307">
fetchReport(res)</text>
<text font-family="Dialog" font-size="13" x="754" y="325">
fetchReservation()</text>
<text font-family="Dialog" font-size="13" x="754" y="343">
check(name,pass)</text>
<text font-family="Dialog" font-size="13" x="754" y="361">
registerNewPatient(p)</text>
<text font-family="Dialog" font-size="13" x="754" y="379">
tutorCredentials(tname,tpass)</text>
<text font-family="Dialog" font-size="13" x="754" y="397">
getFreeSlots(param1,param2)</text>
<text font-family="Dialog" font-size="13" x="754" y="415">
getMonthSlots(param1)</text>
<text font-family="Dialog" font-size="13" x="754" y="433">
getFreeSlotsAfter(param1,param2)</text>
<text font-family="Dialog" font-size="13" x="754" y="451">
getOccupiedMonthSlots(param1)</text>
<text font-family="Dialog" font-size="13" x="754" y="469">
updateReservs(param1)</text>
<text font-family="Dialog" font-size="13" x="754" y="487">
destroyRequestPostpone(param1)</text>
<text font-family="Dialog" font-size="13" x="754" y="505">
freeSlotReserv(param1)</text>
<text font-family="Dialog" font-size="13" x="754" y="523">
deleteMessagePatient(param1)</text>
<line fill="#000000" stroke="#000000" stroke-width="1" x1="1382" x2="1382" y1="388" y2="393"/>
<line fill="#000000" stroke="#000000" stroke-width="1" x1="1382" x2="1382" y1="398" y2="403"/>
<line fill="#000000" stroke="#000000" stroke-width="1" x1="1382" x2="1382" y1="408" y2="413"/>
<line fill="#000000" stroke="#000000" stroke-width="1" x1="1382" x2="1382" y1="418" y2="423"/>
<line fill="#000000" stroke="#000000" stroke-width="1" x1="1382" x2="1382" y1="428" y2="433"/>
<line fill="#000000" stroke="#000000" stroke-width="1" x1="1382" x2="1382" y1="438" y2="443"/>
<line fill="#000000" stroke="#000000" stroke-width="1" x1="1382" x2="1382" y1="448" y2="453"/>
<line fill="#000000" stroke="#000000" stroke-width="1" x1="1382" x2="1382" y1="458" y2="463"/>
<line fill="#000000" stroke="#000000" stroke-width="1" x1="1382" x2="1382" y1="468" y2="473"/>
<line fill="#000000" stroke="#000000" stroke-width="1" x1="1382" x2="1382" y1="478" y2="483"/>
<line fill="#000000" stroke="#000000" stroke-width="1" x1="1382" x2="1382" y1="488" y2="493"/>
<line fill="#000000" stroke="#000000" stroke-width="1" x1="1382" x2="1382" y1="498" y2="503"/>
<line fill="#000000" stroke="#000000" stroke-width="1" x1="1382" x2="1382" y1="508" y2="513"/>
<line fill="#000000" stroke="#000000" stroke-width="1" x1="1382" x2="1382" y1="518" y2="523"/>
<line fill="#000000" stroke="#000000" stroke-width="1" x1="1382" x2="1382" y1="528" y2="533"/>
<line fill="#000000" stroke="#000000" stroke-width="1" x1="1382" x2="1382" y1="538" y2="543"/>
<line fill="#000000" stroke="#000000" stroke-width="1" x1="1382" x2="1382" y1="548" y2="553"/>
<line fill="#000000" stroke="#000000" stroke-width="1" x1="1382" x2="1382" y1="558" y2="563"/>
<line fill="#000000" stroke="#000000" stroke-width="1" x1="1382" x2="1382" y1="568" y2="572"/>
<line fill="#000000" stroke="#000000" stroke-width="1" x1="1382" x2="1377" y1="572" y2="572"/>
<line fill="#000000" stroke="#000000" stroke-width="1" x1="1372" x2="1367" y1="572" y2="572"/>
<line fill="#000000" stroke="#000000" stroke-width="1" x1="1362" x2="1357" y1="572" y2="572"/>
<line fill="#000000" stroke="#000000" stroke-width="1" x1="1352" x2="1347" y1="572" y2="572"/>
<line fill="#000000" stroke="#000000" stroke-width="1" x1="1342" x2="1337" y1="572" y2="572"/>
<line fill="#000000" stroke="#000000" stroke-width="1" x1="1332" x2="1327" y1="572" y2="572"/>
<line fill="#000000" stroke="#000000" stroke-width="1" x1="1322" x2="1317" y1="572" y2="572"/>
<line fill="#000000" stroke="#000000" stroke-width="1" x1="1312" x2="1307" y1="572" y2="572"/>
<line fill="#000000" stroke="#000000" stroke-width="1" x1="1302" x2="1297" y1="572" y2="572"/>
<line fill="#000000" stroke="#000000" stroke-width="1" x1="1292" x2="1287" y1="572" y2="572"/>
<line fill="#000000" stroke="#000000" stroke-width="1" x1="1282" x2="1277" y1="572" y2="572"/>
<line fill="#000000" stroke="#000000" stroke-width="1" x1="1272" x2="1267" y1="572" y2="572"/>
<line fill="#000000" stroke="#000000" stroke-width="1" x1="1262" x2="1257" y1="572" y2="572"/>
<line fill="#000000" stroke="#000000" stroke-width="1" x1="1252" x2="1247" y1="572" y2="572"/>
<line fill="#000000" stroke="#000000" stroke-width="1" x1="1242" x2="1237" y1="572" y2="572"/>
<line fill="#000000" stroke="#000000" stroke-width="1" x1="1232" x2="1227" y1="572" y2="572"/>
<line fill="#000000" stroke="#000000" stroke-width="1" x1="1222" x2="1217" y1="572" y2="572"/>
<line fill="#000000" stroke="#000000" stroke-width="1" x1="1212" x2="1207" y1="572" y2="572"/>
<line fill="#000000" stroke="#000000" stroke-width="1" x1="1202" x2="1197" y1="572" y2="572"/>
<line fill="#000000" stroke="#000000" stroke-width="1" x1="1192" x2="1187" y1="572" y2="572"/>
<line fill="#000000" stroke="#000000" stroke-width="1" x1="1182" x2="1177" y1="572" y2="572"/>
<line fill="#000000" stroke="#000000" stroke-width="1" x1="1172" x2="1167" y1="572" y2="572"/>
<line fill="#000000" stroke="#000000" stroke-width="1" x1="1162" x2="1157" y1="572" y2="572"/>
<line fill="#000000" stroke="#000000" stroke-width="1" x1="1152" x2="1147" y1="572" y2="572"/>
<line fill="#000000" stroke="#000000" stroke-width="1" x1="1142" x2="1137" y1="572" y2="572"/>
<line fill="#000000" stroke="#000000" stroke-width="1" x1="1132" x2="1127" y1="572" y2="572"/>
<line fill="#000000" stroke="#000000" stroke-width="1" x1="1122" x2="1117" y1="572" y2="572"/>
<line fill="#000000" stroke="#000000" stroke-width="1" x1="1112" x2="1107" y1="572" y2="572"/>
<line fill="#000000" stroke="#000000" stroke-width="1" x1="1102" x2="1097" y1="572" y2="572"/>
<line fill="#000000" stroke="#000000" stroke-width="1" x1="1092" x2="1087" y1="572" y2="572"/>
<line fill="#000000" stroke="#000000" stroke-width="1" x1="1082" x2="1077" y1="572" y2="572"/>
<line fill="#000000" stroke="#000000" stroke-width="1" x1="1072" x2="1067" y1="572" y2="572"/>
<line fill="#000000" stroke="#000000" stroke-width="1" x1="1062" x2="1057" y1="572" y2="572"/>
<line fill="#000000" stroke="#000000" stroke-width="1" x1="1052" x2="1047" y1="572" y2="572"/>
<line fill="#000000" stroke="#000000" stroke-width="1" x1="1042" x2="1037" y1="572" y2="572"/>
<line fill="#000000" stroke="#000000" stroke-width="1" x1="1032" x2="1027" y1="572" y2="572"/>
<line fill="#000000" stroke="#000000" stroke-width="1" x1="1022" x2="1017" y1="572" y2="572"/>
<line fill="#000000" stroke="#000000" stroke-width="1" x1="1012" x2="1007" y1="572" y2="572"/>
<line fill="#000000" stroke="#000000" stroke-width="1" x1="1002" x2="997" y1="572" y2="572"/>
<line fill="#000000" stroke="#000000" stroke-width="1" x1="992" x2="987" y1="572" y2="572"/>
<line fill="#000000" stroke="#000000" stroke-width="1" x1="982" x2="977" y1="572" y2="572"/>
<line fill="#000000" stroke="#000000" stroke-width="1" x1="972" x2="967" y1="572" y2="572"/>
<line fill="#000000" stroke="#000000" stroke-width="1" x1="962" x2="957" y1="572" y2="572"/>
<line fill="#000000" stroke="#000000" stroke-width="1" x1="952" x2="947" y1="572" y2="572"/>
<line fill="#000000" stroke="#000000" stroke-width="1" x1="942" x2="937" y1="572" y2="572"/>
<line fill="#000000" stroke="#000000" stroke-width="1" x1="932" x2="927" y1="572" y2="572"/>
<line fill="#000000" stroke="#000000" stroke-width="1" x1="922" x2="917" y1="572" y2="572"/>
<line fill="#000000" stroke="#000000" stroke-width="1" x1="912" x2="907" y1="572" y2="572"/>
<line fill="#000000" stroke="#000000" stroke-width="1" x1="902" x2="897" y1="572" y2="572"/>
<line fill="#000000" stroke="#000000" stroke-width="1" x1="892" x2="887" y1="572" y2="572"/>
<line fill="#000000" stroke="#000000" stroke-width="1" x1="882" x2="877" y1="572" y2="572"/>
<line fill="#000000" stroke="#000000" stroke-width="1" x1="872" x2="867" y1="572" y2="572"/>
<line fill="#000000" stroke="#000000" stroke-width="1" x1="862" x2="857" y1="572" y2="572"/>
<line fill="#000000" stroke="#000000" stroke-width="1" x1="852" x2="847" y1="572" y2="572"/>
<line fill="#000000" stroke="#000000" stroke-width="1" x1="842" x2="837" y1="572" y2="572"/>
<line fill="#000000" stroke="#000000" stroke-width="1" x1="832" x2="827" y1="572" y2="572"/>
<line fill="#000000" stroke="#000000" stroke-width="1" x1="822" x2="817" y1="572" y2="572"/>
<line fill="#000000" stroke="#000000" stroke-width="1" x1="812" x2="807" y1="572" y2="572"/>
<line fill="#000000" stroke="#000000" stroke-width="1" x1="802" x2="797" y1="572" y2="572"/>
<line fill="#000000" stroke="#000000" stroke-width="1" x1="792" x2="787" y1="572" y2="572"/>
<line fill="#000000" stroke="#000000" stroke-width="1" x1="782" x2="777" y1="572" y2="572"/>
<line fill="#000000" stroke="#000000" stroke-width="1" x1="772" x2="767" y1="572" y2="572"/>
<line fill="#000000" stroke="#000000" stroke-width="1" x1="762" x2="757" y1="572" y2="572"/>
<line fill="#000000" stroke="#000000" stroke-width="1" x1="752" x2="747" y1="572" y2="572"/>
<line fill="#000000" stroke="#000000" stroke-width="1" x1="742" x2="737" y1="572" y2="572"/>
<line fill="#000000" stroke="#000000" stroke-width="1" x1="732" x2="727" y1="572" y2="572"/>
<line fill="#000000" stroke="#000000" stroke-width="1" x1="722" x2="717" y1="572" y2="572"/>
<line fill="#000000" stroke="#000000" stroke-width="1" x1="712" x2="707" y1="572" y2="572"/>
<line fill="#000000" stroke="#000000" stroke-width="1" x1="702" x2="697" y1="572" y2="572"/>
<line fill="#000000" stroke="#000000" stroke-width="1" x1="692" x2="687" y1="572" y2="572"/>
<line fill="#000000" stroke="#000000" stroke-width="1" x1="682" x2="677" y1="572" y2="572"/>
<line fill="#000000" stroke="#000000" stroke-width="1" x1="672" x2="667" y1="572" y2="572"/>
<line fill="#000000" stroke="#000000" stroke-width="1" x1="662" x2="657" y1="572" y2="572"/>
<line fill="#000000" stroke="#000000" stroke-width="1" x1="652" x2="647" y1="572" y2="572"/>
<line fill="#000000" stroke="#000000" stroke-width="1" x1="642" x2="637" y1="572" y2="572"/>
<line fill="#000000" stroke="#000000" stroke-width="1" x1="632" x2="627" y1="572" y2="572"/>
<line fill="#000000" stroke="#000000" stroke-width="1" x1="622" x2="617" y1="572" y2="572"/>
<line fill="#000000" stroke="#000000" stroke-width="1" x1="612" x2="607" y1="572" y2="572"/>
<line fill="#000000" stroke="#000000" stroke-width="1" x1="602" x2="597" y1="572" y2="572"/>
<line fill="#000000" stroke="#000000" stroke-width="1" x1="592" x2="587" y1="572" y2="572"/>
<line fill="#000000" stroke="#000000" stroke-width="1" x1="582" x2="577" y1="572" y2="572"/>
<line fill="#000000" stroke="#000000" stroke-width="1" x1="572" x2="567" y1="572" y2="572"/>
<line fill="#000000" stroke="#000000" stroke-width="1" x1="562" x2="557" y1="572" y2="572"/>
<line fill="#000000" stroke="#000000" stroke-width="1" x1="552" x2="547" y1="572" y2="572"/>
<line fill="#000000" stroke="#000000" stroke-width="1" x1="542" x2="537" y1="572" y2="572"/>
<line fill="#000000" stroke="#000000" stroke-width="1" x1="532" x2="527" y1="572" y2="572"/>
<line fill="#000000" stroke="#000000" stroke-width="1" x1="522" x2="517" y1="572" y2="572"/>
<line fill="#000000" stroke="#000000" stroke-width="1" x1="512" x2="507" y1="572" y2="572"/>
<line fill="#000000" stroke="#000000" stroke-width="1" x1="502" x2="497" y1="572" y2="572"/>
<line fill="#000000" stroke="#000000" stroke-width="1" x1="492" x2="487" y1="572" y2="572"/>
<line fill="#000000" stroke="#000000" stroke-width="1" x1="482" x2="477" y1="572" y2="572"/>
<line fill="#000000" stroke="#000000" stroke-width="1" x1="472" x2="467" y1="572" y2="572"/>
<line fill="#000000" stroke="#000000" stroke-width="1" x1="462" x2="457" y1="572" y2="572"/>
<line fill="#000000" stroke="#000000" stroke-width="1" x1="452" x2="447" y1="572" y2="572"/>
<line fill="#000000" stroke="#000000" stroke-width="1" x1="442" x2="437" y1="572" y2="572"/>
<line fill="#000000" stroke="#000000" stroke-width="1" x1="432" x2="427" y1="572" y2="572"/>
<line fill="#000000" stroke="#000000" stroke-width="1" x1="422" x2="417" y1="572" y2="572"/>
<line fill="#000000" stroke="#000000" stroke-width="1" x1="412" x2="407" y1="572" y2="572"/>
<line fill="#000000" stroke="#000000" stroke-width="1" x1="402" x2="397" y1="572" y2="572"/>
<line fill="#000000" stroke="#000000" stroke-width="1" x1="392" x2="387" y1="572" y2="572"/>
<line fill="#000000" stroke="#000000" stroke-width="1" x1="382" x2="377" y1="572" y2="572"/>
<line fill="#000000" stroke="#000000" stroke-width="1" x1="372" x2="367" y1="572" y2="572"/>
<line fill="#000000" stroke="#000000" stroke-width="1" x1="362" x2="357" y1="572" y2="572"/>
<line fill="#000000" stroke="#000000" stroke-width="1" x1="352" x2="347" y1="572" y2="572"/>
<line fill="#000000" stroke="#000000" stroke-width="1" x1="342" x2="337" y1="572" y2="572"/>
<line fill="#000000" stroke="#000000" stroke-width="1" x1="332" x2="327" y1="572" y2="572"/>
<line fill="#000000" stroke="#000000" stroke-width="1" x1="322" x2="317" y1="572" y2="572"/>
<line fill="#000000" stroke="#000000" stroke-width="1" x1="312" x2="307" y1="572" y2="572"/>
<line fill="#000000" stroke="#000000" stroke-width="1" x1="302" x2="297" y1="572" y2="572"/>
<line fill="#000000" stroke="#000000" stroke-width="1" x1="292" x2="287" y1="572" y2="572"/>
<line fill="#000000" stroke="#000000" stroke-width="1" x1="282" x2="277" y1="572" y2="572"/>
<line fill="#000000" stroke="#000000" stroke-width="1" x1="272" x2="267" y1="572" y2="572"/>
<line fill="#000000" stroke="#000000" stroke-width="1" x1="262" x2="257" y1="572" y2="572"/>
<line fill="#000000" stroke="#000000" stroke-width="1" x1="252" x2="247" y1="572" y2="572"/>
<line fill="#000000" stroke="#000000" stroke-width="1" x1="242" x2="238" y1="572" y2="572"/>
<line fill="#000000" stroke="#000000" stroke-width="1" x1="238" x2="238" y1="572" y2="567"/>
<line fill="#000000" stroke="#000000" stroke-width="1" x1="238" x2="238" y1="562" y2="557"/>
<line fill="#000000" stroke="#000000" stroke-width="1" x1="238" x2="238" y1="552" y2="547"/>
<line fill="#000000" stroke="#000000" stroke-width="1" x1="238" x2="238" y1="542" y2="537"/>
<line fill="#000000" stroke="#000000" stroke-width="1" x1="238" x2="238" y1="532" y2="527"/>
<line fill="#000000" stroke="#000000" stroke-width="1" x1="238" x2="238" y1="522" y2="517"/>
<line fill="#000000" stroke="#000000" stroke-width="1" x1="238" x2="238" y1="512" y2="507"/>
<line fill="#000000" stroke="#000000" stroke-width="1" x1="238" x2="238" y1="502" y2="497"/>
<line fill="#000000" stroke="#000000" stroke-width="1" x1="238" x2="238" y1="492" y2="487"/>
<line fill="#000000" stroke="#000000" stroke-width="1" x1="238" x2="238" y1="482" y2="477"/>
<line fill="#000000" stroke="#000000" stroke-width="1" x1="238" x2="238" y1="472" y2="467"/>
<line fill="#000000" stroke="#000000" stroke-width="1" x1="238" x2="238" y1="462" y2="457"/>
<line fill="#000000" stroke="#000000" stroke-width="1" x1="238" x2="238" y1="452" y2="447"/>
<line fill="#000000" stroke="#000000" stroke-width="1" x1="238" x2="238" y1="442" y2="437"/>
<line fill="#000000" stroke="#000000" stroke-width="1" x1="238" x2="238" y1="432" y2="427"/>
<line fill="#000000" stroke="#000000" stroke-width="1" x1="238" x2="238" y1="422" y2="417"/>
<line fill="#000000" stroke="#000000" stroke-width="1" x1="238" x2="238" y1="412" y2="407"/>
<line fill="#000000" stroke="#000000" stroke-width="1" x1="238" x2="238" y1="402" y2="397"/>
<line fill="#000000" stroke="#000000" stroke-width="1" x1="238" x2="238" y1="392" y2="387"/>
<line fill="#000000" stroke="#000000" stroke-width="1" x1="238" x2="238" y1="382" y2="377"/>
<line fill="#000000" stroke="#000000" stroke-width="1" x1="238" x2="238" y1="372" y2="367"/>
<line fill="#000000" stroke="#000000" stroke-width="1" x1="238" x2="238" y1="362" y2="357"/>
<line fill="#000000" stroke="#000000" stroke-width="1" x1="238" x2="238" y1="352" y2="347"/>
<line fill="#000000" stroke="#000000" stroke-width="1" x1="238" x2="238" y1="342" y2="341"/>
<line fill="#000000" stroke="#000000" stroke-width="1" x1="245" x2="238" y1="353" y2="341"/>
<line fill="#000000" stroke="#000000" stroke-width="1" x1="231" x2="238" y1="353" y2="341"/>
</svg>
