<?xml version="1.0" encoding="utf-8" ?>
<!DOCTYPE svg PUBLIC "-//W3C//DTD SVG 1.1//EN" "http://www.w3.org/Graphics/SVG/1.1/DTD/svg11.dtd">
<svg height="272" version="1.1" width="772" xmlns="http://www.w3.org/2000/svg">
<line fill="#000000" stroke="#000000" stroke-width="1" x1="70" x2="70" y1="63" y2="68"/>
<line fill="#000000" stroke="#000000" stroke-width="1" x1="70" x2="70" y1="73" y2="78"/>
<line fill="#000000" stroke="#000000" stroke-width="1" x1="70" x2="70" y1="83" y2="88"/>
<line fill="#000000" stroke="#000000" stroke-width="1" x1="70" x2="70" y1="93" y2="98"/>
<line fill="#000000" stroke="#000000" stroke-width="1" x1="70" x2="70" y1="103" y2="108"/>
<line fill="#000000" stroke="#000000" stroke-width="1" x1="70" x2="70" y1="113" y2="118"/>
<line fill="#000000" stroke="#000000" stroke-width="1" x1="70" x2="70" y1="123" y2="128"/>
<line fill="#000000" stroke="#000000" stroke-width="1" x1="70" x2="70" y1="133" y2="138"/>
<line fill="#000000" stroke="#000000" stroke-width="1" x1="70" x2="70" y1="143" y2="148"/>
<line fill="#000000" stroke="#000000" stroke-width="1" x1="70" x2="70" y1="153" y2="158"/>
<line fill="#000000" stroke="#000000" stroke-width="1" x1="70" x2="70" y1="163" y2="168"/>
<line fill="#000000" stroke="#000000" stroke-width="1" x1="70" x2="70" y1="173" y2="178"/>
<line fill="#000000" stroke="#000000" stroke-width="1" x1="70" x2="70" y1="183" y2="188"/>
<line fill="#000000" stroke="#000000" stroke-width="1" x1="70" x2="70" y1="193" y2="198"/>
<line fill="#000000" stroke="#000000" stroke-width="1" x1="70" x2="70" y1="203" y2="208"/>
<line fill="#000000" stroke="#000000" stroke-width="1" x1="70" x2="70" y1="213" y2="218"/>
<line fill="#000000" stroke="#000000" stroke-width="1" x1="70" x2="70" y1="223" y2="228"/>
<line fill="#000000" stroke="#000000" stroke-width="1" x1="70" x2="70" y1="233" y2="238"/>
<line fill="#000000" stroke="#000000" stroke-width="1" x1="70" x2="70" y1="243" y2="248"/>
<line fill="#000000" stroke="#000000" stroke-width="1" x1="70" x2="70" y1="253" y2="257"/>
<rect fill="#ffffff" height="194" stroke="#ffffff" stroke-width="1" width="20" x="60" y="63"/>
<rect fill="none" height="194" stroke="#000000" stroke-width="1" width="20" x="60" y="63"/>
<rect fill="#ffffff" height="50" stroke="#ffffff" stroke-width="1" width="112" x="14" y="14"/>
<rect fill="none" height="50" stroke="#000000" stroke-width="1" width="112" x="14" y="14"/>
<text font-family="Dialog" font-size="13" x="41" y="28">
:UIStrate</text>
<line fill="#000000" stroke="#000000" stroke-width="1" x1="690" x2="690" y1="63" y2="68"/>
<line fill="#000000" stroke="#000000" stroke-width="1" x1="690" x2="690" y1="73" y2="78"/>
<line fill="#000000" stroke="#000000" stroke-width="1" x1="690" x2="690" y1="83" y2="88"/>
<line fill="#000000" stroke="#000000" stroke-width="1" x1="690" x2="690" y1="93" y2="98"/>
<line fill="#000000" stroke="#000000" stroke-width="1" x1="690" x2="690" y1="103" y2="108"/>
<line fill="#000000" stroke="#000000" stroke-width="1" x1="690" x2="690" y1="113" y2="118"/>
<line fill="#000000" stroke="#000000" stroke-width="1" x1="690" x2="690" y1="123" y2="128"/>
<line fill="#000000" stroke="#000000" stroke-width="1" x1="690" x2="690" y1="133" y2="138"/>
<line fill="#000000" stroke="#000000" stroke-width="1" x1="690" x2="690" y1="143" y2="148"/>
<line fill="#000000" stroke="#000000" stroke-width="1" x1="690" x2="690" y1="153" y2="158"/>
<line fill="#000000" stroke="#000000" stroke-width="1" x1="690" x2="690" y1="163" y2="168"/>
<line fill="#000000" stroke="#000000" stroke-width="1" x1="690" x2="690" y1="173" y2="178"/>
<line fill="#000000" stroke="#000000" stroke-width="1" x1="690" x2="690" y1="183" y2="188"/>
<line fill="#000000" stroke="#000000" stroke-width="1" x1="690" x2="690" y1="193" y2="198"/>
<line fill="#000000" stroke="#000000" stroke-width="1" x1="690" x2="690" y1="203" y2="208"/>
<line fill="#000000" stroke="#000000" stroke-width="1" x1="690" x2="690" y1="213" y2="218"/>
<line fill="#000000" stroke="#000000" stroke-width="1" x1="690" x2="690" y1="223" y2="228"/>
<line fill="#000000" stroke="#000000" stroke-width="1" x1="690" x2="690" y1="233" y2="238"/>
<line fill="#000000" stroke="#000000" stroke-width="1" x1="690" x2="690" y1="243" y2="248"/>
<line fill="#000000" stroke="#000000" stroke-width="1" x1="690" x2="690" y1="253" y2="257"/>
<rect fill="#ffffff" height="47" stroke="#ffffff" stroke-width="1" width="20" x="680" y="210"/>
<rect fill="none" height="47" stroke="#000000" stroke-width="1" width="20" x="680" y="210"/>
<rect fill="#ffffff" height="50" stroke="#ffffff" stroke-width="1" width="136" x="622" y="14"/>
<rect fill="none" height="50" stroke="#000000" stroke-width="1" width="136" x="622" y="14"/>
<text font-family="Dialog" font-size="13" x="638" y="28">
:Amministratore</text>
<line fill="#000000" stroke="#000000" stroke-width="1" x1="282" x2="282" y1="63" y2="68"/>
<line fill="#000000" stroke="#000000" stroke-width="1" x1="282" x2="282" y1="73" y2="78"/>
<line fill="#000000" stroke="#000000" stroke-width="1" x1="282" x2="282" y1="83" y2="88"/>
<line fill="#000000" stroke="#000000" stroke-width="1" x1="282" x2="282" y1="93" y2="98"/>
<line fill="#000000" stroke="#000000" stroke-width="1" x1="282" x2="282" y1="103" y2="108"/>
<line fill="#000000" stroke="#000000" stroke-width="1" x1="282" x2="282" y1="113" y2="118"/>
<line fill="#000000" stroke="#000000" stroke-width="1" x1="282" x2="282" y1="123" y2="128"/>
<line fill="#000000" stroke="#000000" stroke-width="1" x1="282" x2="282" y1="133" y2="138"/>
<line fill="#000000" stroke="#000000" stroke-width="1" x1="282" x2="282" y1="143" y2="148"/>
<line fill="#000000" stroke="#000000" stroke-width="1" x1="282" x2="282" y1="153" y2="158"/>
<line fill="#000000" stroke="#000000" stroke-width="1" x1="282" x2="282" y1="163" y2="168"/>
<line fill="#000000" stroke="#000000" stroke-width="1" x1="282" x2="282" y1="173" y2="178"/>
<line fill="#000000" stroke="#000000" stroke-width="1" x1="282" x2="282" y1="183" y2="188"/>
<line fill="#000000" stroke="#000000" stroke-width="1" x1="282" x2="282" y1="193" y2="198"/>
<line fill="#000000" stroke="#000000" stroke-width="1" x1="282" x2="282" y1="203" y2="208"/>
<line fill="#000000" stroke="#000000" stroke-width="1" x1="282" x2="282" y1="213" y2="218"/>
<line fill="#000000" stroke="#000000" stroke-width="1" x1="282" x2="282" y1="223" y2="228"/>
<line fill="#000000" stroke="#000000" stroke-width="1" x1="282" x2="282" y1="233" y2="238"/>
<line fill="#000000" stroke="#000000" stroke-width="1" x1="282" x2="282" y1="243" y2="248"/>
<line fill="#000000" stroke="#000000" stroke-width="1" x1="282" x2="282" y1="253" y2="256"/>
<rect fill="#ffffff" height="162" stroke="#ffffff" stroke-width="1" width="20" x="272" y="94"/>
<rect fill="none" height="162" stroke="#000000" stroke-width="1" width="20" x="272" y="94"/>
<rect fill="#ffffff" height="50" stroke="#ffffff" stroke-width="1" width="120" x="222" y="14"/>
<rect fill="none" height="50" stroke="#000000" stroke-width="1" width="120" x="222" y="14"/>
<text font-family="Dialog" font-size="13" x="238" y="28">
:ModelPatient</text>
<line fill="#000000" stroke="#000000" stroke-width="1" x1="521" x2="521" y1="170" y2="175"/>
<line fill="#000000" stroke="#000000" stroke-width="1" x1="521" x2="521" y1="180" y2="185"/>
<line fill="#000000" stroke="#000000" stroke-width="1" x1="521" x2="521" y1="190" y2="195"/>
<line fill="#000000" stroke="#000000" stroke-width="1" x1="521" x2="521" y1="200" y2="205"/>
<line fill="#000000" stroke="#000000" stroke-width="1" x1="521" x2="521" y1="210" y2="215"/>
<line fill="#000000" stroke="#000000" stroke-width="1" x1="521" x2="521" y1="220" y2="225"/>
<line fill="#000000" stroke="#000000" stroke-width="1" x1="521" x2="521" y1="230" y2="235"/>
<line fill="#000000" stroke="#000000" stroke-width="1" x1="521" x2="521" y1="240" y2="245"/>
<line fill="#000000" stroke="#000000" stroke-width="1" x1="521" x2="521" y1="250" y2="255"/>
<rect fill="#ffffff" height="87" stroke="#ffffff" stroke-width="1" width="20" x="511" y="170"/>
<rect fill="none" height="87" stroke="#000000" stroke-width="1" width="20" x="511" y="170"/>
<rect fill="#ffffff" height="50" stroke="#ffffff" stroke-width="1" width="150" x="446" y="121"/>
<rect fill="none" height="50" stroke="#000000" stroke-width="1" width="150" x="446" y="121"/>
<text font-family="Dialog" font-size="13" x="486" y="135">
:MPaziente</text>
<polyline fill="none" points="292,146 446,146" stroke="#000000" stroke-width="1"/>
<polygon fill="#000000" points="446,146 434,153 434,139" stroke="#000000" stroke-width="1"/>
<polygon fill="none" points="446,146 434,153 434,139" stroke="#000000" stroke-width="1"/>
<text font-family="Dialog" font-size="13" x="324" y="139">
m := create()</text>
<polyline fill="none" points="80,94 272,94" stroke="#000000" stroke-width="1"/>
<polygon fill="#000000" points="272,94 260,101 260,87" stroke="#000000" stroke-width="1"/>
<polygon fill="none" points="272,94 260,101 260,87" stroke="#000000" stroke-width="1"/>
<text font-family="Dialog" font-size="13" x="104" y="88">
deferReservation (res)</text>
<polyline fill="none" points="292,210 680,210" stroke="#000000" stroke-width="1"/>
<polygon fill="#000000" points="680,210 668,217 668,203" stroke="#000000" stroke-width="1"/>
<polygon fill="none" points="680,210 668,217 668,203" stroke="#000000" stroke-width="1"/>
<text font-family="Dialog" font-size="13" x="315" y="204">
deferReservation (msg)</text>
</svg>
