<?xml version="1.0" encoding="utf-8" ?>
<!DOCTYPE svg PUBLIC "-//W3C//DTD SVG 1.1//EN" "http://www.w3.org/Graphics/SVG/1.1/DTD/svg11.dtd">
<svg height="260" version="1.1" width="620" xmlns="http://www.w3.org/2000/svg">
<line fill="#000000" stroke="#000000" stroke-width="1" x1="262" x2="262" y1="63" y2="68"/>
<line fill="#000000" stroke="#000000" stroke-width="1" x1="262" x2="262" y1="73" y2="78"/>
<line fill="#000000" stroke="#000000" stroke-width="1" x1="262" x2="262" y1="83" y2="88"/>
<line fill="#000000" stroke="#000000" stroke-width="1" x1="262" x2="262" y1="93" y2="98"/>
<line fill="#000000" stroke="#000000" stroke-width="1" x1="262" x2="262" y1="103" y2="108"/>
<line fill="#000000" stroke="#000000" stroke-width="1" x1="262" x2="262" y1="113" y2="118"/>
<line fill="#000000" stroke="#000000" stroke-width="1" x1="262" x2="262" y1="123" y2="128"/>
<line fill="#000000" stroke="#000000" stroke-width="1" x1="262" x2="262" y1="133" y2="138"/>
<line fill="#000000" stroke="#000000" stroke-width="1" x1="262" x2="262" y1="143" y2="148"/>
<line fill="#000000" stroke="#000000" stroke-width="1" x1="262" x2="262" y1="153" y2="158"/>
<line fill="#000000" stroke="#000000" stroke-width="1" x1="262" x2="262" y1="163" y2="168"/>
<line fill="#000000" stroke="#000000" stroke-width="1" x1="262" x2="262" y1="173" y2="178"/>
<line fill="#000000" stroke="#000000" stroke-width="1" x1="262" x2="262" y1="183" y2="188"/>
<line fill="#000000" stroke="#000000" stroke-width="1" x1="262" x2="262" y1="193" y2="198"/>
<line fill="#000000" stroke="#000000" stroke-width="1" x1="262" x2="262" y1="203" y2="208"/>
<line fill="#000000" stroke="#000000" stroke-width="1" x1="262" x2="262" y1="213" y2="218"/>
<line fill="#000000" stroke="#000000" stroke-width="1" x1="262" x2="262" y1="223" y2="228"/>
<line fill="#000000" stroke="#000000" stroke-width="1" x1="262" x2="262" y1="233" y2="238"/>
<line fill="#000000" stroke="#000000" stroke-width="1" x1="262" x2="262" y1="243" y2="245"/>
<rect fill="#ffffff" height="143" stroke="#ffffff" stroke-width="1" width="20" x="252" y="102"/>
<rect fill="none" height="143" stroke="#000000" stroke-width="1" width="20" x="252" y="102"/>
<rect fill="#ffffff" height="50" stroke="#ffffff" stroke-width="1" width="144" x="190" y="14"/>
<rect fill="none" height="50" stroke="#000000" stroke-width="1" width="144" x="190" y="14"/>
<text font-family="Dialog" font-size="13" x="218" y="28">
:ModelPatient</text>
<line fill="#000000" stroke="#000000" stroke-width="1" x1="74" x2="74" y1="63" y2="68"/>
<line fill="#000000" stroke="#000000" stroke-width="1" x1="74" x2="74" y1="73" y2="78"/>
<line fill="#000000" stroke="#000000" stroke-width="1" x1="74" x2="74" y1="83" y2="88"/>
<line fill="#000000" stroke="#000000" stroke-width="1" x1="74" x2="74" y1="93" y2="98"/>
<line fill="#000000" stroke="#000000" stroke-width="1" x1="74" x2="74" y1="103" y2="108"/>
<line fill="#000000" stroke="#000000" stroke-width="1" x1="74" x2="74" y1="113" y2="118"/>
<line fill="#000000" stroke="#000000" stroke-width="1" x1="74" x2="74" y1="123" y2="128"/>
<line fill="#000000" stroke="#000000" stroke-width="1" x1="74" x2="74" y1="133" y2="138"/>
<line fill="#000000" stroke="#000000" stroke-width="1" x1="74" x2="74" y1="143" y2="148"/>
<line fill="#000000" stroke="#000000" stroke-width="1" x1="74" x2="74" y1="153" y2="158"/>
<line fill="#000000" stroke="#000000" stroke-width="1" x1="74" x2="74" y1="163" y2="168"/>
<line fill="#000000" stroke="#000000" stroke-width="1" x1="74" x2="74" y1="173" y2="178"/>
<line fill="#000000" stroke="#000000" stroke-width="1" x1="74" x2="74" y1="183" y2="188"/>
<line fill="#000000" stroke="#000000" stroke-width="1" x1="74" x2="74" y1="193" y2="198"/>
<line fill="#000000" stroke="#000000" stroke-width="1" x1="74" x2="74" y1="203" y2="208"/>
<line fill="#000000" stroke="#000000" stroke-width="1" x1="74" x2="74" y1="213" y2="218"/>
<line fill="#000000" stroke="#000000" stroke-width="1" x1="74" x2="74" y1="223" y2="228"/>
<line fill="#000000" stroke="#000000" stroke-width="1" x1="74" x2="74" y1="233" y2="238"/>
<line fill="#000000" stroke="#000000" stroke-width="1" x1="74" x2="74" y1="243" y2="245"/>
<rect fill="#ffffff" height="182" stroke="#ffffff" stroke-width="1" width="20" x="64" y="63"/>
<rect fill="none" height="182" stroke="#000000" stroke-width="1" width="20" x="64" y="63"/>
<rect fill="#ffffff" height="50" stroke="#ffffff" stroke-width="1" width="120" x="14" y="14"/>
<rect fill="none" height="50" stroke="#000000" stroke-width="1" width="120" x="14" y="14"/>
<text font-family="Dialog" font-size="13" x="45" y="28">
:UIStrate</text>
<polyline fill="none" points="84,102 252,102" stroke="#000000" stroke-width="1"/>
<polygon fill="#000000" points="252,102 240,109 240,95" stroke="#000000" stroke-width="1"/>
<polygon fill="none" points="252,102 240,109 240,95" stroke="#000000" stroke-width="1"/>
<text font-family="Dialog" font-size="13" x="112" y="95">
retireReservation()</text>
<line fill="#000000" stroke="#000000" stroke-width="1" x1="445" x2="445" y1="158" y2="163"/>
<line fill="#000000" stroke="#000000" stroke-width="1" x1="445" x2="445" y1="168" y2="173"/>
<line fill="#000000" stroke="#000000" stroke-width="1" x1="445" x2="445" y1="178" y2="183"/>
<line fill="#000000" stroke="#000000" stroke-width="1" x1="445" x2="445" y1="188" y2="193"/>
<line fill="#000000" stroke="#000000" stroke-width="1" x1="445" x2="445" y1="198" y2="203"/>
<line fill="#000000" stroke="#000000" stroke-width="1" x1="445" x2="445" y1="208" y2="213"/>
<line fill="#000000" stroke="#000000" stroke-width="1" x1="445" x2="445" y1="218" y2="223"/>
<line fill="#000000" stroke="#000000" stroke-width="1" x1="445" x2="445" y1="228" y2="233"/>
<line fill="#000000" stroke="#000000" stroke-width="1" x1="445" x2="445" y1="238" y2="243"/>
<rect fill="#ffffff" height="87" stroke="#ffffff" stroke-width="1" width="20" x="435" y="158"/>
<rect fill="none" height="87" stroke="#000000" stroke-width="1" width="20" x="435" y="158"/>
<rect fill="#ffffff" height="50" stroke="#ffffff" stroke-width="1" width="79" x="406" y="109"/>
<rect fill="none" height="50" stroke="#000000" stroke-width="1" width="79" x="406" y="109"/>
<text font-family="Dialog" font-size="13" x="410" y="123">
:MPaziente</text>
<polyline fill="none" points="272,134 406,134" stroke="#000000" stroke-width="1"/>
<polygon fill="#000000" points="406,134 394,141 394,127" stroke="#000000" stroke-width="1"/>
<polygon fill="none" points="406,134 394,141 394,127" stroke="#000000" stroke-width="1"/>
<text font-family="Dialog" font-size="13" x="295" y="128">
m := create()</text>
<line fill="#000000" stroke="#000000" stroke-width="1" x1="546" x2="546" y1="63" y2="68"/>
<line fill="#000000" stroke="#000000" stroke-width="1" x1="546" x2="546" y1="73" y2="78"/>
<line fill="#000000" stroke="#000000" stroke-width="1" x1="546" x2="546" y1="83" y2="88"/>
<line fill="#000000" stroke="#000000" stroke-width="1" x1="546" x2="546" y1="93" y2="98"/>
<line fill="#000000" stroke="#000000" stroke-width="1" x1="546" x2="546" y1="103" y2="108"/>
<line fill="#000000" stroke="#000000" stroke-width="1" x1="546" x2="546" y1="113" y2="118"/>
<line fill="#000000" stroke="#000000" stroke-width="1" x1="546" x2="546" y1="123" y2="128"/>
<line fill="#000000" stroke="#000000" stroke-width="1" x1="546" x2="546" y1="133" y2="138"/>
<line fill="#000000" stroke="#000000" stroke-width="1" x1="546" x2="546" y1="143" y2="148"/>
<line fill="#000000" stroke="#000000" stroke-width="1" x1="546" x2="546" y1="153" y2="158"/>
<line fill="#000000" stroke="#000000" stroke-width="1" x1="546" x2="546" y1="163" y2="168"/>
<line fill="#000000" stroke="#000000" stroke-width="1" x1="546" x2="546" y1="173" y2="178"/>
<line fill="#000000" stroke="#000000" stroke-width="1" x1="546" x2="546" y1="183" y2="188"/>
<line fill="#000000" stroke="#000000" stroke-width="1" x1="546" x2="546" y1="193" y2="198"/>
<line fill="#000000" stroke="#000000" stroke-width="1" x1="546" x2="546" y1="203" y2="208"/>
<line fill="#000000" stroke="#000000" stroke-width="1" x1="546" x2="546" y1="213" y2="218"/>
<line fill="#000000" stroke="#000000" stroke-width="1" x1="546" x2="546" y1="223" y2="228"/>
<line fill="#000000" stroke="#000000" stroke-width="1" x1="546" x2="546" y1="233" y2="238"/>
<line fill="#000000" stroke="#000000" stroke-width="1" x1="546" x2="546" y1="243" y2="245"/>
<rect fill="#ffffff" height="39" stroke="#ffffff" stroke-width="1" width="20" x="536" y="206"/>
<rect fill="none" height="39" stroke="#000000" stroke-width="1" width="20" x="536" y="206"/>
<rect fill="#ffffff" height="50" stroke="#ffffff" stroke-width="1" width="120" x="486" y="14"/>
<rect fill="none" height="50" stroke="#000000" stroke-width="1" width="120" x="486" y="14"/>
<text font-family="Dialog" font-size="13" x="534" y="28">
:DB</text>
<polyline fill="none" points="272,206 536,206" stroke="#000000" stroke-width="1"/>
<polygon fill="#000000" points="536,206 524,213 524,199" stroke="#000000" stroke-width="1"/>
<polygon fill="none" points="536,206 524,213 524,199" stroke="#000000" stroke-width="1"/>
<text font-family="Dialog" font-size="13" x="282" y="200">
retireReservation(m)</text>
</svg>
