<?xml version="1.0" encoding="utf-8" ?>
<!DOCTYPE svg PUBLIC "-//W3C//DTD SVG 1.1//EN" "http://www.w3.org/Graphics/SVG/1.1/DTD/svg11.dtd">
<svg height="391" version="1.1" width="844" xmlns="http://www.w3.org/2000/svg">
<line fill="#000000" stroke="#000000" stroke-width="1" x1="89" x2="89" y1="63" y2="68"/>
<line fill="#000000" stroke="#000000" stroke-width="1" x1="89" x2="89" y1="73" y2="78"/>
<line fill="#000000" stroke="#000000" stroke-width="1" x1="89" x2="89" y1="83" y2="88"/>
<line fill="#000000" stroke="#000000" stroke-width="1" x1="89" x2="89" y1="93" y2="98"/>
<line fill="#000000" stroke="#000000" stroke-width="1" x1="89" x2="89" y1="103" y2="108"/>
<line fill="#000000" stroke="#000000" stroke-width="1" x1="89" x2="89" y1="113" y2="118"/>
<line fill="#000000" stroke="#000000" stroke-width="1" x1="89" x2="89" y1="123" y2="128"/>
<line fill="#000000" stroke="#000000" stroke-width="1" x1="89" x2="89" y1="133" y2="138"/>
<line fill="#000000" stroke="#000000" stroke-width="1" x1="89" x2="89" y1="143" y2="148"/>
<line fill="#000000" stroke="#000000" stroke-width="1" x1="89" x2="89" y1="153" y2="158"/>
<line fill="#000000" stroke="#000000" stroke-width="1" x1="89" x2="89" y1="163" y2="168"/>
<line fill="#000000" stroke="#000000" stroke-width="1" x1="89" x2="89" y1="173" y2="178"/>
<line fill="#000000" stroke="#000000" stroke-width="1" x1="89" x2="89" y1="183" y2="188"/>
<line fill="#000000" stroke="#000000" stroke-width="1" x1="89" x2="89" y1="193" y2="198"/>
<line fill="#000000" stroke="#000000" stroke-width="1" x1="89" x2="89" y1="203" y2="208"/>
<line fill="#000000" stroke="#000000" stroke-width="1" x1="89" x2="89" y1="213" y2="218"/>
<line fill="#000000" stroke="#000000" stroke-width="1" x1="89" x2="89" y1="223" y2="228"/>
<line fill="#000000" stroke="#000000" stroke-width="1" x1="89" x2="89" y1="233" y2="238"/>
<line fill="#000000" stroke="#000000" stroke-width="1" x1="89" x2="89" y1="243" y2="248"/>
<line fill="#000000" stroke="#000000" stroke-width="1" x1="89" x2="89" y1="253" y2="258"/>
<line fill="#000000" stroke="#000000" stroke-width="1" x1="89" x2="89" y1="263" y2="268"/>
<line fill="#000000" stroke="#000000" stroke-width="1" x1="89" x2="89" y1="273" y2="278"/>
<rect fill="#ffffff" height="218" stroke="#ffffff" stroke-width="1" width="20" x="79" y="63"/>
<rect fill="none" height="218" stroke="#000000" stroke-width="1" width="20" x="79" y="63"/>
<rect fill="#ffffff" height="50" stroke="#ffffff" stroke-width="1" width="150" x="14" y="14"/>
<rect fill="none" height="50" stroke="#000000" stroke-width="1" width="150" x="14" y="14"/>
<text font-family="Dialog" font-size="13" x="60" y="28">
:UIStrate</text>
<line fill="#000000" stroke="#000000" stroke-width="1" x1="758" x2="758" y1="63" y2="68"/>
<line fill="#000000" stroke="#000000" stroke-width="1" x1="758" x2="758" y1="73" y2="78"/>
<line fill="#000000" stroke="#000000" stroke-width="1" x1="758" x2="758" y1="83" y2="88"/>
<line fill="#000000" stroke="#000000" stroke-width="1" x1="758" x2="758" y1="93" y2="98"/>
<line fill="#000000" stroke="#000000" stroke-width="1" x1="758" x2="758" y1="103" y2="108"/>
<line fill="#000000" stroke="#000000" stroke-width="1" x1="758" x2="758" y1="113" y2="118"/>
<line fill="#000000" stroke="#000000" stroke-width="1" x1="758" x2="758" y1="123" y2="128"/>
<line fill="#000000" stroke="#000000" stroke-width="1" x1="758" x2="758" y1="133" y2="138"/>
<line fill="#000000" stroke="#000000" stroke-width="1" x1="758" x2="758" y1="143" y2="148"/>
<line fill="#000000" stroke="#000000" stroke-width="1" x1="758" x2="758" y1="153" y2="158"/>
<line fill="#000000" stroke="#000000" stroke-width="1" x1="758" x2="758" y1="163" y2="168"/>
<line fill="#000000" stroke="#000000" stroke-width="1" x1="758" x2="758" y1="173" y2="178"/>
<line fill="#000000" stroke="#000000" stroke-width="1" x1="758" x2="758" y1="183" y2="188"/>
<line fill="#000000" stroke="#000000" stroke-width="1" x1="758" x2="758" y1="193" y2="198"/>
<line fill="#000000" stroke="#000000" stroke-width="1" x1="758" x2="758" y1="203" y2="208"/>
<line fill="#000000" stroke="#000000" stroke-width="1" x1="758" x2="758" y1="213" y2="218"/>
<line fill="#000000" stroke="#000000" stroke-width="1" x1="758" x2="758" y1="223" y2="228"/>
<line fill="#000000" stroke="#000000" stroke-width="1" x1="758" x2="758" y1="233" y2="238"/>
<line fill="#000000" stroke="#000000" stroke-width="1" x1="758" x2="758" y1="243" y2="248"/>
<line fill="#000000" stroke="#000000" stroke-width="1" x1="758" x2="758" y1="253" y2="258"/>
<line fill="#000000" stroke="#000000" stroke-width="1" x1="758" x2="758" y1="263" y2="268"/>
<line fill="#000000" stroke="#000000" stroke-width="1" x1="758" x2="758" y1="273" y2="278"/>
<rect fill="#ffffff" height="159" stroke="#ffffff" stroke-width="1" width="20" x="748" y="122"/>
<rect fill="none" height="159" stroke="#000000" stroke-width="1" width="20" x="748" y="122"/>
<rect fill="#ffffff" height="50" stroke="#ffffff" stroke-width="1" width="144" x="686" y="14"/>
<rect fill="none" height="50" stroke="#000000" stroke-width="1" width="144" x="686" y="14"/>
<text font-family="Dialog" font-size="13" x="746" y="28">
:DB</text>
<line fill="#000000" stroke="#000000" stroke-width="1" x1="353" x2="353" y1="63" y2="68"/>
<line fill="#000000" stroke="#000000" stroke-width="1" x1="353" x2="353" y1="73" y2="78"/>
<line fill="#000000" stroke="#000000" stroke-width="1" x1="353" x2="353" y1="83" y2="88"/>
<line fill="#000000" stroke="#000000" stroke-width="1" x1="353" x2="353" y1="93" y2="98"/>
<line fill="#000000" stroke="#000000" stroke-width="1" x1="353" x2="353" y1="103" y2="108"/>
<line fill="#000000" stroke="#000000" stroke-width="1" x1="353" x2="353" y1="113" y2="118"/>
<line fill="#000000" stroke="#000000" stroke-width="1" x1="353" x2="353" y1="123" y2="128"/>
<line fill="#000000" stroke="#000000" stroke-width="1" x1="353" x2="353" y1="133" y2="138"/>
<line fill="#000000" stroke="#000000" stroke-width="1" x1="353" x2="353" y1="143" y2="148"/>
<line fill="#000000" stroke="#000000" stroke-width="1" x1="353" x2="353" y1="153" y2="158"/>
<line fill="#000000" stroke="#000000" stroke-width="1" x1="353" x2="353" y1="163" y2="168"/>
<line fill="#000000" stroke="#000000" stroke-width="1" x1="353" x2="353" y1="173" y2="178"/>
<line fill="#000000" stroke="#000000" stroke-width="1" x1="353" x2="353" y1="183" y2="188"/>
<line fill="#000000" stroke="#000000" stroke-width="1" x1="353" x2="353" y1="193" y2="198"/>
<line fill="#000000" stroke="#000000" stroke-width="1" x1="353" x2="353" y1="203" y2="208"/>
<line fill="#000000" stroke="#000000" stroke-width="1" x1="353" x2="353" y1="213" y2="218"/>
<line fill="#000000" stroke="#000000" stroke-width="1" x1="353" x2="353" y1="223" y2="228"/>
<line fill="#000000" stroke="#000000" stroke-width="1" x1="353" x2="353" y1="233" y2="238"/>
<line fill="#000000" stroke="#000000" stroke-width="1" x1="353" x2="353" y1="243" y2="248"/>
<line fill="#000000" stroke="#000000" stroke-width="1" x1="353" x2="353" y1="253" y2="258"/>
<line fill="#000000" stroke="#000000" stroke-width="1" x1="353" x2="353" y1="263" y2="268"/>
<line fill="#000000" stroke="#000000" stroke-width="1" x1="353" x2="353" y1="273" y2="278"/>
<rect fill="#ffffff" height="179" stroke="#ffffff" stroke-width="1" width="20" x="343" y="102"/>
<rect fill="none" height="179" stroke="#000000" stroke-width="1" width="20" x="343" y="102"/>
<rect fill="#ffffff" height="50" stroke="#ffffff" stroke-width="1" width="150" x="278" y="14"/>
<rect fill="none" height="50" stroke="#000000" stroke-width="1" width="150" x="278" y="14"/>
<text font-family="Dialog" font-size="13" x="319" y="28">
:CPaziente</text>
<line fill="#000000" stroke="#000000" stroke-width="1" x1="630" x2="630" y1="216" y2="221"/>
<line fill="#000000" stroke="#000000" stroke-width="1" x1="630" x2="630" y1="226" y2="231"/>
<line fill="#000000" stroke="#000000" stroke-width="1" x1="630" x2="630" y1="236" y2="241"/>
<line fill="#000000" stroke="#000000" stroke-width="1" x1="630" x2="630" y1="246" y2="251"/>
<line fill="#000000" stroke="#000000" stroke-width="1" x1="630" x2="630" y1="256" y2="261"/>
<line fill="#000000" stroke="#000000" stroke-width="1" x1="630" x2="630" y1="266" y2="271"/>
<line fill="#000000" stroke="#000000" stroke-width="1" x1="630" x2="630" y1="276" y2="281"/>
<rect fill="#ffffff" height="65" stroke="#ffffff" stroke-width="1" width="20" x="620" y="216"/>
<rect fill="none" height="65" stroke="#000000" stroke-width="1" width="20" x="620" y="216"/>
<rect fill="#ffffff" height="50" stroke="#ffffff" stroke-width="1" width="176" x="542" y="167"/>
<rect fill="none" height="50" stroke="#000000" stroke-width="1" width="176" x="542" y="167"/>
<text font-family="Dialog" font-size="13" x="586" y="181">
:ModelPatient</text>
<polyline fill="none" points="363,192 542,192" stroke="#000000" stroke-width="1"/>
<polygon fill="#000000" points="542,192 530,199 530,185" stroke="#000000" stroke-width="1"/>
<polygon fill="none" points="542,192 530,199 530,185" stroke="#000000" stroke-width="1"/>
<text font-family="Dialog" font-size="13" x="371" y="186">
ModelPatient p = create()</text>
<polyline fill="none" points="99,102 343,102" stroke="#000000" stroke-width="1"/>
<polygon fill="#000000" points="343,102 331,109 331,95" stroke="#000000" stroke-width="1"/>
<polygon fill="none" points="343,102 331,109 331,95" stroke="#000000" stroke-width="1"/>
<text font-family="Dialog" font-size="13" x="106" y="96">
registerNewPatientFromTutor (t)</text>
<polyline fill="none" points="363,262 748,262" stroke="#000000" stroke-width="1"/>
<polygon fill="#000000" points="748,262 736,269 736,255" stroke="#000000" stroke-width="1"/>
<polygon fill="none" points="748,262 736,269 736,255" stroke="#000000" stroke-width="1"/>
<text font-family="Dialog" font-size="13" x="381" y="254">
bool isOk = registerNewPatient(p)</text>
<ellipse cx="555" cy="260" fill="#000000" rx="0.5" ry="0.5" stroke="#000000" stroke-width="1"/>
<ellipse cx="556" cy="261" fill="#ffffff" rx="-0.5" ry="-0.5" stroke="#ffffff" stroke-width="1"/>
<polygon fill="#ffffff" points="350,318 560,318 570,328 570,376 350,376 350,318" stroke="#ffffff" stroke-width="1"/>
<polyline fill="none" points="350,318 560,318 570,328 570,376 350,376 350,318" stroke="#000000" stroke-width="1"/>
<polygon fill="#ffffff" points="560,318 570,328 560,328 560,318" stroke="#ffffff" stroke-width="1"/>
<polyline fill="none" points="560,318 570,328 560,328 560,318" stroke="#000000" stroke-width="1"/>
<text font-family="Dialog" font-size="13" x="353" y="334">
se il paziente esiste già la</text>
<text font-family="Dialog" font-size="13" x="353" y="351">
creazione fallisce. Se il paziente</text>
<text font-family="Dialog" font-size="13" x="353" y="368">
non esiste viene inserito nel DB.</text>
<line fill="#000000" stroke="#000000" stroke-width="1" x1="555" x2="555" y1="318" y2="313"/>
<line fill="#000000" stroke="#000000" stroke-width="1" x1="555" x2="555" y1="308" y2="303"/>
<line fill="#000000" stroke="#000000" stroke-width="1" x1="555" x2="555" y1="298" y2="293"/>
<line fill="#000000" stroke="#000000" stroke-width="1" x1="555" x2="555" y1="288" y2="283"/>
<line fill="#000000" stroke="#000000" stroke-width="1" x1="555" x2="555" y1="278" y2="273"/>
<line fill="#000000" stroke="#000000" stroke-width="1" x1="555" x2="555" y1="268" y2="263"/>
<polyline fill="none" points="363,122 748,122" stroke="#000000" stroke-width="1"/>
<polygon fill="#000000" points="748,122 736,129 736,115" stroke="#000000" stroke-width="1"/>
<polygon fill="none" points="748,122 736,129 736,115" stroke="#000000" stroke-width="1"/>
<text font-family="Dialog" font-size="13" x="511" y="115">
bool isOk = isTutor(t)</text>
</svg>
