<?xml version="1.0" encoding="utf-8" ?>
<!DOCTYPE svg PUBLIC "-//W3C//DTD SVG 1.1//EN" "http://www.w3.org/Graphics/SVG/1.1/DTD/svg11.dtd">
<svg height="172" version="1.1" width="482" xmlns="http://www.w3.org/2000/svg">
<line fill="#000000" stroke="#000000" stroke-width="1" x1="94" x2="94" y1="63" y2="68"/>
<line fill="#000000" stroke="#000000" stroke-width="1" x1="94" x2="94" y1="73" y2="78"/>
<line fill="#000000" stroke="#000000" stroke-width="1" x1="94" x2="94" y1="83" y2="88"/>
<line fill="#000000" stroke="#000000" stroke-width="1" x1="94" x2="94" y1="93" y2="98"/>
<line fill="#000000" stroke="#000000" stroke-width="1" x1="94" x2="94" y1="103" y2="108"/>
<line fill="#000000" stroke="#000000" stroke-width="1" x1="94" x2="94" y1="113" y2="118"/>
<line fill="#000000" stroke="#000000" stroke-width="1" x1="94" x2="94" y1="123" y2="128"/>
<line fill="#000000" stroke="#000000" stroke-width="1" x1="94" x2="94" y1="133" y2="138"/>
<line fill="#000000" stroke="#000000" stroke-width="1" x1="94" x2="94" y1="143" y2="148"/>
<line fill="#000000" stroke="#000000" stroke-width="1" x1="94" x2="94" y1="153" y2="157"/>
<rect fill="#ffffff" height="94" stroke="#ffffff" stroke-width="1" width="20" x="84" y="63"/>
<rect fill="none" height="94" stroke="#000000" stroke-width="1" width="20" x="84" y="63"/>
<rect fill="#ffffff" height="50" stroke="#ffffff" stroke-width="1" width="160" x="14" y="14"/>
<rect fill="none" height="50" stroke="#000000" stroke-width="1" width="160" x="14" y="14"/>
<text font-family="Lucida Grande" font-size="13" x="67" y="28">
:UIStrate</text>
<line fill="#000000" stroke="#000000" stroke-width="1" x1="393" x2="393" y1="63" y2="68"/>
<line fill="#000000" stroke="#000000" stroke-width="1" x1="393" x2="393" y1="73" y2="78"/>
<line fill="#000000" stroke="#000000" stroke-width="1" x1="393" x2="393" y1="83" y2="88"/>
<line fill="#000000" stroke="#000000" stroke-width="1" x1="393" x2="393" y1="93" y2="98"/>
<line fill="#000000" stroke="#000000" stroke-width="1" x1="393" x2="393" y1="103" y2="108"/>
<line fill="#000000" stroke="#000000" stroke-width="1" x1="393" x2="393" y1="113" y2="118"/>
<line fill="#000000" stroke="#000000" stroke-width="1" x1="393" x2="393" y1="123" y2="128"/>
<line fill="#000000" stroke="#000000" stroke-width="1" x1="393" x2="393" y1="133" y2="138"/>
<line fill="#000000" stroke="#000000" stroke-width="1" x1="393" x2="393" y1="143" y2="148"/>
<line fill="#000000" stroke="#000000" stroke-width="1" x1="393" x2="393" y1="153" y2="157"/>
<rect fill="#ffffff" height="55" stroke="#ffffff" stroke-width="1" width="20" x="383" y="102"/>
<rect fill="none" height="55" stroke="#000000" stroke-width="1" width="20" x="383" y="102"/>
<rect fill="#ffffff" height="50" stroke="#ffffff" stroke-width="1" width="150" x="318" y="14"/>
<rect fill="none" height="50" stroke="#000000" stroke-width="1" width="150" x="318" y="14"/>
<text font-family="Lucida Grande" font-size="13" x="382" y="28">
:DB</text>
<polyline fill="none" points="104,102 383,102" stroke="#000000" stroke-width="1"/>
<polygon fill="#000000" points="383,102 371,109 371,95" stroke="#000000" stroke-width="1"/>
<polygon fill="none" points="383,102 371,109 371,95" stroke="#000000" stroke-width="1"/>
<text font-family="Lucida Grande" font-size="13" x="160" y="97">
bool isOk = registerTutor( t)</text>
</svg>
