<?xml version="1.0" encoding="utf-8" ?>
<!DOCTYPE svg PUBLIC "-//W3C//DTD SVG 1.1//EN" "http://www.w3.org/Graphics/SVG/1.1/DTD/svg11.dtd">
<svg height="327" version="1.1" width="698" xmlns="http://www.w3.org/2000/svg">
<line fill="#000000" stroke="#000000" stroke-width="1" x1="282" x2="282" y1="63" y2="68"/>
<line fill="#000000" stroke="#000000" stroke-width="1" x1="282" x2="282" y1="73" y2="78"/>
<line fill="#000000" stroke="#000000" stroke-width="1" x1="282" x2="282" y1="83" y2="88"/>
<line fill="#000000" stroke="#000000" stroke-width="1" x1="282" x2="282" y1="93" y2="98"/>
<line fill="#000000" stroke="#000000" stroke-width="1" x1="282" x2="282" y1="103" y2="108"/>
<line fill="#000000" stroke="#000000" stroke-width="1" x1="282" x2="282" y1="113" y2="118"/>
<line fill="#000000" stroke="#000000" stroke-width="1" x1="282" x2="282" y1="123" y2="128"/>
<line fill="#000000" stroke="#000000" stroke-width="1" x1="282" x2="282" y1="133" y2="138"/>
<line fill="#000000" stroke="#000000" stroke-width="1" x1="282" x2="282" y1="143" y2="148"/>
<line fill="#000000" stroke="#000000" stroke-width="1" x1="282" x2="282" y1="153" y2="158"/>
<line fill="#000000" stroke="#000000" stroke-width="1" x1="282" x2="282" y1="163" y2="168"/>
<line fill="#000000" stroke="#000000" stroke-width="1" x1="282" x2="282" y1="173" y2="178"/>
<line fill="#000000" stroke="#000000" stroke-width="1" x1="282" x2="282" y1="183" y2="188"/>
<line fill="#000000" stroke="#000000" stroke-width="1" x1="282" x2="282" y1="193" y2="198"/>
<line fill="#000000" stroke="#000000" stroke-width="1" x1="282" x2="282" y1="203" y2="204"/>
<rect fill="#ffffff" height="102" stroke="#ffffff" stroke-width="1" width="20" x="272" y="102"/>
<rect fill="none" height="102" stroke="#000000" stroke-width="1" width="20" x="272" y="102"/>
<rect fill="#ffffff" height="50" stroke="#ffffff" stroke-width="1" width="152" x="206" y="14"/>
<rect fill="none" height="50" stroke="#000000" stroke-width="1" width="152" x="206" y="14"/>
<text font-family="Dialog" font-size="13" x="210" y="28">
/p:Paziente minorenne</text>
<line fill="#000000" stroke="#000000" stroke-width="1" x1="609" x2="609" y1="63" y2="68"/>
<line fill="#000000" stroke="#000000" stroke-width="1" x1="609" x2="609" y1="73" y2="78"/>
<line fill="#000000" stroke="#000000" stroke-width="1" x1="609" x2="609" y1="83" y2="88"/>
<line fill="#000000" stroke="#000000" stroke-width="1" x1="609" x2="609" y1="93" y2="98"/>
<line fill="#000000" stroke="#000000" stroke-width="1" x1="609" x2="609" y1="103" y2="108"/>
<line fill="#000000" stroke="#000000" stroke-width="1" x1="609" x2="609" y1="113" y2="118"/>
<line fill="#000000" stroke="#000000" stroke-width="1" x1="609" x2="609" y1="123" y2="128"/>
<line fill="#000000" stroke="#000000" stroke-width="1" x1="609" x2="609" y1="133" y2="138"/>
<line fill="#000000" stroke="#000000" stroke-width="1" x1="609" x2="609" y1="143" y2="148"/>
<line fill="#000000" stroke="#000000" stroke-width="1" x1="609" x2="609" y1="153" y2="158"/>
<line fill="#000000" stroke="#000000" stroke-width="1" x1="609" x2="609" y1="163" y2="168"/>
<line fill="#000000" stroke="#000000" stroke-width="1" x1="609" x2="609" y1="173" y2="178"/>
<line fill="#000000" stroke="#000000" stroke-width="1" x1="609" x2="609" y1="183" y2="188"/>
<line fill="#000000" stroke="#000000" stroke-width="1" x1="609" x2="609" y1="193" y2="198"/>
<line fill="#000000" stroke="#000000" stroke-width="1" x1="609" x2="609" y1="203" y2="206"/>
<rect fill="#ffffff" height="84" stroke="#ffffff" stroke-width="1" width="20" x="599" y="122"/>
<rect fill="none" height="84" stroke="#000000" stroke-width="1" width="20" x="599" y="122"/>
<rect fill="#ffffff" height="50" stroke="#ffffff" stroke-width="1" width="150" x="534" y="14"/>
<rect fill="none" height="50" stroke="#000000" stroke-width="1" width="150" x="534" y="14"/>
<text font-family="Dialog" font-size="13" x="597" y="28">
:DB</text>
<line fill="#000000" stroke="#000000" stroke-width="1" x1="89" x2="89" y1="63" y2="68"/>
<line fill="#000000" stroke="#000000" stroke-width="1" x1="89" x2="89" y1="73" y2="78"/>
<line fill="#000000" stroke="#000000" stroke-width="1" x1="89" x2="89" y1="83" y2="88"/>
<line fill="#000000" stroke="#000000" stroke-width="1" x1="89" x2="89" y1="93" y2="98"/>
<line fill="#000000" stroke="#000000" stroke-width="1" x1="89" x2="89" y1="103" y2="108"/>
<line fill="#000000" stroke="#000000" stroke-width="1" x1="89" x2="89" y1="113" y2="118"/>
<line fill="#000000" stroke="#000000" stroke-width="1" x1="89" x2="89" y1="123" y2="128"/>
<line fill="#000000" stroke="#000000" stroke-width="1" x1="89" x2="89" y1="133" y2="138"/>
<line fill="#000000" stroke="#000000" stroke-width="1" x1="89" x2="89" y1="143" y2="148"/>
<line fill="#000000" stroke="#000000" stroke-width="1" x1="89" x2="89" y1="153" y2="158"/>
<line fill="#000000" stroke="#000000" stroke-width="1" x1="89" x2="89" y1="163" y2="168"/>
<line fill="#000000" stroke="#000000" stroke-width="1" x1="89" x2="89" y1="173" y2="178"/>
<line fill="#000000" stroke="#000000" stroke-width="1" x1="89" x2="89" y1="183" y2="188"/>
<line fill="#000000" stroke="#000000" stroke-width="1" x1="89" x2="89" y1="193" y2="198"/>
<line fill="#000000" stroke="#000000" stroke-width="1" x1="89" x2="89" y1="203" y2="205"/>
<rect fill="#ffffff" height="142" stroke="#ffffff" stroke-width="1" width="20" x="79" y="63"/>
<rect fill="none" height="142" stroke="#000000" stroke-width="1" width="20" x="79" y="63"/>
<rect fill="#ffffff" height="50" stroke="#ffffff" stroke-width="1" width="150" x="14" y="14"/>
<rect fill="none" height="50" stroke="#000000" stroke-width="1" width="150" x="14" y="14"/>
<text font-family="Dialog" font-size="13" x="60" y="28">
:UIStrate</text>
<polyline fill="none" points="99,102 272,102" stroke="#000000" stroke-width="1"/>
<polygon fill="#000000" points="272,102 260,109 260,95" stroke="#000000" stroke-width="1"/>
<polygon fill="none" points="272,102 260,109 260,95" stroke="#000000" stroke-width="1"/>
<text font-family="Dialog" font-size="13" x="119" y="96">
bool isOk = tutorCredentials()</text>
<polyline fill="none" points="292,122 599,122" stroke="#000000" stroke-width="1"/>
<polygon fill="#000000" points="599,122 587,129 587,115" stroke="#000000" stroke-width="1"/>
<polygon fill="none" points="599,122 587,129 587,115" stroke="#000000" stroke-width="1"/>
<text font-family="Dialog" font-size="13" x="311" y="116">
bool isOk = tutorCredentials(tname, tpass)</text>
<ellipse cx="445" cy="120" fill="#000000" rx="0.5" ry="0.5" stroke="#000000" stroke-width="1"/>
<ellipse cx="446" cy="121" fill="#ffffff" rx="-0.5" ry="-0.5" stroke="#ffffff" stroke-width="1"/>
<polygon fill="#ffffff" points="398,254 574,254 584,264 584,312 398,312 398,254" stroke="#ffffff" stroke-width="1"/>
<polyline fill="none" points="398,254 574,254 584,264 584,312 398,312 398,254" stroke="#000000" stroke-width="1"/>
<polygon fill="#ffffff" points="574,254 584,264 574,264 574,254" stroke="#ffffff" stroke-width="1"/>
<polyline fill="none" points="574,254 584,264 574,264 574,254" stroke="#000000" stroke-width="1"/>
<text font-family="Dialog" font-size="13" x="401" y="270">
L'azione precedentemente</text>
<text font-family="Dialog" font-size="13" x="401" y="287">
istanziata viene permessa</text>
<text font-family="Dialog" font-size="13" x="401" y="304">
o negata</text>
<line fill="#000000" stroke="#000000" stroke-width="1" x1="445" x2="445" y1="254" y2="249"/>
<line fill="#000000" stroke="#000000" stroke-width="1" x1="445" x2="445" y1="244" y2="239"/>
<line fill="#000000" stroke="#000000" stroke-width="1" x1="445" x2="445" y1="234" y2="229"/>
<line fill="#000000" stroke="#000000" stroke-width="1" x1="445" x2="445" y1="224" y2="219"/>
<line fill="#000000" stroke="#000000" stroke-width="1" x1="445" x2="445" y1="214" y2="209"/>
<line fill="#000000" stroke="#000000" stroke-width="1" x1="445" x2="445" y1="204" y2="199"/>
<line fill="#000000" stroke="#000000" stroke-width="1" x1="445" x2="445" y1="194" y2="189"/>
<line fill="#000000" stroke="#000000" stroke-width="1" x1="445" x2="445" y1="184" y2="179"/>
<line fill="#000000" stroke="#000000" stroke-width="1" x1="445" x2="445" y1="174" y2="169"/>
<line fill="#000000" stroke="#000000" stroke-width="1" x1="445" x2="445" y1="164" y2="159"/>
<line fill="#000000" stroke="#000000" stroke-width="1" x1="445" x2="445" y1="154" y2="149"/>
<line fill="#000000" stroke="#000000" stroke-width="1" x1="445" x2="445" y1="144" y2="139"/>
<line fill="#000000" stroke="#000000" stroke-width="1" x1="445" x2="445" y1="134" y2="129"/>
<line fill="#000000" stroke="#000000" stroke-width="1" x1="445" x2="445" y1="124" y2="120"/>
</svg>
