<?xml version="1.0" encoding="utf-8" ?>
<!DOCTYPE svg PUBLIC "-//W3C//DTD SVG 1.1//EN" "http://www.w3.org/Graphics/SVG/1.1/DTD/svg11.dtd">
<svg height="393" version="1.1" width="1018" xmlns="http://www.w3.org/2000/svg">
<line fill="#000000" stroke="#000000" stroke-width="1" x1="314" x2="314" y1="63" y2="68"/>
<line fill="#000000" stroke="#000000" stroke-width="1" x1="314" x2="314" y1="73" y2="78"/>
<line fill="#000000" stroke="#000000" stroke-width="1" x1="314" x2="314" y1="83" y2="88"/>
<line fill="#000000" stroke="#000000" stroke-width="1" x1="314" x2="314" y1="93" y2="98"/>
<line fill="#000000" stroke="#000000" stroke-width="1" x1="314" x2="314" y1="103" y2="108"/>
<line fill="#000000" stroke="#000000" stroke-width="1" x1="314" x2="314" y1="113" y2="118"/>
<line fill="#000000" stroke="#000000" stroke-width="1" x1="314" x2="314" y1="123" y2="128"/>
<line fill="#000000" stroke="#000000" stroke-width="1" x1="314" x2="314" y1="133" y2="138"/>
<line fill="#000000" stroke="#000000" stroke-width="1" x1="314" x2="314" y1="143" y2="148"/>
<line fill="#000000" stroke="#000000" stroke-width="1" x1="314" x2="314" y1="153" y2="158"/>
<line fill="#000000" stroke="#000000" stroke-width="1" x1="314" x2="314" y1="163" y2="168"/>
<line fill="#000000" stroke="#000000" stroke-width="1" x1="314" x2="314" y1="173" y2="178"/>
<line fill="#000000" stroke="#000000" stroke-width="1" x1="314" x2="314" y1="183" y2="188"/>
<line fill="#000000" stroke="#000000" stroke-width="1" x1="314" x2="314" y1="193" y2="198"/>
<line fill="#000000" stroke="#000000" stroke-width="1" x1="314" x2="314" y1="203" y2="208"/>
<line fill="#000000" stroke="#000000" stroke-width="1" x1="314" x2="314" y1="213" y2="218"/>
<line fill="#000000" stroke="#000000" stroke-width="1" x1="314" x2="314" y1="223" y2="228"/>
<line fill="#000000" stroke="#000000" stroke-width="1" x1="314" x2="314" y1="233" y2="238"/>
<line fill="#000000" stroke="#000000" stroke-width="1" x1="314" x2="314" y1="243" y2="248"/>
<line fill="#000000" stroke="#000000" stroke-width="1" x1="314" x2="314" y1="253" y2="258"/>
<line fill="#000000" stroke="#000000" stroke-width="1" x1="314" x2="314" y1="263" y2="268"/>
<line fill="#000000" stroke="#000000" stroke-width="1" x1="314" x2="314" y1="273" y2="278"/>
<line fill="#000000" stroke="#000000" stroke-width="1" x1="314" x2="314" y1="283" y2="288"/>
<line fill="#000000" stroke="#000000" stroke-width="1" x1="314" x2="314" y1="293" y2="298"/>
<line fill="#000000" stroke="#000000" stroke-width="1" x1="314" x2="314" y1="303" y2="308"/>
<line fill="#000000" stroke="#000000" stroke-width="1" x1="314" x2="314" y1="313" y2="318"/>
<line fill="#000000" stroke="#000000" stroke-width="1" x1="314" x2="314" y1="323" y2="328"/>
<line fill="#000000" stroke="#000000" stroke-width="1" x1="314" x2="314" y1="333" y2="338"/>
<line fill="#000000" stroke="#000000" stroke-width="1" x1="314" x2="314" y1="343" y2="348"/>
<line fill="#000000" stroke="#000000" stroke-width="1" x1="314" x2="314" y1="353" y2="358"/>
<line fill="#000000" stroke="#000000" stroke-width="1" x1="314" x2="314" y1="363" y2="368"/>
<line fill="#000000" stroke="#000000" stroke-width="1" x1="314" x2="314" y1="373" y2="378"/>
<rect fill="#ffffff" height="192" stroke="#ffffff" stroke-width="1" width="20" x="304" y="87"/>
<rect fill="none" height="192" stroke="#000000" stroke-width="1" width="20" x="304" y="87"/>
<rect fill="#ffffff" height="50" stroke="#ffffff" stroke-width="1" width="152" x="238" y="14"/>
<rect fill="none" height="50" stroke="#000000" stroke-width="1" width="152" x="238" y="14"/>
<text font-family="Dialog" font-size="13" x="264" y="28">
/p:Prenotazione</text>
<line fill="#000000" stroke="#000000" stroke-width="1" x1="769" x2="769" y1="63" y2="68"/>
<line fill="#000000" stroke="#000000" stroke-width="1" x1="769" x2="769" y1="73" y2="78"/>
<line fill="#000000" stroke="#000000" stroke-width="1" x1="769" x2="769" y1="83" y2="88"/>
<line fill="#000000" stroke="#000000" stroke-width="1" x1="769" x2="769" y1="93" y2="98"/>
<line fill="#000000" stroke="#000000" stroke-width="1" x1="769" x2="769" y1="103" y2="108"/>
<line fill="#000000" stroke="#000000" stroke-width="1" x1="769" x2="769" y1="113" y2="118"/>
<line fill="#000000" stroke="#000000" stroke-width="1" x1="769" x2="769" y1="123" y2="128"/>
<line fill="#000000" stroke="#000000" stroke-width="1" x1="769" x2="769" y1="133" y2="138"/>
<line fill="#000000" stroke="#000000" stroke-width="1" x1="769" x2="769" y1="143" y2="148"/>
<line fill="#000000" stroke="#000000" stroke-width="1" x1="769" x2="769" y1="153" y2="158"/>
<line fill="#000000" stroke="#000000" stroke-width="1" x1="769" x2="769" y1="163" y2="167"/>
<rect fill="#ffffff" height="104" stroke="#ffffff" stroke-width="1" width="20" x="759" y="63"/>
<rect fill="none" height="104" stroke="#000000" stroke-width="1" width="20" x="759" y="63"/>
<line fill="#000000" stroke="#000000" stroke-width="1" x1="759" x2="779" y1="167" y2="187"/>
<line fill="#000000" stroke="#000000" stroke-width="1" x1="759" x2="779" y1="187" y2="167"/>
<rect fill="#ffffff" height="50" stroke="#ffffff" stroke-width="1" width="150" x="694" y="14"/>
<rect fill="none" height="50" stroke="#000000" stroke-width="1" width="150" x="694" y="14"/>
<text font-family="Dialog" font-size="13" x="735" y="28">
/p.slot:Slot</text>
<line fill="#000000" stroke="#000000" stroke-width="1" x1="553" x2="553" y1="63" y2="68"/>
<line fill="#000000" stroke="#000000" stroke-width="1" x1="553" x2="553" y1="73" y2="78"/>
<line fill="#000000" stroke="#000000" stroke-width="1" x1="553" x2="553" y1="83" y2="88"/>
<line fill="#000000" stroke="#000000" stroke-width="1" x1="553" x2="553" y1="93" y2="98"/>
<line fill="#000000" stroke="#000000" stroke-width="1" x1="553" x2="553" y1="103" y2="108"/>
<line fill="#000000" stroke="#000000" stroke-width="1" x1="553" x2="553" y1="113" y2="118"/>
<line fill="#000000" stroke="#000000" stroke-width="1" x1="553" x2="553" y1="123" y2="128"/>
<line fill="#000000" stroke="#000000" stroke-width="1" x1="553" x2="553" y1="133" y2="138"/>
<line fill="#000000" stroke="#000000" stroke-width="1" x1="553" x2="553" y1="143" y2="148"/>
<line fill="#000000" stroke="#000000" stroke-width="1" x1="553" x2="553" y1="153" y2="158"/>
<line fill="#000000" stroke="#000000" stroke-width="1" x1="553" x2="553" y1="163" y2="168"/>
<line fill="#000000" stroke="#000000" stroke-width="1" x1="553" x2="553" y1="173" y2="178"/>
<line fill="#000000" stroke="#000000" stroke-width="1" x1="553" x2="553" y1="183" y2="188"/>
<line fill="#000000" stroke="#000000" stroke-width="1" x1="553" x2="553" y1="193" y2="198"/>
<line fill="#000000" stroke="#000000" stroke-width="1" x1="553" x2="553" y1="203" y2="208"/>
<line fill="#000000" stroke="#000000" stroke-width="1" x1="553" x2="553" y1="213" y2="218"/>
<line fill="#000000" stroke="#000000" stroke-width="1" x1="553" x2="553" y1="223" y2="228"/>
<line fill="#000000" stroke="#000000" stroke-width="1" x1="553" x2="553" y1="233" y2="238"/>
<line fill="#000000" stroke="#000000" stroke-width="1" x1="553" x2="553" y1="243" y2="248"/>
<line fill="#000000" stroke="#000000" stroke-width="1" x1="553" x2="553" y1="253" y2="258"/>
<line fill="#000000" stroke="#000000" stroke-width="1" x1="553" x2="553" y1="263" y2="268"/>
<line fill="#000000" stroke="#000000" stroke-width="1" x1="553" x2="553" y1="273" y2="278"/>
<line fill="#000000" stroke="#000000" stroke-width="1" x1="553" x2="553" y1="283" y2="288"/>
<line fill="#000000" stroke="#000000" stroke-width="1" x1="553" x2="553" y1="293" y2="298"/>
<line fill="#000000" stroke="#000000" stroke-width="1" x1="553" x2="553" y1="303" y2="308"/>
<line fill="#000000" stroke="#000000" stroke-width="1" x1="553" x2="553" y1="313" y2="318"/>
<line fill="#000000" stroke="#000000" stroke-width="1" x1="553" x2="553" y1="323" y2="328"/>
<line fill="#000000" stroke="#000000" stroke-width="1" x1="553" x2="553" y1="333" y2="338"/>
<line fill="#000000" stroke="#000000" stroke-width="1" x1="553" x2="553" y1="343" y2="348"/>
<line fill="#000000" stroke="#000000" stroke-width="1" x1="553" x2="553" y1="353" y2="358"/>
<line fill="#000000" stroke="#000000" stroke-width="1" x1="553" x2="553" y1="363" y2="368"/>
<line fill="#000000" stroke="#000000" stroke-width="1" x1="553" x2="553" y1="373" y2="377"/>
<rect fill="#ffffff" height="50" stroke="#ffffff" stroke-width="1" width="20" x="543" y="143"/>
<rect fill="none" height="50" stroke="#000000" stroke-width="1" width="20" x="543" y="143"/>
<rect fill="#ffffff" height="50" stroke="#ffffff" stroke-width="1" width="20" x="543" y="319"/>
<rect fill="none" height="50" stroke="#000000" stroke-width="1" width="20" x="543" y="319"/>
<rect fill="#ffffff" height="50" stroke="#ffffff" stroke-width="1" width="150" x="478" y="14"/>
<rect fill="none" height="50" stroke="#000000" stroke-width="1" width="150" x="478" y="14"/>
<text font-family="Dialog" font-size="13" x="541" y="28">
:DB</text>
<polyline fill="none" points="324,143 543,143" stroke="#000000" stroke-width="1"/>
<polygon fill="#000000" points="543,143 531,150 531,136" stroke="#000000" stroke-width="1"/>
<polygon fill="none" points="543,143 531,150 531,136" stroke="#000000" stroke-width="1"/>
<text font-family="Dialog" font-size="13" x="348" y="134">
updateReservs (p)</text>
<line fill="#000000" stroke="#000000" stroke-width="1" x1="543" x2="538" y1="193" y2="193"/>
<line fill="#000000" stroke="#000000" stroke-width="1" x1="533" x2="528" y1="193" y2="193"/>
<line fill="#000000" stroke="#000000" stroke-width="1" x1="523" x2="518" y1="193" y2="193"/>
<line fill="#000000" stroke="#000000" stroke-width="1" x1="513" x2="508" y1="193" y2="193"/>
<line fill="#000000" stroke="#000000" stroke-width="1" x1="503" x2="498" y1="193" y2="193"/>
<line fill="#000000" stroke="#000000" stroke-width="1" x1="493" x2="488" y1="193" y2="193"/>
<line fill="#000000" stroke="#000000" stroke-width="1" x1="483" x2="478" y1="193" y2="193"/>
<line fill="#000000" stroke="#000000" stroke-width="1" x1="473" x2="468" y1="193" y2="193"/>
<line fill="#000000" stroke="#000000" stroke-width="1" x1="463" x2="458" y1="193" y2="193"/>
<line fill="#000000" stroke="#000000" stroke-width="1" x1="453" x2="448" y1="193" y2="193"/>
<line fill="#000000" stroke="#000000" stroke-width="1" x1="443" x2="438" y1="193" y2="193"/>
<line fill="#000000" stroke="#000000" stroke-width="1" x1="433" x2="428" y1="193" y2="193"/>
<line fill="#000000" stroke="#000000" stroke-width="1" x1="423" x2="418" y1="193" y2="193"/>
<line fill="#000000" stroke="#000000" stroke-width="1" x1="413" x2="408" y1="193" y2="193"/>
<line fill="#000000" stroke="#000000" stroke-width="1" x1="403" x2="398" y1="193" y2="193"/>
<line fill="#000000" stroke="#000000" stroke-width="1" x1="393" x2="388" y1="193" y2="193"/>
<line fill="#000000" stroke="#000000" stroke-width="1" x1="383" x2="378" y1="193" y2="193"/>
<line fill="#000000" stroke="#000000" stroke-width="1" x1="373" x2="368" y1="193" y2="193"/>
<line fill="#000000" stroke="#000000" stroke-width="1" x1="363" x2="358" y1="193" y2="193"/>
<line fill="#000000" stroke="#000000" stroke-width="1" x1="353" x2="348" y1="193" y2="193"/>
<line fill="#000000" stroke="#000000" stroke-width="1" x1="343" x2="338" y1="193" y2="193"/>
<line fill="#000000" stroke="#000000" stroke-width="1" x1="333" x2="328" y1="193" y2="193"/>
<line fill="#000000" stroke="#000000" stroke-width="1" x1="336" x2="324" y1="186" y2="193"/>
<line fill="#000000" stroke="#000000" stroke-width="1" x1="336" x2="324" y1="200" y2="193"/>
<line fill="#000000" stroke="#000000" stroke-width="1" x1="929" x2="929" y1="279" y2="284"/>
<line fill="#000000" stroke="#000000" stroke-width="1" x1="929" x2="929" y1="289" y2="294"/>
<line fill="#000000" stroke="#000000" stroke-width="1" x1="929" x2="929" y1="299" y2="304"/>
<line fill="#000000" stroke="#000000" stroke-width="1" x1="929" x2="929" y1="309" y2="314"/>
<line fill="#000000" stroke="#000000" stroke-width="1" x1="929" x2="929" y1="319" y2="324"/>
<line fill="#000000" stroke="#000000" stroke-width="1" x1="929" x2="929" y1="329" y2="334"/>
<line fill="#000000" stroke="#000000" stroke-width="1" x1="929" x2="929" y1="339" y2="344"/>
<line fill="#000000" stroke="#000000" stroke-width="1" x1="929" x2="929" y1="349" y2="354"/>
<line fill="#000000" stroke="#000000" stroke-width="1" x1="929" x2="929" y1="359" y2="364"/>
<line fill="#000000" stroke="#000000" stroke-width="1" x1="929" x2="929" y1="369" y2="374"/>
<rect fill="#ffffff" height="99" stroke="#ffffff" stroke-width="1" width="20" x="919" y="279"/>
<rect fill="none" height="99" stroke="#000000" stroke-width="1" width="20" x="919" y="279"/>
<rect fill="#ffffff" height="50" stroke="#ffffff" stroke-width="1" width="150" x="854" y="230"/>
<rect fill="none" height="50" stroke="#000000" stroke-width="1" width="150" x="854" y="230"/>
<text font-family="Dialog" font-size="13" x="863" y="244">
/m:MAmministratore</text>
<polyline fill="none" points="324,255 854,255" stroke="#000000" stroke-width="1"/>
<polygon fill="#000000" points="854,255 842,262 842,248" stroke="#000000" stroke-width="1"/>
<polygon fill="none" points="854,255 842,262 842,248" stroke="#000000" stroke-width="1"/>
<text font-family="Dialog" font-size="13" x="320" y="245">
MAmministratore (defer, s.sala.amministratore, p.paziente, p)</text>
<polyline fill="none" points="919,319 563,319" stroke="#000000" stroke-width="1"/>
<polygon fill="#000000" points="563,319 575,312 575,326" stroke="#000000" stroke-width="1"/>
<polygon fill="none" points="563,319 575,312 575,326" stroke="#000000" stroke-width="1"/>
<text font-family="Dialog" font-size="13" x="660" y="313">
createMessageAdmin(m)</text>
<line fill="#000000" stroke="#000000" stroke-width="1" x1="563" x2="568" y1="369" y2="369"/>
<line fill="#000000" stroke="#000000" stroke-width="1" x1="573" x2="578" y1="369" y2="369"/>
<line fill="#000000" stroke="#000000" stroke-width="1" x1="583" x2="588" y1="369" y2="369"/>
<line fill="#000000" stroke="#000000" stroke-width="1" x1="593" x2="598" y1="369" y2="369"/>
<line fill="#000000" stroke="#000000" stroke-width="1" x1="603" x2="608" y1="369" y2="369"/>
<line fill="#000000" stroke="#000000" stroke-width="1" x1="613" x2="618" y1="369" y2="369"/>
<line fill="#000000" stroke="#000000" stroke-width="1" x1="623" x2="628" y1="369" y2="369"/>
<line fill="#000000" stroke="#000000" stroke-width="1" x1="633" x2="638" y1="369" y2="369"/>
<line fill="#000000" stroke="#000000" stroke-width="1" x1="643" x2="648" y1="369" y2="369"/>
<line fill="#000000" stroke="#000000" stroke-width="1" x1="653" x2="658" y1="369" y2="369"/>
<line fill="#000000" stroke="#000000" stroke-width="1" x1="663" x2="668" y1="369" y2="369"/>
<line fill="#000000" stroke="#000000" stroke-width="1" x1="673" x2="678" y1="369" y2="369"/>
<line fill="#000000" stroke="#000000" stroke-width="1" x1="683" x2="688" y1="369" y2="369"/>
<line fill="#000000" stroke="#000000" stroke-width="1" x1="693" x2="698" y1="369" y2="369"/>
<line fill="#000000" stroke="#000000" stroke-width="1" x1="703" x2="708" y1="369" y2="369"/>
<line fill="#000000" stroke="#000000" stroke-width="1" x1="713" x2="718" y1="369" y2="369"/>
<line fill="#000000" stroke="#000000" stroke-width="1" x1="723" x2="728" y1="369" y2="369"/>
<line fill="#000000" stroke="#000000" stroke-width="1" x1="733" x2="738" y1="369" y2="369"/>
<line fill="#000000" stroke="#000000" stroke-width="1" x1="743" x2="748" y1="369" y2="369"/>
<line fill="#000000" stroke="#000000" stroke-width="1" x1="753" x2="758" y1="369" y2="369"/>
<line fill="#000000" stroke="#000000" stroke-width="1" x1="763" x2="768" y1="369" y2="369"/>
<line fill="#000000" stroke="#000000" stroke-width="1" x1="773" x2="778" y1="369" y2="369"/>
<line fill="#000000" stroke="#000000" stroke-width="1" x1="783" x2="788" y1="369" y2="369"/>
<line fill="#000000" stroke="#000000" stroke-width="1" x1="793" x2="798" y1="369" y2="369"/>
<line fill="#000000" stroke="#000000" stroke-width="1" x1="803" x2="808" y1="369" y2="369"/>
<line fill="#000000" stroke="#000000" stroke-width="1" x1="813" x2="818" y1="369" y2="369"/>
<line fill="#000000" stroke="#000000" stroke-width="1" x1="823" x2="828" y1="369" y2="369"/>
<line fill="#000000" stroke="#000000" stroke-width="1" x1="833" x2="838" y1="369" y2="369"/>
<line fill="#000000" stroke="#000000" stroke-width="1" x1="843" x2="848" y1="369" y2="369"/>
<line fill="#000000" stroke="#000000" stroke-width="1" x1="853" x2="858" y1="369" y2="369"/>
<line fill="#000000" stroke="#000000" stroke-width="1" x1="863" x2="868" y1="369" y2="369"/>
<line fill="#000000" stroke="#000000" stroke-width="1" x1="873" x2="878" y1="369" y2="369"/>
<line fill="#000000" stroke="#000000" stroke-width="1" x1="883" x2="888" y1="369" y2="369"/>
<line fill="#000000" stroke="#000000" stroke-width="1" x1="893" x2="898" y1="369" y2="369"/>
<line fill="#000000" stroke="#000000" stroke-width="1" x1="903" x2="908" y1="369" y2="369"/>
<line fill="#000000" stroke="#000000" stroke-width="1" x1="913" x2="918" y1="369" y2="369"/>
<line fill="#000000" stroke="#000000" stroke-width="1" x1="907" x2="919" y1="376" y2="369"/>
<line fill="#000000" stroke="#000000" stroke-width="1" x1="907" x2="919" y1="362" y2="369"/>
<polygon fill="#ffffff" points="134,103 203,103 213,113 213,125 134,125 134,103" stroke="#ffffff" stroke-width="1"/>
<polyline fill="none" points="134,103 203,103 213,113 213,125 134,125 134,103" stroke="#000000" stroke-width="1"/>
<polygon fill="#ffffff" points="203,103 213,113 203,113 203,103" stroke="#ffffff" stroke-width="1"/>
<polyline fill="none" points="203,103 213,113 203,113 203,103" stroke="#000000" stroke-width="1"/>
<text font-family="Dialog" font-size="13" x="137" y="119">
p.slot = s</text>
<line fill="#000000" stroke="#000000" stroke-width="1" x1="304" x2="299" y1="118" y2="118"/>
<line fill="#000000" stroke="#000000" stroke-width="1" x1="294" x2="289" y1="118" y2="118"/>
<line fill="#000000" stroke="#000000" stroke-width="1" x1="284" x2="279" y1="118" y2="118"/>
<line fill="#000000" stroke="#000000" stroke-width="1" x1="274" x2="269" y1="118" y2="118"/>
<line fill="#000000" stroke="#000000" stroke-width="1" x1="264" x2="259" y1="118" y2="118"/>
<line fill="#000000" stroke="#000000" stroke-width="1" x1="254" x2="249" y1="118" y2="118"/>
<line fill="#000000" stroke="#000000" stroke-width="1" x1="244" x2="239" y1="118" y2="118"/>
<line fill="#000000" stroke="#000000" stroke-width="1" x1="234" x2="229" y1="118" y2="118"/>
<line fill="#000000" stroke="#000000" stroke-width="1" x1="224" x2="219" y1="118" y2="118"/>
<line fill="#000000" stroke="#000000" stroke-width="1" x1="82" x2="82" y1="63" y2="68"/>
<line fill="#000000" stroke="#000000" stroke-width="1" x1="82" x2="82" y1="73" y2="78"/>
<line fill="#000000" stroke="#000000" stroke-width="1" x1="82" x2="82" y1="83" y2="88"/>
<line fill="#000000" stroke="#000000" stroke-width="1" x1="82" x2="82" y1="93" y2="98"/>
<line fill="#000000" stroke="#000000" stroke-width="1" x1="82" x2="82" y1="103" y2="108"/>
<line fill="#000000" stroke="#000000" stroke-width="1" x1="82" x2="82" y1="113" y2="118"/>
<line fill="#000000" stroke="#000000" stroke-width="1" x1="82" x2="82" y1="123" y2="128"/>
<line fill="#000000" stroke="#000000" stroke-width="1" x1="82" x2="82" y1="133" y2="138"/>
<line fill="#000000" stroke="#000000" stroke-width="1" x1="82" x2="82" y1="143" y2="148"/>
<line fill="#000000" stroke="#000000" stroke-width="1" x1="82" x2="82" y1="153" y2="158"/>
<line fill="#000000" stroke="#000000" stroke-width="1" x1="82" x2="82" y1="163" y2="168"/>
<line fill="#000000" stroke="#000000" stroke-width="1" x1="82" x2="82" y1="173" y2="178"/>
<line fill="#000000" stroke="#000000" stroke-width="1" x1="82" x2="82" y1="183" y2="188"/>
<line fill="#000000" stroke="#000000" stroke-width="1" x1="82" x2="82" y1="193" y2="198"/>
<line fill="#000000" stroke="#000000" stroke-width="1" x1="82" x2="82" y1="203" y2="208"/>
<line fill="#000000" stroke="#000000" stroke-width="1" x1="82" x2="82" y1="213" y2="218"/>
<line fill="#000000" stroke="#000000" stroke-width="1" x1="82" x2="82" y1="223" y2="228"/>
<line fill="#000000" stroke="#000000" stroke-width="1" x1="82" x2="82" y1="233" y2="238"/>
<line fill="#000000" stroke="#000000" stroke-width="1" x1="82" x2="82" y1="243" y2="248"/>
<line fill="#000000" stroke="#000000" stroke-width="1" x1="82" x2="82" y1="253" y2="258"/>
<line fill="#000000" stroke="#000000" stroke-width="1" x1="82" x2="82" y1="263" y2="268"/>
<line fill="#000000" stroke="#000000" stroke-width="1" x1="82" x2="82" y1="273" y2="278"/>
<line fill="#000000" stroke="#000000" stroke-width="1" x1="82" x2="82" y1="283" y2="288"/>
<line fill="#000000" stroke="#000000" stroke-width="1" x1="82" x2="82" y1="293" y2="298"/>
<line fill="#000000" stroke="#000000" stroke-width="1" x1="82" x2="82" y1="303" y2="308"/>
<line fill="#000000" stroke="#000000" stroke-width="1" x1="82" x2="82" y1="313" y2="318"/>
<line fill="#000000" stroke="#000000" stroke-width="1" x1="82" x2="82" y1="323" y2="328"/>
<line fill="#000000" stroke="#000000" stroke-width="1" x1="82" x2="82" y1="333" y2="338"/>
<line fill="#000000" stroke="#000000" stroke-width="1" x1="82" x2="82" y1="343" y2="348"/>
<line fill="#000000" stroke="#000000" stroke-width="1" x1="82" x2="82" y1="353" y2="358"/>
<line fill="#000000" stroke="#000000" stroke-width="1" x1="82" x2="82" y1="363" y2="368"/>
<line fill="#000000" stroke="#000000" stroke-width="1" x1="82" x2="82" y1="373" y2="378"/>
<rect fill="#ffffff" height="315" stroke="#ffffff" stroke-width="1" width="20" x="72" y="63"/>
<rect fill="none" height="315" stroke="#000000" stroke-width="1" width="20" x="72" y="63"/>
<rect fill="#ffffff" height="50" stroke="#ffffff" stroke-width="1" width="136" x="14" y="14"/>
<rect fill="none" height="50" stroke="#000000" stroke-width="1" width="136" x="14" y="14"/>
<text font-family="Dialog" font-size="13" x="53" y="28">
:UIStrate</text>
<polyline fill="none" points="92,87 304,87" stroke="#000000" stroke-width="1"/>
<polygon fill="#000000" points="304,87 292,94 292,80" stroke="#000000" stroke-width="1"/>
<polygon fill="none" points="304,87 292,94 292,80" stroke="#000000" stroke-width="1"/>
<text font-family="Dialog" font-size="13" x="154" y="80">
postponeReservs (s)</text>
<line fill="#000000" stroke="#000000" stroke-width="1" x1="304" x2="299" y1="279" y2="279"/>
<line fill="#000000" stroke="#000000" stroke-width="1" x1="294" x2="289" y1="279" y2="279"/>
<line fill="#000000" stroke="#000000" stroke-width="1" x1="284" x2="279" y1="279" y2="279"/>
<line fill="#000000" stroke="#000000" stroke-width="1" x1="274" x2="269" y1="279" y2="279"/>
<line fill="#000000" stroke="#000000" stroke-width="1" x1="264" x2="259" y1="279" y2="279"/>
<line fill="#000000" stroke="#000000" stroke-width="1" x1="254" x2="249" y1="279" y2="279"/>
<line fill="#000000" stroke="#000000" stroke-width="1" x1="244" x2="239" y1="279" y2="279"/>
<line fill="#000000" stroke="#000000" stroke-width="1" x1="234" x2="229" y1="279" y2="279"/>
<line fill="#000000" stroke="#000000" stroke-width="1" x1="224" x2="219" y1="279" y2="279"/>
<line fill="#000000" stroke="#000000" stroke-width="1" x1="214" x2="209" y1="279" y2="279"/>
<line fill="#000000" stroke="#000000" stroke-width="1" x1="204" x2="199" y1="279" y2="279"/>
<line fill="#000000" stroke="#000000" stroke-width="1" x1="194" x2="189" y1="279" y2="279"/>
<line fill="#000000" stroke="#000000" stroke-width="1" x1="184" x2="179" y1="279" y2="279"/>
<line fill="#000000" stroke="#000000" stroke-width="1" x1="174" x2="169" y1="279" y2="279"/>
<line fill="#000000" stroke="#000000" stroke-width="1" x1="164" x2="159" y1="279" y2="279"/>
<line fill="#000000" stroke="#000000" stroke-width="1" x1="154" x2="149" y1="279" y2="279"/>
<line fill="#000000" stroke="#000000" stroke-width="1" x1="144" x2="139" y1="279" y2="279"/>
<line fill="#000000" stroke="#000000" stroke-width="1" x1="134" x2="129" y1="279" y2="279"/>
<line fill="#000000" stroke="#000000" stroke-width="1" x1="124" x2="119" y1="279" y2="279"/>
<line fill="#000000" stroke="#000000" stroke-width="1" x1="114" x2="109" y1="279" y2="279"/>
<line fill="#000000" stroke="#000000" stroke-width="1" x1="104" x2="99" y1="279" y2="279"/>
<line fill="#000000" stroke="#000000" stroke-width="1" x1="94" x2="92" y1="279" y2="279"/>
<line fill="#000000" stroke="#000000" stroke-width="1" x1="104" x2="92" y1="272" y2="279"/>
<line fill="#000000" stroke="#000000" stroke-width="1" x1="104" x2="92" y1="286" y2="279"/>
<polyline fill="none" points="563,167 759,167" stroke="#000000" stroke-width="1"/>
<polygon fill="#000000" points="759,167 747,174 747,160" stroke="#000000" stroke-width="1"/>
<polygon fill="none" points="759,167 747,174 747,160" stroke="#000000" stroke-width="1"/>
<text font-family="Dialog" font-size="13" x="619" y="160">
free</text>
</svg>
