<?xml version="1.0" encoding="utf-8" ?>
<!DOCTYPE svg PUBLIC "-//W3C//DTD SVG 1.1//EN" "http://www.w3.org/Graphics/SVG/1.1/DTD/svg11.dtd">
<svg height="253" version="1.1" width="511" xmlns="http://www.w3.org/2000/svg">
<line fill="#000000" stroke="#000000" stroke-width="1" x1="82" x2="82" y1="63" y2="68"/>
<line fill="#000000" stroke="#000000" stroke-width="1" x1="82" x2="82" y1="73" y2="78"/>
<line fill="#000000" stroke="#000000" stroke-width="1" x1="82" x2="82" y1="83" y2="88"/>
<line fill="#000000" stroke="#000000" stroke-width="1" x1="82" x2="82" y1="93" y2="98"/>
<line fill="#000000" stroke="#000000" stroke-width="1" x1="82" x2="82" y1="103" y2="108"/>
<line fill="#000000" stroke="#000000" stroke-width="1" x1="82" x2="82" y1="113" y2="118"/>
<line fill="#000000" stroke="#000000" stroke-width="1" x1="82" x2="82" y1="123" y2="128"/>
<line fill="#000000" stroke="#000000" stroke-width="1" x1="82" x2="82" y1="133" y2="138"/>
<line fill="#000000" stroke="#000000" stroke-width="1" x1="82" x2="82" y1="143" y2="148"/>
<line fill="#000000" stroke="#000000" stroke-width="1" x1="82" x2="82" y1="153" y2="158"/>
<line fill="#000000" stroke="#000000" stroke-width="1" x1="82" x2="82" y1="163" y2="168"/>
<line fill="#000000" stroke="#000000" stroke-width="1" x1="82" x2="82" y1="173" y2="178"/>
<line fill="#000000" stroke="#000000" stroke-width="1" x1="82" x2="82" y1="183" y2="188"/>
<line fill="#000000" stroke="#000000" stroke-width="1" x1="82" x2="82" y1="193" y2="198"/>
<line fill="#000000" stroke="#000000" stroke-width="1" x1="82" x2="82" y1="203" y2="208"/>
<line fill="#000000" stroke="#000000" stroke-width="1" x1="82" x2="82" y1="213" y2="218"/>
<line fill="#000000" stroke="#000000" stroke-width="1" x1="82" x2="82" y1="223" y2="228"/>
<line fill="#000000" stroke="#000000" stroke-width="1" x1="82" x2="82" y1="233" y2="238"/>
<rect fill="#ffffff" height="175" stroke="#ffffff" stroke-width="1" width="20" x="72" y="63"/>
<rect fill="none" height="175" stroke="#000000" stroke-width="1" width="20" x="72" y="63"/>
<rect fill="#ffffff" height="50" stroke="#ffffff" stroke-width="1" width="136" x="14" y="14"/>
<rect fill="none" height="50" stroke="#000000" stroke-width="1" width="136" x="14" y="14"/>
<text font-family="Dialog" font-size="12" x="32" y="46">
/Amministratore</text>
<text font-family="Dialog" font-size="12" x="45" y="27">
&lt;&lt;actor&gt;&gt;</text>
<line fill="#000000" stroke="#000000" stroke-width="1" x1="422" x2="422" y1="63" y2="68"/>
<line fill="#000000" stroke="#000000" stroke-width="1" x1="422" x2="422" y1="73" y2="78"/>
<line fill="#000000" stroke="#000000" stroke-width="1" x1="422" x2="422" y1="83" y2="88"/>
<line fill="#000000" stroke="#000000" stroke-width="1" x1="422" x2="422" y1="93" y2="98"/>
<line fill="#000000" stroke="#000000" stroke-width="1" x1="422" x2="422" y1="103" y2="108"/>
<line fill="#000000" stroke="#000000" stroke-width="1" x1="422" x2="422" y1="113" y2="118"/>
<line fill="#000000" stroke="#000000" stroke-width="1" x1="422" x2="422" y1="123" y2="128"/>
<line fill="#000000" stroke="#000000" stroke-width="1" x1="422" x2="422" y1="133" y2="138"/>
<line fill="#000000" stroke="#000000" stroke-width="1" x1="422" x2="422" y1="143" y2="148"/>
<line fill="#000000" stroke="#000000" stroke-width="1" x1="422" x2="422" y1="153" y2="158"/>
<line fill="#000000" stroke="#000000" stroke-width="1" x1="422" x2="422" y1="163" y2="168"/>
<line fill="#000000" stroke="#000000" stroke-width="1" x1="422" x2="422" y1="173" y2="178"/>
<line fill="#000000" stroke="#000000" stroke-width="1" x1="422" x2="422" y1="183" y2="188"/>
<line fill="#000000" stroke="#000000" stroke-width="1" x1="422" x2="422" y1="193" y2="198"/>
<line fill="#000000" stroke="#000000" stroke-width="1" x1="422" x2="422" y1="203" y2="208"/>
<line fill="#000000" stroke="#000000" stroke-width="1" x1="422" x2="422" y1="213" y2="218"/>
<line fill="#000000" stroke="#000000" stroke-width="1" x1="422" x2="422" y1="223" y2="228"/>
<line fill="#000000" stroke="#000000" stroke-width="1" x1="422" x2="422" y1="233" y2="238"/>
<rect fill="#ffffff" height="50" stroke="#ffffff" stroke-width="1" width="20" x="412" y="87"/>
<rect fill="none" height="50" stroke="#000000" stroke-width="1" width="20" x="412" y="87"/>
<rect fill="#ffffff" height="32" stroke="#ffffff" stroke-width="1" width="20" x="412" y="175"/>
<rect fill="none" height="32" stroke="#000000" stroke-width="1" width="20" x="412" y="175"/>
<rect fill="#ffffff" height="50" stroke="#ffffff" stroke-width="1" width="150" x="347" y="14"/>
<rect fill="none" height="50" stroke="#000000" stroke-width="1" width="150" x="347" y="14"/>
<text font-family="Dialog" font-size="12" x="397" y="27">
:System</text>
<polyline fill="none" points="92,87 412,87" stroke="#000000" stroke-width="1"/>
<polygon fill="#ffffff" points="412,87 400,94 400,80" stroke="#ffffff" stroke-width="1"/>
<polygon fill="none" points="412,87 400,94 400,80" stroke="#000000" stroke-width="1"/>
<text font-family="Dialog" font-size="12" x="205" y="82">
fetchRemoveReq()</text>
<line fill="#000000" stroke="#000000" stroke-width="1" x1="412" x2="407" y1="137" y2="137"/>
<line fill="#000000" stroke="#000000" stroke-width="1" x1="402" x2="397" y1="137" y2="137"/>
<line fill="#000000" stroke="#000000" stroke-width="1" x1="392" x2="387" y1="137" y2="137"/>
<line fill="#000000" stroke="#000000" stroke-width="1" x1="382" x2="377" y1="137" y2="137"/>
<line fill="#000000" stroke="#000000" stroke-width="1" x1="372" x2="367" y1="137" y2="137"/>
<line fill="#000000" stroke="#000000" stroke-width="1" x1="362" x2="357" y1="137" y2="137"/>
<line fill="#000000" stroke="#000000" stroke-width="1" x1="352" x2="347" y1="137" y2="137"/>
<line fill="#000000" stroke="#000000" stroke-width="1" x1="342" x2="337" y1="137" y2="137"/>
<line fill="#000000" stroke="#000000" stroke-width="1" x1="332" x2="327" y1="137" y2="137"/>
<line fill="#000000" stroke="#000000" stroke-width="1" x1="322" x2="317" y1="137" y2="137"/>
<line fill="#000000" stroke="#000000" stroke-width="1" x1="312" x2="307" y1="137" y2="137"/>
<line fill="#000000" stroke="#000000" stroke-width="1" x1="302" x2="297" y1="137" y2="137"/>
<line fill="#000000" stroke="#000000" stroke-width="1" x1="292" x2="287" y1="137" y2="137"/>
<line fill="#000000" stroke="#000000" stroke-width="1" x1="282" x2="277" y1="137" y2="137"/>
<line fill="#000000" stroke="#000000" stroke-width="1" x1="272" x2="267" y1="137" y2="137"/>
<line fill="#000000" stroke="#000000" stroke-width="1" x1="262" x2="257" y1="137" y2="137"/>
<line fill="#000000" stroke="#000000" stroke-width="1" x1="252" x2="247" y1="137" y2="137"/>
<line fill="#000000" stroke="#000000" stroke-width="1" x1="242" x2="237" y1="137" y2="137"/>
<line fill="#000000" stroke="#000000" stroke-width="1" x1="232" x2="227" y1="137" y2="137"/>
<line fill="#000000" stroke="#000000" stroke-width="1" x1="222" x2="217" y1="137" y2="137"/>
<line fill="#000000" stroke="#000000" stroke-width="1" x1="212" x2="207" y1="137" y2="137"/>
<line fill="#000000" stroke="#000000" stroke-width="1" x1="202" x2="197" y1="137" y2="137"/>
<line fill="#000000" stroke="#000000" stroke-width="1" x1="192" x2="187" y1="137" y2="137"/>
<line fill="#000000" stroke="#000000" stroke-width="1" x1="182" x2="177" y1="137" y2="137"/>
<line fill="#000000" stroke="#000000" stroke-width="1" x1="172" x2="167" y1="137" y2="137"/>
<line fill="#000000" stroke="#000000" stroke-width="1" x1="162" x2="157" y1="137" y2="137"/>
<line fill="#000000" stroke="#000000" stroke-width="1" x1="152" x2="147" y1="137" y2="137"/>
<line fill="#000000" stroke="#000000" stroke-width="1" x1="142" x2="137" y1="137" y2="137"/>
<line fill="#000000" stroke="#000000" stroke-width="1" x1="132" x2="127" y1="137" y2="137"/>
<line fill="#000000" stroke="#000000" stroke-width="1" x1="122" x2="117" y1="137" y2="137"/>
<line fill="#000000" stroke="#000000" stroke-width="1" x1="112" x2="107" y1="137" y2="137"/>
<line fill="#000000" stroke="#000000" stroke-width="1" x1="102" x2="97" y1="137" y2="137"/>
<line fill="#000000" stroke="#000000" stroke-width="1" x1="104" x2="92" y1="130" y2="137"/>
<line fill="#000000" stroke="#000000" stroke-width="1" x1="104" x2="92" y1="144" y2="137"/>
<text font-family="Dialog" font-size="12" x="190" y="127">
msg:Messaggio[]</text>
<polyline fill="none" points="92,175 412,175" stroke="#000000" stroke-width="1"/>
<polygon fill="#ffffff" points="412,175 400,182 400,168" stroke="#ffffff" stroke-width="1"/>
<polygon fill="none" points="412,175 400,182 400,168" stroke="#000000" stroke-width="1"/>
<text font-family="Dialog" font-size="12" x="206" y="170">
freeSlotReserv(msg[i])</text>
<line fill="#000000" stroke="#000000" stroke-width="1" x1="412" x2="407" y1="207" y2="207"/>
<line fill="#000000" stroke="#000000" stroke-width="1" x1="402" x2="397" y1="207" y2="207"/>
<line fill="#000000" stroke="#000000" stroke-width="1" x1="392" x2="387" y1="207" y2="207"/>
<line fill="#000000" stroke="#000000" stroke-width="1" x1="382" x2="377" y1="207" y2="207"/>
<line fill="#000000" stroke="#000000" stroke-width="1" x1="372" x2="367" y1="207" y2="207"/>
<line fill="#000000" stroke="#000000" stroke-width="1" x1="362" x2="357" y1="207" y2="207"/>
<line fill="#000000" stroke="#000000" stroke-width="1" x1="352" x2="347" y1="207" y2="207"/>
<line fill="#000000" stroke="#000000" stroke-width="1" x1="342" x2="337" y1="207" y2="207"/>
<line fill="#000000" stroke="#000000" stroke-width="1" x1="332" x2="327" y1="207" y2="207"/>
<line fill="#000000" stroke="#000000" stroke-width="1" x1="322" x2="317" y1="207" y2="207"/>
<line fill="#000000" stroke="#000000" stroke-width="1" x1="312" x2="307" y1="207" y2="207"/>
<line fill="#000000" stroke="#000000" stroke-width="1" x1="302" x2="297" y1="207" y2="207"/>
<line fill="#000000" stroke="#000000" stroke-width="1" x1="292" x2="287" y1="207" y2="207"/>
<line fill="#000000" stroke="#000000" stroke-width="1" x1="282" x2="277" y1="207" y2="207"/>
<line fill="#000000" stroke="#000000" stroke-width="1" x1="272" x2="267" y1="207" y2="207"/>
<line fill="#000000" stroke="#000000" stroke-width="1" x1="262" x2="257" y1="207" y2="207"/>
<line fill="#000000" stroke="#000000" stroke-width="1" x1="252" x2="247" y1="207" y2="207"/>
<line fill="#000000" stroke="#000000" stroke-width="1" x1="242" x2="237" y1="207" y2="207"/>
<line fill="#000000" stroke="#000000" stroke-width="1" x1="232" x2="227" y1="207" y2="207"/>
<line fill="#000000" stroke="#000000" stroke-width="1" x1="222" x2="217" y1="207" y2="207"/>
<line fill="#000000" stroke="#000000" stroke-width="1" x1="212" x2="207" y1="207" y2="207"/>
<line fill="#000000" stroke="#000000" stroke-width="1" x1="202" x2="197" y1="207" y2="207"/>
<line fill="#000000" stroke="#000000" stroke-width="1" x1="192" x2="187" y1="207" y2="207"/>
<line fill="#000000" stroke="#000000" stroke-width="1" x1="182" x2="177" y1="207" y2="207"/>
<line fill="#000000" stroke="#000000" stroke-width="1" x1="172" x2="167" y1="207" y2="207"/>
<line fill="#000000" stroke="#000000" stroke-width="1" x1="162" x2="157" y1="207" y2="207"/>
<line fill="#000000" stroke="#000000" stroke-width="1" x1="152" x2="147" y1="207" y2="207"/>
<line fill="#000000" stroke="#000000" stroke-width="1" x1="142" x2="137" y1="207" y2="207"/>
<line fill="#000000" stroke="#000000" stroke-width="1" x1="132" x2="127" y1="207" y2="207"/>
<line fill="#000000" stroke="#000000" stroke-width="1" x1="122" x2="117" y1="207" y2="207"/>
<line fill="#000000" stroke="#000000" stroke-width="1" x1="112" x2="107" y1="207" y2="207"/>
<line fill="#000000" stroke="#000000" stroke-width="1" x1="102" x2="97" y1="207" y2="207"/>
<line fill="#000000" stroke="#000000" stroke-width="1" x1="104" x2="92" y1="200" y2="207"/>
<line fill="#000000" stroke="#000000" stroke-width="1" x1="104" x2="92" y1="214" y2="207"/>
<text font-family="Dialog" font-size="12" x="208" y="202">
notify</text>
</svg>
