<?xml version="1.0" encoding="utf-8" ?>
<!DOCTYPE svg PUBLIC "-//W3C//DTD SVG 1.1//EN" "http://www.w3.org/Graphics/SVG/1.1/DTD/svg11.dtd">
<svg height="348" version="1.1" width="558" xmlns="http://www.w3.org/2000/svg">
<line fill="#000000" stroke="#000000" stroke-width="1" x1="90" x2="90" y1="63" y2="68"/>
<line fill="#000000" stroke="#000000" stroke-width="1" x1="90" x2="90" y1="73" y2="78"/>
<line fill="#000000" stroke="#000000" stroke-width="1" x1="90" x2="90" y1="83" y2="88"/>
<line fill="#000000" stroke="#000000" stroke-width="1" x1="90" x2="90" y1="93" y2="98"/>
<line fill="#000000" stroke="#000000" stroke-width="1" x1="90" x2="90" y1="103" y2="108"/>
<line fill="#000000" stroke="#000000" stroke-width="1" x1="90" x2="90" y1="113" y2="118"/>
<line fill="#000000" stroke="#000000" stroke-width="1" x1="90" x2="90" y1="123" y2="128"/>
<line fill="#000000" stroke="#000000" stroke-width="1" x1="90" x2="90" y1="133" y2="138"/>
<line fill="#000000" stroke="#000000" stroke-width="1" x1="90" x2="90" y1="143" y2="148"/>
<line fill="#000000" stroke="#000000" stroke-width="1" x1="90" x2="90" y1="153" y2="158"/>
<line fill="#000000" stroke="#000000" stroke-width="1" x1="90" x2="90" y1="163" y2="168"/>
<line fill="#000000" stroke="#000000" stroke-width="1" x1="90" x2="90" y1="173" y2="178"/>
<line fill="#000000" stroke="#000000" stroke-width="1" x1="90" x2="90" y1="183" y2="188"/>
<line fill="#000000" stroke="#000000" stroke-width="1" x1="90" x2="90" y1="193" y2="198"/>
<line fill="#000000" stroke="#000000" stroke-width="1" x1="90" x2="90" y1="203" y2="208"/>
<line fill="#000000" stroke="#000000" stroke-width="1" x1="90" x2="90" y1="213" y2="218"/>
<line fill="#000000" stroke="#000000" stroke-width="1" x1="90" x2="90" y1="223" y2="228"/>
<line fill="#000000" stroke="#000000" stroke-width="1" x1="90" x2="90" y1="233" y2="238"/>
<line fill="#000000" stroke="#000000" stroke-width="1" x1="90" x2="90" y1="243" y2="248"/>
<line fill="#000000" stroke="#000000" stroke-width="1" x1="90" x2="90" y1="253" y2="258"/>
<line fill="#000000" stroke="#000000" stroke-width="1" x1="90" x2="90" y1="263" y2="268"/>
<line fill="#000000" stroke="#000000" stroke-width="1" x1="90" x2="90" y1="273" y2="278"/>
<line fill="#000000" stroke="#000000" stroke-width="1" x1="90" x2="90" y1="283" y2="288"/>
<line fill="#000000" stroke="#000000" stroke-width="1" x1="90" x2="90" y1="293" y2="298"/>
<line fill="#000000" stroke="#000000" stroke-width="1" x1="90" x2="90" y1="303" y2="308"/>
<line fill="#000000" stroke="#000000" stroke-width="1" x1="90" x2="90" y1="313" y2="318"/>
<line fill="#000000" stroke="#000000" stroke-width="1" x1="90" x2="90" y1="323" y2="328"/>
<rect fill="#ffffff" height="270" stroke="#ffffff" stroke-width="1" width="20" x="80" y="63"/>
<rect fill="none" height="270" stroke="#000000" stroke-width="1" width="20" x="80" y="63"/>
<rect fill="#ffffff" height="50" stroke="#ffffff" stroke-width="1" width="152" x="14" y="14"/>
<rect fill="none" height="50" stroke="#000000" stroke-width="1" width="152" x="14" y="14"/>
<text font-family="Dialog" font-size="12" x="40" y="46">
/Amministratore</text>
<text font-family="Dialog" font-size="12" x="53" y="27">
&lt;&lt;actor&gt;&gt;</text>
<line fill="#000000" stroke="#000000" stroke-width="1" x1="469" x2="469" y1="63" y2="68"/>
<line fill="#000000" stroke="#000000" stroke-width="1" x1="469" x2="469" y1="73" y2="78"/>
<line fill="#000000" stroke="#000000" stroke-width="1" x1="469" x2="469" y1="83" y2="88"/>
<line fill="#000000" stroke="#000000" stroke-width="1" x1="469" x2="469" y1="93" y2="98"/>
<line fill="#000000" stroke="#000000" stroke-width="1" x1="469" x2="469" y1="103" y2="108"/>
<line fill="#000000" stroke="#000000" stroke-width="1" x1="469" x2="469" y1="113" y2="118"/>
<line fill="#000000" stroke="#000000" stroke-width="1" x1="469" x2="469" y1="123" y2="128"/>
<line fill="#000000" stroke="#000000" stroke-width="1" x1="469" x2="469" y1="133" y2="138"/>
<line fill="#000000" stroke="#000000" stroke-width="1" x1="469" x2="469" y1="143" y2="148"/>
<line fill="#000000" stroke="#000000" stroke-width="1" x1="469" x2="469" y1="153" y2="158"/>
<line fill="#000000" stroke="#000000" stroke-width="1" x1="469" x2="469" y1="163" y2="168"/>
<line fill="#000000" stroke="#000000" stroke-width="1" x1="469" x2="469" y1="173" y2="178"/>
<line fill="#000000" stroke="#000000" stroke-width="1" x1="469" x2="469" y1="183" y2="188"/>
<line fill="#000000" stroke="#000000" stroke-width="1" x1="469" x2="469" y1="193" y2="198"/>
<line fill="#000000" stroke="#000000" stroke-width="1" x1="469" x2="469" y1="203" y2="208"/>
<line fill="#000000" stroke="#000000" stroke-width="1" x1="469" x2="469" y1="213" y2="218"/>
<line fill="#000000" stroke="#000000" stroke-width="1" x1="469" x2="469" y1="223" y2="228"/>
<line fill="#000000" stroke="#000000" stroke-width="1" x1="469" x2="469" y1="233" y2="238"/>
<line fill="#000000" stroke="#000000" stroke-width="1" x1="469" x2="469" y1="243" y2="248"/>
<line fill="#000000" stroke="#000000" stroke-width="1" x1="469" x2="469" y1="253" y2="258"/>
<line fill="#000000" stroke="#000000" stroke-width="1" x1="469" x2="469" y1="263" y2="268"/>
<line fill="#000000" stroke="#000000" stroke-width="1" x1="469" x2="469" y1="273" y2="278"/>
<line fill="#000000" stroke="#000000" stroke-width="1" x1="469" x2="469" y1="283" y2="288"/>
<line fill="#000000" stroke="#000000" stroke-width="1" x1="469" x2="469" y1="293" y2="298"/>
<line fill="#000000" stroke="#000000" stroke-width="1" x1="469" x2="469" y1="303" y2="308"/>
<line fill="#000000" stroke="#000000" stroke-width="1" x1="469" x2="469" y1="313" y2="318"/>
<line fill="#000000" stroke="#000000" stroke-width="1" x1="469" x2="469" y1="323" y2="328"/>
<rect fill="#ffffff" height="48" stroke="#ffffff" stroke-width="1" width="20" x="459" y="94"/>
<rect fill="none" height="48" stroke="#000000" stroke-width="1" width="20" x="459" y="94"/>
<rect fill="#ffffff" height="48" stroke="#ffffff" stroke-width="1" width="20" x="459" y="182"/>
<rect fill="none" height="48" stroke="#000000" stroke-width="1" width="20" x="459" y="182"/>
<rect fill="#ffffff" height="50" stroke="#ffffff" stroke-width="1" width="20" x="459" y="262"/>
<rect fill="none" height="50" stroke="#000000" stroke-width="1" width="20" x="459" y="262"/>
<rect fill="#ffffff" height="50" stroke="#ffffff" stroke-width="1" width="150" x="394" y="14"/>
<rect fill="none" height="50" stroke="#000000" stroke-width="1" width="150" x="394" y="14"/>
<text font-family="Dialog" font-size="12" x="444" y="27">
:System</text>
<polyline fill="none" points="100,94 459,94" stroke="#000000" stroke-width="1"/>
<polygon fill="#ffffff" points="459,94 447,101 447,87" stroke="#ffffff" stroke-width="1"/>
<polygon fill="none" points="459,94 447,101 447,87" stroke="#000000" stroke-width="1"/>
<text font-family="Dialog" font-size="12" x="233" y="89">
fetchReservations()</text>
<line fill="#000000" stroke="#000000" stroke-width="1" x1="459" x2="454" y1="142" y2="142"/>
<line fill="#000000" stroke="#000000" stroke-width="1" x1="449" x2="444" y1="142" y2="142"/>
<line fill="#000000" stroke="#000000" stroke-width="1" x1="439" x2="434" y1="142" y2="142"/>
<line fill="#000000" stroke="#000000" stroke-width="1" x1="429" x2="424" y1="142" y2="142"/>
<line fill="#000000" stroke="#000000" stroke-width="1" x1="419" x2="414" y1="142" y2="142"/>
<line fill="#000000" stroke="#000000" stroke-width="1" x1="409" x2="404" y1="142" y2="142"/>
<line fill="#000000" stroke="#000000" stroke-width="1" x1="399" x2="394" y1="142" y2="142"/>
<line fill="#000000" stroke="#000000" stroke-width="1" x1="389" x2="384" y1="142" y2="142"/>
<line fill="#000000" stroke="#000000" stroke-width="1" x1="379" x2="374" y1="142" y2="142"/>
<line fill="#000000" stroke="#000000" stroke-width="1" x1="369" x2="364" y1="142" y2="142"/>
<line fill="#000000" stroke="#000000" stroke-width="1" x1="359" x2="354" y1="142" y2="142"/>
<line fill="#000000" stroke="#000000" stroke-width="1" x1="349" x2="344" y1="142" y2="142"/>
<line fill="#000000" stroke="#000000" stroke-width="1" x1="339" x2="334" y1="142" y2="142"/>
<line fill="#000000" stroke="#000000" stroke-width="1" x1="329" x2="324" y1="142" y2="142"/>
<line fill="#000000" stroke="#000000" stroke-width="1" x1="319" x2="314" y1="142" y2="142"/>
<line fill="#000000" stroke="#000000" stroke-width="1" x1="309" x2="304" y1="142" y2="142"/>
<line fill="#000000" stroke="#000000" stroke-width="1" x1="299" x2="294" y1="142" y2="142"/>
<line fill="#000000" stroke="#000000" stroke-width="1" x1="289" x2="284" y1="142" y2="142"/>
<line fill="#000000" stroke="#000000" stroke-width="1" x1="279" x2="274" y1="142" y2="142"/>
<line fill="#000000" stroke="#000000" stroke-width="1" x1="269" x2="264" y1="142" y2="142"/>
<line fill="#000000" stroke="#000000" stroke-width="1" x1="259" x2="254" y1="142" y2="142"/>
<line fill="#000000" stroke="#000000" stroke-width="1" x1="249" x2="244" y1="142" y2="142"/>
<line fill="#000000" stroke="#000000" stroke-width="1" x1="239" x2="234" y1="142" y2="142"/>
<line fill="#000000" stroke="#000000" stroke-width="1" x1="229" x2="224" y1="142" y2="142"/>
<line fill="#000000" stroke="#000000" stroke-width="1" x1="219" x2="214" y1="142" y2="142"/>
<line fill="#000000" stroke="#000000" stroke-width="1" x1="209" x2="204" y1="142" y2="142"/>
<line fill="#000000" stroke="#000000" stroke-width="1" x1="199" x2="194" y1="142" y2="142"/>
<line fill="#000000" stroke="#000000" stroke-width="1" x1="189" x2="184" y1="142" y2="142"/>
<line fill="#000000" stroke="#000000" stroke-width="1" x1="179" x2="174" y1="142" y2="142"/>
<line fill="#000000" stroke="#000000" stroke-width="1" x1="169" x2="164" y1="142" y2="142"/>
<line fill="#000000" stroke="#000000" stroke-width="1" x1="159" x2="154" y1="142" y2="142"/>
<line fill="#000000" stroke="#000000" stroke-width="1" x1="149" x2="144" y1="142" y2="142"/>
<line fill="#000000" stroke="#000000" stroke-width="1" x1="139" x2="134" y1="142" y2="142"/>
<line fill="#000000" stroke="#000000" stroke-width="1" x1="129" x2="124" y1="142" y2="142"/>
<line fill="#000000" stroke="#000000" stroke-width="1" x1="119" x2="114" y1="142" y2="142"/>
<line fill="#000000" stroke="#000000" stroke-width="1" x1="109" x2="104" y1="142" y2="142"/>
<line fill="#000000" stroke="#000000" stroke-width="1" x1="112" x2="100" y1="135" y2="142"/>
<line fill="#000000" stroke="#000000" stroke-width="1" x1="112" x2="100" y1="149" y2="142"/>
<text font-family="Dialog" font-size="12" x="234" y="137">
reservs:Prenotazioni[]</text>
<polyline fill="none" points="100,182 459,182" stroke="#000000" stroke-width="1"/>
<polygon fill="#ffffff" points="459,182 447,189 447,175" stroke="#ffffff" stroke-width="1"/>
<polygon fill="none" points="459,182 447,189 447,175" stroke="#000000" stroke-width="1"/>
<text font-family="Dialog" font-size="12" x="121" y="177">
getFreeSlotsAfter (Amministratore, reservs[i].date)</text>
<line fill="#000000" stroke="#000000" stroke-width="1" x1="459" x2="454" y1="230" y2="230"/>
<line fill="#000000" stroke="#000000" stroke-width="1" x1="449" x2="444" y1="230" y2="230"/>
<line fill="#000000" stroke="#000000" stroke-width="1" x1="439" x2="434" y1="230" y2="230"/>
<line fill="#000000" stroke="#000000" stroke-width="1" x1="429" x2="424" y1="230" y2="230"/>
<line fill="#000000" stroke="#000000" stroke-width="1" x1="419" x2="414" y1="230" y2="230"/>
<line fill="#000000" stroke="#000000" stroke-width="1" x1="409" x2="404" y1="230" y2="230"/>
<line fill="#000000" stroke="#000000" stroke-width="1" x1="399" x2="394" y1="230" y2="230"/>
<line fill="#000000" stroke="#000000" stroke-width="1" x1="389" x2="384" y1="230" y2="230"/>
<line fill="#000000" stroke="#000000" stroke-width="1" x1="379" x2="374" y1="230" y2="230"/>
<line fill="#000000" stroke="#000000" stroke-width="1" x1="369" x2="364" y1="230" y2="230"/>
<line fill="#000000" stroke="#000000" stroke-width="1" x1="359" x2="354" y1="230" y2="230"/>
<line fill="#000000" stroke="#000000" stroke-width="1" x1="349" x2="344" y1="230" y2="230"/>
<line fill="#000000" stroke="#000000" stroke-width="1" x1="339" x2="334" y1="230" y2="230"/>
<line fill="#000000" stroke="#000000" stroke-width="1" x1="329" x2="324" y1="230" y2="230"/>
<line fill="#000000" stroke="#000000" stroke-width="1" x1="319" x2="314" y1="230" y2="230"/>
<line fill="#000000" stroke="#000000" stroke-width="1" x1="309" x2="304" y1="230" y2="230"/>
<line fill="#000000" stroke="#000000" stroke-width="1" x1="299" x2="294" y1="230" y2="230"/>
<line fill="#000000" stroke="#000000" stroke-width="1" x1="289" x2="284" y1="230" y2="230"/>
<line fill="#000000" stroke="#000000" stroke-width="1" x1="279" x2="274" y1="230" y2="230"/>
<line fill="#000000" stroke="#000000" stroke-width="1" x1="269" x2="264" y1="230" y2="230"/>
<line fill="#000000" stroke="#000000" stroke-width="1" x1="259" x2="254" y1="230" y2="230"/>
<line fill="#000000" stroke="#000000" stroke-width="1" x1="249" x2="244" y1="230" y2="230"/>
<line fill="#000000" stroke="#000000" stroke-width="1" x1="239" x2="234" y1="230" y2="230"/>
<line fill="#000000" stroke="#000000" stroke-width="1" x1="229" x2="224" y1="230" y2="230"/>
<line fill="#000000" stroke="#000000" stroke-width="1" x1="219" x2="214" y1="230" y2="230"/>
<line fill="#000000" stroke="#000000" stroke-width="1" x1="209" x2="204" y1="230" y2="230"/>
<line fill="#000000" stroke="#000000" stroke-width="1" x1="199" x2="194" y1="230" y2="230"/>
<line fill="#000000" stroke="#000000" stroke-width="1" x1="189" x2="184" y1="230" y2="230"/>
<line fill="#000000" stroke="#000000" stroke-width="1" x1="179" x2="174" y1="230" y2="230"/>
<line fill="#000000" stroke="#000000" stroke-width="1" x1="169" x2="164" y1="230" y2="230"/>
<line fill="#000000" stroke="#000000" stroke-width="1" x1="159" x2="154" y1="230" y2="230"/>
<line fill="#000000" stroke="#000000" stroke-width="1" x1="149" x2="144" y1="230" y2="230"/>
<line fill="#000000" stroke="#000000" stroke-width="1" x1="139" x2="134" y1="230" y2="230"/>
<line fill="#000000" stroke="#000000" stroke-width="1" x1="129" x2="124" y1="230" y2="230"/>
<line fill="#000000" stroke="#000000" stroke-width="1" x1="119" x2="114" y1="230" y2="230"/>
<line fill="#000000" stroke="#000000" stroke-width="1" x1="109" x2="104" y1="230" y2="230"/>
<line fill="#000000" stroke="#000000" stroke-width="1" x1="112" x2="100" y1="223" y2="230"/>
<line fill="#000000" stroke="#000000" stroke-width="1" x1="112" x2="100" y1="237" y2="230"/>
<text font-family="Dialog" font-size="12" x="209" y="225">
slot:(date,time,room)[]</text>
<polyline fill="none" points="100,262 459,262" stroke="#000000" stroke-width="1"/>
<polygon fill="#ffffff" points="459,262 447,269 447,255" stroke="#ffffff" stroke-width="1"/>
<polygon fill="none" points="459,262 447,269 447,255" stroke="#000000" stroke-width="1"/>
<text font-family="Dialog" font-size="12" x="173" y="257">
postponeReservs(reservs[i],slot[j])</text>
<line fill="#000000" stroke="#000000" stroke-width="1" x1="459" x2="454" y1="312" y2="312"/>
<line fill="#000000" stroke="#000000" stroke-width="1" x1="449" x2="444" y1="312" y2="312"/>
<line fill="#000000" stroke="#000000" stroke-width="1" x1="439" x2="434" y1="312" y2="312"/>
<line fill="#000000" stroke="#000000" stroke-width="1" x1="429" x2="424" y1="312" y2="312"/>
<line fill="#000000" stroke="#000000" stroke-width="1" x1="419" x2="414" y1="312" y2="312"/>
<line fill="#000000" stroke="#000000" stroke-width="1" x1="409" x2="404" y1="312" y2="312"/>
<line fill="#000000" stroke="#000000" stroke-width="1" x1="399" x2="394" y1="312" y2="312"/>
<line fill="#000000" stroke="#000000" stroke-width="1" x1="389" x2="384" y1="312" y2="312"/>
<line fill="#000000" stroke="#000000" stroke-width="1" x1="379" x2="374" y1="312" y2="312"/>
<line fill="#000000" stroke="#000000" stroke-width="1" x1="369" x2="364" y1="312" y2="312"/>
<line fill="#000000" stroke="#000000" stroke-width="1" x1="359" x2="354" y1="312" y2="312"/>
<line fill="#000000" stroke="#000000" stroke-width="1" x1="349" x2="344" y1="312" y2="312"/>
<line fill="#000000" stroke="#000000" stroke-width="1" x1="339" x2="334" y1="312" y2="312"/>
<line fill="#000000" stroke="#000000" stroke-width="1" x1="329" x2="324" y1="312" y2="312"/>
<line fill="#000000" stroke="#000000" stroke-width="1" x1="319" x2="314" y1="312" y2="312"/>
<line fill="#000000" stroke="#000000" stroke-width="1" x1="309" x2="304" y1="312" y2="312"/>
<line fill="#000000" stroke="#000000" stroke-width="1" x1="299" x2="294" y1="312" y2="312"/>
<line fill="#000000" stroke="#000000" stroke-width="1" x1="289" x2="284" y1="312" y2="312"/>
<line fill="#000000" stroke="#000000" stroke-width="1" x1="279" x2="274" y1="312" y2="312"/>
<line fill="#000000" stroke="#000000" stroke-width="1" x1="269" x2="264" y1="312" y2="312"/>
<line fill="#000000" stroke="#000000" stroke-width="1" x1="259" x2="254" y1="312" y2="312"/>
<line fill="#000000" stroke="#000000" stroke-width="1" x1="249" x2="244" y1="312" y2="312"/>
<line fill="#000000" stroke="#000000" stroke-width="1" x1="239" x2="234" y1="312" y2="312"/>
<line fill="#000000" stroke="#000000" stroke-width="1" x1="229" x2="224" y1="312" y2="312"/>
<line fill="#000000" stroke="#000000" stroke-width="1" x1="219" x2="214" y1="312" y2="312"/>
<line fill="#000000" stroke="#000000" stroke-width="1" x1="209" x2="204" y1="312" y2="312"/>
<line fill="#000000" stroke="#000000" stroke-width="1" x1="199" x2="194" y1="312" y2="312"/>
<line fill="#000000" stroke="#000000" stroke-width="1" x1="189" x2="184" y1="312" y2="312"/>
<line fill="#000000" stroke="#000000" stroke-width="1" x1="179" x2="174" y1="312" y2="312"/>
<line fill="#000000" stroke="#000000" stroke-width="1" x1="169" x2="164" y1="312" y2="312"/>
<line fill="#000000" stroke="#000000" stroke-width="1" x1="159" x2="154" y1="312" y2="312"/>
<line fill="#000000" stroke="#000000" stroke-width="1" x1="149" x2="144" y1="312" y2="312"/>
<line fill="#000000" stroke="#000000" stroke-width="1" x1="139" x2="134" y1="312" y2="312"/>
<line fill="#000000" stroke="#000000" stroke-width="1" x1="129" x2="124" y1="312" y2="312"/>
<line fill="#000000" stroke="#000000" stroke-width="1" x1="119" x2="114" y1="312" y2="312"/>
<line fill="#000000" stroke="#000000" stroke-width="1" x1="109" x2="104" y1="312" y2="312"/>
<line fill="#000000" stroke="#000000" stroke-width="1" x1="112" x2="100" y1="305" y2="312"/>
<line fill="#000000" stroke="#000000" stroke-width="1" x1="112" x2="100" y1="319" y2="312"/>
<text font-family="Dialog" font-size="12" x="235" y="307">
reservs[i]</text>
</svg>
