<?xml version="1.0" encoding="utf-8" ?>
<!DOCTYPE svg PUBLIC "-//W3C//DTD SVG 1.1//EN" "http://www.w3.org/Graphics/SVG/1.1/DTD/svg11.dtd">
<svg height="380" version="1.1" width="514" xmlns="http://www.w3.org/2000/svg">
<line fill="#000000" stroke="#000000" stroke-width="1" x1="98" x2="98" y1="63" y2="68"/>
<line fill="#000000" stroke="#000000" stroke-width="1" x1="98" x2="98" y1="73" y2="78"/>
<line fill="#000000" stroke="#000000" stroke-width="1" x1="98" x2="98" y1="83" y2="88"/>
<line fill="#000000" stroke="#000000" stroke-width="1" x1="98" x2="98" y1="93" y2="98"/>
<line fill="#000000" stroke="#000000" stroke-width="1" x1="98" x2="98" y1="103" y2="108"/>
<line fill="#000000" stroke="#000000" stroke-width="1" x1="98" x2="98" y1="113" y2="118"/>
<line fill="#000000" stroke="#000000" stroke-width="1" x1="98" x2="98" y1="123" y2="128"/>
<line fill="#000000" stroke="#000000" stroke-width="1" x1="98" x2="98" y1="133" y2="138"/>
<line fill="#000000" stroke="#000000" stroke-width="1" x1="98" x2="98" y1="143" y2="148"/>
<line fill="#000000" stroke="#000000" stroke-width="1" x1="98" x2="98" y1="153" y2="158"/>
<line fill="#000000" stroke="#000000" stroke-width="1" x1="98" x2="98" y1="163" y2="168"/>
<line fill="#000000" stroke="#000000" stroke-width="1" x1="98" x2="98" y1="173" y2="178"/>
<line fill="#000000" stroke="#000000" stroke-width="1" x1="98" x2="98" y1="183" y2="188"/>
<line fill="#000000" stroke="#000000" stroke-width="1" x1="98" x2="98" y1="193" y2="198"/>
<line fill="#000000" stroke="#000000" stroke-width="1" x1="98" x2="98" y1="203" y2="208"/>
<line fill="#000000" stroke="#000000" stroke-width="1" x1="98" x2="98" y1="213" y2="218"/>
<line fill="#000000" stroke="#000000" stroke-width="1" x1="98" x2="98" y1="223" y2="228"/>
<line fill="#000000" stroke="#000000" stroke-width="1" x1="98" x2="98" y1="233" y2="238"/>
<line fill="#000000" stroke="#000000" stroke-width="1" x1="98" x2="98" y1="243" y2="248"/>
<line fill="#000000" stroke="#000000" stroke-width="1" x1="98" x2="98" y1="253" y2="258"/>
<line fill="#000000" stroke="#000000" stroke-width="1" x1="98" x2="98" y1="263" y2="268"/>
<line fill="#000000" stroke="#000000" stroke-width="1" x1="98" x2="98" y1="273" y2="278"/>
<line fill="#000000" stroke="#000000" stroke-width="1" x1="98" x2="98" y1="283" y2="288"/>
<line fill="#000000" stroke="#000000" stroke-width="1" x1="98" x2="98" y1="293" y2="298"/>
<line fill="#000000" stroke="#000000" stroke-width="1" x1="98" x2="98" y1="303" y2="308"/>
<line fill="#000000" stroke="#000000" stroke-width="1" x1="98" x2="98" y1="313" y2="318"/>
<line fill="#000000" stroke="#000000" stroke-width="1" x1="98" x2="98" y1="323" y2="328"/>
<line fill="#000000" stroke="#000000" stroke-width="1" x1="98" x2="98" y1="333" y2="338"/>
<line fill="#000000" stroke="#000000" stroke-width="1" x1="98" x2="98" y1="343" y2="348"/>
<line fill="#000000" stroke="#000000" stroke-width="1" x1="98" x2="98" y1="353" y2="358"/>
<line fill="#000000" stroke="#000000" stroke-width="1" x1="98" x2="98" y1="363" y2="365"/>
<rect fill="#ffffff" height="302" stroke="#ffffff" stroke-width="1" width="20" x="88" y="63"/>
<rect fill="none" height="302" stroke="#000000" stroke-width="1" width="20" x="88" y="63"/>
<rect fill="#ffffff" height="50" stroke="#ffffff" stroke-width="1" width="168" x="14" y="14"/>
<rect fill="none" height="50" stroke="#000000" stroke-width="1" width="168" x="14" y="14"/>
<text font-family="Dialog" font-size="12" x="48" y="46">
/Amministratore</text>
<text font-family="Dialog" font-size="12" x="61" y="27">
&lt;&lt;actor&gt;&gt;</text>
<line fill="#000000" stroke="#000000" stroke-width="1" x1="425" x2="425" y1="63" y2="68"/>
<line fill="#000000" stroke="#000000" stroke-width="1" x1="425" x2="425" y1="73" y2="78"/>
<line fill="#000000" stroke="#000000" stroke-width="1" x1="425" x2="425" y1="83" y2="88"/>
<line fill="#000000" stroke="#000000" stroke-width="1" x1="425" x2="425" y1="93" y2="98"/>
<line fill="#000000" stroke="#000000" stroke-width="1" x1="425" x2="425" y1="103" y2="108"/>
<line fill="#000000" stroke="#000000" stroke-width="1" x1="425" x2="425" y1="113" y2="118"/>
<line fill="#000000" stroke="#000000" stroke-width="1" x1="425" x2="425" y1="123" y2="128"/>
<line fill="#000000" stroke="#000000" stroke-width="1" x1="425" x2="425" y1="133" y2="138"/>
<line fill="#000000" stroke="#000000" stroke-width="1" x1="425" x2="425" y1="143" y2="148"/>
<line fill="#000000" stroke="#000000" stroke-width="1" x1="425" x2="425" y1="153" y2="158"/>
<line fill="#000000" stroke="#000000" stroke-width="1" x1="425" x2="425" y1="163" y2="168"/>
<line fill="#000000" stroke="#000000" stroke-width="1" x1="425" x2="425" y1="173" y2="178"/>
<line fill="#000000" stroke="#000000" stroke-width="1" x1="425" x2="425" y1="183" y2="188"/>
<line fill="#000000" stroke="#000000" stroke-width="1" x1="425" x2="425" y1="193" y2="198"/>
<line fill="#000000" stroke="#000000" stroke-width="1" x1="425" x2="425" y1="203" y2="208"/>
<line fill="#000000" stroke="#000000" stroke-width="1" x1="425" x2="425" y1="213" y2="218"/>
<line fill="#000000" stroke="#000000" stroke-width="1" x1="425" x2="425" y1="223" y2="228"/>
<line fill="#000000" stroke="#000000" stroke-width="1" x1="425" x2="425" y1="233" y2="238"/>
<line fill="#000000" stroke="#000000" stroke-width="1" x1="425" x2="425" y1="243" y2="248"/>
<line fill="#000000" stroke="#000000" stroke-width="1" x1="425" x2="425" y1="253" y2="258"/>
<line fill="#000000" stroke="#000000" stroke-width="1" x1="425" x2="425" y1="263" y2="268"/>
<line fill="#000000" stroke="#000000" stroke-width="1" x1="425" x2="425" y1="273" y2="278"/>
<line fill="#000000" stroke="#000000" stroke-width="1" x1="425" x2="425" y1="283" y2="288"/>
<line fill="#000000" stroke="#000000" stroke-width="1" x1="425" x2="425" y1="293" y2="298"/>
<line fill="#000000" stroke="#000000" stroke-width="1" x1="425" x2="425" y1="303" y2="308"/>
<line fill="#000000" stroke="#000000" stroke-width="1" x1="425" x2="425" y1="313" y2="318"/>
<line fill="#000000" stroke="#000000" stroke-width="1" x1="425" x2="425" y1="323" y2="328"/>
<line fill="#000000" stroke="#000000" stroke-width="1" x1="425" x2="425" y1="333" y2="338"/>
<line fill="#000000" stroke="#000000" stroke-width="1" x1="425" x2="425" y1="343" y2="348"/>
<line fill="#000000" stroke="#000000" stroke-width="1" x1="425" x2="425" y1="353" y2="358"/>
<line fill="#000000" stroke="#000000" stroke-width="1" x1="425" x2="425" y1="363" y2="365"/>
<rect fill="#ffffff" height="40" stroke="#ffffff" stroke-width="1" width="20" x="415" y="110"/>
<rect fill="none" height="40" stroke="#000000" stroke-width="1" width="20" x="415" y="110"/>
<rect fill="#ffffff" height="48" stroke="#ffffff" stroke-width="1" width="20" x="415" y="198"/>
<rect fill="none" height="48" stroke="#000000" stroke-width="1" width="20" x="415" y="198"/>
<rect fill="#ffffff" height="56" stroke="#ffffff" stroke-width="1" width="20" x="415" y="294"/>
<rect fill="none" height="56" stroke="#000000" stroke-width="1" width="20" x="415" y="294"/>
<rect fill="#ffffff" height="50" stroke="#ffffff" stroke-width="1" width="150" x="350" y="14"/>
<rect fill="none" height="50" stroke="#000000" stroke-width="1" width="150" x="350" y="14"/>
<text font-family="Dialog" font-size="12" x="400" y="27">
:System</text>
<polyline fill="none" points="108,110 415,110" stroke="#000000" stroke-width="1"/>
<polygon fill="#ffffff" points="415,110 403,117 403,103" stroke="#ffffff" stroke-width="1"/>
<polygon fill="none" points="415,110 403,117 403,103" stroke="#000000" stroke-width="1"/>
<text font-family="Dialog" font-size="12" x="217" y="105">
fetchPendantReq()</text>
<line fill="#000000" stroke="#000000" stroke-width="1" x1="415" x2="410" y1="150" y2="150"/>
<line fill="#000000" stroke="#000000" stroke-width="1" x1="405" x2="400" y1="150" y2="150"/>
<line fill="#000000" stroke="#000000" stroke-width="1" x1="395" x2="390" y1="150" y2="150"/>
<line fill="#000000" stroke="#000000" stroke-width="1" x1="385" x2="380" y1="150" y2="150"/>
<line fill="#000000" stroke="#000000" stroke-width="1" x1="375" x2="370" y1="150" y2="150"/>
<line fill="#000000" stroke="#000000" stroke-width="1" x1="365" x2="360" y1="150" y2="150"/>
<line fill="#000000" stroke="#000000" stroke-width="1" x1="355" x2="350" y1="150" y2="150"/>
<line fill="#000000" stroke="#000000" stroke-width="1" x1="345" x2="340" y1="150" y2="150"/>
<line fill="#000000" stroke="#000000" stroke-width="1" x1="335" x2="330" y1="150" y2="150"/>
<line fill="#000000" stroke="#000000" stroke-width="1" x1="325" x2="320" y1="150" y2="150"/>
<line fill="#000000" stroke="#000000" stroke-width="1" x1="315" x2="310" y1="150" y2="150"/>
<line fill="#000000" stroke="#000000" stroke-width="1" x1="305" x2="300" y1="150" y2="150"/>
<line fill="#000000" stroke="#000000" stroke-width="1" x1="295" x2="290" y1="150" y2="150"/>
<line fill="#000000" stroke="#000000" stroke-width="1" x1="285" x2="280" y1="150" y2="150"/>
<line fill="#000000" stroke="#000000" stroke-width="1" x1="275" x2="270" y1="150" y2="150"/>
<line fill="#000000" stroke="#000000" stroke-width="1" x1="265" x2="260" y1="150" y2="150"/>
<line fill="#000000" stroke="#000000" stroke-width="1" x1="255" x2="250" y1="150" y2="150"/>
<line fill="#000000" stroke="#000000" stroke-width="1" x1="245" x2="240" y1="150" y2="150"/>
<line fill="#000000" stroke="#000000" stroke-width="1" x1="235" x2="230" y1="150" y2="150"/>
<line fill="#000000" stroke="#000000" stroke-width="1" x1="225" x2="220" y1="150" y2="150"/>
<line fill="#000000" stroke="#000000" stroke-width="1" x1="215" x2="210" y1="150" y2="150"/>
<line fill="#000000" stroke="#000000" stroke-width="1" x1="205" x2="200" y1="150" y2="150"/>
<line fill="#000000" stroke="#000000" stroke-width="1" x1="195" x2="190" y1="150" y2="150"/>
<line fill="#000000" stroke="#000000" stroke-width="1" x1="185" x2="180" y1="150" y2="150"/>
<line fill="#000000" stroke="#000000" stroke-width="1" x1="175" x2="170" y1="150" y2="150"/>
<line fill="#000000" stroke="#000000" stroke-width="1" x1="165" x2="160" y1="150" y2="150"/>
<line fill="#000000" stroke="#000000" stroke-width="1" x1="155" x2="150" y1="150" y2="150"/>
<line fill="#000000" stroke="#000000" stroke-width="1" x1="145" x2="140" y1="150" y2="150"/>
<line fill="#000000" stroke="#000000" stroke-width="1" x1="135" x2="130" y1="150" y2="150"/>
<line fill="#000000" stroke="#000000" stroke-width="1" x1="125" x2="120" y1="150" y2="150"/>
<line fill="#000000" stroke="#000000" stroke-width="1" x1="115" x2="110" y1="150" y2="150"/>
<line fill="#000000" stroke="#000000" stroke-width="1" x1="120" x2="108" y1="143" y2="150"/>
<line fill="#000000" stroke="#000000" stroke-width="1" x1="120" x2="108" y1="157" y2="150"/>
<text font-family="Dialog" font-size="12" x="218" y="145">
msg:Messaggio[]</text>
<polyline fill="none" points="108,294 415,294" stroke="#000000" stroke-width="1"/>
<polygon fill="#ffffff" points="415,294 403,301 403,287" stroke="#ffffff" stroke-width="1"/>
<polygon fill="none" points="415,294 403,301 403,287" stroke="#000000" stroke-width="1"/>
<text font-family="Dialog" font-size="12" x="145" y="289">
Reserve (msg[i], priority, slot[j], doctor)</text>
<line fill="#000000" stroke="#000000" stroke-width="1" x1="415" x2="410" y1="350" y2="350"/>
<line fill="#000000" stroke="#000000" stroke-width="1" x1="405" x2="400" y1="350" y2="350"/>
<line fill="#000000" stroke="#000000" stroke-width="1" x1="395" x2="390" y1="350" y2="350"/>
<line fill="#000000" stroke="#000000" stroke-width="1" x1="385" x2="380" y1="350" y2="350"/>
<line fill="#000000" stroke="#000000" stroke-width="1" x1="375" x2="370" y1="350" y2="350"/>
<line fill="#000000" stroke="#000000" stroke-width="1" x1="365" x2="360" y1="350" y2="350"/>
<line fill="#000000" stroke="#000000" stroke-width="1" x1="355" x2="350" y1="350" y2="350"/>
<line fill="#000000" stroke="#000000" stroke-width="1" x1="345" x2="340" y1="350" y2="350"/>
<line fill="#000000" stroke="#000000" stroke-width="1" x1="335" x2="330" y1="350" y2="350"/>
<line fill="#000000" stroke="#000000" stroke-width="1" x1="325" x2="320" y1="350" y2="350"/>
<line fill="#000000" stroke="#000000" stroke-width="1" x1="315" x2="310" y1="350" y2="350"/>
<line fill="#000000" stroke="#000000" stroke-width="1" x1="305" x2="300" y1="350" y2="350"/>
<line fill="#000000" stroke="#000000" stroke-width="1" x1="295" x2="290" y1="350" y2="350"/>
<line fill="#000000" stroke="#000000" stroke-width="1" x1="285" x2="280" y1="350" y2="350"/>
<line fill="#000000" stroke="#000000" stroke-width="1" x1="275" x2="270" y1="350" y2="350"/>
<line fill="#000000" stroke="#000000" stroke-width="1" x1="265" x2="260" y1="350" y2="350"/>
<line fill="#000000" stroke="#000000" stroke-width="1" x1="255" x2="250" y1="350" y2="350"/>
<line fill="#000000" stroke="#000000" stroke-width="1" x1="245" x2="240" y1="350" y2="350"/>
<line fill="#000000" stroke="#000000" stroke-width="1" x1="235" x2="230" y1="350" y2="350"/>
<line fill="#000000" stroke="#000000" stroke-width="1" x1="225" x2="220" y1="350" y2="350"/>
<line fill="#000000" stroke="#000000" stroke-width="1" x1="215" x2="210" y1="350" y2="350"/>
<line fill="#000000" stroke="#000000" stroke-width="1" x1="205" x2="200" y1="350" y2="350"/>
<line fill="#000000" stroke="#000000" stroke-width="1" x1="195" x2="190" y1="350" y2="350"/>
<line fill="#000000" stroke="#000000" stroke-width="1" x1="185" x2="180" y1="350" y2="350"/>
<line fill="#000000" stroke="#000000" stroke-width="1" x1="175" x2="170" y1="350" y2="350"/>
<line fill="#000000" stroke="#000000" stroke-width="1" x1="165" x2="160" y1="350" y2="350"/>
<line fill="#000000" stroke="#000000" stroke-width="1" x1="155" x2="150" y1="350" y2="350"/>
<line fill="#000000" stroke="#000000" stroke-width="1" x1="145" x2="140" y1="350" y2="350"/>
<line fill="#000000" stroke="#000000" stroke-width="1" x1="135" x2="130" y1="350" y2="350"/>
<line fill="#000000" stroke="#000000" stroke-width="1" x1="125" x2="120" y1="350" y2="350"/>
<line fill="#000000" stroke="#000000" stroke-width="1" x1="115" x2="110" y1="350" y2="350"/>
<line fill="#000000" stroke="#000000" stroke-width="1" x1="120" x2="108" y1="343" y2="350"/>
<line fill="#000000" stroke="#000000" stroke-width="1" x1="120" x2="108" y1="357" y2="350"/>
<text font-family="Dialog" font-size="12" x="225" y="344">
notify</text>
<polyline fill="none" points="108,198 415,198" stroke="#000000" stroke-width="1"/>
<polygon fill="#ffffff" points="415,198 403,205 403,191" stroke="#ffffff" stroke-width="1"/>
<polygon fill="none" points="415,198 403,205 403,191" stroke="#000000" stroke-width="1"/>
<text font-family="Dialog" font-size="12" x="139" y="192">
getFreeSlotsAfter (Amministratore, today())</text>
<line fill="#000000" stroke="#000000" stroke-width="1" x1="415" x2="410" y1="246" y2="246"/>
<line fill="#000000" stroke="#000000" stroke-width="1" x1="405" x2="400" y1="246" y2="246"/>
<line fill="#000000" stroke="#000000" stroke-width="1" x1="395" x2="390" y1="246" y2="246"/>
<line fill="#000000" stroke="#000000" stroke-width="1" x1="385" x2="380" y1="246" y2="246"/>
<line fill="#000000" stroke="#000000" stroke-width="1" x1="375" x2="370" y1="246" y2="246"/>
<line fill="#000000" stroke="#000000" stroke-width="1" x1="365" x2="360" y1="246" y2="246"/>
<line fill="#000000" stroke="#000000" stroke-width="1" x1="355" x2="350" y1="246" y2="246"/>
<line fill="#000000" stroke="#000000" stroke-width="1" x1="345" x2="340" y1="246" y2="246"/>
<line fill="#000000" stroke="#000000" stroke-width="1" x1="335" x2="330" y1="246" y2="246"/>
<line fill="#000000" stroke="#000000" stroke-width="1" x1="325" x2="320" y1="246" y2="246"/>
<line fill="#000000" stroke="#000000" stroke-width="1" x1="315" x2="310" y1="246" y2="246"/>
<line fill="#000000" stroke="#000000" stroke-width="1" x1="305" x2="300" y1="246" y2="246"/>
<line fill="#000000" stroke="#000000" stroke-width="1" x1="295" x2="290" y1="246" y2="246"/>
<line fill="#000000" stroke="#000000" stroke-width="1" x1="285" x2="280" y1="246" y2="246"/>
<line fill="#000000" stroke="#000000" stroke-width="1" x1="275" x2="270" y1="246" y2="246"/>
<line fill="#000000" stroke="#000000" stroke-width="1" x1="265" x2="260" y1="246" y2="246"/>
<line fill="#000000" stroke="#000000" stroke-width="1" x1="255" x2="250" y1="246" y2="246"/>
<line fill="#000000" stroke="#000000" stroke-width="1" x1="245" x2="240" y1="246" y2="246"/>
<line fill="#000000" stroke="#000000" stroke-width="1" x1="235" x2="230" y1="246" y2="246"/>
<line fill="#000000" stroke="#000000" stroke-width="1" x1="225" x2="220" y1="246" y2="246"/>
<line fill="#000000" stroke="#000000" stroke-width="1" x1="215" x2="210" y1="246" y2="246"/>
<line fill="#000000" stroke="#000000" stroke-width="1" x1="205" x2="200" y1="246" y2="246"/>
<line fill="#000000" stroke="#000000" stroke-width="1" x1="195" x2="190" y1="246" y2="246"/>
<line fill="#000000" stroke="#000000" stroke-width="1" x1="185" x2="180" y1="246" y2="246"/>
<line fill="#000000" stroke="#000000" stroke-width="1" x1="175" x2="170" y1="246" y2="246"/>
<line fill="#000000" stroke="#000000" stroke-width="1" x1="165" x2="160" y1="246" y2="246"/>
<line fill="#000000" stroke="#000000" stroke-width="1" x1="155" x2="150" y1="246" y2="246"/>
<line fill="#000000" stroke="#000000" stroke-width="1" x1="145" x2="140" y1="246" y2="246"/>
<line fill="#000000" stroke="#000000" stroke-width="1" x1="135" x2="130" y1="246" y2="246"/>
<line fill="#000000" stroke="#000000" stroke-width="1" x1="125" x2="120" y1="246" y2="246"/>
<line fill="#000000" stroke="#000000" stroke-width="1" x1="115" x2="110" y1="246" y2="246"/>
<line fill="#000000" stroke="#000000" stroke-width="1" x1="120" x2="108" y1="239" y2="246"/>
<line fill="#000000" stroke="#000000" stroke-width="1" x1="120" x2="108" y1="253" y2="246"/>
<text font-family="Dialog" font-size="12" x="218" y="241">
slot:(date,time,room)[]</text>
</svg>
