<?xml version="1.0" encoding="utf-8" ?>
<!DOCTYPE svg PUBLIC "-//W3C//DTD SVG 1.1//EN" "http://www.w3.org/Graphics/SVG/1.1/DTD/svg11.dtd">
<svg height="455" version="1.1" width="570" xmlns="http://www.w3.org/2000/svg">
<line fill="#000000" stroke="#000000" stroke-width="1" x1="94" x2="94" y1="63" y2="68"/>
<line fill="#000000" stroke="#000000" stroke-width="1" x1="94" x2="94" y1="73" y2="78"/>
<line fill="#000000" stroke="#000000" stroke-width="1" x1="94" x2="94" y1="83" y2="88"/>
<line fill="#000000" stroke="#000000" stroke-width="1" x1="94" x2="94" y1="93" y2="98"/>
<line fill="#000000" stroke="#000000" stroke-width="1" x1="94" x2="94" y1="103" y2="108"/>
<line fill="#000000" stroke="#000000" stroke-width="1" x1="94" x2="94" y1="113" y2="118"/>
<line fill="#000000" stroke="#000000" stroke-width="1" x1="94" x2="94" y1="123" y2="128"/>
<line fill="#000000" stroke="#000000" stroke-width="1" x1="94" x2="94" y1="133" y2="138"/>
<line fill="#000000" stroke="#000000" stroke-width="1" x1="94" x2="94" y1="143" y2="148"/>
<line fill="#000000" stroke="#000000" stroke-width="1" x1="94" x2="94" y1="153" y2="158"/>
<line fill="#000000" stroke="#000000" stroke-width="1" x1="94" x2="94" y1="163" y2="168"/>
<line fill="#000000" stroke="#000000" stroke-width="1" x1="94" x2="94" y1="173" y2="178"/>
<line fill="#000000" stroke="#000000" stroke-width="1" x1="94" x2="94" y1="183" y2="188"/>
<line fill="#000000" stroke="#000000" stroke-width="1" x1="94" x2="94" y1="193" y2="198"/>
<line fill="#000000" stroke="#000000" stroke-width="1" x1="94" x2="94" y1="203" y2="208"/>
<line fill="#000000" stroke="#000000" stroke-width="1" x1="94" x2="94" y1="213" y2="218"/>
<line fill="#000000" stroke="#000000" stroke-width="1" x1="94" x2="94" y1="223" y2="228"/>
<line fill="#000000" stroke="#000000" stroke-width="1" x1="94" x2="94" y1="233" y2="238"/>
<line fill="#000000" stroke="#000000" stroke-width="1" x1="94" x2="94" y1="243" y2="248"/>
<line fill="#000000" stroke="#000000" stroke-width="1" x1="94" x2="94" y1="253" y2="258"/>
<line fill="#000000" stroke="#000000" stroke-width="1" x1="94" x2="94" y1="263" y2="268"/>
<line fill="#000000" stroke="#000000" stroke-width="1" x1="94" x2="94" y1="273" y2="278"/>
<line fill="#000000" stroke="#000000" stroke-width="1" x1="94" x2="94" y1="283" y2="288"/>
<line fill="#000000" stroke="#000000" stroke-width="1" x1="94" x2="94" y1="293" y2="298"/>
<line fill="#000000" stroke="#000000" stroke-width="1" x1="94" x2="94" y1="303" y2="308"/>
<line fill="#000000" stroke="#000000" stroke-width="1" x1="94" x2="94" y1="313" y2="318"/>
<line fill="#000000" stroke="#000000" stroke-width="1" x1="94" x2="94" y1="323" y2="328"/>
<line fill="#000000" stroke="#000000" stroke-width="1" x1="94" x2="94" y1="333" y2="338"/>
<line fill="#000000" stroke="#000000" stroke-width="1" x1="94" x2="94" y1="343" y2="348"/>
<line fill="#000000" stroke="#000000" stroke-width="1" x1="94" x2="94" y1="353" y2="358"/>
<line fill="#000000" stroke="#000000" stroke-width="1" x1="94" x2="94" y1="363" y2="368"/>
<line fill="#000000" stroke="#000000" stroke-width="1" x1="94" x2="94" y1="373" y2="378"/>
<line fill="#000000" stroke="#000000" stroke-width="1" x1="94" x2="94" y1="383" y2="388"/>
<line fill="#000000" stroke="#000000" stroke-width="1" x1="94" x2="94" y1="393" y2="398"/>
<line fill="#000000" stroke="#000000" stroke-width="1" x1="94" x2="94" y1="403" y2="408"/>
<line fill="#000000" stroke="#000000" stroke-width="1" x1="94" x2="94" y1="413" y2="418"/>
<line fill="#000000" stroke="#000000" stroke-width="1" x1="94" x2="94" y1="423" y2="428"/>
<line fill="#000000" stroke="#000000" stroke-width="1" x1="94" x2="94" y1="433" y2="438"/>
<rect fill="#ffffff" height="377" stroke="#ffffff" stroke-width="1" width="20" x="84" y="63"/>
<rect fill="none" height="377" stroke="#000000" stroke-width="1" width="20" x="84" y="63"/>
<rect fill="#ffffff" height="50" stroke="#ffffff" stroke-width="1" width="160" x="14" y="14"/>
<rect fill="none" height="50" stroke="#000000" stroke-width="1" width="160" x="14" y="14"/>
<text font-family="Dialog" font-size="12" x="44" y="46">
/Amministratore</text>
<text font-family="Dialog" font-size="12" x="57" y="27">
&lt;&lt;actor&gt;&gt;</text>
<line fill="#000000" stroke="#000000" stroke-width="1" x1="481" x2="481" y1="63" y2="68"/>
<line fill="#000000" stroke="#000000" stroke-width="1" x1="481" x2="481" y1="73" y2="78"/>
<line fill="#000000" stroke="#000000" stroke-width="1" x1="481" x2="481" y1="83" y2="88"/>
<line fill="#000000" stroke="#000000" stroke-width="1" x1="481" x2="481" y1="93" y2="98"/>
<line fill="#000000" stroke="#000000" stroke-width="1" x1="481" x2="481" y1="103" y2="108"/>
<line fill="#000000" stroke="#000000" stroke-width="1" x1="481" x2="481" y1="113" y2="118"/>
<line fill="#000000" stroke="#000000" stroke-width="1" x1="481" x2="481" y1="123" y2="128"/>
<line fill="#000000" stroke="#000000" stroke-width="1" x1="481" x2="481" y1="133" y2="138"/>
<line fill="#000000" stroke="#000000" stroke-width="1" x1="481" x2="481" y1="143" y2="148"/>
<line fill="#000000" stroke="#000000" stroke-width="1" x1="481" x2="481" y1="153" y2="158"/>
<line fill="#000000" stroke="#000000" stroke-width="1" x1="481" x2="481" y1="163" y2="168"/>
<line fill="#000000" stroke="#000000" stroke-width="1" x1="481" x2="481" y1="173" y2="178"/>
<line fill="#000000" stroke="#000000" stroke-width="1" x1="481" x2="481" y1="183" y2="188"/>
<line fill="#000000" stroke="#000000" stroke-width="1" x1="481" x2="481" y1="193" y2="198"/>
<line fill="#000000" stroke="#000000" stroke-width="1" x1="481" x2="481" y1="203" y2="208"/>
<line fill="#000000" stroke="#000000" stroke-width="1" x1="481" x2="481" y1="213" y2="218"/>
<line fill="#000000" stroke="#000000" stroke-width="1" x1="481" x2="481" y1="223" y2="228"/>
<line fill="#000000" stroke="#000000" stroke-width="1" x1="481" x2="481" y1="233" y2="238"/>
<line fill="#000000" stroke="#000000" stroke-width="1" x1="481" x2="481" y1="243" y2="248"/>
<line fill="#000000" stroke="#000000" stroke-width="1" x1="481" x2="481" y1="253" y2="258"/>
<line fill="#000000" stroke="#000000" stroke-width="1" x1="481" x2="481" y1="263" y2="268"/>
<line fill="#000000" stroke="#000000" stroke-width="1" x1="481" x2="481" y1="273" y2="278"/>
<line fill="#000000" stroke="#000000" stroke-width="1" x1="481" x2="481" y1="283" y2="288"/>
<line fill="#000000" stroke="#000000" stroke-width="1" x1="481" x2="481" y1="293" y2="298"/>
<line fill="#000000" stroke="#000000" stroke-width="1" x1="481" x2="481" y1="303" y2="308"/>
<line fill="#000000" stroke="#000000" stroke-width="1" x1="481" x2="481" y1="313" y2="318"/>
<line fill="#000000" stroke="#000000" stroke-width="1" x1="481" x2="481" y1="323" y2="328"/>
<line fill="#000000" stroke="#000000" stroke-width="1" x1="481" x2="481" y1="333" y2="338"/>
<line fill="#000000" stroke="#000000" stroke-width="1" x1="481" x2="481" y1="343" y2="348"/>
<line fill="#000000" stroke="#000000" stroke-width="1" x1="481" x2="481" y1="353" y2="358"/>
<line fill="#000000" stroke="#000000" stroke-width="1" x1="481" x2="481" y1="363" y2="368"/>
<line fill="#000000" stroke="#000000" stroke-width="1" x1="481" x2="481" y1="373" y2="378"/>
<line fill="#000000" stroke="#000000" stroke-width="1" x1="481" x2="481" y1="383" y2="388"/>
<line fill="#000000" stroke="#000000" stroke-width="1" x1="481" x2="481" y1="393" y2="398"/>
<line fill="#000000" stroke="#000000" stroke-width="1" x1="481" x2="481" y1="403" y2="408"/>
<line fill="#000000" stroke="#000000" stroke-width="1" x1="481" x2="481" y1="413" y2="418"/>
<line fill="#000000" stroke="#000000" stroke-width="1" x1="481" x2="481" y1="423" y2="428"/>
<line fill="#000000" stroke="#000000" stroke-width="1" x1="481" x2="481" y1="433" y2="438"/>
<rect fill="#ffffff" height="50" stroke="#ffffff" stroke-width="1" width="20" x="471" y="86"/>
<rect fill="none" height="50" stroke="#000000" stroke-width="1" width="20" x="471" y="86"/>
<rect fill="#ffffff" height="48" stroke="#ffffff" stroke-width="1" width="20" x="471" y="174"/>
<rect fill="none" height="48" stroke="#000000" stroke-width="1" width="20" x="471" y="174"/>
<rect fill="#ffffff" height="50" stroke="#ffffff" stroke-width="1" width="20" x="471" y="278"/>
<rect fill="none" height="50" stroke="#000000" stroke-width="1" width="20" x="471" y="278"/>
<rect fill="#ffffff" height="50" stroke="#ffffff" stroke-width="1" width="20" x="471" y="366"/>
<rect fill="none" height="50" stroke="#000000" stroke-width="1" width="20" x="471" y="366"/>
<rect fill="#ffffff" height="50" stroke="#ffffff" stroke-width="1" width="150" x="406" y="14"/>
<rect fill="none" height="50" stroke="#000000" stroke-width="1" width="150" x="406" y="14"/>
<text font-family="Dialog" font-size="12" x="456" y="27">
:System</text>
<polyline fill="none" points="104,86 471,86" stroke="#000000" stroke-width="1"/>
<polygon fill="#000000" points="471,86 459,93 459,79" stroke="#000000" stroke-width="1"/>
<polygon fill="none" points="471,86 459,93 459,79" stroke="#000000" stroke-width="1"/>
<text font-family="Dialog" font-size="12" x="243" y="81">
fetchPostponeReq()</text>
<line fill="#000000" stroke="#000000" stroke-width="1" x1="471" x2="466" y1="136" y2="136"/>
<line fill="#000000" stroke="#000000" stroke-width="1" x1="461" x2="456" y1="136" y2="136"/>
<line fill="#000000" stroke="#000000" stroke-width="1" x1="451" x2="446" y1="136" y2="136"/>
<line fill="#000000" stroke="#000000" stroke-width="1" x1="441" x2="436" y1="136" y2="136"/>
<line fill="#000000" stroke="#000000" stroke-width="1" x1="431" x2="426" y1="136" y2="136"/>
<line fill="#000000" stroke="#000000" stroke-width="1" x1="421" x2="416" y1="136" y2="136"/>
<line fill="#000000" stroke="#000000" stroke-width="1" x1="411" x2="406" y1="136" y2="136"/>
<line fill="#000000" stroke="#000000" stroke-width="1" x1="401" x2="396" y1="136" y2="136"/>
<line fill="#000000" stroke="#000000" stroke-width="1" x1="391" x2="386" y1="136" y2="136"/>
<line fill="#000000" stroke="#000000" stroke-width="1" x1="381" x2="376" y1="136" y2="136"/>
<line fill="#000000" stroke="#000000" stroke-width="1" x1="371" x2="366" y1="136" y2="136"/>
<line fill="#000000" stroke="#000000" stroke-width="1" x1="361" x2="356" y1="136" y2="136"/>
<line fill="#000000" stroke="#000000" stroke-width="1" x1="351" x2="346" y1="136" y2="136"/>
<line fill="#000000" stroke="#000000" stroke-width="1" x1="341" x2="336" y1="136" y2="136"/>
<line fill="#000000" stroke="#000000" stroke-width="1" x1="331" x2="326" y1="136" y2="136"/>
<line fill="#000000" stroke="#000000" stroke-width="1" x1="321" x2="316" y1="136" y2="136"/>
<line fill="#000000" stroke="#000000" stroke-width="1" x1="311" x2="306" y1="136" y2="136"/>
<line fill="#000000" stroke="#000000" stroke-width="1" x1="301" x2="296" y1="136" y2="136"/>
<line fill="#000000" stroke="#000000" stroke-width="1" x1="291" x2="286" y1="136" y2="136"/>
<line fill="#000000" stroke="#000000" stroke-width="1" x1="281" x2="276" y1="136" y2="136"/>
<line fill="#000000" stroke="#000000" stroke-width="1" x1="271" x2="266" y1="136" y2="136"/>
<line fill="#000000" stroke="#000000" stroke-width="1" x1="261" x2="256" y1="136" y2="136"/>
<line fill="#000000" stroke="#000000" stroke-width="1" x1="251" x2="246" y1="136" y2="136"/>
<line fill="#000000" stroke="#000000" stroke-width="1" x1="241" x2="236" y1="136" y2="136"/>
<line fill="#000000" stroke="#000000" stroke-width="1" x1="231" x2="226" y1="136" y2="136"/>
<line fill="#000000" stroke="#000000" stroke-width="1" x1="221" x2="216" y1="136" y2="136"/>
<line fill="#000000" stroke="#000000" stroke-width="1" x1="211" x2="206" y1="136" y2="136"/>
<line fill="#000000" stroke="#000000" stroke-width="1" x1="201" x2="196" y1="136" y2="136"/>
<line fill="#000000" stroke="#000000" stroke-width="1" x1="191" x2="186" y1="136" y2="136"/>
<line fill="#000000" stroke="#000000" stroke-width="1" x1="181" x2="176" y1="136" y2="136"/>
<line fill="#000000" stroke="#000000" stroke-width="1" x1="171" x2="166" y1="136" y2="136"/>
<line fill="#000000" stroke="#000000" stroke-width="1" x1="161" x2="156" y1="136" y2="136"/>
<line fill="#000000" stroke="#000000" stroke-width="1" x1="151" x2="146" y1="136" y2="136"/>
<line fill="#000000" stroke="#000000" stroke-width="1" x1="141" x2="136" y1="136" y2="136"/>
<line fill="#000000" stroke="#000000" stroke-width="1" x1="131" x2="126" y1="136" y2="136"/>
<line fill="#000000" stroke="#000000" stroke-width="1" x1="121" x2="116" y1="136" y2="136"/>
<line fill="#000000" stroke="#000000" stroke-width="1" x1="111" x2="106" y1="136" y2="136"/>
<line fill="#000000" stroke="#000000" stroke-width="1" x1="116" x2="104" y1="129" y2="136"/>
<line fill="#000000" stroke="#000000" stroke-width="1" x1="116" x2="104" y1="143" y2="136"/>
<text font-family="Dialog" font-size="12" x="244" y="131">
msg:Messaggio[]</text>
<polyline fill="none" points="104,174 471,174" stroke="#000000" stroke-width="1"/>
<polygon fill="#000000" points="471,174 459,181 459,167" stroke="#000000" stroke-width="1"/>
<polygon fill="none" points="471,174 459,181 459,167" stroke="#000000" stroke-width="1"/>
<text font-family="Dialog" font-size="12" x="124" y="169">
getFreeSlotsAfter (Amministratore, msg[i].prenot.data)</text>
<line fill="#000000" stroke="#000000" stroke-width="1" x1="471" x2="466" y1="222" y2="222"/>
<line fill="#000000" stroke="#000000" stroke-width="1" x1="461" x2="456" y1="222" y2="222"/>
<line fill="#000000" stroke="#000000" stroke-width="1" x1="451" x2="446" y1="222" y2="222"/>
<line fill="#000000" stroke="#000000" stroke-width="1" x1="441" x2="436" y1="222" y2="222"/>
<line fill="#000000" stroke="#000000" stroke-width="1" x1="431" x2="426" y1="222" y2="222"/>
<line fill="#000000" stroke="#000000" stroke-width="1" x1="421" x2="416" y1="222" y2="222"/>
<line fill="#000000" stroke="#000000" stroke-width="1" x1="411" x2="406" y1="222" y2="222"/>
<line fill="#000000" stroke="#000000" stroke-width="1" x1="401" x2="396" y1="222" y2="222"/>
<line fill="#000000" stroke="#000000" stroke-width="1" x1="391" x2="386" y1="222" y2="222"/>
<line fill="#000000" stroke="#000000" stroke-width="1" x1="381" x2="376" y1="222" y2="222"/>
<line fill="#000000" stroke="#000000" stroke-width="1" x1="371" x2="366" y1="222" y2="222"/>
<line fill="#000000" stroke="#000000" stroke-width="1" x1="361" x2="356" y1="222" y2="222"/>
<line fill="#000000" stroke="#000000" stroke-width="1" x1="351" x2="346" y1="222" y2="222"/>
<line fill="#000000" stroke="#000000" stroke-width="1" x1="341" x2="336" y1="222" y2="222"/>
<line fill="#000000" stroke="#000000" stroke-width="1" x1="331" x2="326" y1="222" y2="222"/>
<line fill="#000000" stroke="#000000" stroke-width="1" x1="321" x2="316" y1="222" y2="222"/>
<line fill="#000000" stroke="#000000" stroke-width="1" x1="311" x2="306" y1="222" y2="222"/>
<line fill="#000000" stroke="#000000" stroke-width="1" x1="301" x2="296" y1="222" y2="222"/>
<line fill="#000000" stroke="#000000" stroke-width="1" x1="291" x2="286" y1="222" y2="222"/>
<line fill="#000000" stroke="#000000" stroke-width="1" x1="281" x2="276" y1="222" y2="222"/>
<line fill="#000000" stroke="#000000" stroke-width="1" x1="271" x2="266" y1="222" y2="222"/>
<line fill="#000000" stroke="#000000" stroke-width="1" x1="261" x2="256" y1="222" y2="222"/>
<line fill="#000000" stroke="#000000" stroke-width="1" x1="251" x2="246" y1="222" y2="222"/>
<line fill="#000000" stroke="#000000" stroke-width="1" x1="241" x2="236" y1="222" y2="222"/>
<line fill="#000000" stroke="#000000" stroke-width="1" x1="231" x2="226" y1="222" y2="222"/>
<line fill="#000000" stroke="#000000" stroke-width="1" x1="221" x2="216" y1="222" y2="222"/>
<line fill="#000000" stroke="#000000" stroke-width="1" x1="211" x2="206" y1="222" y2="222"/>
<line fill="#000000" stroke="#000000" stroke-width="1" x1="201" x2="196" y1="222" y2="222"/>
<line fill="#000000" stroke="#000000" stroke-width="1" x1="191" x2="186" y1="222" y2="222"/>
<line fill="#000000" stroke="#000000" stroke-width="1" x1="181" x2="176" y1="222" y2="222"/>
<line fill="#000000" stroke="#000000" stroke-width="1" x1="171" x2="166" y1="222" y2="222"/>
<line fill="#000000" stroke="#000000" stroke-width="1" x1="161" x2="156" y1="222" y2="222"/>
<line fill="#000000" stroke="#000000" stroke-width="1" x1="151" x2="146" y1="222" y2="222"/>
<line fill="#000000" stroke="#000000" stroke-width="1" x1="141" x2="136" y1="222" y2="222"/>
<line fill="#000000" stroke="#000000" stroke-width="1" x1="131" x2="126" y1="222" y2="222"/>
<line fill="#000000" stroke="#000000" stroke-width="1" x1="121" x2="116" y1="222" y2="222"/>
<line fill="#000000" stroke="#000000" stroke-width="1" x1="111" x2="106" y1="222" y2="222"/>
<line fill="#000000" stroke="#000000" stroke-width="1" x1="116" x2="104" y1="215" y2="222"/>
<line fill="#000000" stroke="#000000" stroke-width="1" x1="116" x2="104" y1="229" y2="222"/>
<text font-family="Dialog" font-size="12" x="244" y="217">
slot: (date, time, room)[]</text>
<polyline fill="none" points="104,278 471,278" stroke="#000000" stroke-width="1"/>
<polygon fill="#000000" points="471,278 459,285 459,271" stroke="#000000" stroke-width="1"/>
<polygon fill="none" points="471,278 459,285 459,271" stroke="#000000" stroke-width="1"/>
<text font-family="Dialog" font-size="12" x="179" y="273">
postponeReservs (msg[i].prenot, slot[j])</text>
<line fill="#000000" stroke="#000000" stroke-width="1" x1="471" x2="466" y1="328" y2="328"/>
<line fill="#000000" stroke="#000000" stroke-width="1" x1="461" x2="456" y1="328" y2="328"/>
<line fill="#000000" stroke="#000000" stroke-width="1" x1="451" x2="446" y1="328" y2="328"/>
<line fill="#000000" stroke="#000000" stroke-width="1" x1="441" x2="436" y1="328" y2="328"/>
<line fill="#000000" stroke="#000000" stroke-width="1" x1="431" x2="426" y1="328" y2="328"/>
<line fill="#000000" stroke="#000000" stroke-width="1" x1="421" x2="416" y1="328" y2="328"/>
<line fill="#000000" stroke="#000000" stroke-width="1" x1="411" x2="406" y1="328" y2="328"/>
<line fill="#000000" stroke="#000000" stroke-width="1" x1="401" x2="396" y1="328" y2="328"/>
<line fill="#000000" stroke="#000000" stroke-width="1" x1="391" x2="386" y1="328" y2="328"/>
<line fill="#000000" stroke="#000000" stroke-width="1" x1="381" x2="376" y1="328" y2="328"/>
<line fill="#000000" stroke="#000000" stroke-width="1" x1="371" x2="366" y1="328" y2="328"/>
<line fill="#000000" stroke="#000000" stroke-width="1" x1="361" x2="356" y1="328" y2="328"/>
<line fill="#000000" stroke="#000000" stroke-width="1" x1="351" x2="346" y1="328" y2="328"/>
<line fill="#000000" stroke="#000000" stroke-width="1" x1="341" x2="336" y1="328" y2="328"/>
<line fill="#000000" stroke="#000000" stroke-width="1" x1="331" x2="326" y1="328" y2="328"/>
<line fill="#000000" stroke="#000000" stroke-width="1" x1="321" x2="316" y1="328" y2="328"/>
<line fill="#000000" stroke="#000000" stroke-width="1" x1="311" x2="306" y1="328" y2="328"/>
<line fill="#000000" stroke="#000000" stroke-width="1" x1="301" x2="296" y1="328" y2="328"/>
<line fill="#000000" stroke="#000000" stroke-width="1" x1="291" x2="286" y1="328" y2="328"/>
<line fill="#000000" stroke="#000000" stroke-width="1" x1="281" x2="276" y1="328" y2="328"/>
<line fill="#000000" stroke="#000000" stroke-width="1" x1="271" x2="266" y1="328" y2="328"/>
<line fill="#000000" stroke="#000000" stroke-width="1" x1="261" x2="256" y1="328" y2="328"/>
<line fill="#000000" stroke="#000000" stroke-width="1" x1="251" x2="246" y1="328" y2="328"/>
<line fill="#000000" stroke="#000000" stroke-width="1" x1="241" x2="236" y1="328" y2="328"/>
<line fill="#000000" stroke="#000000" stroke-width="1" x1="231" x2="226" y1="328" y2="328"/>
<line fill="#000000" stroke="#000000" stroke-width="1" x1="221" x2="216" y1="328" y2="328"/>
<line fill="#000000" stroke="#000000" stroke-width="1" x1="211" x2="206" y1="328" y2="328"/>
<line fill="#000000" stroke="#000000" stroke-width="1" x1="201" x2="196" y1="328" y2="328"/>
<line fill="#000000" stroke="#000000" stroke-width="1" x1="191" x2="186" y1="328" y2="328"/>
<line fill="#000000" stroke="#000000" stroke-width="1" x1="181" x2="176" y1="328" y2="328"/>
<line fill="#000000" stroke="#000000" stroke-width="1" x1="171" x2="166" y1="328" y2="328"/>
<line fill="#000000" stroke="#000000" stroke-width="1" x1="161" x2="156" y1="328" y2="328"/>
<line fill="#000000" stroke="#000000" stroke-width="1" x1="151" x2="146" y1="328" y2="328"/>
<line fill="#000000" stroke="#000000" stroke-width="1" x1="141" x2="136" y1="328" y2="328"/>
<line fill="#000000" stroke="#000000" stroke-width="1" x1="131" x2="126" y1="328" y2="328"/>
<line fill="#000000" stroke="#000000" stroke-width="1" x1="121" x2="116" y1="328" y2="328"/>
<line fill="#000000" stroke="#000000" stroke-width="1" x1="111" x2="106" y1="328" y2="328"/>
<line fill="#000000" stroke="#000000" stroke-width="1" x1="116" x2="104" y1="321" y2="328"/>
<line fill="#000000" stroke="#000000" stroke-width="1" x1="116" x2="104" y1="335" y2="328"/>
<text font-family="Dialog" font-size="12" x="244" y="323">
notify</text>
<polyline fill="none" points="104,366 471,366" stroke="#000000" stroke-width="1"/>
<polygon fill="#000000" points="471,366 459,373 459,359" stroke="#000000" stroke-width="1"/>
<polygon fill="none" points="471,366 459,373 459,359" stroke="#000000" stroke-width="1"/>
<text font-family="Dialog" font-size="12" x="164" y="361">
destroyRequestPostpone (msg[i])</text>
<polyline fill="none" points="471,416 104,416" stroke="#000000" stroke-width="1"/>
<line fill="#000000" stroke="#000000" stroke-width="1" x1="116" x2="104" y1="409" y2="416"/>
<line fill="#000000" stroke="#000000" stroke-width="1" x1="116" x2="104" y1="423" y2="416"/>
<text font-family="Dialog" font-size="12" x="240" y="411">
notify</text>
</svg>
