<?xml version="1.0" encoding="utf-8" ?>
<!DOCTYPE svg PUBLIC "-//W3C//DTD SVG 1.1//EN" "http://www.w3.org/Graphics/SVG/1.1/DTD/svg11.dtd">
<svg height="276" version="1.1" width="514" xmlns="http://www.w3.org/2000/svg">
<line fill="#000000" stroke="#000000" stroke-width="1" x1="98" x2="98" y1="63" y2="68"/>
<line fill="#000000" stroke="#000000" stroke-width="1" x1="98" x2="98" y1="73" y2="78"/>
<line fill="#000000" stroke="#000000" stroke-width="1" x1="98" x2="98" y1="83" y2="88"/>
<line fill="#000000" stroke="#000000" stroke-width="1" x1="98" x2="98" y1="93" y2="98"/>
<line fill="#000000" stroke="#000000" stroke-width="1" x1="98" x2="98" y1="103" y2="108"/>
<line fill="#000000" stroke="#000000" stroke-width="1" x1="98" x2="98" y1="113" y2="118"/>
<line fill="#000000" stroke="#000000" stroke-width="1" x1="98" x2="98" y1="123" y2="128"/>
<line fill="#000000" stroke="#000000" stroke-width="1" x1="98" x2="98" y1="133" y2="138"/>
<line fill="#000000" stroke="#000000" stroke-width="1" x1="98" x2="98" y1="143" y2="148"/>
<line fill="#000000" stroke="#000000" stroke-width="1" x1="98" x2="98" y1="153" y2="158"/>
<line fill="#000000" stroke="#000000" stroke-width="1" x1="98" x2="98" y1="163" y2="168"/>
<line fill="#000000" stroke="#000000" stroke-width="1" x1="98" x2="98" y1="173" y2="178"/>
<line fill="#000000" stroke="#000000" stroke-width="1" x1="98" x2="98" y1="183" y2="188"/>
<line fill="#000000" stroke="#000000" stroke-width="1" x1="98" x2="98" y1="193" y2="198"/>
<line fill="#000000" stroke="#000000" stroke-width="1" x1="98" x2="98" y1="203" y2="208"/>
<line fill="#000000" stroke="#000000" stroke-width="1" x1="98" x2="98" y1="213" y2="218"/>
<line fill="#000000" stroke="#000000" stroke-width="1" x1="98" x2="98" y1="223" y2="228"/>
<line fill="#000000" stroke="#000000" stroke-width="1" x1="98" x2="98" y1="233" y2="238"/>
<line fill="#000000" stroke="#000000" stroke-width="1" x1="98" x2="98" y1="243" y2="248"/>
<line fill="#000000" stroke="#000000" stroke-width="1" x1="98" x2="98" y1="253" y2="258"/>
<rect fill="#ffffff" height="198" stroke="#ffffff" stroke-width="1" width="20" x="88" y="63"/>
<rect fill="none" height="198" stroke="#000000" stroke-width="1" width="20" x="88" y="63"/>
<rect fill="#ffffff" height="50" stroke="#ffffff" stroke-width="1" width="168" x="14" y="14"/>
<rect fill="none" height="50" stroke="#000000" stroke-width="1" width="168" x="14" y="14"/>
<text font-family="Dialog" font-size="12" x="48" y="46">
/Amministratore</text>
<text font-family="Dialog" font-size="12" x="61" y="27">
&lt;&lt;actor&gt;&gt;</text>
<line fill="#000000" stroke="#000000" stroke-width="1" x1="425" x2="425" y1="63" y2="68"/>
<line fill="#000000" stroke="#000000" stroke-width="1" x1="425" x2="425" y1="73" y2="78"/>
<line fill="#000000" stroke="#000000" stroke-width="1" x1="425" x2="425" y1="83" y2="88"/>
<line fill="#000000" stroke="#000000" stroke-width="1" x1="425" x2="425" y1="93" y2="98"/>
<line fill="#000000" stroke="#000000" stroke-width="1" x1="425" x2="425" y1="103" y2="108"/>
<line fill="#000000" stroke="#000000" stroke-width="1" x1="425" x2="425" y1="113" y2="118"/>
<line fill="#000000" stroke="#000000" stroke-width="1" x1="425" x2="425" y1="123" y2="128"/>
<line fill="#000000" stroke="#000000" stroke-width="1" x1="425" x2="425" y1="133" y2="138"/>
<line fill="#000000" stroke="#000000" stroke-width="1" x1="425" x2="425" y1="143" y2="148"/>
<line fill="#000000" stroke="#000000" stroke-width="1" x1="425" x2="425" y1="153" y2="158"/>
<line fill="#000000" stroke="#000000" stroke-width="1" x1="425" x2="425" y1="163" y2="168"/>
<line fill="#000000" stroke="#000000" stroke-width="1" x1="425" x2="425" y1="173" y2="178"/>
<line fill="#000000" stroke="#000000" stroke-width="1" x1="425" x2="425" y1="183" y2="188"/>
<line fill="#000000" stroke="#000000" stroke-width="1" x1="425" x2="425" y1="193" y2="198"/>
<line fill="#000000" stroke="#000000" stroke-width="1" x1="425" x2="425" y1="203" y2="208"/>
<line fill="#000000" stroke="#000000" stroke-width="1" x1="425" x2="425" y1="213" y2="218"/>
<line fill="#000000" stroke="#000000" stroke-width="1" x1="425" x2="425" y1="223" y2="228"/>
<line fill="#000000" stroke="#000000" stroke-width="1" x1="425" x2="425" y1="233" y2="238"/>
<line fill="#000000" stroke="#000000" stroke-width="1" x1="425" x2="425" y1="243" y2="248"/>
<line fill="#000000" stroke="#000000" stroke-width="1" x1="425" x2="425" y1="253" y2="258"/>
<rect fill="#ffffff" height="50" stroke="#ffffff" stroke-width="1" width="20" x="415" y="94"/>
<rect fill="none" height="50" stroke="#000000" stroke-width="1" width="20" x="415" y="94"/>
<rect fill="#ffffff" height="50" stroke="#ffffff" stroke-width="1" width="20" x="415" y="190"/>
<rect fill="none" height="50" stroke="#000000" stroke-width="1" width="20" x="415" y="190"/>
<rect fill="#ffffff" height="50" stroke="#ffffff" stroke-width="1" width="150" x="350" y="14"/>
<rect fill="none" height="50" stroke="#000000" stroke-width="1" width="150" x="350" y="14"/>
<text font-family="Dialog" font-size="12" x="400" y="27">
:System</text>
<polyline fill="none" points="108,94 415,94" stroke="#000000" stroke-width="1"/>
<polygon fill="#ffffff" points="415,94 403,101 403,87" stroke="#ffffff" stroke-width="1"/>
<polygon fill="none" points="415,94 403,101 403,87" stroke="#000000" stroke-width="1"/>
<text font-family="Dialog" font-size="12" x="215" y="89">
fetchReservations()</text>
<line fill="#000000" stroke="#000000" stroke-width="1" x1="415" x2="410" y1="144" y2="144"/>
<line fill="#000000" stroke="#000000" stroke-width="1" x1="405" x2="400" y1="144" y2="144"/>
<line fill="#000000" stroke="#000000" stroke-width="1" x1="395" x2="390" y1="144" y2="144"/>
<line fill="#000000" stroke="#000000" stroke-width="1" x1="385" x2="380" y1="144" y2="144"/>
<line fill="#000000" stroke="#000000" stroke-width="1" x1="375" x2="370" y1="144" y2="144"/>
<line fill="#000000" stroke="#000000" stroke-width="1" x1="365" x2="360" y1="144" y2="144"/>
<line fill="#000000" stroke="#000000" stroke-width="1" x1="355" x2="350" y1="144" y2="144"/>
<line fill="#000000" stroke="#000000" stroke-width="1" x1="345" x2="340" y1="144" y2="144"/>
<line fill="#000000" stroke="#000000" stroke-width="1" x1="335" x2="330" y1="144" y2="144"/>
<line fill="#000000" stroke="#000000" stroke-width="1" x1="325" x2="320" y1="144" y2="144"/>
<line fill="#000000" stroke="#000000" stroke-width="1" x1="315" x2="310" y1="144" y2="144"/>
<line fill="#000000" stroke="#000000" stroke-width="1" x1="305" x2="300" y1="144" y2="144"/>
<line fill="#000000" stroke="#000000" stroke-width="1" x1="295" x2="290" y1="144" y2="144"/>
<line fill="#000000" stroke="#000000" stroke-width="1" x1="285" x2="280" y1="144" y2="144"/>
<line fill="#000000" stroke="#000000" stroke-width="1" x1="275" x2="270" y1="144" y2="144"/>
<line fill="#000000" stroke="#000000" stroke-width="1" x1="265" x2="260" y1="144" y2="144"/>
<line fill="#000000" stroke="#000000" stroke-width="1" x1="255" x2="250" y1="144" y2="144"/>
<line fill="#000000" stroke="#000000" stroke-width="1" x1="245" x2="240" y1="144" y2="144"/>
<line fill="#000000" stroke="#000000" stroke-width="1" x1="235" x2="230" y1="144" y2="144"/>
<line fill="#000000" stroke="#000000" stroke-width="1" x1="225" x2="220" y1="144" y2="144"/>
<line fill="#000000" stroke="#000000" stroke-width="1" x1="215" x2="210" y1="144" y2="144"/>
<line fill="#000000" stroke="#000000" stroke-width="1" x1="205" x2="200" y1="144" y2="144"/>
<line fill="#000000" stroke="#000000" stroke-width="1" x1="195" x2="190" y1="144" y2="144"/>
<line fill="#000000" stroke="#000000" stroke-width="1" x1="185" x2="180" y1="144" y2="144"/>
<line fill="#000000" stroke="#000000" stroke-width="1" x1="175" x2="170" y1="144" y2="144"/>
<line fill="#000000" stroke="#000000" stroke-width="1" x1="165" x2="160" y1="144" y2="144"/>
<line fill="#000000" stroke="#000000" stroke-width="1" x1="155" x2="150" y1="144" y2="144"/>
<line fill="#000000" stroke="#000000" stroke-width="1" x1="145" x2="140" y1="144" y2="144"/>
<line fill="#000000" stroke="#000000" stroke-width="1" x1="135" x2="130" y1="144" y2="144"/>
<line fill="#000000" stroke="#000000" stroke-width="1" x1="125" x2="120" y1="144" y2="144"/>
<line fill="#000000" stroke="#000000" stroke-width="1" x1="115" x2="110" y1="144" y2="144"/>
<line fill="#000000" stroke="#000000" stroke-width="1" x1="120" x2="108" y1="137" y2="144"/>
<line fill="#000000" stroke="#000000" stroke-width="1" x1="120" x2="108" y1="151" y2="144"/>
<text font-family="Dialog" font-size="12" x="216" y="139">
reserv:Prenotazione[]</text>
<polyline fill="none" points="108,190 415,190" stroke="#000000" stroke-width="1"/>
<polygon fill="#ffffff" points="415,190 403,197 403,183" stroke="#ffffff" stroke-width="1"/>
<polygon fill="none" points="415,190 403,197 403,183" stroke="#000000" stroke-width="1"/>
<text font-family="Dialog" font-size="12" x="214" y="185">
addReport(reserv[i],report)</text>
<line fill="#000000" stroke="#000000" stroke-width="1" x1="415" x2="410" y1="240" y2="240"/>
<line fill="#000000" stroke="#000000" stroke-width="1" x1="405" x2="400" y1="240" y2="240"/>
<line fill="#000000" stroke="#000000" stroke-width="1" x1="395" x2="390" y1="240" y2="240"/>
<line fill="#000000" stroke="#000000" stroke-width="1" x1="385" x2="380" y1="240" y2="240"/>
<line fill="#000000" stroke="#000000" stroke-width="1" x1="375" x2="370" y1="240" y2="240"/>
<line fill="#000000" stroke="#000000" stroke-width="1" x1="365" x2="360" y1="240" y2="240"/>
<line fill="#000000" stroke="#000000" stroke-width="1" x1="355" x2="350" y1="240" y2="240"/>
<line fill="#000000" stroke="#000000" stroke-width="1" x1="345" x2="340" y1="240" y2="240"/>
<line fill="#000000" stroke="#000000" stroke-width="1" x1="335" x2="330" y1="240" y2="240"/>
<line fill="#000000" stroke="#000000" stroke-width="1" x1="325" x2="320" y1="240" y2="240"/>
<line fill="#000000" stroke="#000000" stroke-width="1" x1="315" x2="310" y1="240" y2="240"/>
<line fill="#000000" stroke="#000000" stroke-width="1" x1="305" x2="300" y1="240" y2="240"/>
<line fill="#000000" stroke="#000000" stroke-width="1" x1="295" x2="290" y1="240" y2="240"/>
<line fill="#000000" stroke="#000000" stroke-width="1" x1="285" x2="280" y1="240" y2="240"/>
<line fill="#000000" stroke="#000000" stroke-width="1" x1="275" x2="270" y1="240" y2="240"/>
<line fill="#000000" stroke="#000000" stroke-width="1" x1="265" x2="260" y1="240" y2="240"/>
<line fill="#000000" stroke="#000000" stroke-width="1" x1="255" x2="250" y1="240" y2="240"/>
<line fill="#000000" stroke="#000000" stroke-width="1" x1="245" x2="240" y1="240" y2="240"/>
<line fill="#000000" stroke="#000000" stroke-width="1" x1="235" x2="230" y1="240" y2="240"/>
<line fill="#000000" stroke="#000000" stroke-width="1" x1="225" x2="220" y1="240" y2="240"/>
<line fill="#000000" stroke="#000000" stroke-width="1" x1="215" x2="210" y1="240" y2="240"/>
<line fill="#000000" stroke="#000000" stroke-width="1" x1="205" x2="200" y1="240" y2="240"/>
<line fill="#000000" stroke="#000000" stroke-width="1" x1="195" x2="190" y1="240" y2="240"/>
<line fill="#000000" stroke="#000000" stroke-width="1" x1="185" x2="180" y1="240" y2="240"/>
<line fill="#000000" stroke="#000000" stroke-width="1" x1="175" x2="170" y1="240" y2="240"/>
<line fill="#000000" stroke="#000000" stroke-width="1" x1="165" x2="160" y1="240" y2="240"/>
<line fill="#000000" stroke="#000000" stroke-width="1" x1="155" x2="150" y1="240" y2="240"/>
<line fill="#000000" stroke="#000000" stroke-width="1" x1="145" x2="140" y1="240" y2="240"/>
<line fill="#000000" stroke="#000000" stroke-width="1" x1="135" x2="130" y1="240" y2="240"/>
<line fill="#000000" stroke="#000000" stroke-width="1" x1="125" x2="120" y1="240" y2="240"/>
<line fill="#000000" stroke="#000000" stroke-width="1" x1="115" x2="110" y1="240" y2="240"/>
<line fill="#000000" stroke="#000000" stroke-width="1" x1="120" x2="108" y1="233" y2="240"/>
<line fill="#000000" stroke="#000000" stroke-width="1" x1="120" x2="108" y1="247" y2="240"/>
<text font-family="Dialog" font-size="12" x="218" y="235">
reserv[i]</text>
</svg>
