<?xml version="1.0" encoding="UTF-8" standalone="no"?>
<svg
   xmlns:dc="http://purl.org/dc/elements/1.1/"
   xmlns:cc="http://creativecommons.org/ns#"
   xmlns:rdf="http://www.w3.org/1999/02/22-rdf-syntax-ns#"
   xmlns:svg="http://www.w3.org/2000/svg"
   xmlns="http://www.w3.org/2000/svg"
   xmlns:sodipodi="http://sodipodi.sourceforge.net/DTD/sodipodi-0.dtd"
   xmlns:inkscape="http://www.inkscape.org/namespaces/inkscape"
   height="501"
   version="1.1"
   width="764"
   id="svg2"
   inkscape:version="0.48.2 r9819"
   sodipodi:docname="Modello di Dominio.svg">
  <metadata
     id="metadata194">
    <rdf:RDF>
      <cc:Work
         rdf:about="">
        <dc:format>image/svg+xml</dc:format>
        <dc:type
           rdf:resource="http://purl.org/dc/dcmitype/StillImage" />
      </cc:Work>
    </rdf:RDF>
  </metadata>
  <defs
     id="defs192" />
  <sodipodi:namedview
     pagecolor="#ffffff"
     bordercolor="#666666"
     borderopacity="1"
     objecttolerance="10"
     gridtolerance="10"
     guidetolerance="10"
     inkscape:pageopacity="0"
     inkscape:pageshadow="2"
     inkscape:window-width="1280"
     inkscape:window-height="706"
     id="namedview190"
     showgrid="false"
     inkscape:zoom="0.65157483"
     inkscape:cx="351.04222"
     inkscape:cy="320.70996"
     inkscape:window-x="0"
     inkscape:window-y="0"
     inkscape:window-maximized="1"
     inkscape:current-layer="svg2" />
  <rect
     height="65.493729"
     width="104.04964"
     x="151.77446"
     y="192.35617"
     id="rect6"
     style="fill:none;stroke:#000000;stroke-width:1.0802238" />
  <text
     font-size="13"
     x="173.78487"
     y="206.76419"
     id="text8"
     style="font-size:17.28621292px;font-family:Lucida Grande"
     transform="scale(0.97812452,1.0223647)">Paziente</text>
  <rect
     height="1.3594472"
     width="104.04964"
     x="151.77446"
     y="224.98288"
     id="rect10"
     style="fill:#000000;stroke:#000000;stroke-width:1.3297087" />
  <text
     font-size="13"
     x="160.48779"
     y="240.00691"
     id="text12"
     style="font-size:17.28621292px;font-family:Lucida Grande"
     transform="scale(0.97812452,1.0223647)">credenziali</text>
  <rect
     height="69.570786"
     width="100.14779"
     x="47.724812"
     y="428.89996"
     id="rect18"
     style="fill:none;stroke:#000000;stroke-width:1.11333883" />
  <text
     font-size="13"
     x="72.726891"
     y="438.13342"
     id="text20"
     style="font-size:17.28621292px;font-family:Lucida Grande"
     transform="scale(0.97812452,1.0223647)">Tutore</text>
  <rect
     height="1.3594472"
     width="100.14779"
     x="47.724812"
     y="461.5267"
     id="rect22"
     style="fill:#000000;stroke:#000000;stroke-width:1.3297087" />
  <text
     font-size="13"
     x="54.11097"
     y="471.37613"
     id="text24"
     style="font-size:17.28621292px;font-family:Lucida Grande"
     transform="scale(0.97812452,1.0223647)">credenziali</text>
  <rect
     height="35.716835"
     width="200.29558"
     x="193.3943"
     y="311.98752"
     id="rect30"
     style="fill:none;stroke:#000000;stroke-width:0.82652748" />
  <text
     font-size="13"
     x="208.3573"
     y="323.77847"
     id="text32"
     style="font-size:17.28621292px;font-family:Lucida Grande"
     transform="scale(0.97812452,1.0223647)">Paziente maggiorenne</text>
  <rect
     height="113.32037"
     width="133.96391"
     x="424.90475"
     y="192.35617"
     id="rect40"
     style="fill:none;stroke:#000000;stroke-width:1.16282952" />
  <text
     font-size="13"
     x="449.03455"
     y="206.76419"
     id="text42"
     style="font-size:17.28621292px;font-family:Lucida Grande"
     transform="scale(0.97812452,1.0223647)">Prenotazione</text>
  <rect
     height="1.3594472"
     width="133.96391"
     x="424.90475"
     y="224.98288"
     id="rect44"
     style="fill:#000000;stroke:#000000;stroke-width:1.3297087" />
  <text
     font-size="13"
     x="439.72659"
     y="240.00691"
     id="text46"
     style="font-size:17.28621292px;font-family:Lucida Grande"
     transform="scale(0.97812452,1.0223647)">data</text>
  <text
     font-size="13"
     x="439.72659"
     y="262.61191"
     id="text48"
     style="font-size:17.28621292px;font-family:Lucida Grande"
     transform="scale(0.97812452,1.0223647)">priorità</text>
  <text
     font-size="13"
     x="439.72659"
     y="285.21692"
     id="text50"
     style="font-size:17.28621292px;font-family:Lucida Grande"
     transform="scale(0.97812452,1.0223647)">medico</text>
  <rect
     height="34.672466"
     width="179.48564"
     x="6.1049538"
     y="311.98752"
     id="rect56"
     style="fill:none;stroke:#000000;stroke-width:0.81435394" />
  <text
     font-size="13"
     x="15.549437"
     y="323.77847"
     id="text58"
     style="font-size:17.28621292px;font-family:Lucida Grande"
     transform="scale(0.97812452,1.0223647)">Paziente minorenne</text>
  <rect
     height="67.516533"
     width="146.97012"
     x="414.49982"
     y="38.76738"
     id="rect66"
     style="fill:none;stroke:#000000;stroke-width:1.09677851" />
  <text
     font-size="13"
     x="433.07806"
     y="56.535244"
     id="text68"
     style="font-size:17.28621292px;font-family:Lucida Grande"
     transform="scale(0.97812452,1.0223647)">Amministratore</text>
  <rect
     height="1.3594472"
     width="146.97012"
     x="414.49982"
     y="71.394112"
     id="rect70"
     style="fill:#000000;stroke:#000000;stroke-width:1.3297087" />
  <text
     font-size="13"
     x="429.08893"
     y="89.777962"
     id="text72"
     style="font-size:17.28621292px;font-family:Lucida Grande"
     transform="scale(0.97812452,1.0223647)">credenziali</text>
  <rect
     height="62.308941"
     width="85.840958"
     x="669.42145"
     y="192.35617"
     id="rect78"
     style="fill:none;stroke:#000000;stroke-width:1.05363226" />
  <text
     font-size="13"
     x="696.35974"
     y="206.76419"
     id="text80"
     style="font-size:17.28621292px;font-family:Lucida Grande"
     transform="scale(0.97812452,1.0223647)">Reparto</text>
  <rect
     height="1.3594472"
     width="85.840958"
     x="669.42145"
     y="224.98288"
     id="rect82"
     style="fill:#000000;stroke:#000000;stroke-width:1.3297087" />
  <text
     font-size="13"
     x="689.71124"
     y="240.00691"
     id="text84"
     style="font-size:17.28621292px;font-family:Lucida Grande"
     transform="scale(0.97812452,1.0223647)">nome</text>
  <rect
     height="28.374176"
     width="85.840958"
     x="669.42145"
     y="352.77094"
     id="rect90"
     style="fill:none;stroke:#000000;stroke-width:0.73668611" />
  <text
     font-size="13"
     x="710.98657"
     y="363.66974"
     id="text92"
     style="font-size:17.28621292px;font-family:Lucida Grande"
     transform="scale(0.97812452,1.0223647)">Sala</text>
  <rect
     height="25.276667"
     width="85.840958"
     x="445.71469"
     y="355.48981"
     id="rect100"
     style="fill:none;stroke:#000000;stroke-width:0.69531363" />
  <text
     font-size="13"
     x="468.98016"
     y="366.32916"
     id="text102"
     style="font-size:17.28621292px;font-family:Lucida Grande"
     transform="scale(0.97812452,1.0223647)">Referto</text>
  <polyline
     points="626,318 626,246"
     id="polyline108"
     transform="matrix(1.3006206,0,0,1.3594472,-103.14718,-79.533276)"
     style="fill:none;stroke:#000000;stroke-width:1" />
  <polygon
     points="621,308 626,298 631,308 626,318 "
     id="polygon110"
     transform="matrix(1.3006206,0,0,1.3594472,-103.14718,-79.533276)"
     style="fill:#000000;stroke:#000000;stroke-width:1" />
  <polygon
     points="621,308 626,298 631,308 626,318 "
     id="polygon112"
     transform="matrix(1.3006206,0,0,1.3594472,-103.14718,-79.533276)"
     style="fill:none;stroke:#000000;stroke-width:1" />
  <polyline
     points="258,286 258,278 186,278 186,246"
     id="polyline114"
     transform="matrix(1.3006206,0,0,1.3594472,-48.521111,-76.814381)"
     style="fill:none;stroke:#000000;stroke-width:1" />
  <polygon
     points="186,246 193,258 179,258 "
     id="polygon116"
     transform="matrix(1.3006206,0,0,1.3594472,-48.521111,-76.814381)"
     style="fill:#ffffff;stroke:#ffffff;stroke-width:1" />
  <polygon
     points="186,246 193,258 179,258 "
     id="polygon118"
     transform="matrix(1.3006206,0,0,1.3594472,-48.521111,-76.814381)"
     style="fill:none;stroke:#000000;stroke-width:1" />
  <polyline
     points="114,286 114,278 186,278 186,246"
     id="polyline120"
     transform="matrix(1.3006206,0,0,1.3594472,-48.521111,-76.814381)"
     style="fill:none;stroke:#000000;stroke-width:1" />
  <polygon
     points="186,246 193,258 179,258 "
     id="polygon122"
     transform="matrix(1.3006206,0,0,1.3594472,-48.521111,-76.814381)"
     style="fill:#ffffff;stroke:#ffffff;stroke-width:1" />
  <polygon
     points="186,246 193,258 179,258 "
     id="polygon124"
     transform="matrix(1.3006206,0,0,1.3594472,-48.521111,-76.814381)"
     style="fill:none;stroke:#000000;stroke-width:1" />
  <polyline
     points="434,110 434,174"
     id="polyline126"
     transform="matrix(1.3006206,0,0,1.3594472,-77.134763,-44.187648)"
     style="fill:none;stroke:#000000;stroke-width:1" />
  <text
     font-size="13"
     x="510.20096"
     y="122.99255"
     id="text128"
     style="font-size:17.28621292px;font-family:Lucida Grande"
     transform="scale(0.97812452,1.0223647)">0</text>
  <text
     font-size="13"
     x="459.67224"
     y="180.17003"
     id="text130"
     style="font-size:17.28621292px;font-family:Lucida Grande"
     transform="scale(0.97812452,1.0223647)">0..*</text>
  <polyline
     points="434,318 434,282"
     id="polyline132"
     transform="matrix(1.3006206,0,0,1.3594472,-77.134763,-76.814381)"
     style="fill:none;stroke:#000000;stroke-width:1" />
  <text
     font-size="13"
     x="464.99106"
     y="341.0647"
     id="text134"
     style="font-size:17.28621292px;font-family:Lucida Grande"
     transform="scale(0.97812452,1.0223647)">0..1</text>
  <text
     font-size="13"
     x="507.54156"
     y="317.12994"
     id="text136"
     style="font-size:17.28621292px;font-family:Lucida Grande"
     transform="scale(0.97812452,1.0223647)">1</text>
  <polyline
     points="233,214 386,214"
     id="polyline138"
     transform="matrix(1.1018941,0,0,1.3659594,0.3833928,-59.149667)"
     style="fill:none;stroke:#000000;stroke-width:1" />
  <text
     font-size="13"
     x="269.52393"
     y="221.39099"
     id="text140"
     style="font-size:17.28621292px;font-family:Lucida Grande"
     transform="scale(0.97812452,1.0223647)">1</text>
  <text
     font-size="13"
     x="399.83539"
     y="221.39099"
     id="text142"
     style="font-size:17.28621292px;font-family:Lucida Grande"
     transform="scale(0.97812452,1.0223647)">0..*</text>
  <polyline
     points="114,353 114,414"
     id="polyline144"
     transform="matrix(1.3006206,0,0,1.3594472,-48.521111,-133.91117)"
     style="fill:none;stroke:#000000;stroke-width:1" />
  <text
     font-size="13"
     x="109.95882"
     y="368.98859"
     id="text146"
     style="font-size:17.28621292px;font-family:Lucida Grande"
     transform="scale(0.97812452,1.0223647)">1..*</text>
  <text
     font-size="13"
     x="119.26678"
     y="411.53925"
     id="text148"
     style="font-size:17.28621292px;font-family:Lucida Grande"
     transform="scale(0.97812452,1.0223647)">1</text>
  <polyline
     points="490,86 626,86 626,174"
     id="polyline150"
     transform="matrix(1.0436024,0,0,1.3659594,49.878838,-44.167)"
     style="fill:none;stroke:#000000;stroke-width:1" />
  <text
     font-size="13"
     x="645.83081"
     y="63.183788"
     id="text152"
     style="font-size:17.28621292px;font-family:Lucida Grande"
     transform="scale(0.97812452,1.0223647)">gestisce</text>
  <text
     font-size="13"
     x="588.65338"
     y="64.513489"
     id="text154"
     style="font-size:17.28621292px;font-family:Lucida Grande"
     transform="scale(0.97812452,1.0223647)">0</text>
  <text
     font-size="13"
     x="744.22931"
     y="180.17003"
     id="text156"
     style="font-size:17.28621292px;font-family:Lucida Grande"
     transform="scale(0.97812452,1.0223647)">1</text>
  <polyline
     points="488,254 530,254 530,350 594,350"
     id="polyline158"
     transform="matrix(1.0436024,0,0,1.2386939,49.878838,-66.265741)"
     style="fill:none;stroke:#000000;stroke-width:1" />
  <text
     font-size="13"
     x="547.89923"
     y="248.50571"
     id="text160"
     style="font-size:16.46125603px;font-family:Lucida Grande"
     transform="scale(1.0271432,0.97357406)">0..*</text>
  <text
     font-size="13"
     x="630.20575"
     y="367.53333"
     id="text162"
     style="font-size:16.46125603px;font-family:Lucida Grande"
     transform="scale(1.0271433,0.97357397)">1</text>
  <rect
     height="90.93174"
     width="111.85337"
     x="162.17943"
     y="6.140646"
     id="rect166"
     style="fill:none;stroke:#000000;stroke-width:1.14001977" />
  <text
     font-size="13"
     x="177.774"
     y="24.622238"
     id="text168"
     transform="scale(0.97812452,1.0223647)"
     style="font-size:17.28621292px;font-family:Lucida Grande">Messaggio</text>
  <rect
     height="1.3594472"
     width="111.85337"
     x="162.17943"
     y="38.76738"
     id="rect170"
     style="fill:#000000;stroke:#000000;stroke-width:1.3297087" />
  <text
     font-size="13"
     x="171.12546"
     y="57.864952"
     id="text172"
     transform="scale(0.97812452,1.0223647)"
     style="font-size:17.28621292px;font-family:Lucida Grande">Destinatario</text>
  <text
     font-size="13"
     x="171.12546"
     y="80.469994"
     id="text174"
     transform="scale(0.97812452,1.0223647)"
     style="font-size:17.28621292px;font-family:Lucida Grande">Mittente</text>
  <polyline
     points="202,174 202,104"
     id="polyline178"
     transform="matrix(1.3006206,0,0,1.3594472,-48.521111,-44.187648)"
     style="fill:none;stroke:#000000;stroke-width:1" />
  <text
     font-size="13"
     x="187.08195"
     y="174.85118"
     id="text180"
     style="font-size:17.28621292px;font-family:Lucida Grande"
     transform="scale(0.97812452,1.0223647)">1</text>
  <text
     font-size="13"
     x="180.43341"
     y="122.99255"
     id="text182"
     style="font-size:17.28621292px;font-family:Lucida Grande"
     transform="scale(0.97812452,1.0223647)">0..*</text>
  <polyline
     points="378,70 247,70"
     id="polyline184"
     transform="matrix(1.0715411,0,0,1.3659594,10.481835,-27.853633)"
     style="fill:none;stroke:#000000;stroke-width:1" />
  <text
     font-size="13"
     x="398.50568"
     y="60.524368"
     id="text186"
     style="font-size:17.28621292px;font-family:Lucida Grande"
     transform="scale(0.97812452,1.0223647)">1</text>
  <text
     font-size="13"
     x="284.15073"
     y="60.524368"
     id="text188"
     style="font-size:17.28621292px;font-family:Lucida Grande"
     transform="scale(0.97812452,1.0223647)">0..*</text>
</svg>
