<?xml version="1.0" encoding="UTF-8" standalone="no"?>
<svg
   xmlns:dc="http://purl.org/dc/elements/1.1/"
   xmlns:cc="http://creativecommons.org/ns#"
   xmlns:rdf="http://www.w3.org/1999/02/22-rdf-syntax-ns#"
   xmlns:svg="http://www.w3.org/2000/svg"
   xmlns="http://www.w3.org/2000/svg"
   xmlns:sodipodi="http://sodipodi.sourceforge.net/DTD/sodipodi-0.dtd"
   xmlns:inkscape="http://www.inkscape.org/namespaces/inkscape"
   height="362"
   version="1.1"
   width="626"
   id="svg2"
   inkscape:version="0.48.2 r9819"
   sodipodi:docname="Posticipo_prenotazione.svg">
  <metadata
     id="metadata362">
    <rdf:RDF>
      <cc:Work
         rdf:about="">
        <dc:format>image/svg+xml</dc:format>
        <dc:type
           rdf:resource="http://purl.org/dc/dcmitype/StillImage" />
      </cc:Work>
    </rdf:RDF>
  </metadata>
  <defs
     id="defs360" />
  <sodipodi:namedview
     pagecolor="#ffffff"
     bordercolor="#666666"
     borderopacity="1"
     objecttolerance="10"
     gridtolerance="10"
     guidetolerance="10"
     inkscape:pageopacity="0"
     inkscape:pageshadow="2"
     inkscape:window-width="1280"
     inkscape:window-height="746"
     id="namedview358"
     showgrid="false"
     inkscape:zoom="1.2140575"
     inkscape:cx="382.36194"
     inkscape:cy="138.26536"
     inkscape:window-x="0"
     inkscape:window-y="26"
     inkscape:window-maximized="1"
     inkscape:current-layer="svg2" />
  <line
     fill="#000000"
     stroke="#000000"
     stroke-width="1"
     x1="537"
     x2="537"
     y1="63"
     y2="68"
     id="line4" />
  <line
     fill="#000000"
     stroke="#000000"
     stroke-width="1"
     x1="537"
     x2="537"
     y1="73"
     y2="78"
     id="line6" />
  <line
     fill="#000000"
     stroke="#000000"
     stroke-width="1"
     x1="537"
     x2="537"
     y1="83"
     y2="88"
     id="line8" />
  <line
     fill="#000000"
     stroke="#000000"
     stroke-width="1"
     x1="537"
     x2="537"
     y1="93"
     y2="98"
     id="line10" />
  <line
     fill="#000000"
     stroke="#000000"
     stroke-width="1"
     x1="537"
     x2="537"
     y1="103"
     y2="108"
     id="line12" />
  <line
     fill="#000000"
     stroke="#000000"
     stroke-width="1"
     x1="537"
     x2="537"
     y1="113"
     y2="118"
     id="line14" />
  <line
     fill="#000000"
     stroke="#000000"
     stroke-width="1"
     x1="537"
     x2="537"
     y1="123"
     y2="128"
     id="line16" />
  <line
     fill="#000000"
     stroke="#000000"
     stroke-width="1"
     x1="537"
     x2="537"
     y1="133"
     y2="138"
     id="line18" />
  <line
     fill="#000000"
     stroke="#000000"
     stroke-width="1"
     x1="537"
     x2="537"
     y1="143"
     y2="148"
     id="line20" />
  <line
     fill="#000000"
     stroke="#000000"
     stroke-width="1"
     x1="537"
     x2="537"
     y1="153"
     y2="158"
     id="line22" />
  <line
     fill="#000000"
     stroke="#000000"
     stroke-width="1"
     x1="537"
     x2="537"
     y1="163"
     y2="168"
     id="line24" />
  <line
     fill="#000000"
     stroke="#000000"
     stroke-width="1"
     x1="537"
     x2="537"
     y1="173"
     y2="178"
     id="line26" />
  <line
     fill="#000000"
     stroke="#000000"
     stroke-width="1"
     x1="537"
     x2="537"
     y1="183"
     y2="188"
     id="line28" />
  <line
     fill="#000000"
     stroke="#000000"
     stroke-width="1"
     x1="537"
     x2="537"
     y1="193"
     y2="198"
     id="line30" />
  <line
     fill="#000000"
     stroke="#000000"
     stroke-width="1"
     x1="537"
     x2="537"
     y1="203"
     y2="208"
     id="line32" />
  <line
     fill="#000000"
     stroke="#000000"
     stroke-width="1"
     x1="537"
     x2="537"
     y1="213"
     y2="218"
     id="line34" />
  <line
     fill="#000000"
     stroke="#000000"
     stroke-width="1"
     x1="537"
     x2="537"
     y1="223"
     y2="228"
     id="line36" />
  <line
     fill="#000000"
     stroke="#000000"
     stroke-width="1"
     x1="537"
     x2="537"
     y1="233"
     y2="238"
     id="line38" />
  <line
     fill="#000000"
     stroke="#000000"
     stroke-width="1"
     x1="537"
     x2="537"
     y1="243"
     y2="248"
     id="line40" />
  <line
     fill="#000000"
     stroke="#000000"
     stroke-width="1"
     x1="537"
     x2="537"
     y1="253"
     y2="258"
     id="line42" />
  <line
     fill="#000000"
     stroke="#000000"
     stroke-width="1"
     x1="537"
     x2="537"
     y1="263"
     y2="268"
     id="line44" />
  <line
     fill="#000000"
     stroke="#000000"
     stroke-width="1"
     x1="537"
     x2="537"
     y1="273"
     y2="278"
     id="line46" />
  <line
     fill="#000000"
     stroke="#000000"
     stroke-width="1"
     x1="537"
     x2="537"
     y1="283"
     y2="288"
     id="line48" />
  <line
     fill="#000000"
     stroke="#000000"
     stroke-width="1"
     x1="537"
     x2="537"
     y1="293"
     y2="298"
     id="line50" />
  <line
     fill="#000000"
     stroke="#000000"
     stroke-width="1"
     x1="537"
     x2="537"
     y1="303"
     y2="308"
     id="line52" />
  <line
     fill="#000000"
     stroke="#000000"
     stroke-width="1"
     x1="537"
     x2="537"
     y1="313"
     y2="318"
     id="line54" />
  <line
     fill="#000000"
     stroke="#000000"
     stroke-width="1"
     x1="537"
     x2="537"
     y1="323"
     y2="328"
     id="line56" />
  <line
     fill="#000000"
     stroke="#000000"
     stroke-width="1"
     x1="537"
     x2="537"
     y1="333"
     y2="338"
     id="line58" />
  <line
     fill="#000000"
     stroke="#000000"
     stroke-width="1"
     x1="537"
     x2="537"
     y1="343"
     y2="347"
     id="line60" />
  <rect
     fill="#ffffff"
     height="56"
     stroke="#ffffff"
     stroke-width="1"
     width="20"
     x="527"
     y="127"
     id="rect62" />
  <rect
     fill="none"
     height="56"
     stroke="#000000"
     stroke-width="1"
     width="20"
     x="527"
     y="127"
     id="rect64" />
  <rect
     fill="#ffffff"
     height="104"
     stroke="#ffffff"
     stroke-width="1"
     width="20"
     x="527"
     y="231"
     id="rect66" />
  <rect
     fill="none"
     height="104"
     stroke="#000000"
     stroke-width="1"
     width="20"
     x="527"
     y="231"
     id="rect68" />
  <rect
     fill="#ffffff"
     height="50"
     stroke="#ffffff"
     stroke-width="1"
     width="150"
     x="462"
     y="14"
     id="rect70" />
  <rect
     fill="none"
     height="50"
     stroke="#000000"
     stroke-width="1"
     width="150"
     x="462"
     y="14"
     id="rect72" />
  <text
     font-family="Lucida Grande"
     font-size="13"
     x="512"
     y="28"
     id="text74">
:System</text>
  <line
     fill="#000000"
     stroke="#000000"
     stroke-width="1"
     x1="78"
     x2="78"
     y1="63"
     y2="68"
     id="line76" />
  <line
     fill="#000000"
     stroke="#000000"
     stroke-width="1"
     x1="78"
     x2="78"
     y1="73"
     y2="78"
     id="line78" />
  <line
     fill="#000000"
     stroke="#000000"
     stroke-width="1"
     x1="78"
     x2="78"
     y1="83"
     y2="88"
     id="line80" />
  <line
     fill="#000000"
     stroke="#000000"
     stroke-width="1"
     x1="78"
     x2="78"
     y1="93"
     y2="98"
     id="line82" />
  <line
     fill="#000000"
     stroke="#000000"
     stroke-width="1"
     x1="78"
     x2="78"
     y1="103"
     y2="108"
     id="line84" />
  <line
     fill="#000000"
     stroke="#000000"
     stroke-width="1"
     x1="78"
     x2="78"
     y1="113"
     y2="118"
     id="line86" />
  <line
     fill="#000000"
     stroke="#000000"
     stroke-width="1"
     x1="78"
     x2="78"
     y1="123"
     y2="128"
     id="line88" />
  <line
     fill="#000000"
     stroke="#000000"
     stroke-width="1"
     x1="78"
     x2="78"
     y1="133"
     y2="138"
     id="line90" />
  <line
     fill="#000000"
     stroke="#000000"
     stroke-width="1"
     x1="78"
     x2="78"
     y1="143"
     y2="148"
     id="line92" />
  <line
     fill="#000000"
     stroke="#000000"
     stroke-width="1"
     x1="78"
     x2="78"
     y1="153"
     y2="158"
     id="line94" />
  <line
     fill="#000000"
     stroke="#000000"
     stroke-width="1"
     x1="78"
     x2="78"
     y1="163"
     y2="168"
     id="line96" />
  <line
     fill="#000000"
     stroke="#000000"
     stroke-width="1"
     x1="78"
     x2="78"
     y1="173"
     y2="178"
     id="line98" />
  <line
     fill="#000000"
     stroke="#000000"
     stroke-width="1"
     x1="78"
     x2="78"
     y1="183"
     y2="188"
     id="line100" />
  <line
     fill="#000000"
     stroke="#000000"
     stroke-width="1"
     x1="78"
     x2="78"
     y1="193"
     y2="198"
     id="line102" />
  <line
     fill="#000000"
     stroke="#000000"
     stroke-width="1"
     x1="78"
     x2="78"
     y1="203"
     y2="208"
     id="line104" />
  <line
     fill="#000000"
     stroke="#000000"
     stroke-width="1"
     x1="78"
     x2="78"
     y1="213"
     y2="218"
     id="line106" />
  <line
     fill="#000000"
     stroke="#000000"
     stroke-width="1"
     x1="78"
     x2="78"
     y1="223"
     y2="228"
     id="line108" />
  <line
     fill="#000000"
     stroke="#000000"
     stroke-width="1"
     x1="78"
     x2="78"
     y1="233"
     y2="238"
     id="line110" />
  <line
     fill="#000000"
     stroke="#000000"
     stroke-width="1"
     x1="78"
     x2="78"
     y1="243"
     y2="248"
     id="line112" />
  <line
     fill="#000000"
     stroke="#000000"
     stroke-width="1"
     x1="78"
     x2="78"
     y1="253"
     y2="258"
     id="line114" />
  <line
     fill="#000000"
     stroke="#000000"
     stroke-width="1"
     x1="78"
     x2="78"
     y1="263"
     y2="268"
     id="line116" />
  <line
     fill="#000000"
     stroke="#000000"
     stroke-width="1"
     x1="78"
     x2="78"
     y1="273"
     y2="278"
     id="line118" />
  <line
     fill="#000000"
     stroke="#000000"
     stroke-width="1"
     x1="78"
     x2="78"
     y1="283"
     y2="288"
     id="line120" />
  <line
     fill="#000000"
     stroke="#000000"
     stroke-width="1"
     x1="78"
     x2="78"
     y1="293"
     y2="298"
     id="line122" />
  <line
     fill="#000000"
     stroke="#000000"
     stroke-width="1"
     x1="78"
     x2="78"
     y1="303"
     y2="308"
     id="line124" />
  <line
     fill="#000000"
     stroke="#000000"
     stroke-width="1"
     x1="78"
     x2="78"
     y1="313"
     y2="318"
     id="line126" />
  <line
     fill="#000000"
     stroke="#000000"
     stroke-width="1"
     x1="78"
     x2="78"
     y1="323"
     y2="328"
     id="line128" />
  <line
     fill="#000000"
     stroke="#000000"
     stroke-width="1"
     x1="78"
     x2="78"
     y1="333"
     y2="338"
     id="line130" />
  <line
     fill="#000000"
     stroke="#000000"
     stroke-width="1"
     x1="78"
     x2="78"
     y1="343"
     y2="347"
     id="line132" />
  <rect
     fill="#ffffff"
     height="284"
     stroke="#ffffff"
     stroke-width="1"
     width="20"
     x="68"
     y="63"
     id="rect134" />
  <rect
     fill="none"
     height="284"
     stroke="#000000"
     stroke-width="1"
     width="20"
     x="68"
     y="63"
     id="rect136" />
  <rect
     fill="#ffffff"
     height="50"
     stroke="#ffffff"
     stroke-width="1"
     width="128"
     x="14"
     y="14"
     id="rect138" />
  <rect
     fill="none"
     height="50"
     stroke="#000000"
     stroke-width="1"
     width="128"
     x="14"
     y="14"
     id="rect140" />
  <text
     font-family="Lucida Grande"
     font-size="13"
     x="48"
     y="48"
     id="text142">
/paziente</text>
  <text
     font-family="Lucida Grande"
     font-size="13"
     x="42"
     y="28"
     id="text144">
&lt;&lt;actor&gt;&gt;</text>
  <polyline
     fill="none"
     points="88,127 527,127"
     stroke="#000000"
     stroke-width="1"
     id="polyline146" />
  <polygon
     fill="#000000"
     points="527,127 515,134 515,120"
     stroke="#000000"
     stroke-width="1"
     id="polygon148" />
  <polygon
     fill="none"
     points="527,127 515,134 515,120"
     stroke="#000000"
     stroke-width="1"
     id="polygon150" />
  <text
     font-family="Lucida Grande"
     font-size="13"
     x="241"
     y="122"
     id="text152">
fetchReservation()</text>
  <line
     fill="#000000"
     stroke="#000000"
     stroke-width="1"
     x1="527"
     x2="522"
     y1="183"
     y2="183"
     id="line154" />
  <line
     fill="#000000"
     stroke="#000000"
     stroke-width="1"
     x1="517"
     x2="512"
     y1="183"
     y2="183"
     id="line156" />
  <line
     fill="#000000"
     stroke="#000000"
     stroke-width="1"
     x1="507"
     x2="502"
     y1="183"
     y2="183"
     id="line158" />
  <line
     fill="#000000"
     stroke="#000000"
     stroke-width="1"
     x1="497"
     x2="492"
     y1="183"
     y2="183"
     id="line160" />
  <line
     fill="#000000"
     stroke="#000000"
     stroke-width="1"
     x1="487"
     x2="482"
     y1="183"
     y2="183"
     id="line162" />
  <line
     fill="#000000"
     stroke="#000000"
     stroke-width="1"
     x1="477"
     x2="472"
     y1="183"
     y2="183"
     id="line164" />
  <line
     fill="#000000"
     stroke="#000000"
     stroke-width="1"
     x1="467"
     x2="462"
     y1="183"
     y2="183"
     id="line166" />
  <line
     fill="#000000"
     stroke="#000000"
     stroke-width="1"
     x1="457"
     x2="452"
     y1="183"
     y2="183"
     id="line168" />
  <line
     fill="#000000"
     stroke="#000000"
     stroke-width="1"
     x1="447"
     x2="442"
     y1="183"
     y2="183"
     id="line170" />
  <line
     fill="#000000"
     stroke="#000000"
     stroke-width="1"
     x1="437"
     x2="432"
     y1="183"
     y2="183"
     id="line172" />
  <line
     fill="#000000"
     stroke="#000000"
     stroke-width="1"
     x1="427"
     x2="422"
     y1="183"
     y2="183"
     id="line174" />
  <line
     fill="#000000"
     stroke="#000000"
     stroke-width="1"
     x1="417"
     x2="412"
     y1="183"
     y2="183"
     id="line176" />
  <line
     fill="#000000"
     stroke="#000000"
     stroke-width="1"
     x1="407"
     x2="402"
     y1="183"
     y2="183"
     id="line178" />
  <line
     fill="#000000"
     stroke="#000000"
     stroke-width="1"
     x1="397"
     x2="392"
     y1="183"
     y2="183"
     id="line180" />
  <line
     fill="#000000"
     stroke="#000000"
     stroke-width="1"
     x1="387"
     x2="382"
     y1="183"
     y2="183"
     id="line182" />
  <line
     fill="#000000"
     stroke="#000000"
     stroke-width="1"
     x1="377"
     x2="372"
     y1="183"
     y2="183"
     id="line184" />
  <line
     fill="#000000"
     stroke="#000000"
     stroke-width="1"
     x1="367"
     x2="362"
     y1="183"
     y2="183"
     id="line186" />
  <line
     fill="#000000"
     stroke="#000000"
     stroke-width="1"
     x1="357"
     x2="352"
     y1="183"
     y2="183"
     id="line188" />
  <line
     fill="#000000"
     stroke="#000000"
     stroke-width="1"
     x1="347"
     x2="342"
     y1="183"
     y2="183"
     id="line190" />
  <line
     fill="#000000"
     stroke="#000000"
     stroke-width="1"
     x1="337"
     x2="332"
     y1="183"
     y2="183"
     id="line192" />
  <line
     fill="#000000"
     stroke="#000000"
     stroke-width="1"
     x1="327"
     x2="322"
     y1="183"
     y2="183"
     id="line194" />
  <line
     fill="#000000"
     stroke="#000000"
     stroke-width="1"
     x1="317"
     x2="312"
     y1="183"
     y2="183"
     id="line196" />
  <line
     fill="#000000"
     stroke="#000000"
     stroke-width="1"
     x1="307"
     x2="302"
     y1="183"
     y2="183"
     id="line198" />
  <line
     fill="#000000"
     stroke="#000000"
     stroke-width="1"
     x1="297"
     x2="292"
     y1="183"
     y2="183"
     id="line200" />
  <line
     fill="#000000"
     stroke="#000000"
     stroke-width="1"
     x1="287"
     x2="282"
     y1="183"
     y2="183"
     id="line202" />
  <line
     fill="#000000"
     stroke="#000000"
     stroke-width="1"
     x1="277"
     x2="272"
     y1="183"
     y2="183"
     id="line204" />
  <line
     fill="#000000"
     stroke="#000000"
     stroke-width="1"
     x1="267"
     x2="262"
     y1="183"
     y2="183"
     id="line206" />
  <line
     fill="#000000"
     stroke="#000000"
     stroke-width="1"
     x1="257"
     x2="252"
     y1="183"
     y2="183"
     id="line208" />
  <line
     fill="#000000"
     stroke="#000000"
     stroke-width="1"
     x1="247"
     x2="242"
     y1="183"
     y2="183"
     id="line210" />
  <line
     fill="#000000"
     stroke="#000000"
     stroke-width="1"
     x1="237"
     x2="232"
     y1="183"
     y2="183"
     id="line212" />
  <line
     fill="#000000"
     stroke="#000000"
     stroke-width="1"
     x1="227"
     x2="222"
     y1="183"
     y2="183"
     id="line214" />
  <line
     fill="#000000"
     stroke="#000000"
     stroke-width="1"
     x1="217"
     x2="212"
     y1="183"
     y2="183"
     id="line216" />
  <line
     fill="#000000"
     stroke="#000000"
     stroke-width="1"
     x1="207"
     x2="202"
     y1="183"
     y2="183"
     id="line218" />
  <line
     fill="#000000"
     stroke="#000000"
     stroke-width="1"
     x1="197"
     x2="192"
     y1="183"
     y2="183"
     id="line220" />
  <line
     fill="#000000"
     stroke="#000000"
     stroke-width="1"
     x1="187"
     x2="182"
     y1="183"
     y2="183"
     id="line222" />
  <line
     fill="#000000"
     stroke="#000000"
     stroke-width="1"
     x1="177"
     x2="172"
     y1="183"
     y2="183"
     id="line224" />
  <line
     fill="#000000"
     stroke="#000000"
     stroke-width="1"
     x1="167"
     x2="162"
     y1="183"
     y2="183"
     id="line226" />
  <line
     fill="#000000"
     stroke="#000000"
     stroke-width="1"
     x1="157"
     x2="152"
     y1="183"
     y2="183"
     id="line228" />
  <line
     fill="#000000"
     stroke="#000000"
     stroke-width="1"
     x1="147"
     x2="142"
     y1="183"
     y2="183"
     id="line230" />
  <line
     fill="#000000"
     stroke="#000000"
     stroke-width="1"
     x1="137"
     x2="132"
     y1="183"
     y2="183"
     id="line232" />
  <line
     fill="#000000"
     stroke="#000000"
     stroke-width="1"
     x1="127"
     x2="122"
     y1="183"
     y2="183"
     id="line234" />
  <line
     fill="#000000"
     stroke="#000000"
     stroke-width="1"
     x1="117"
     x2="112"
     y1="183"
     y2="183"
     id="line236" />
  <line
     fill="#000000"
     stroke="#000000"
     stroke-width="1"
     x1="107"
     x2="102"
     y1="183"
     y2="183"
     id="line238" />
  <line
     fill="#000000"
     stroke="#000000"
     stroke-width="1"
     x1="97"
     x2="92"
     y1="183"
     y2="183"
     id="line240" />
  <line
     fill="#000000"
     stroke="#000000"
     stroke-width="1"
     x1="100"
     x2="88"
     y1="176"
     y2="183"
     id="line242" />
  <line
     fill="#000000"
     stroke="#000000"
     stroke-width="1"
     x1="100"
     x2="88"
     y1="190"
     y2="183"
     id="line244" />
  <text
     font-family="Lucida Grande"
     font-size="13"
     x="246"
     y="178"
     id="text246">
msg:reservations[]</text>
  <polyline
     fill="none"
     points="88,231 527,231"
     stroke="#000000"
     stroke-width="1"
     id="polyline248" />
  <polygon
     fill="#000000"
     points="527,231 515,238 515,224"
     stroke="#000000"
     stroke-width="1"
     id="polygon250" />
  <polygon
     fill="none"
     points="527,231 515,238 515,224"
     stroke="#000000"
     stroke-width="1"
     id="polygon252" />
  <text
     font-family="Lucida Grande"
     font-size="13"
     x="242"
     y="226"
     id="text254">
deferReservation(reservation)</text>
  <line
     fill="#000000"
     stroke="#000000"
     stroke-width="1"
     x1="527"
     x2="522"
     y1="335"
     y2="335"
     id="line256" />
  <line
     fill="#000000"
     stroke="#000000"
     stroke-width="1"
     x1="517"
     x2="512"
     y1="335"
     y2="335"
     id="line258" />
  <line
     fill="#000000"
     stroke="#000000"
     stroke-width="1"
     x1="507"
     x2="502"
     y1="335"
     y2="335"
     id="line260" />
  <line
     fill="#000000"
     stroke="#000000"
     stroke-width="1"
     x1="497"
     x2="492"
     y1="335"
     y2="335"
     id="line262" />
  <line
     fill="#000000"
     stroke="#000000"
     stroke-width="1"
     x1="487"
     x2="482"
     y1="335"
     y2="335"
     id="line264" />
  <line
     fill="#000000"
     stroke="#000000"
     stroke-width="1"
     x1="477"
     x2="472"
     y1="335"
     y2="335"
     id="line266" />
  <line
     fill="#000000"
     stroke="#000000"
     stroke-width="1"
     x1="467"
     x2="462"
     y1="335"
     y2="335"
     id="line268" />
  <line
     fill="#000000"
     stroke="#000000"
     stroke-width="1"
     x1="457"
     x2="452"
     y1="335"
     y2="335"
     id="line270" />
  <line
     fill="#000000"
     stroke="#000000"
     stroke-width="1"
     x1="447"
     x2="442"
     y1="335"
     y2="335"
     id="line272" />
  <line
     fill="#000000"
     stroke="#000000"
     stroke-width="1"
     x1="437"
     x2="432"
     y1="335"
     y2="335"
     id="line274" />
  <line
     fill="#000000"
     stroke="#000000"
     stroke-width="1"
     x1="427"
     x2="422"
     y1="335"
     y2="335"
     id="line276" />
  <line
     fill="#000000"
     stroke="#000000"
     stroke-width="1"
     x1="417"
     x2="412"
     y1="335"
     y2="335"
     id="line278" />
  <line
     fill="#000000"
     stroke="#000000"
     stroke-width="1"
     x1="407"
     x2="402"
     y1="335"
     y2="335"
     id="line280" />
  <line
     fill="#000000"
     stroke="#000000"
     stroke-width="1"
     x1="397"
     x2="392"
     y1="335"
     y2="335"
     id="line282" />
  <line
     fill="#000000"
     stroke="#000000"
     stroke-width="1"
     x1="387"
     x2="382"
     y1="335"
     y2="335"
     id="line284" />
  <line
     fill="#000000"
     stroke="#000000"
     stroke-width="1"
     x1="377"
     x2="372"
     y1="335"
     y2="335"
     id="line286" />
  <line
     fill="#000000"
     stroke="#000000"
     stroke-width="1"
     x1="367"
     x2="362"
     y1="335"
     y2="335"
     id="line288" />
  <line
     fill="#000000"
     stroke="#000000"
     stroke-width="1"
     x1="357"
     x2="352"
     y1="335"
     y2="335"
     id="line290" />
  <line
     fill="#000000"
     stroke="#000000"
     stroke-width="1"
     x1="347"
     x2="342"
     y1="335"
     y2="335"
     id="line292" />
  <line
     fill="#000000"
     stroke="#000000"
     stroke-width="1"
     x1="337"
     x2="332"
     y1="335"
     y2="335"
     id="line294" />
  <line
     fill="#000000"
     stroke="#000000"
     stroke-width="1"
     x1="327"
     x2="322"
     y1="335"
     y2="335"
     id="line296" />
  <line
     fill="#000000"
     stroke="#000000"
     stroke-width="1"
     x1="317"
     x2="312"
     y1="335"
     y2="335"
     id="line298" />
  <line
     fill="#000000"
     stroke="#000000"
     stroke-width="1"
     x1="307"
     x2="302"
     y1="335"
     y2="335"
     id="line300" />
  <line
     fill="#000000"
     stroke="#000000"
     stroke-width="1"
     x1="297"
     x2="292"
     y1="335"
     y2="335"
     id="line302" />
  <line
     fill="#000000"
     stroke="#000000"
     stroke-width="1"
     x1="287"
     x2="282"
     y1="335"
     y2="335"
     id="line304" />
  <line
     fill="#000000"
     stroke="#000000"
     stroke-width="1"
     x1="277"
     x2="272"
     y1="335"
     y2="335"
     id="line306" />
  <line
     fill="#000000"
     stroke="#000000"
     stroke-width="1"
     x1="267"
     x2="262"
     y1="335"
     y2="335"
     id="line308" />
  <line
     fill="#000000"
     stroke="#000000"
     stroke-width="1"
     x1="257"
     x2="252"
     y1="335"
     y2="335"
     id="line310" />
  <line
     fill="#000000"
     stroke="#000000"
     stroke-width="1"
     x1="247"
     x2="242"
     y1="335"
     y2="335"
     id="line312" />
  <line
     fill="#000000"
     stroke="#000000"
     stroke-width="1"
     x1="237"
     x2="232"
     y1="335"
     y2="335"
     id="line314" />
  <line
     fill="#000000"
     stroke="#000000"
     stroke-width="1"
     x1="227"
     x2="222"
     y1="335"
     y2="335"
     id="line316" />
  <line
     fill="#000000"
     stroke="#000000"
     stroke-width="1"
     x1="217"
     x2="212"
     y1="335"
     y2="335"
     id="line318" />
  <line
     fill="#000000"
     stroke="#000000"
     stroke-width="1"
     x1="207"
     x2="202"
     y1="335"
     y2="335"
     id="line320" />
  <line
     fill="#000000"
     stroke="#000000"
     stroke-width="1"
     x1="197"
     x2="192"
     y1="335"
     y2="335"
     id="line322" />
  <line
     fill="#000000"
     stroke="#000000"
     stroke-width="1"
     x1="187"
     x2="182"
     y1="335"
     y2="335"
     id="line324" />
  <line
     fill="#000000"
     stroke="#000000"
     stroke-width="1"
     x1="177"
     x2="172"
     y1="335"
     y2="335"
     id="line326" />
  <line
     fill="#000000"
     stroke="#000000"
     stroke-width="1"
     x1="167"
     x2="162"
     y1="335"
     y2="335"
     id="line328" />
  <line
     fill="#000000"
     stroke="#000000"
     stroke-width="1"
     x1="157"
     x2="152"
     y1="335"
     y2="335"
     id="line330" />
  <line
     fill="#000000"
     stroke="#000000"
     stroke-width="1"
     x1="147"
     x2="142"
     y1="335"
     y2="335"
     id="line332" />
  <line
     fill="#000000"
     stroke="#000000"
     stroke-width="1"
     x1="137"
     x2="132"
     y1="335"
     y2="335"
     id="line334" />
  <line
     fill="#000000"
     stroke="#000000"
     stroke-width="1"
     x1="127"
     x2="122"
     y1="335"
     y2="335"
     id="line336" />
  <line
     fill="#000000"
     stroke="#000000"
     stroke-width="1"
     x1="117"
     x2="112"
     y1="335"
     y2="335"
     id="line338" />
  <line
     fill="#000000"
     stroke="#000000"
     stroke-width="1"
     x1="107"
     x2="102"
     y1="335"
     y2="335"
     id="line340" />
  <line
     fill="#000000"
     stroke="#000000"
     stroke-width="1"
     x1="97"
     x2="92"
     y1="335"
     y2="335"
     id="line342" />
  <line
     fill="#000000"
     stroke="#000000"
     stroke-width="1"
     x1="100"
     x2="88"
     y1="328"
     y2="335"
     id="line344" />
  <line
     fill="#000000"
     stroke="#000000"
     stroke-width="1"
     x1="100"
     x2="88"
     y1="342"
     y2="335"
     id="line346" />
  <text
     font-family="Lucida Grande"
     font-size="13"
     x="239"
     y="330"
     id="text348">
notify()</text>
  <polyline
     fill="none"
     points="88,287 527,287"
     stroke="#000000"
     stroke-width="1"
     id="polyline350" />
  <line
     fill="#000000"
     stroke="#000000"
     stroke-width="1"
     x1="515"
     x2="527"
     y1="294"
     y2="287"
     id="line352" />
  <line
     fill="#000000"
     stroke="#000000"
     stroke-width="1"
     x1="515"
     x2="527"
     y1="280"
     y2="287"
     id="line354" />
  <text
     font-family="Lucida Grande"
     font-size="13"
     x="181"
     y="282"
     id="text356">
tutorCredentials (tutorName, tutorPassword)</text>
  <g
     transform="translate(-13.79164,114.22603)"
     id="g5621">
    <g
       id="g4228">
      <g
         id="g4222"
         transform="matrix(0.96581898,0,0,1,1.8763752,-6)">
        <rect
           id="rect136-6"
           y="137.27121"
           x="54.895237"
           width="547.98126"
           height="68.747635"
           style="fill:none;stroke:#000000;stroke-width:1.01754153" />
        <g
           id="g4218">
          <path
             style="fill:#ffffff;stroke:#000000;stroke-width:0.91578734;stroke-miterlimit:4"
             d="m 123.84761,143.79644 0,-6.42144 -68.41011,0 0,25.20416 50.01172,0 18.39839,-18.78272 z"
             id="path4188"
             inkscape:connector-curvature="0" />
          <text
             style="font-size:13px;font-family:Lucida Grande"
             font-size="13"
             x="77.310432"
             y="154.1115"
             id="text138-5">Opt</text>
        </g>
      </g>
      <text
         style="font-size:8.93027401px;font-family:Lucida Grande"
         font-size="13"
         x="58.07444"
         y="166.37183"
         id="text138-2">[isMinorenne == true]</text>
    </g>
  </g>
</svg>
