<?xml version="1.0" encoding="utf-8" ?>
<!DOCTYPE svg PUBLIC "-//W3C//DTD SVG 1.1//EN" "http://www.w3.org/Graphics/SVG/1.1/DTD/svg11.dtd">
<svg height="200" version="1.1" width="508" xmlns="http://www.w3.org/2000/svg">
<line fill="#000000" stroke="#000000" stroke-width="1" x1="422" x2="422" y1="63" y2="68"/>
<line fill="#000000" stroke="#000000" stroke-width="1" x1="422" x2="422" y1="73" y2="78"/>
<line fill="#000000" stroke="#000000" stroke-width="1" x1="422" x2="422" y1="83" y2="88"/>
<line fill="#000000" stroke="#000000" stroke-width="1" x1="422" x2="422" y1="93" y2="98"/>
<line fill="#000000" stroke="#000000" stroke-width="1" x1="422" x2="422" y1="103" y2="108"/>
<line fill="#000000" stroke="#000000" stroke-width="1" x1="422" x2="422" y1="113" y2="118"/>
<line fill="#000000" stroke="#000000" stroke-width="1" x1="422" x2="422" y1="123" y2="128"/>
<line fill="#000000" stroke="#000000" stroke-width="1" x1="422" x2="422" y1="133" y2="138"/>
<line fill="#000000" stroke="#000000" stroke-width="1" x1="422" x2="422" y1="143" y2="148"/>
<line fill="#000000" stroke="#000000" stroke-width="1" x1="422" x2="422" y1="153" y2="158"/>
<line fill="#000000" stroke="#000000" stroke-width="1" x1="422" x2="422" y1="163" y2="168"/>
<line fill="#000000" stroke="#000000" stroke-width="1" x1="422" x2="422" y1="173" y2="178"/>
<line fill="#000000" stroke="#000000" stroke-width="1" x1="422" x2="422" y1="183" y2="185"/>
<rect fill="#ffffff" height="56" stroke="#ffffff" stroke-width="1" width="20" x="412" y="115"/>
<rect fill="none" height="56" stroke="#000000" stroke-width="1" width="20" x="412" y="115"/>
<rect fill="#ffffff" height="50" stroke="#ffffff" stroke-width="1" width="144" x="350" y="14"/>
<rect fill="none" height="50" stroke="#000000" stroke-width="1" width="144" x="350" y="14"/>
<text font-family="Dialog" font-size="13" x="395" y="28">
:System</text>
<line fill="#000000" stroke="#000000" stroke-width="1" x1="78" x2="78" y1="63" y2="68"/>
<line fill="#000000" stroke="#000000" stroke-width="1" x1="78" x2="78" y1="73" y2="78"/>
<line fill="#000000" stroke="#000000" stroke-width="1" x1="78" x2="78" y1="83" y2="88"/>
<line fill="#000000" stroke="#000000" stroke-width="1" x1="78" x2="78" y1="93" y2="98"/>
<line fill="#000000" stroke="#000000" stroke-width="1" x1="78" x2="78" y1="103" y2="108"/>
<line fill="#000000" stroke="#000000" stroke-width="1" x1="78" x2="78" y1="113" y2="118"/>
<line fill="#000000" stroke="#000000" stroke-width="1" x1="78" x2="78" y1="123" y2="128"/>
<line fill="#000000" stroke="#000000" stroke-width="1" x1="78" x2="78" y1="133" y2="138"/>
<line fill="#000000" stroke="#000000" stroke-width="1" x1="78" x2="78" y1="143" y2="148"/>
<line fill="#000000" stroke="#000000" stroke-width="1" x1="78" x2="78" y1="153" y2="158"/>
<line fill="#000000" stroke="#000000" stroke-width="1" x1="78" x2="78" y1="163" y2="168"/>
<line fill="#000000" stroke="#000000" stroke-width="1" x1="78" x2="78" y1="173" y2="178"/>
<line fill="#000000" stroke="#000000" stroke-width="1" x1="78" x2="78" y1="183" y2="185"/>
<rect fill="#ffffff" height="122" stroke="#ffffff" stroke-width="1" width="20" x="68" y="63"/>
<rect fill="none" height="122" stroke="#000000" stroke-width="1" width="20" x="68" y="63"/>
<rect fill="#ffffff" height="50" stroke="#ffffff" stroke-width="1" width="128" x="14" y="14"/>
<rect fill="none" height="50" stroke="#000000" stroke-width="1" width="128" x="14" y="14"/>
<text font-family="Dialog" font-size="13" x="54" y="49">
/Utente</text>
<text font-family="Dialog" font-size="13" x="39" y="28">
&lt;&lt;actor&gt;&gt;</text>
<polyline fill="none" points="88,115 412,115" stroke="#000000" stroke-width="1"/>
<polygon fill="#000000" points="412,115 400,122 400,108" stroke="#000000" stroke-width="1"/>
<polygon fill="none" points="412,115 400,122 400,108" stroke="#000000" stroke-width="1"/>
<text font-family="Dialog" font-size="13" x="187" y="109">
fetchReport()</text>
<line fill="#000000" stroke="#000000" stroke-width="1" x1="412" x2="407" y1="171" y2="171"/>
<line fill="#000000" stroke="#000000" stroke-width="1" x1="402" x2="397" y1="171" y2="171"/>
<line fill="#000000" stroke="#000000" stroke-width="1" x1="392" x2="387" y1="171" y2="171"/>
<line fill="#000000" stroke="#000000" stroke-width="1" x1="382" x2="377" y1="171" y2="171"/>
<line fill="#000000" stroke="#000000" stroke-width="1" x1="372" x2="367" y1="171" y2="171"/>
<line fill="#000000" stroke="#000000" stroke-width="1" x1="362" x2="357" y1="171" y2="171"/>
<line fill="#000000" stroke="#000000" stroke-width="1" x1="352" x2="347" y1="171" y2="171"/>
<line fill="#000000" stroke="#000000" stroke-width="1" x1="342" x2="337" y1="171" y2="171"/>
<line fill="#000000" stroke="#000000" stroke-width="1" x1="332" x2="327" y1="171" y2="171"/>
<line fill="#000000" stroke="#000000" stroke-width="1" x1="322" x2="317" y1="171" y2="171"/>
<line fill="#000000" stroke="#000000" stroke-width="1" x1="312" x2="307" y1="171" y2="171"/>
<line fill="#000000" stroke="#000000" stroke-width="1" x1="302" x2="297" y1="171" y2="171"/>
<line fill="#000000" stroke="#000000" stroke-width="1" x1="292" x2="287" y1="171" y2="171"/>
<line fill="#000000" stroke="#000000" stroke-width="1" x1="282" x2="277" y1="171" y2="171"/>
<line fill="#000000" stroke="#000000" stroke-width="1" x1="272" x2="267" y1="171" y2="171"/>
<line fill="#000000" stroke="#000000" stroke-width="1" x1="262" x2="257" y1="171" y2="171"/>
<line fill="#000000" stroke="#000000" stroke-width="1" x1="252" x2="247" y1="171" y2="171"/>
<line fill="#000000" stroke="#000000" stroke-width="1" x1="242" x2="237" y1="171" y2="171"/>
<line fill="#000000" stroke="#000000" stroke-width="1" x1="232" x2="227" y1="171" y2="171"/>
<line fill="#000000" stroke="#000000" stroke-width="1" x1="222" x2="217" y1="171" y2="171"/>
<line fill="#000000" stroke="#000000" stroke-width="1" x1="212" x2="207" y1="171" y2="171"/>
<line fill="#000000" stroke="#000000" stroke-width="1" x1="202" x2="197" y1="171" y2="171"/>
<line fill="#000000" stroke="#000000" stroke-width="1" x1="192" x2="187" y1="171" y2="171"/>
<line fill="#000000" stroke="#000000" stroke-width="1" x1="182" x2="177" y1="171" y2="171"/>
<line fill="#000000" stroke="#000000" stroke-width="1" x1="172" x2="167" y1="171" y2="171"/>
<line fill="#000000" stroke="#000000" stroke-width="1" x1="162" x2="157" y1="171" y2="171"/>
<line fill="#000000" stroke="#000000" stroke-width="1" x1="152" x2="147" y1="171" y2="171"/>
<line fill="#000000" stroke="#000000" stroke-width="1" x1="142" x2="137" y1="171" y2="171"/>
<line fill="#000000" stroke="#000000" stroke-width="1" x1="132" x2="127" y1="171" y2="171"/>
<line fill="#000000" stroke="#000000" stroke-width="1" x1="122" x2="117" y1="171" y2="171"/>
<line fill="#000000" stroke="#000000" stroke-width="1" x1="112" x2="107" y1="171" y2="171"/>
<line fill="#000000" stroke="#000000" stroke-width="1" x1="102" x2="97" y1="171" y2="171"/>
<line fill="#000000" stroke="#000000" stroke-width="1" x1="92" x2="88" y1="171" y2="171"/>
<line fill="#000000" stroke="#000000" stroke-width="1" x1="100" x2="88" y1="164" y2="171"/>
<line fill="#000000" stroke="#000000" stroke-width="1" x1="100" x2="88" y1="178" y2="171"/>
<text font-family="Dialog" font-size="13" x="198" y="165">
msg:reports[]</text>
</svg>
