<?xml version="1.0" encoding="UTF-8" standalone="no"?>
<svg
   xmlns:dc="http://purl.org/dc/elements/1.1/"
   xmlns:cc="http://creativecommons.org/ns#"
   xmlns:rdf="http://www.w3.org/1999/02/22-rdf-syntax-ns#"
   xmlns:svg="http://www.w3.org/2000/svg"
   xmlns="http://www.w3.org/2000/svg"
   xmlns:sodipodi="http://sodipodi.sourceforge.net/DTD/sodipodi-0.dtd"
   xmlns:inkscape="http://www.inkscape.org/namespaces/inkscape"
   height="356"
   version="1.1"
   width="650"
   id="svg2"
   inkscape:version="0.48.2 r9819"
   sodipodi:docname="Stampa.svg">
  <metadata
     id="metadata374">
    <rdf:RDF>
      <cc:Work
         rdf:about="">
        <dc:format>image/svg+xml</dc:format>
        <dc:type
           rdf:resource="http://purl.org/dc/dcmitype/StillImage" />
      </cc:Work>
    </rdf:RDF>
  </metadata>
  <defs
     id="defs372" />
  <sodipodi:namedview
     pagecolor="#ffffff"
     bordercolor="#666666"
     borderopacity="1"
     objecttolerance="10"
     gridtolerance="10"
     guidetolerance="10"
     inkscape:pageopacity="0"
     inkscape:pageshadow="2"
     inkscape:window-width="1280"
     inkscape:window-height="746"
     id="namedview370"
     showgrid="false"
     inkscape:zoom="1.653542"
     inkscape:cx="352.70374"
     inkscape:cy="162.83181"
     inkscape:window-x="0"
     inkscape:window-y="26"
     inkscape:window-maximized="1"
     inkscape:current-layer="svg2" />
  <line
     fill="#000000"
     stroke="#000000"
     stroke-width="1"
     x1="561"
     x2="561"
     y1="63"
     y2="68"
     id="line4" />
  <line
     fill="#000000"
     stroke="#000000"
     stroke-width="1"
     x1="561"
     x2="561"
     y1="73"
     y2="78"
     id="line6" />
  <line
     fill="#000000"
     stroke="#000000"
     stroke-width="1"
     x1="561"
     x2="561"
     y1="83"
     y2="88"
     id="line8" />
  <line
     fill="#000000"
     stroke="#000000"
     stroke-width="1"
     x1="561"
     x2="561"
     y1="93"
     y2="98"
     id="line10" />
  <line
     fill="#000000"
     stroke="#000000"
     stroke-width="1"
     x1="561"
     x2="561"
     y1="103"
     y2="108"
     id="line12" />
  <line
     fill="#000000"
     stroke="#000000"
     stroke-width="1"
     x1="561"
     x2="561"
     y1="113"
     y2="118"
     id="line14" />
  <line
     fill="#000000"
     stroke="#000000"
     stroke-width="1"
     x1="561"
     x2="561"
     y1="123"
     y2="128"
     id="line16" />
  <line
     fill="#000000"
     stroke="#000000"
     stroke-width="1"
     x1="561"
     x2="561"
     y1="133"
     y2="138"
     id="line18" />
  <line
     fill="#000000"
     stroke="#000000"
     stroke-width="1"
     x1="561"
     x2="561"
     y1="143"
     y2="148"
     id="line20" />
  <line
     fill="#000000"
     stroke="#000000"
     stroke-width="1"
     x1="561"
     x2="561"
     y1="153"
     y2="158"
     id="line22" />
  <line
     fill="#000000"
     stroke="#000000"
     stroke-width="1"
     x1="561"
     x2="561"
     y1="163"
     y2="168"
     id="line24" />
  <line
     fill="#000000"
     stroke="#000000"
     stroke-width="1"
     x1="561"
     x2="561"
     y1="173"
     y2="178"
     id="line26" />
  <line
     fill="#000000"
     stroke="#000000"
     stroke-width="1"
     x1="561"
     x2="561"
     y1="183"
     y2="188"
     id="line28" />
  <line
     fill="#000000"
     stroke="#000000"
     stroke-width="1"
     x1="561"
     x2="561"
     y1="193"
     y2="198"
     id="line30" />
  <line
     fill="#000000"
     stroke="#000000"
     stroke-width="1"
     x1="561"
     x2="561"
     y1="203"
     y2="208"
     id="line32" />
  <line
     fill="#000000"
     stroke="#000000"
     stroke-width="1"
     x1="561"
     x2="561"
     y1="213"
     y2="218"
     id="line34" />
  <line
     fill="#000000"
     stroke="#000000"
     stroke-width="1"
     x1="561"
     x2="561"
     y1="223"
     y2="228"
     id="line36" />
  <line
     fill="#000000"
     stroke="#000000"
     stroke-width="1"
     x1="561"
     x2="561"
     y1="233"
     y2="238"
     id="line38" />
  <line
     fill="#000000"
     stroke="#000000"
     stroke-width="1"
     x1="561"
     x2="561"
     y1="243"
     y2="248"
     id="line40" />
  <line
     fill="#000000"
     stroke="#000000"
     stroke-width="1"
     x1="561"
     x2="561"
     y1="253"
     y2="258"
     id="line42" />
  <line
     fill="#000000"
     stroke="#000000"
     stroke-width="1"
     x1="561"
     x2="561"
     y1="263"
     y2="268"
     id="line44" />
  <line
     fill="#000000"
     stroke="#000000"
     stroke-width="1"
     x1="561"
     x2="561"
     y1="273"
     y2="278"
     id="line46" />
  <line
     fill="#000000"
     stroke="#000000"
     stroke-width="1"
     x1="561"
     x2="561"
     y1="283"
     y2="288"
     id="line48" />
  <line
     fill="#000000"
     stroke="#000000"
     stroke-width="1"
     x1="561"
     x2="561"
     y1="293"
     y2="298"
     id="line50" />
  <line
     fill="#000000"
     stroke="#000000"
     stroke-width="1"
     x1="561"
     x2="561"
     y1="303"
     y2="308"
     id="line52" />
  <line
     fill="#000000"
     stroke="#000000"
     stroke-width="1"
     x1="561"
     x2="561"
     y1="313"
     y2="318"
     id="line54" />
  <line
     fill="#000000"
     stroke="#000000"
     stroke-width="1"
     x1="561"
     x2="561"
     y1="323"
     y2="328"
     id="line56" />
  <line
     fill="#000000"
     stroke="#000000"
     stroke-width="1"
     x1="561"
     x2="561"
     y1="333"
     y2="338"
     id="line58" />
  <rect
     fill="#ffffff"
     height="120"
     stroke="#ffffff"
     stroke-width="1"
     width="20"
     x="551"
     y="120"
     id="rect60" />
  <rect
     fill="none"
     height="120"
     stroke="#000000"
     stroke-width="1"
     width="20"
     x="551"
     y="120"
     id="rect62" />
  <rect
     fill="#ffffff"
     height="50"
     stroke="#ffffff"
     stroke-width="1"
     width="20"
     x="551"
     y="288"
     id="rect64" />
  <rect
     fill="none"
     height="50"
     stroke="#000000"
     stroke-width="1"
     width="20"
     x="551"
     y="288"
     id="rect66" />
  <rect
     fill="#ffffff"
     height="50"
     stroke="#ffffff"
     stroke-width="1"
     width="150"
     x="486"
     y="14"
     id="rect68" />
  <rect
     fill="none"
     height="50"
     stroke="#000000"
     stroke-width="1"
     width="150"
     x="486"
     y="14"
     id="rect70" />
  <text
     font-family="Lucida Grande"
     font-size="13"
     x="536"
     y="28"
     id="text72">
:System</text>
  <line
     fill="#000000"
     stroke="#000000"
     stroke-width="1"
     x1="86"
     x2="86"
     y1="63"
     y2="68"
     id="line74" />
  <line
     fill="#000000"
     stroke="#000000"
     stroke-width="1"
     x1="86"
     x2="86"
     y1="73"
     y2="78"
     id="line76" />
  <line
     fill="#000000"
     stroke="#000000"
     stroke-width="1"
     x1="86"
     x2="86"
     y1="83"
     y2="88"
     id="line78" />
  <line
     fill="#000000"
     stroke="#000000"
     stroke-width="1"
     x1="86"
     x2="86"
     y1="93"
     y2="98"
     id="line80" />
  <line
     fill="#000000"
     stroke="#000000"
     stroke-width="1"
     x1="86"
     x2="86"
     y1="103"
     y2="108"
     id="line82" />
  <line
     fill="#000000"
     stroke="#000000"
     stroke-width="1"
     x1="86"
     x2="86"
     y1="113"
     y2="118"
     id="line84" />
  <line
     fill="#000000"
     stroke="#000000"
     stroke-width="1"
     x1="86"
     x2="86"
     y1="123"
     y2="128"
     id="line86" />
  <line
     fill="#000000"
     stroke="#000000"
     stroke-width="1"
     x1="86"
     x2="86"
     y1="133"
     y2="138"
     id="line88" />
  <line
     fill="#000000"
     stroke="#000000"
     stroke-width="1"
     x1="86"
     x2="86"
     y1="143"
     y2="148"
     id="line90" />
  <line
     fill="#000000"
     stroke="#000000"
     stroke-width="1"
     x1="86"
     x2="86"
     y1="153"
     y2="158"
     id="line92" />
  <line
     fill="#000000"
     stroke="#000000"
     stroke-width="1"
     x1="86"
     x2="86"
     y1="163"
     y2="168"
     id="line94" />
  <line
     fill="#000000"
     stroke="#000000"
     stroke-width="1"
     x1="86"
     x2="86"
     y1="173"
     y2="178"
     id="line96" />
  <line
     fill="#000000"
     stroke="#000000"
     stroke-width="1"
     x1="86"
     x2="86"
     y1="183"
     y2="188"
     id="line98" />
  <line
     fill="#000000"
     stroke="#000000"
     stroke-width="1"
     x1="86"
     x2="86"
     y1="193"
     y2="198"
     id="line100" />
  <line
     fill="#000000"
     stroke="#000000"
     stroke-width="1"
     x1="86"
     x2="86"
     y1="203"
     y2="208"
     id="line102" />
  <line
     fill="#000000"
     stroke="#000000"
     stroke-width="1"
     x1="86"
     x2="86"
     y1="213"
     y2="218"
     id="line104" />
  <line
     fill="#000000"
     stroke="#000000"
     stroke-width="1"
     x1="86"
     x2="86"
     y1="223"
     y2="228"
     id="line106" />
  <line
     fill="#000000"
     stroke="#000000"
     stroke-width="1"
     x1="86"
     x2="86"
     y1="233"
     y2="238"
     id="line108" />
  <line
     fill="#000000"
     stroke="#000000"
     stroke-width="1"
     x1="86"
     x2="86"
     y1="243"
     y2="248"
     id="line110" />
  <line
     fill="#000000"
     stroke="#000000"
     stroke-width="1"
     x1="86"
     x2="86"
     y1="253"
     y2="258"
     id="line112" />
  <line
     fill="#000000"
     stroke="#000000"
     stroke-width="1"
     x1="86"
     x2="86"
     y1="263"
     y2="268"
     id="line114" />
  <line
     fill="#000000"
     stroke="#000000"
     stroke-width="1"
     x1="86"
     x2="86"
     y1="273"
     y2="278"
     id="line116" />
  <line
     fill="#000000"
     stroke="#000000"
     stroke-width="1"
     x1="86"
     x2="86"
     y1="283"
     y2="288"
     id="line118" />
  <line
     fill="#000000"
     stroke="#000000"
     stroke-width="1"
     x1="86"
     x2="86"
     y1="293"
     y2="298"
     id="line120" />
  <line
     fill="#000000"
     stroke="#000000"
     stroke-width="1"
     x1="86"
     x2="86"
     y1="303"
     y2="308"
     id="line122" />
  <line
     fill="#000000"
     stroke="#000000"
     stroke-width="1"
     x1="86"
     x2="86"
     y1="313"
     y2="318"
     id="line124" />
  <line
     fill="#000000"
     stroke="#000000"
     stroke-width="1"
     x1="86"
     x2="86"
     y1="323"
     y2="328"
     id="line126" />
  <line
     fill="#000000"
     stroke="#000000"
     stroke-width="1"
     x1="86"
     x2="86"
     y1="333"
     y2="338"
     id="line128" />
  <rect
     fill="#ffffff"
     height="278"
     stroke="#ffffff"
     stroke-width="1"
     width="20"
     x="76"
     y="63"
     id="rect130" />
  <rect
     fill="none"
     height="278"
     stroke="#000000"
     stroke-width="1"
     width="20"
     x="76"
     y="63"
     id="rect132" />
  <rect
     fill="none"
     height="50"
     stroke="#000000"
     stroke-width="1"
     width="144"
     x="14"
     y="14"
     id="rect136" />
  <text
     font-family="Lucida Grande"
     font-size="13"
     x="56"
     y="48"
     id="text138">
/Paziente</text>
  <text
     font-family="Lucida Grande"
     font-size="13"
     x="50"
     y="28"
     id="text140">
&lt;&lt;actor&gt;&gt;</text>
  <polyline
     fill="none"
     points="96,120 551,120"
     stroke="#000000"
     stroke-width="1"
     id="polyline142" />
  <polygon
     fill="#000000"
     points="551,120 539,127 539,113"
     stroke="#000000"
     stroke-width="1"
     id="polygon144" />
  <polygon
     fill="none"
     points="551,120 539,127 539,113"
     stroke="#000000"
     stroke-width="1"
     id="polygon146" />
  <text
     font-size="13"
     x="239"
     y="115"
     id="text148"
     style="font-size:13px;font-family:Lucida Grande">fetchReservation() or/and fetchReport()</text>
  <line
     fill="#000000"
     stroke="#000000"
     stroke-width="1"
     x1="551"
     x2="546"
     y1="240"
     y2="240"
     id="line150" />
  <line
     fill="#000000"
     stroke="#000000"
     stroke-width="1"
     x1="541"
     x2="536"
     y1="240"
     y2="240"
     id="line152" />
  <line
     fill="#000000"
     stroke="#000000"
     stroke-width="1"
     x1="531"
     x2="526"
     y1="240"
     y2="240"
     id="line154" />
  <line
     fill="#000000"
     stroke="#000000"
     stroke-width="1"
     x1="521"
     x2="516"
     y1="240"
     y2="240"
     id="line156" />
  <line
     fill="#000000"
     stroke="#000000"
     stroke-width="1"
     x1="511"
     x2="506"
     y1="240"
     y2="240"
     id="line158" />
  <line
     fill="#000000"
     stroke="#000000"
     stroke-width="1"
     x1="501"
     x2="496"
     y1="240"
     y2="240"
     id="line160" />
  <line
     fill="#000000"
     stroke="#000000"
     stroke-width="1"
     x1="491"
     x2="486"
     y1="240"
     y2="240"
     id="line162" />
  <line
     fill="#000000"
     stroke="#000000"
     stroke-width="1"
     x1="481"
     x2="476"
     y1="240"
     y2="240"
     id="line164" />
  <line
     fill="#000000"
     stroke="#000000"
     stroke-width="1"
     x1="471"
     x2="466"
     y1="240"
     y2="240"
     id="line166" />
  <line
     fill="#000000"
     stroke="#000000"
     stroke-width="1"
     x1="461"
     x2="456"
     y1="240"
     y2="240"
     id="line168" />
  <line
     fill="#000000"
     stroke="#000000"
     stroke-width="1"
     x1="451"
     x2="446"
     y1="240"
     y2="240"
     id="line170" />
  <line
     fill="#000000"
     stroke="#000000"
     stroke-width="1"
     x1="441"
     x2="436"
     y1="240"
     y2="240"
     id="line172" />
  <line
     fill="#000000"
     stroke="#000000"
     stroke-width="1"
     x1="431"
     x2="426"
     y1="240"
     y2="240"
     id="line174" />
  <line
     fill="#000000"
     stroke="#000000"
     stroke-width="1"
     x1="421"
     x2="416"
     y1="240"
     y2="240"
     id="line176" />
  <line
     fill="#000000"
     stroke="#000000"
     stroke-width="1"
     x1="411"
     x2="406"
     y1="240"
     y2="240"
     id="line178" />
  <line
     fill="#000000"
     stroke="#000000"
     stroke-width="1"
     x1="401"
     x2="396"
     y1="240"
     y2="240"
     id="line180" />
  <line
     fill="#000000"
     stroke="#000000"
     stroke-width="1"
     x1="391"
     x2="386"
     y1="240"
     y2="240"
     id="line182" />
  <line
     fill="#000000"
     stroke="#000000"
     stroke-width="1"
     x1="381"
     x2="376"
     y1="240"
     y2="240"
     id="line184" />
  <line
     fill="#000000"
     stroke="#000000"
     stroke-width="1"
     x1="371"
     x2="366"
     y1="240"
     y2="240"
     id="line186" />
  <line
     fill="#000000"
     stroke="#000000"
     stroke-width="1"
     x1="361"
     x2="356"
     y1="240"
     y2="240"
     id="line188" />
  <line
     fill="#000000"
     stroke="#000000"
     stroke-width="1"
     x1="351"
     x2="346"
     y1="240"
     y2="240"
     id="line190" />
  <line
     fill="#000000"
     stroke="#000000"
     stroke-width="1"
     x1="341"
     x2="336"
     y1="240"
     y2="240"
     id="line192" />
  <line
     fill="#000000"
     stroke="#000000"
     stroke-width="1"
     x1="331"
     x2="326"
     y1="240"
     y2="240"
     id="line194" />
  <line
     fill="#000000"
     stroke="#000000"
     stroke-width="1"
     x1="321"
     x2="316"
     y1="240"
     y2="240"
     id="line196" />
  <line
     fill="#000000"
     stroke="#000000"
     stroke-width="1"
     x1="311"
     x2="306"
     y1="240"
     y2="240"
     id="line198" />
  <line
     fill="#000000"
     stroke="#000000"
     stroke-width="1"
     x1="301"
     x2="296"
     y1="240"
     y2="240"
     id="line200" />
  <line
     fill="#000000"
     stroke="#000000"
     stroke-width="1"
     x1="291"
     x2="286"
     y1="240"
     y2="240"
     id="line202" />
  <line
     fill="#000000"
     stroke="#000000"
     stroke-width="1"
     x1="281"
     x2="276"
     y1="240"
     y2="240"
     id="line204" />
  <line
     fill="#000000"
     stroke="#000000"
     stroke-width="1"
     x1="271"
     x2="266"
     y1="240"
     y2="240"
     id="line206" />
  <line
     fill="#000000"
     stroke="#000000"
     stroke-width="1"
     x1="261"
     x2="256"
     y1="240"
     y2="240"
     id="line208" />
  <line
     fill="#000000"
     stroke="#000000"
     stroke-width="1"
     x1="251"
     x2="246"
     y1="240"
     y2="240"
     id="line210" />
  <line
     fill="#000000"
     stroke="#000000"
     stroke-width="1"
     x1="241"
     x2="236"
     y1="240"
     y2="240"
     id="line212" />
  <line
     fill="#000000"
     stroke="#000000"
     stroke-width="1"
     x1="231"
     x2="226"
     y1="240"
     y2="240"
     id="line214" />
  <line
     fill="#000000"
     stroke="#000000"
     stroke-width="1"
     x1="221"
     x2="216"
     y1="240"
     y2="240"
     id="line216" />
  <line
     fill="#000000"
     stroke="#000000"
     stroke-width="1"
     x1="211"
     x2="206"
     y1="240"
     y2="240"
     id="line218" />
  <line
     fill="#000000"
     stroke="#000000"
     stroke-width="1"
     x1="201"
     x2="196"
     y1="240"
     y2="240"
     id="line220" />
  <line
     fill="#000000"
     stroke="#000000"
     stroke-width="1"
     x1="191"
     x2="186"
     y1="240"
     y2="240"
     id="line222" />
  <line
     fill="#000000"
     stroke="#000000"
     stroke-width="1"
     x1="181"
     x2="176"
     y1="240"
     y2="240"
     id="line224" />
  <line
     fill="#000000"
     stroke="#000000"
     stroke-width="1"
     x1="171"
     x2="166"
     y1="240"
     y2="240"
     id="line226" />
  <line
     fill="#000000"
     stroke="#000000"
     stroke-width="1"
     x1="161"
     x2="156"
     y1="240"
     y2="240"
     id="line228" />
  <line
     fill="#000000"
     stroke="#000000"
     stroke-width="1"
     x1="151"
     x2="146"
     y1="240"
     y2="240"
     id="line230" />
  <line
     fill="#000000"
     stroke="#000000"
     stroke-width="1"
     x1="141"
     x2="136"
     y1="240"
     y2="240"
     id="line232" />
  <line
     fill="#000000"
     stroke="#000000"
     stroke-width="1"
     x1="131"
     x2="126"
     y1="240"
     y2="240"
     id="line234" />
  <line
     fill="#000000"
     stroke="#000000"
     stroke-width="1"
     x1="121"
     x2="116"
     y1="240"
     y2="240"
     id="line236" />
  <line
     fill="#000000"
     stroke="#000000"
     stroke-width="1"
     x1="111"
     x2="106"
     y1="240"
     y2="240"
     id="line238" />
  <line
     fill="#000000"
     stroke="#000000"
     stroke-width="1"
     x1="101"
     x2="96"
     y1="240"
     y2="240"
     id="line240" />
  <line
     fill="#000000"
     stroke="#000000"
     stroke-width="1"
     x1="108"
     x2="96"
     y1="233"
     y2="240"
     id="line242" />
  <line
     fill="#000000"
     stroke="#000000"
     stroke-width="1"
     x1="108"
     x2="96"
     y1="247"
     y2="240"
     id="line244" />
  <text
     font-family="Lucida Grande"
     font-size="13"
     x="217"
     y="235"
     id="text246">
msg:reports[] and/or reservations[]</text>
  <g
     id="g3351"
     transform="translate(0,14)">
    <polyline
       style="fill:none;stroke:#000000;stroke-width:1"
       transform="translate(0,-26)"
       id="polyline248"
       points="96,200 551,200" />
    <line
       style="fill:#000000;stroke:#000000;stroke-width:1"
       id="line250"
       y2="174"
       y1="181"
       x2="551"
       x1="539" />
    <line
       style="fill:#000000;stroke:#000000;stroke-width:1"
       id="line252"
       y2="174"
       y1="167"
       x2="551"
       x1="539" />
    <text
       style="font-size:13px;font-family:Lucida Grande"
       id="text254"
       y="167"
       x="188"
       font-size="13">tutorCredentials (tutorName, tutorPassword)</text>
  </g>
  <polyline
     fill="none"
     points="96,288 551,288"
     stroke="#000000"
     stroke-width="1"
     id="polyline264" />
  <polygon
     fill="#000000"
     points="551,288 539,295 539,281"
     stroke="#000000"
     stroke-width="1"
     id="polygon266" />
  <polygon
     fill="none"
     points="551,288 539,295 539,281"
     stroke="#000000"
     stroke-width="1"
     id="polygon268" />
  <text
     font-family="Lucida Grande"
     font-size="13"
     x="244"
     y="283"
     id="text270">
printOnSupport(element, givenSupport)</text>
  <line
     fill="#000000"
     stroke="#000000"
     stroke-width="1"
     x1="551"
     x2="546"
     y1="338"
     y2="338"
     id="line272" />
  <line
     fill="#000000"
     stroke="#000000"
     stroke-width="1"
     x1="541"
     x2="536"
     y1="338"
     y2="338"
     id="line274" />
  <line
     fill="#000000"
     stroke="#000000"
     stroke-width="1"
     x1="531"
     x2="526"
     y1="338"
     y2="338"
     id="line276" />
  <line
     fill="#000000"
     stroke="#000000"
     stroke-width="1"
     x1="521"
     x2="516"
     y1="338"
     y2="338"
     id="line278" />
  <line
     fill="#000000"
     stroke="#000000"
     stroke-width="1"
     x1="511"
     x2="506"
     y1="338"
     y2="338"
     id="line280" />
  <line
     fill="#000000"
     stroke="#000000"
     stroke-width="1"
     x1="501"
     x2="496"
     y1="338"
     y2="338"
     id="line282" />
  <line
     fill="#000000"
     stroke="#000000"
     stroke-width="1"
     x1="491"
     x2="486"
     y1="338"
     y2="338"
     id="line284" />
  <line
     fill="#000000"
     stroke="#000000"
     stroke-width="1"
     x1="481"
     x2="476"
     y1="338"
     y2="338"
     id="line286" />
  <line
     fill="#000000"
     stroke="#000000"
     stroke-width="1"
     x1="471"
     x2="466"
     y1="338"
     y2="338"
     id="line288" />
  <line
     fill="#000000"
     stroke="#000000"
     stroke-width="1"
     x1="461"
     x2="456"
     y1="338"
     y2="338"
     id="line290" />
  <line
     fill="#000000"
     stroke="#000000"
     stroke-width="1"
     x1="451"
     x2="446"
     y1="338"
     y2="338"
     id="line292" />
  <line
     fill="#000000"
     stroke="#000000"
     stroke-width="1"
     x1="441"
     x2="436"
     y1="338"
     y2="338"
     id="line294" />
  <line
     fill="#000000"
     stroke="#000000"
     stroke-width="1"
     x1="431"
     x2="426"
     y1="338"
     y2="338"
     id="line296" />
  <line
     fill="#000000"
     stroke="#000000"
     stroke-width="1"
     x1="421"
     x2="416"
     y1="338"
     y2="338"
     id="line298" />
  <line
     fill="#000000"
     stroke="#000000"
     stroke-width="1"
     x1="411"
     x2="406"
     y1="338"
     y2="338"
     id="line300" />
  <line
     fill="#000000"
     stroke="#000000"
     stroke-width="1"
     x1="401"
     x2="396"
     y1="338"
     y2="338"
     id="line302" />
  <line
     fill="#000000"
     stroke="#000000"
     stroke-width="1"
     x1="391"
     x2="386"
     y1="338"
     y2="338"
     id="line304" />
  <line
     fill="#000000"
     stroke="#000000"
     stroke-width="1"
     x1="381"
     x2="376"
     y1="338"
     y2="338"
     id="line306" />
  <line
     fill="#000000"
     stroke="#000000"
     stroke-width="1"
     x1="371"
     x2="366"
     y1="338"
     y2="338"
     id="line308" />
  <line
     fill="#000000"
     stroke="#000000"
     stroke-width="1"
     x1="361"
     x2="356"
     y1="338"
     y2="338"
     id="line310" />
  <line
     fill="#000000"
     stroke="#000000"
     stroke-width="1"
     x1="351"
     x2="346"
     y1="338"
     y2="338"
     id="line312" />
  <line
     fill="#000000"
     stroke="#000000"
     stroke-width="1"
     x1="341"
     x2="336"
     y1="338"
     y2="338"
     id="line314" />
  <line
     fill="#000000"
     stroke="#000000"
     stroke-width="1"
     x1="331"
     x2="326"
     y1="338"
     y2="338"
     id="line316" />
  <line
     fill="#000000"
     stroke="#000000"
     stroke-width="1"
     x1="321"
     x2="316"
     y1="338"
     y2="338"
     id="line318" />
  <line
     fill="#000000"
     stroke="#000000"
     stroke-width="1"
     x1="311"
     x2="306"
     y1="338"
     y2="338"
     id="line320" />
  <line
     fill="#000000"
     stroke="#000000"
     stroke-width="1"
     x1="301"
     x2="296"
     y1="338"
     y2="338"
     id="line322" />
  <line
     fill="#000000"
     stroke="#000000"
     stroke-width="1"
     x1="291"
     x2="286"
     y1="338"
     y2="338"
     id="line324" />
  <line
     fill="#000000"
     stroke="#000000"
     stroke-width="1"
     x1="281"
     x2="276"
     y1="338"
     y2="338"
     id="line326" />
  <line
     fill="#000000"
     stroke="#000000"
     stroke-width="1"
     x1="271"
     x2="266"
     y1="338"
     y2="338"
     id="line328" />
  <line
     fill="#000000"
     stroke="#000000"
     stroke-width="1"
     x1="261"
     x2="256"
     y1="338"
     y2="338"
     id="line330" />
  <line
     fill="#000000"
     stroke="#000000"
     stroke-width="1"
     x1="251"
     x2="246"
     y1="338"
     y2="338"
     id="line332" />
  <line
     fill="#000000"
     stroke="#000000"
     stroke-width="1"
     x1="241"
     x2="236"
     y1="338"
     y2="338"
     id="line334" />
  <line
     fill="#000000"
     stroke="#000000"
     stroke-width="1"
     x1="231"
     x2="226"
     y1="338"
     y2="338"
     id="line336" />
  <line
     fill="#000000"
     stroke="#000000"
     stroke-width="1"
     x1="221"
     x2="216"
     y1="338"
     y2="338"
     id="line338" />
  <line
     fill="#000000"
     stroke="#000000"
     stroke-width="1"
     x1="211"
     x2="206"
     y1="338"
     y2="338"
     id="line340" />
  <line
     fill="#000000"
     stroke="#000000"
     stroke-width="1"
     x1="201"
     x2="196"
     y1="338"
     y2="338"
     id="line342" />
  <line
     fill="#000000"
     stroke="#000000"
     stroke-width="1"
     x1="191"
     x2="186"
     y1="338"
     y2="338"
     id="line344" />
  <line
     fill="#000000"
     stroke="#000000"
     stroke-width="1"
     x1="181"
     x2="176"
     y1="338"
     y2="338"
     id="line346" />
  <line
     fill="#000000"
     stroke="#000000"
     stroke-width="1"
     x1="171"
     x2="166"
     y1="338"
     y2="338"
     id="line348" />
  <line
     fill="#000000"
     stroke="#000000"
     stroke-width="1"
     x1="161"
     x2="156"
     y1="338"
     y2="338"
     id="line350" />
  <line
     fill="#000000"
     stroke="#000000"
     stroke-width="1"
     x1="151"
     x2="146"
     y1="338"
     y2="338"
     id="line352" />
  <line
     fill="#000000"
     stroke="#000000"
     stroke-width="1"
     x1="141"
     x2="136"
     y1="338"
     y2="338"
     id="line354" />
  <line
     fill="#000000"
     stroke="#000000"
     stroke-width="1"
     x1="131"
     x2="126"
     y1="338"
     y2="338"
     id="line356" />
  <line
     fill="#000000"
     stroke="#000000"
     stroke-width="1"
     x1="121"
     x2="116"
     y1="338"
     y2="338"
     id="line358" />
  <line
     fill="#000000"
     stroke="#000000"
     stroke-width="1"
     x1="111"
     x2="106"
     y1="338"
     y2="338"
     id="line360" />
  <line
     fill="#000000"
     stroke="#000000"
     stroke-width="1"
     x1="101"
     x2="96"
     y1="338"
     y2="338"
     id="line362" />
  <line
     fill="#000000"
     stroke="#000000"
     stroke-width="1"
     x1="108"
     x2="96"
     y1="331"
     y2="338"
     id="line364" />
  <line
     fill="#000000"
     stroke="#000000"
     stroke-width="1"
     x1="108"
     x2="96"
     y1="345"
     y2="338"
     id="line366" />
  <text
     font-family="Lucida Grande"
     font-size="13"
     x="278"
     y="333"
     id="text368">
notify()</text>
  <g
     id="g5621">
    <g
       id="g4228">
      <g
         id="g4222"
         transform="matrix(0.96581898,0,0,1,1.8763752,-6)">
        <rect
           id="rect136-6"
           y="137.27121"
           x="54.895237"
           width="547.98126"
           height="68.747635"
           style="fill:none;stroke:#000000;stroke-width:1.01754153" />
        <g
           id="g4218">
          <path
             style="fill:#ffffff;stroke:#000000;stroke-width:0.91578734;stroke-miterlimit:4"
             d="m 123.84761,143.79644 0,-6.42144 -68.41011,0 0,25.20416 50.01172,0 18.39839,-18.78272 z"
             id="path4188"
             inkscape:connector-curvature="0" />
          <text
             style="font-size:13px;font-family:Lucida Grande"
             font-size="13"
             x="77.310432"
             y="154.1115"
             id="text138-5">Opt</text>
        </g>
      </g>
      <text
         style="font-size:8.93027401px;font-family:Lucida Grande"
         font-size="13"
         x="58.07444"
         y="166.37183"
         id="text138-2">[isMinorenne == true]</text>
    </g>
  </g>
</svg>
