<?xml version="1.0" encoding="utf-8" ?>
<!DOCTYPE svg PUBLIC "-//W3C//DTD SVG 1.1//EN" "http://www.w3.org/Graphics/SVG/1.1/DTD/svg11.dtd">
<svg height="199" version="1.1" width="444" xmlns="http://www.w3.org/2000/svg">
<line fill="#000000" stroke="#000000" stroke-width="1" x1="89" x2="89" y1="63" y2="68"/>
<line fill="#000000" stroke="#000000" stroke-width="1" x1="89" x2="89" y1="73" y2="78"/>
<line fill="#000000" stroke="#000000" stroke-width="1" x1="89" x2="89" y1="83" y2="88"/>
<line fill="#000000" stroke="#000000" stroke-width="1" x1="89" x2="89" y1="93" y2="98"/>
<line fill="#000000" stroke="#000000" stroke-width="1" x1="89" x2="89" y1="103" y2="108"/>
<line fill="#000000" stroke="#000000" stroke-width="1" x1="89" x2="89" y1="113" y2="118"/>
<line fill="#000000" stroke="#000000" stroke-width="1" x1="89" x2="89" y1="123" y2="128"/>
<line fill="#000000" stroke="#000000" stroke-width="1" x1="89" x2="89" y1="133" y2="138"/>
<line fill="#000000" stroke="#000000" stroke-width="1" x1="89" x2="89" y1="143" y2="148"/>
<line fill="#000000" stroke="#000000" stroke-width="1" x1="89" x2="89" y1="153" y2="158"/>
<line fill="#000000" stroke="#000000" stroke-width="1" x1="89" x2="89" y1="163" y2="168"/>
<line fill="#000000" stroke="#000000" stroke-width="1" x1="89" x2="89" y1="173" y2="178"/>
<line fill="#000000" stroke="#000000" stroke-width="1" x1="89" x2="89" y1="183" y2="184"/>
<rect fill="#ffffff" height="121" stroke="#ffffff" stroke-width="1" width="20" x="79" y="63"/>
<rect fill="none" height="121" stroke="#000000" stroke-width="1" width="20" x="79" y="63"/>
<rect fill="#ffffff" height="50" stroke="#ffffff" stroke-width="1" width="150" x="14" y="14"/>
<rect fill="none" height="50" stroke="#000000" stroke-width="1" width="150" x="14" y="14"/>
<text font-family="Dialog" font-size="13" x="65" y="49">
/Utente</text>
<text font-family="Dialog" font-size="13" x="50" y="28">
&lt;&lt;actor&gt;&gt;</text>
<line fill="#000000" stroke="#000000" stroke-width="1" x1="370" x2="370" y1="63" y2="68"/>
<line fill="#000000" stroke="#000000" stroke-width="1" x1="370" x2="370" y1="73" y2="78"/>
<line fill="#000000" stroke="#000000" stroke-width="1" x1="370" x2="370" y1="83" y2="88"/>
<line fill="#000000" stroke="#000000" stroke-width="1" x1="370" x2="370" y1="93" y2="98"/>
<line fill="#000000" stroke="#000000" stroke-width="1" x1="370" x2="370" y1="103" y2="108"/>
<line fill="#000000" stroke="#000000" stroke-width="1" x1="370" x2="370" y1="113" y2="118"/>
<line fill="#000000" stroke="#000000" stroke-width="1" x1="370" x2="370" y1="123" y2="128"/>
<line fill="#000000" stroke="#000000" stroke-width="1" x1="370" x2="370" y1="133" y2="138"/>
<line fill="#000000" stroke="#000000" stroke-width="1" x1="370" x2="370" y1="143" y2="148"/>
<line fill="#000000" stroke="#000000" stroke-width="1" x1="370" x2="370" y1="153" y2="158"/>
<line fill="#000000" stroke="#000000" stroke-width="1" x1="370" x2="370" y1="163" y2="168"/>
<line fill="#000000" stroke="#000000" stroke-width="1" x1="370" x2="370" y1="173" y2="178"/>
<line fill="#000000" stroke="#000000" stroke-width="1" x1="370" x2="370" y1="183" y2="184"/>
<rect fill="#ffffff" height="56" stroke="#ffffff" stroke-width="1" width="20" x="360" y="118"/>
<rect fill="none" height="56" stroke="#000000" stroke-width="1" width="20" x="360" y="118"/>
<rect fill="#ffffff" height="50" stroke="#ffffff" stroke-width="1" width="120" x="310" y="14"/>
<rect fill="none" height="50" stroke="#000000" stroke-width="1" width="120" x="310" y="14"/>
<text font-family="Dialog" font-size="13" x="343" y="28">
:System</text>
<polyline fill="none" points="99,118 360,118" stroke="#000000" stroke-width="1"/>
<polygon fill="#000000" points="360,118 348,125 348,111" stroke="#000000" stroke-width="1"/>
<polygon fill="none" points="360,118 348,125 348,111" stroke="#000000" stroke-width="1"/>
<text font-family="Dialog" font-size="13" x="115" y="112">
login (userName, userPassword)</text>
<line fill="#000000" stroke="#000000" stroke-width="1" x1="360" x2="355" y1="174" y2="174"/>
<line fill="#000000" stroke="#000000" stroke-width="1" x1="350" x2="345" y1="174" y2="174"/>
<line fill="#000000" stroke="#000000" stroke-width="1" x1="340" x2="335" y1="174" y2="174"/>
<line fill="#000000" stroke="#000000" stroke-width="1" x1="330" x2="325" y1="174" y2="174"/>
<line fill="#000000" stroke="#000000" stroke-width="1" x1="320" x2="315" y1="174" y2="174"/>
<line fill="#000000" stroke="#000000" stroke-width="1" x1="310" x2="305" y1="174" y2="174"/>
<line fill="#000000" stroke="#000000" stroke-width="1" x1="300" x2="295" y1="174" y2="174"/>
<line fill="#000000" stroke="#000000" stroke-width="1" x1="290" x2="285" y1="174" y2="174"/>
<line fill="#000000" stroke="#000000" stroke-width="1" x1="280" x2="275" y1="174" y2="174"/>
<line fill="#000000" stroke="#000000" stroke-width="1" x1="270" x2="265" y1="174" y2="174"/>
<line fill="#000000" stroke="#000000" stroke-width="1" x1="260" x2="255" y1="174" y2="174"/>
<line fill="#000000" stroke="#000000" stroke-width="1" x1="250" x2="245" y1="174" y2="174"/>
<line fill="#000000" stroke="#000000" stroke-width="1" x1="240" x2="235" y1="174" y2="174"/>
<line fill="#000000" stroke="#000000" stroke-width="1" x1="230" x2="225" y1="174" y2="174"/>
<line fill="#000000" stroke="#000000" stroke-width="1" x1="220" x2="215" y1="174" y2="174"/>
<line fill="#000000" stroke="#000000" stroke-width="1" x1="210" x2="205" y1="174" y2="174"/>
<line fill="#000000" stroke="#000000" stroke-width="1" x1="200" x2="195" y1="174" y2="174"/>
<line fill="#000000" stroke="#000000" stroke-width="1" x1="190" x2="185" y1="174" y2="174"/>
<line fill="#000000" stroke="#000000" stroke-width="1" x1="180" x2="175" y1="174" y2="174"/>
<line fill="#000000" stroke="#000000" stroke-width="1" x1="170" x2="165" y1="174" y2="174"/>
<line fill="#000000" stroke="#000000" stroke-width="1" x1="160" x2="155" y1="174" y2="174"/>
<line fill="#000000" stroke="#000000" stroke-width="1" x1="150" x2="145" y1="174" y2="174"/>
<line fill="#000000" stroke="#000000" stroke-width="1" x1="140" x2="135" y1="174" y2="174"/>
<line fill="#000000" stroke="#000000" stroke-width="1" x1="130" x2="125" y1="174" y2="174"/>
<line fill="#000000" stroke="#000000" stroke-width="1" x1="120" x2="115" y1="174" y2="174"/>
<line fill="#000000" stroke="#000000" stroke-width="1" x1="110" x2="105" y1="174" y2="174"/>
<line fill="#000000" stroke="#000000" stroke-width="1" x1="100" x2="99" y1="174" y2="174"/>
<line fill="#000000" stroke="#000000" stroke-width="1" x1="111" x2="99" y1="167" y2="174"/>
<line fill="#000000" stroke="#000000" stroke-width="1" x1="111" x2="99" y1="181" y2="174"/>
<text font-family="Dialog" font-size="13" x="167" y="167">
notify()</text>
</svg>
