<?xml version="1.0" encoding="UTF-8" standalone="no"?>
<svg
   xmlns:dc="http://purl.org/dc/elements/1.1/"
   xmlns:cc="http://creativecommons.org/ns#"
   xmlns:rdf="http://www.w3.org/1999/02/22-rdf-syntax-ns#"
   xmlns:svg="http://www.w3.org/2000/svg"
   xmlns="http://www.w3.org/2000/svg"
   xmlns:sodipodi="http://sodipodi.sourceforge.net/DTD/sodipodi-0.dtd"
   xmlns:inkscape="http://www.inkscape.org/namespaces/inkscape"
   height="355"
   version="1.1"
   width="572"
   id="svg2"
   inkscape:version="0.48.2 r9819"
   sodipodi:docname="Annullamento_prenotazione.svg">
  <metadata
     id="metadata342">
    <rdf:RDF>
      <cc:Work
         rdf:about="">
        <dc:format>image/svg+xml</dc:format>
        <dc:type
           rdf:resource="http://purl.org/dc/dcmitype/StillImage" />
      </cc:Work>
    </rdf:RDF>
  </metadata>
  <defs
     id="defs340" />
  <sodipodi:namedview
     pagecolor="#ffffff"
     bordercolor="#666666"
     borderopacity="1"
     objecttolerance="10"
     gridtolerance="10"
     guidetolerance="10"
     inkscape:pageopacity="0"
     inkscape:pageshadow="2"
     inkscape:window-width="1280"
     inkscape:window-height="746"
     id="namedview338"
     showgrid="false"
     inkscape:zoom="1.879025"
     inkscape:cx="293.78143"
     inkscape:cy="128.88793"
     inkscape:window-x="0"
     inkscape:window-y="26"
     inkscape:window-maximized="1"
     inkscape:current-layer="svg2" />
  <line
     fill="#000000"
     stroke="#000000"
     stroke-width="1"
     x1="494"
     x2="494"
     y1="63"
     y2="68"
     id="line4" />
  <line
     fill="#000000"
     stroke="#000000"
     stroke-width="1"
     x1="494"
     x2="494"
     y1="73"
     y2="78"
     id="line6" />
  <line
     fill="#000000"
     stroke="#000000"
     stroke-width="1"
     x1="494"
     x2="494"
     y1="83"
     y2="88"
     id="line8" />
  <line
     fill="#000000"
     stroke="#000000"
     stroke-width="1"
     x1="494"
     x2="494"
     y1="93"
     y2="98"
     id="line10" />
  <line
     fill="#000000"
     stroke="#000000"
     stroke-width="1"
     x1="494"
     x2="494"
     y1="103"
     y2="108"
     id="line12" />
  <line
     fill="#000000"
     stroke="#000000"
     stroke-width="1"
     x1="494"
     x2="494"
     y1="113"
     y2="118"
     id="line14" />
  <line
     fill="#000000"
     stroke="#000000"
     stroke-width="1"
     x1="494"
     x2="494"
     y1="123"
     y2="128"
     id="line16" />
  <line
     fill="#000000"
     stroke="#000000"
     stroke-width="1"
     x1="494"
     x2="494"
     y1="133"
     y2="138"
     id="line18" />
  <line
     fill="#000000"
     stroke="#000000"
     stroke-width="1"
     x1="494"
     x2="494"
     y1="143"
     y2="148"
     id="line20" />
  <line
     fill="#000000"
     stroke="#000000"
     stroke-width="1"
     x1="494"
     x2="494"
     y1="153"
     y2="158"
     id="line22" />
  <line
     fill="#000000"
     stroke="#000000"
     stroke-width="1"
     x1="494"
     x2="494"
     y1="163"
     y2="168"
     id="line24" />
  <line
     fill="#000000"
     stroke="#000000"
     stroke-width="1"
     x1="494"
     x2="494"
     y1="173"
     y2="178"
     id="line26" />
  <line
     fill="#000000"
     stroke="#000000"
     stroke-width="1"
     x1="494"
     x2="494"
     y1="183"
     y2="188"
     id="line28" />
  <line
     fill="#000000"
     stroke="#000000"
     stroke-width="1"
     x1="494"
     x2="494"
     y1="193"
     y2="198"
     id="line30" />
  <line
     fill="#000000"
     stroke="#000000"
     stroke-width="1"
     x1="494"
     x2="494"
     y1="203"
     y2="208"
     id="line32" />
  <line
     fill="#000000"
     stroke="#000000"
     stroke-width="1"
     x1="494"
     x2="494"
     y1="213"
     y2="218"
     id="line34" />
  <line
     fill="#000000"
     stroke="#000000"
     stroke-width="1"
     x1="494"
     x2="494"
     y1="223"
     y2="228"
     id="line36" />
  <line
     fill="#000000"
     stroke="#000000"
     stroke-width="1"
     x1="494"
     x2="494"
     y1="233"
     y2="238"
     id="line38" />
  <line
     fill="#000000"
     stroke="#000000"
     stroke-width="1"
     x1="494"
     x2="494"
     y1="243"
     y2="248"
     id="line40" />
  <line
     fill="#000000"
     stroke="#000000"
     stroke-width="1"
     x1="494"
     x2="494"
     y1="253"
     y2="258"
     id="line42" />
  <line
     fill="#000000"
     stroke="#000000"
     stroke-width="1"
     x1="494"
     x2="494"
     y1="263"
     y2="268"
     id="line44" />
  <line
     fill="#000000"
     stroke="#000000"
     stroke-width="1"
     x1="494"
     x2="494"
     y1="273"
     y2="278"
     id="line46" />
  <line
     fill="#000000"
     stroke="#000000"
     stroke-width="1"
     x1="494"
     x2="494"
     y1="283"
     y2="288"
     id="line48" />
  <line
     fill="#000000"
     stroke="#000000"
     stroke-width="1"
     x1="494"
     x2="494"
     y1="293"
     y2="298"
     id="line50" />
  <line
     fill="#000000"
     stroke="#000000"
     stroke-width="1"
     x1="494"
     x2="494"
     y1="303"
     y2="308"
     id="line52" />
  <line
     fill="#000000"
     stroke="#000000"
     stroke-width="1"
     x1="494"
     x2="494"
     y1="313"
     y2="318"
     id="line54" />
  <line
     fill="#000000"
     stroke="#000000"
     stroke-width="1"
     x1="494"
     x2="494"
     y1="323"
     y2="328"
     id="line56" />
  <line
     fill="#000000"
     stroke="#000000"
     stroke-width="1"
     x1="494"
     x2="494"
     y1="333"
     y2="338"
     id="line58" />
  <rect
     fill="#ffffff"
     height="56"
     stroke="#ffffff"
     stroke-width="1"
     width="20"
     x="484"
     y="121"
     id="rect60" />
  <rect
     fill="none"
     height="56"
     stroke="#000000"
     stroke-width="1"
     width="20"
     x="484"
     y="121"
     id="rect62" />
  <rect
     fill="#ffffff"
     height="96"
     stroke="#ffffff"
     stroke-width="1"
     width="20"
     x="484"
     y="241"
     id="rect64" />
  <rect
     fill="none"
     height="96"
     stroke="#000000"
     stroke-width="1"
     width="20"
     x="484"
     y="241"
     id="rect66" />
  <rect
     fill="#ffffff"
     height="50"
     stroke="#ffffff"
     stroke-width="1"
     width="128"
     x="430"
     y="14"
     id="rect68" />
  <rect
     fill="none"
     height="50"
     stroke="#000000"
     stroke-width="1"
     width="128"
     x="430"
     y="14"
     id="rect70" />
  <text
     font-family="Lucida Grande"
     font-size="13"
     x="469"
     y="28"
     id="text72">
:System</text>
  <line
     fill="#000000"
     stroke="#000000"
     stroke-width="1"
     x1="82"
     x2="82"
     y1="63"
     y2="68"
     id="line74" />
  <line
     fill="#000000"
     stroke="#000000"
     stroke-width="1"
     x1="82"
     x2="82"
     y1="73"
     y2="78"
     id="line76" />
  <line
     fill="#000000"
     stroke="#000000"
     stroke-width="1"
     x1="82"
     x2="82"
     y1="83"
     y2="88"
     id="line78" />
  <line
     fill="#000000"
     stroke="#000000"
     stroke-width="1"
     x1="82"
     x2="82"
     y1="93"
     y2="98"
     id="line80" />
  <line
     fill="#000000"
     stroke="#000000"
     stroke-width="1"
     x1="82"
     x2="82"
     y1="103"
     y2="108"
     id="line82" />
  <line
     fill="#000000"
     stroke="#000000"
     stroke-width="1"
     x1="82"
     x2="82"
     y1="113"
     y2="118"
     id="line84" />
  <line
     fill="#000000"
     stroke="#000000"
     stroke-width="1"
     x1="82"
     x2="82"
     y1="123"
     y2="128"
     id="line86" />
  <line
     fill="#000000"
     stroke="#000000"
     stroke-width="1"
     x1="82"
     x2="82"
     y1="133"
     y2="138"
     id="line88" />
  <line
     fill="#000000"
     stroke="#000000"
     stroke-width="1"
     x1="82"
     x2="82"
     y1="143"
     y2="148"
     id="line90" />
  <line
     fill="#000000"
     stroke="#000000"
     stroke-width="1"
     x1="82"
     x2="82"
     y1="153"
     y2="158"
     id="line92" />
  <line
     fill="#000000"
     stroke="#000000"
     stroke-width="1"
     x1="82"
     x2="82"
     y1="163"
     y2="168"
     id="line94" />
  <line
     fill="#000000"
     stroke="#000000"
     stroke-width="1"
     x1="82"
     x2="82"
     y1="173"
     y2="178"
     id="line96" />
  <line
     fill="#000000"
     stroke="#000000"
     stroke-width="1"
     x1="82"
     x2="82"
     y1="183"
     y2="188"
     id="line98" />
  <line
     fill="#000000"
     stroke="#000000"
     stroke-width="1"
     x1="82"
     x2="82"
     y1="193"
     y2="198"
     id="line100" />
  <line
     fill="#000000"
     stroke="#000000"
     stroke-width="1"
     x1="82"
     x2="82"
     y1="203"
     y2="208"
     id="line102" />
  <line
     fill="#000000"
     stroke="#000000"
     stroke-width="1"
     x1="82"
     x2="82"
     y1="213"
     y2="218"
     id="line104" />
  <line
     fill="#000000"
     stroke="#000000"
     stroke-width="1"
     x1="82"
     x2="82"
     y1="223"
     y2="228"
     id="line106" />
  <line
     fill="#000000"
     stroke="#000000"
     stroke-width="1"
     x1="82"
     x2="82"
     y1="233"
     y2="238"
     id="line108" />
  <line
     fill="#000000"
     stroke="#000000"
     stroke-width="1"
     x1="82"
     x2="82"
     y1="243"
     y2="248"
     id="line110" />
  <line
     fill="#000000"
     stroke="#000000"
     stroke-width="1"
     x1="82"
     x2="82"
     y1="253"
     y2="258"
     id="line112" />
  <line
     fill="#000000"
     stroke="#000000"
     stroke-width="1"
     x1="82"
     x2="82"
     y1="263"
     y2="268"
     id="line114" />
  <line
     fill="#000000"
     stroke="#000000"
     stroke-width="1"
     x1="82"
     x2="82"
     y1="273"
     y2="278"
     id="line116" />
  <line
     fill="#000000"
     stroke="#000000"
     stroke-width="1"
     x1="82"
     x2="82"
     y1="283"
     y2="288"
     id="line118" />
  <line
     fill="#000000"
     stroke="#000000"
     stroke-width="1"
     x1="82"
     x2="82"
     y1="293"
     y2="298"
     id="line120" />
  <line
     fill="#000000"
     stroke="#000000"
     stroke-width="1"
     x1="82"
     x2="82"
     y1="303"
     y2="308"
     id="line122" />
  <line
     fill="#000000"
     stroke="#000000"
     stroke-width="1"
     x1="82"
     x2="82"
     y1="313"
     y2="318"
     id="line124" />
  <line
     fill="#000000"
     stroke="#000000"
     stroke-width="1"
     x1="82"
     x2="82"
     y1="323"
     y2="328"
     id="line126" />
  <line
     fill="#000000"
     stroke="#000000"
     stroke-width="1"
     x1="82"
     x2="82"
     y1="333"
     y2="338"
     id="line128" />
  <rect
     fill="#ffffff"
     height="277"
     stroke="#ffffff"
     stroke-width="1"
     width="20"
     x="72"
     y="63"
     id="rect130" />
  <rect
     fill="none"
     height="277"
     stroke="#000000"
     stroke-width="1"
     width="20"
     x="72"
     y="63"
     id="rect132" />
  <rect
     fill="#ffffff"
     height="50"
     stroke="#ffffff"
     stroke-width="1"
     width="136"
     x="14"
     y="14"
     id="rect134" />
  <rect
     fill="none"
     height="50"
     stroke="#000000"
     stroke-width="1"
     width="136"
     x="14"
     y="14"
     id="rect136" />
  <text
     font-family="Lucida Grande"
     font-size="13"
     x="52"
     y="48"
     id="text138">
/Paziente</text>
  <text
     font-family="Lucida Grande"
     font-size="13"
     x="46"
     y="28"
     id="text140">
&lt;&lt;actor&gt;&gt;</text>
  <polyline
     fill="none"
     points="92,121 484,121"
     stroke="#000000"
     stroke-width="1"
     id="polyline142" />
  <polygon
     fill="#000000"
     points="484,121 472,128 472,114"
     stroke="#000000"
     stroke-width="1"
     id="polygon144" />
  <polygon
     fill="none"
     points="484,121 472,128 472,114"
     stroke="#000000"
     stroke-width="1"
     id="polygon146" />
  <text
     font-family="Lucida Grande"
     font-size="13"
     x="213"
     y="116"
     id="text148">
fetchReservation()</text>
  <line
     fill="#000000"
     stroke="#000000"
     stroke-width="1"
     x1="484"
     x2="479"
     y1="177"
     y2="177"
     id="line150" />
  <line
     fill="#000000"
     stroke="#000000"
     stroke-width="1"
     x1="474"
     x2="469"
     y1="177"
     y2="177"
     id="line152" />
  <line
     fill="#000000"
     stroke="#000000"
     stroke-width="1"
     x1="464"
     x2="459"
     y1="177"
     y2="177"
     id="line154" />
  <line
     fill="#000000"
     stroke="#000000"
     stroke-width="1"
     x1="454"
     x2="449"
     y1="177"
     y2="177"
     id="line156" />
  <line
     fill="#000000"
     stroke="#000000"
     stroke-width="1"
     x1="444"
     x2="439"
     y1="177"
     y2="177"
     id="line158" />
  <line
     fill="#000000"
     stroke="#000000"
     stroke-width="1"
     x1="434"
     x2="429"
     y1="177"
     y2="177"
     id="line160" />
  <line
     fill="#000000"
     stroke="#000000"
     stroke-width="1"
     x1="424"
     x2="419"
     y1="177"
     y2="177"
     id="line162" />
  <line
     fill="#000000"
     stroke="#000000"
     stroke-width="1"
     x1="414"
     x2="409"
     y1="177"
     y2="177"
     id="line164" />
  <line
     fill="#000000"
     stroke="#000000"
     stroke-width="1"
     x1="404"
     x2="399"
     y1="177"
     y2="177"
     id="line166" />
  <line
     fill="#000000"
     stroke="#000000"
     stroke-width="1"
     x1="394"
     x2="389"
     y1="177"
     y2="177"
     id="line168" />
  <line
     fill="#000000"
     stroke="#000000"
     stroke-width="1"
     x1="384"
     x2="379"
     y1="177"
     y2="177"
     id="line170" />
  <line
     fill="#000000"
     stroke="#000000"
     stroke-width="1"
     x1="374"
     x2="369"
     y1="177"
     y2="177"
     id="line172" />
  <line
     fill="#000000"
     stroke="#000000"
     stroke-width="1"
     x1="364"
     x2="359"
     y1="177"
     y2="177"
     id="line174" />
  <line
     fill="#000000"
     stroke="#000000"
     stroke-width="1"
     x1="354"
     x2="349"
     y1="177"
     y2="177"
     id="line176" />
  <line
     fill="#000000"
     stroke="#000000"
     stroke-width="1"
     x1="344"
     x2="339"
     y1="177"
     y2="177"
     id="line178" />
  <line
     fill="#000000"
     stroke="#000000"
     stroke-width="1"
     x1="334"
     x2="329"
     y1="177"
     y2="177"
     id="line180" />
  <line
     fill="#000000"
     stroke="#000000"
     stroke-width="1"
     x1="324"
     x2="319"
     y1="177"
     y2="177"
     id="line182" />
  <line
     fill="#000000"
     stroke="#000000"
     stroke-width="1"
     x1="314"
     x2="309"
     y1="177"
     y2="177"
     id="line184" />
  <line
     fill="#000000"
     stroke="#000000"
     stroke-width="1"
     x1="304"
     x2="299"
     y1="177"
     y2="177"
     id="line186" />
  <line
     fill="#000000"
     stroke="#000000"
     stroke-width="1"
     x1="294"
     x2="289"
     y1="177"
     y2="177"
     id="line188" />
  <line
     fill="#000000"
     stroke="#000000"
     stroke-width="1"
     x1="284"
     x2="279"
     y1="177"
     y2="177"
     id="line190" />
  <line
     fill="#000000"
     stroke="#000000"
     stroke-width="1"
     x1="274"
     x2="269"
     y1="177"
     y2="177"
     id="line192" />
  <line
     fill="#000000"
     stroke="#000000"
     stroke-width="1"
     x1="264"
     x2="259"
     y1="177"
     y2="177"
     id="line194" />
  <line
     fill="#000000"
     stroke="#000000"
     stroke-width="1"
     x1="254"
     x2="249"
     y1="177"
     y2="177"
     id="line196" />
  <line
     fill="#000000"
     stroke="#000000"
     stroke-width="1"
     x1="244"
     x2="239"
     y1="177"
     y2="177"
     id="line198" />
  <line
     fill="#000000"
     stroke="#000000"
     stroke-width="1"
     x1="234"
     x2="229"
     y1="177"
     y2="177"
     id="line200" />
  <line
     fill="#000000"
     stroke="#000000"
     stroke-width="1"
     x1="224"
     x2="219"
     y1="177"
     y2="177"
     id="line202" />
  <line
     fill="#000000"
     stroke="#000000"
     stroke-width="1"
     x1="214"
     x2="209"
     y1="177"
     y2="177"
     id="line204" />
  <line
     fill="#000000"
     stroke="#000000"
     stroke-width="1"
     x1="204"
     x2="199"
     y1="177"
     y2="177"
     id="line206" />
  <line
     fill="#000000"
     stroke="#000000"
     stroke-width="1"
     x1="194"
     x2="189"
     y1="177"
     y2="177"
     id="line208" />
  <line
     fill="#000000"
     stroke="#000000"
     stroke-width="1"
     x1="184"
     x2="179"
     y1="177"
     y2="177"
     id="line210" />
  <line
     fill="#000000"
     stroke="#000000"
     stroke-width="1"
     x1="174"
     x2="169"
     y1="177"
     y2="177"
     id="line212" />
  <line
     fill="#000000"
     stroke="#000000"
     stroke-width="1"
     x1="164"
     x2="159"
     y1="177"
     y2="177"
     id="line214" />
  <line
     fill="#000000"
     stroke="#000000"
     stroke-width="1"
     x1="154"
     x2="149"
     y1="177"
     y2="177"
     id="line216" />
  <line
     fill="#000000"
     stroke="#000000"
     stroke-width="1"
     x1="144"
     x2="139"
     y1="177"
     y2="177"
     id="line218" />
  <line
     fill="#000000"
     stroke="#000000"
     stroke-width="1"
     x1="134"
     x2="129"
     y1="177"
     y2="177"
     id="line220" />
  <line
     fill="#000000"
     stroke="#000000"
     stroke-width="1"
     x1="124"
     x2="119"
     y1="177"
     y2="177"
     id="line222" />
  <line
     fill="#000000"
     stroke="#000000"
     stroke-width="1"
     x1="114"
     x2="109"
     y1="177"
     y2="177"
     id="line224" />
  <line
     fill="#000000"
     stroke="#000000"
     stroke-width="1"
     x1="104"
     x2="99"
     y1="177"
     y2="177"
     id="line226" />
  <line
     fill="#000000"
     stroke="#000000"
     stroke-width="1"
     x1="94"
     x2="92"
     y1="177"
     y2="177"
     id="line228" />
  <line
     fill="#000000"
     stroke="#000000"
     stroke-width="1"
     x1="104"
     x2="92"
     y1="170"
     y2="177"
     id="line230" />
  <line
     fill="#000000"
     stroke="#000000"
     stroke-width="1"
     x1="104"
     x2="92"
     y1="184"
     y2="177"
     id="line232" />
  <text
     font-family="Lucida Grande"
     font-size="13"
     x="218"
     y="172"
     id="text234">
msg:reservations[]</text>
  <polyline
     fill="none"
     points="92,241 484,241"
     stroke="#000000"
     stroke-width="1"
     id="polyline236" />
  <polygon
     fill="#000000"
     points="484,241 472,248 472,234"
     stroke="#000000"
     stroke-width="1"
     id="polygon238" />
  <polygon
     fill="none"
     points="484,241 472,248 472,234"
     stroke="#000000"
     stroke-width="1"
     id="polygon240" />
  <text
     font-family="Lucida Grande"
     font-size="13"
     x="213"
     y="236"
     id="text242">
retireReservation(reservation)</text>
  <line
     fill="#000000"
     stroke="#000000"
     stroke-width="1"
     x1="484"
     x2="479"
     y1="337"
     y2="337"
     id="line244" />
  <line
     fill="#000000"
     stroke="#000000"
     stroke-width="1"
     x1="474"
     x2="469"
     y1="337"
     y2="337"
     id="line246" />
  <line
     fill="#000000"
     stroke="#000000"
     stroke-width="1"
     x1="464"
     x2="459"
     y1="337"
     y2="337"
     id="line248" />
  <line
     fill="#000000"
     stroke="#000000"
     stroke-width="1"
     x1="454"
     x2="449"
     y1="337"
     y2="337"
     id="line250" />
  <line
     fill="#000000"
     stroke="#000000"
     stroke-width="1"
     x1="444"
     x2="439"
     y1="337"
     y2="337"
     id="line252" />
  <line
     fill="#000000"
     stroke="#000000"
     stroke-width="1"
     x1="434"
     x2="429"
     y1="337"
     y2="337"
     id="line254" />
  <line
     fill="#000000"
     stroke="#000000"
     stroke-width="1"
     x1="424"
     x2="419"
     y1="337"
     y2="337"
     id="line256" />
  <line
     fill="#000000"
     stroke="#000000"
     stroke-width="1"
     x1="414"
     x2="409"
     y1="337"
     y2="337"
     id="line258" />
  <line
     fill="#000000"
     stroke="#000000"
     stroke-width="1"
     x1="404"
     x2="399"
     y1="337"
     y2="337"
     id="line260" />
  <line
     fill="#000000"
     stroke="#000000"
     stroke-width="1"
     x1="394"
     x2="389"
     y1="337"
     y2="337"
     id="line262" />
  <line
     fill="#000000"
     stroke="#000000"
     stroke-width="1"
     x1="384"
     x2="379"
     y1="337"
     y2="337"
     id="line264" />
  <line
     fill="#000000"
     stroke="#000000"
     stroke-width="1"
     x1="374"
     x2="369"
     y1="337"
     y2="337"
     id="line266" />
  <line
     fill="#000000"
     stroke="#000000"
     stroke-width="1"
     x1="364"
     x2="359"
     y1="337"
     y2="337"
     id="line268" />
  <line
     fill="#000000"
     stroke="#000000"
     stroke-width="1"
     x1="354"
     x2="349"
     y1="337"
     y2="337"
     id="line270" />
  <line
     fill="#000000"
     stroke="#000000"
     stroke-width="1"
     x1="344"
     x2="339"
     y1="337"
     y2="337"
     id="line272" />
  <line
     fill="#000000"
     stroke="#000000"
     stroke-width="1"
     x1="334"
     x2="329"
     y1="337"
     y2="337"
     id="line274" />
  <line
     fill="#000000"
     stroke="#000000"
     stroke-width="1"
     x1="324"
     x2="319"
     y1="337"
     y2="337"
     id="line276" />
  <line
     fill="#000000"
     stroke="#000000"
     stroke-width="1"
     x1="314"
     x2="309"
     y1="337"
     y2="337"
     id="line278" />
  <line
     fill="#000000"
     stroke="#000000"
     stroke-width="1"
     x1="304"
     x2="299"
     y1="337"
     y2="337"
     id="line280" />
  <line
     fill="#000000"
     stroke="#000000"
     stroke-width="1"
     x1="294"
     x2="289"
     y1="337"
     y2="337"
     id="line282" />
  <line
     fill="#000000"
     stroke="#000000"
     stroke-width="1"
     x1="284"
     x2="279"
     y1="337"
     y2="337"
     id="line284" />
  <line
     fill="#000000"
     stroke="#000000"
     stroke-width="1"
     x1="274"
     x2="269"
     y1="337"
     y2="337"
     id="line286" />
  <line
     fill="#000000"
     stroke="#000000"
     stroke-width="1"
     x1="264"
     x2="259"
     y1="337"
     y2="337"
     id="line288" />
  <line
     fill="#000000"
     stroke="#000000"
     stroke-width="1"
     x1="254"
     x2="249"
     y1="337"
     y2="337"
     id="line290" />
  <line
     fill="#000000"
     stroke="#000000"
     stroke-width="1"
     x1="244"
     x2="239"
     y1="337"
     y2="337"
     id="line292" />
  <line
     fill="#000000"
     stroke="#000000"
     stroke-width="1"
     x1="234"
     x2="229"
     y1="337"
     y2="337"
     id="line294" />
  <line
     fill="#000000"
     stroke="#000000"
     stroke-width="1"
     x1="224"
     x2="219"
     y1="337"
     y2="337"
     id="line296" />
  <line
     fill="#000000"
     stroke="#000000"
     stroke-width="1"
     x1="214"
     x2="209"
     y1="337"
     y2="337"
     id="line298" />
  <line
     fill="#000000"
     stroke="#000000"
     stroke-width="1"
     x1="204"
     x2="199"
     y1="337"
     y2="337"
     id="line300" />
  <line
     fill="#000000"
     stroke="#000000"
     stroke-width="1"
     x1="194"
     x2="189"
     y1="337"
     y2="337"
     id="line302" />
  <line
     fill="#000000"
     stroke="#000000"
     stroke-width="1"
     x1="184"
     x2="179"
     y1="337"
     y2="337"
     id="line304" />
  <line
     fill="#000000"
     stroke="#000000"
     stroke-width="1"
     x1="174"
     x2="169"
     y1="337"
     y2="337"
     id="line306" />
  <line
     fill="#000000"
     stroke="#000000"
     stroke-width="1"
     x1="164"
     x2="159"
     y1="337"
     y2="337"
     id="line308" />
  <line
     fill="#000000"
     stroke="#000000"
     stroke-width="1"
     x1="154"
     x2="149"
     y1="337"
     y2="337"
     id="line310" />
  <line
     fill="#000000"
     stroke="#000000"
     stroke-width="1"
     x1="144"
     x2="139"
     y1="337"
     y2="337"
     id="line312" />
  <line
     fill="#000000"
     stroke="#000000"
     stroke-width="1"
     x1="134"
     x2="129"
     y1="337"
     y2="337"
     id="line314" />
  <line
     fill="#000000"
     stroke="#000000"
     stroke-width="1"
     x1="124"
     x2="119"
     y1="337"
     y2="337"
     id="line316" />
  <line
     fill="#000000"
     stroke="#000000"
     stroke-width="1"
     x1="114"
     x2="109"
     y1="337"
     y2="337"
     id="line318" />
  <line
     fill="#000000"
     stroke="#000000"
     stroke-width="1"
     x1="104"
     x2="99"
     y1="337"
     y2="337"
     id="line320" />
  <line
     fill="#000000"
     stroke="#000000"
     stroke-width="1"
     x1="94"
     x2="92"
     y1="337"
     y2="337"
     id="line322" />
  <line
     fill="#000000"
     stroke="#000000"
     stroke-width="1"
     x1="104"
     x2="92"
     y1="330"
     y2="337"
     id="line324" />
  <line
     fill="#000000"
     stroke="#000000"
     stroke-width="1"
     x1="104"
     x2="92"
     y1="344"
     y2="337"
     id="line326" />
  <text
     font-family="Lucida Grande"
     font-size="13"
     x="216"
     y="332"
     id="text328">
notify()</text>
  <polyline
     fill="none"
     points="92,297 484,297"
     stroke="#000000"
     stroke-width="1"
     id="polyline330" />
  <line
     fill="#000000"
     stroke="#000000"
     stroke-width="1"
     x1="472"
     x2="484"
     y1="304"
     y2="297"
     id="line332" />
  <line
     fill="#000000"
     stroke="#000000"
     stroke-width="1"
     x1="472"
     x2="484"
     y1="290"
     y2="297"
     id="line334" />
  <text
     font-family="Lucida Grande"
     font-size="13"
     x="148"
     y="292"
     id="text336">
tutorCredentials (tutorName, tutorPassword)</text>
  <g
     transform="matrix(0.92369764,0,0,0.92369764,-11.489103,133.34145)"
     id="g5621">
    <g
       id="g4228">
      <g
         id="g4222"
         transform="matrix(0.96581898,0,0,1,1.8763752,-6)">
        <rect
           id="rect136-6"
           y="137.27121"
           x="54.895237"
           width="547.98126"
           height="68.747635"
           style="fill:none;stroke:#000000;stroke-width:1.01754153" />
        <g
           id="g4218">
          <path
             style="fill:#ffffff;stroke:#000000;stroke-width:0.91578734;stroke-miterlimit:4"
             d="m 123.84761,143.79644 0,-6.42144 -68.41011,0 0,25.20416 50.01172,0 18.39839,-18.78272 z"
             id="path4188"
             inkscape:connector-curvature="0" />
          <text
             style="font-size:13px;font-family:Lucida Grande"
             font-size="13"
             x="77.310432"
             y="154.1115"
             id="text138-5">Opt</text>
        </g>
      </g>
      <text
         style="font-size:8.93027401px;font-family:Lucida Grande"
         font-size="13"
         x="58.07444"
         y="166.37183"
         id="text138-2">[isMinorenne == true]</text>
    </g>
  </g>
</svg>
